<svg xmlns="http://www.w3.org/2000/svg" width="451.66" height="313.104" viewBox="0 0 451.66 313.104">
  <g id="Grupo_7557" data-name="Grupo 7557" transform="translate(-448.403 -307.25)">
    <g id="Grupo_7546" data-name="Grupo 7546" transform="translate(448.403 349.184)">
      <rect id="Rectángulo_1730" data-name="Rectángulo 1730" width="139.86" height="229.238" transform="translate(0 0)" fill="#99bbeb"/>
      <rect id="Rectángulo_1731" data-name="Rectángulo 1731" width="127.937" height="215.83" transform="translate(7.325 4.671)" fill="#fff"/>
      <g id="Grupo_7545" data-name="Grupo 7545" transform="translate(14.739 13.444)">
        <g id="Grupo_7542" data-name="Grupo 7542" transform="translate(30.853 13.251)">
          <path id="Trazado_18612" data-name="Trazado 18612" d="M590.122,692.308c4.815-10.359,12.965-13.677,26.348-13.677,15.935,0,24.21,5.773,26.555,14.178C614.489,693.2,590.122,692.308,590.122,692.308Z" transform="translate(-590.122 -627.784)" fill="#9bd6e8"/>
          <path id="Trazado_18613" data-name="Trazado 18613" d="M612.265,521.04c-6.746,1.893-6.45,5.684-8.7,9.2s-7.134,5.863-7.721,8.209,1.5,7.232-.977,9.968-3.323,4.1-2.346,6.841,3.127,7.036,3.323,7.623,2.932,4.691,6.255,5.278,9.577,1.564,12.7,2.932,13.182-1.752,18.764-1.556,9.382-3.917,8.991-6.653,4.116-8.209,4.1-12.9c-.012-5.037-5.864-8.8-7.427-12.118s.2-9.186-5.668-12.659c-3.706-2.2-6.255-2-9.187-2.977S616.565,519.833,612.265,521.04Z" transform="translate(-591.482 -520.576)" fill="#3a384d"/>
          <path id="Trazado_18614" data-name="Trazado 18614" d="M662.935,633.454c-1.526,2.252-2.644,2.345-4.3,0-1.316-1.865-3.909-6.1-3.909-8.252V603.744a3.92,3.92,0,0,1,3.909-3.909h4.3a3.921,3.921,0,0,1,3.909,3.909V625.2C666.844,627.352,664.3,631.434,662.935,633.454Z" transform="translate(-633.943 -574.337)" fill="#f09959"/>
          <path id="Trazado_18615" data-name="Trazado 18615" d="M662.935,599.835h-4.3a3.92,3.92,0,0,0-3.909,3.909v19.145c4.828,1.537,9.235-1.518,12.118-4.961V603.744A3.921,3.921,0,0,0,662.935,599.835Z" transform="translate(-633.943 -574.337)" fill="#e38540"/>
          <ellipse id="Elipse_708" data-name="Elipse 708" cx="12.998" cy="17.711" rx="12.998" ry="17.711" transform="translate(13.845 8.005)" fill="#f09959"/>
          <path id="Trazado_18616" data-name="Trazado 18616" d="M649.536,541.957c-8.209,13.877-20.328,12.509-20.328,12.509s.293-18.373,9.919-19.35,15.295,2.886,17.249,9.262,0,10.577,0,10.577a16.874,16.874,0,0,1-4.691-6.352A45.63,45.63,0,0,1,649.536,541.957Z" transform="translate(-616.634 -530.336)" fill="#3a384d"/>
          <ellipse id="Elipse_709" data-name="Elipse 709" cx="3.42" cy="5.131" rx="3.42" ry="5.131" transform="translate(6.795 23.743) rotate(-25.405)" fill="#f09959"/>
          <path id="Trazado_18617" data-name="Trazado 18617" d="M706.52,592.5c-1.216,2.559-.818,5.291.889,6.1s4.075-.608,5.291-3.167.818-5.292-.889-6.1S707.736,589.944,706.52,592.5Z" transform="translate(-668.597 -567.061)" fill="#f09959"/>
          <path id="Trazado_18618" data-name="Trazado 18618" d="M668.144,630.368s-2.188,2.836-4.886,2.836-4.886-2.836-4.886-2.836Z" transform="translate(-636.416 -595.047)" fill="#fff"/>
        </g>
        <path id="Trazado_18619" data-name="Trazado 18619" d="M644.4,792.384H611.577a3.817,3.817,0,0,1,0-7.634H644.4a3.817,3.817,0,0,1,0,7.634Z" transform="translate(-571.233 -686.513)" fill="#99bbeb"/>
        <path id="Trazado_18620" data-name="Trazado 18620" d="M637.739,828.835H592.9a3.817,3.817,0,0,1,0-7.633h44.844a3.817,3.817,0,1,1,0,7.633Z" transform="translate(-558.561 -711.238)" fill="#99bbeb"/>
        <path id="Trazado_18621" data-name="Trazado 18621" d="M605.515,966.687H496.432a2.215,2.215,0,1,1,0-4.429H605.515a2.215,2.215,0,0,1,0,4.429Z" transform="translate(-494.217 -806.915)" fill="#99bbeb"/>
        <path id="Trazado_18622" data-name="Trazado 18622" d="M605.515,998.683H496.432a2.215,2.215,0,1,1,0-4.43H605.515a2.215,2.215,0,0,1,0,4.43Z" transform="translate(-494.217 -828.618)" fill="#99bbeb"/>
        <path id="Trazado_18623" data-name="Trazado 18623" d="M605.515,1030.679H496.432a2.215,2.215,0,1,1,0-4.43H605.515a2.215,2.215,0,0,1,0,4.43Z" transform="translate(-494.217 -850.321)" fill="#99bbeb"/>
        <g id="Grupo_7543" data-name="Grupo 7543" transform="translate(13.517)">
          <path id="Trazado_18624" data-name="Trazado 18624" d="M618.759,559.708H540.189a3.959,3.959,0,0,1-3.954-3.954V483.341a3.959,3.959,0,0,1,3.954-3.954h78.569a3.959,3.959,0,0,1,3.954,3.954v72.413A3.959,3.959,0,0,1,618.759,559.708Zm-78.569-77.1a.747.747,0,0,0-.737.737v72.413a.747.747,0,0,0,.737.737h78.569a.747.747,0,0,0,.737-.737V483.341a.747.747,0,0,0-.737-.737Z" transform="translate(-536.235 -479.387)" fill="#99bbeb"/>
        </g>
        <g id="Grupo_7544" data-name="Grupo 7544" transform="translate(21.448 127.554)">
          <path id="Trazado_18625" data-name="Trazado 18625" d="M568.248,875.882l2.275,4.609,5.086.739-3.681,3.588.869,5.066-4.549-2.392-4.549,2.392.869-5.066-3.68-3.588,5.086-.739Z" transform="translate(-560.887 -875.882)" fill="#99bbeb"/>
          <path id="Trazado_18626" data-name="Trazado 18626" d="M626.162,875.882l2.275,4.609,5.087.739-3.681,3.588.869,5.066-4.549-2.392-4.549,2.392.869-5.066L618.8,881.23l5.086-.739Z" transform="translate(-600.17 -875.882)" fill="#99bbeb"/>
          <path id="Trazado_18627" data-name="Trazado 18627" d="M684.077,875.882l2.275,4.609,5.086.739-3.681,3.588.869,5.066-4.549-2.392-4.549,2.392.869-5.066-3.681-3.588,5.086-.739Z" transform="translate(-639.453 -875.882)" fill="#99bbeb"/>
          <path id="Trazado_18628" data-name="Trazado 18628" d="M741.991,875.882l2.275,4.609,5.087.739-3.681,3.588.869,5.066-4.549-2.392-4.549,2.392.869-5.066-3.68-3.588,5.086-.739Z" transform="translate(-678.736 -875.882)" fill="#99bbeb"/>
        </g>
      </g>
    </g>
    <g id="Grupo_7551" data-name="Grupo 7551" transform="translate(760.204 349.184)">
      <rect id="Rectángulo_1732" data-name="Rectángulo 1732" width="139.859" height="229.238" transform="translate(0 0)" fill="#99bbeb"/>
      <rect id="Rectángulo_1733" data-name="Rectángulo 1733" width="127.937" height="215.83" transform="translate(7.324 4.671)" fill="#fff"/>
      <g id="Grupo_7550" data-name="Grupo 7550" transform="translate(14.739 13.444)">
        <g id="Grupo_7547" data-name="Grupo 7547" transform="translate(30.853 14.629)">
          <path id="Trazado_18629" data-name="Trazado 18629" d="M1578.225,596.877c0,10.268,6.182,26.835,20.766,26.3s17.809-16.323,18.374-20.78S1578.225,596.877,1578.225,596.877Z" transform="translate(-1572.148 -573.709)" fill="#7a4e34"/>
          <path id="Trazado_18630" data-name="Trazado 18630" d="M1559.335,692.308c4.815-10.359,12.965-13.677,26.349-13.677,15.935,0,24.209,5.773,26.555,14.178C1583.7,693.2,1559.335,692.308,1559.335,692.308Z" transform="translate(-1559.335 -629.162)" fill="#d54a41"/>
          <path id="Trazado_18631" data-name="Trazado 18631" d="M1632.149,633.454c-1.526,2.252-2.644,2.345-4.3,0-1.316-1.865-3.909-6.1-3.909-8.252V603.744a3.92,3.92,0,0,1,3.909-3.909h4.3a3.92,3.92,0,0,1,3.909,3.909V625.2C1636.058,627.352,1633.517,631.434,1632.149,633.454Z" transform="translate(-1603.156 -575.715)" fill="#f09959"/>
          <path id="Trazado_18632" data-name="Trazado 18632" d="M1632.149,599.835h-4.3a3.92,3.92,0,0,0-3.909,3.909v19.145c4.828,1.537,9.234-1.518,12.118-4.961V603.744A3.92,3.92,0,0,0,1632.149,599.835Z" transform="translate(-1603.156 -575.715)" fill="#e38540"/>
          <ellipse id="Elipse_710" data-name="Elipse 710" cx="12.998" cy="17.711" rx="12.998" ry="17.711" transform="translate(13.845 6.627)" fill="#f09959"/>
          <path id="Trazado_18633" data-name="Trazado 18633" d="M1606.042,535.736c-1.545,5.446-4.93,5.383-9.649,7.172s-6.975,3.588-8.52,7.073c-1.969,4.443.894,17.4.894,17.4s-11.95-8.943-10.568-23.007,9.674-19.511,17.479-19.511,10.772,4.756,10.772,4.756,4.157.017,8.089,4.674c5.284,6.26,3.658,21.462,0,26.909s-6.1,7.154-6.016,6.91,3.414-12.752,1.626-20.486A49.408,49.408,0,0,0,1606.042,535.736Z" transform="translate(-1572.055 -524.86)" fill="#7a4e34"/>
          <path id="Trazado_18634" data-name="Trazado 18634" d="M1637.358,630.368s-2.187,2.836-4.886,2.836-4.886-2.836-4.886-2.836Z" transform="translate(-1605.628 -596.426)" fill="#fff"/>
        </g>
        <path id="Trazado_18635" data-name="Trazado 18635" d="M1613.615,792.384h-32.824a3.817,3.817,0,0,1,0-7.634h32.824a3.817,3.817,0,0,1,0,7.634Z" transform="translate(-1540.447 -686.513)" fill="#99bbeb"/>
        <path id="Trazado_18636" data-name="Trazado 18636" d="M1606.953,828.835h-44.844a3.817,3.817,0,0,1,0-7.633h44.844a3.817,3.817,0,0,1,0,7.633Z" transform="translate(-1527.775 -711.238)" fill="#99bbeb"/>
        <path id="Trazado_18637" data-name="Trazado 18637" d="M1574.729,966.687H1465.646a2.215,2.215,0,0,1,0-4.429h109.083a2.215,2.215,0,0,1,0,4.429Z" transform="translate(-1463.431 -806.915)" fill="#99bbeb"/>
        <path id="Trazado_18638" data-name="Trazado 18638" d="M1574.729,998.683H1465.646a2.215,2.215,0,0,1,0-4.43h109.083a2.215,2.215,0,0,1,0,4.43Z" transform="translate(-1463.431 -828.618)" fill="#99bbeb"/>
        <path id="Trazado_18639" data-name="Trazado 18639" d="M1574.729,1030.679H1465.646a2.215,2.215,0,0,1,0-4.43h109.083a2.215,2.215,0,0,1,0,4.43Z" transform="translate(-1463.431 -850.321)" fill="#99bbeb"/>
        <g id="Grupo_7548" data-name="Grupo 7548" transform="translate(13.517)">
          <path id="Trazado_18640" data-name="Trazado 18640" d="M1587.973,559.708H1509.4a3.959,3.959,0,0,1-3.954-3.954V483.341a3.959,3.959,0,0,1,3.954-3.954h78.57a3.959,3.959,0,0,1,3.954,3.954v72.413A3.958,3.958,0,0,1,1587.973,559.708Zm-78.57-77.1a.747.747,0,0,0-.737.737v72.413a.747.747,0,0,0,.737.737h78.57a.747.747,0,0,0,.737-.737V483.341a.747.747,0,0,0-.737-.737Z" transform="translate(-1505.449 -479.387)" fill="#99bbeb"/>
        </g>
        <g id="Grupo_7549" data-name="Grupo 7549" transform="translate(21.448 127.554)">
          <path id="Trazado_18641" data-name="Trazado 18641" d="M1537.462,875.882l2.275,4.609,5.087.739-3.681,3.588.869,5.066-4.549-2.392-4.549,2.392.869-5.066-3.68-3.588,5.086-.739Z" transform="translate(-1530.101 -875.882)" fill="#99bbeb"/>
          <path id="Trazado_18642" data-name="Trazado 18642" d="M1595.376,875.882l2.275,4.609,5.086.739-3.681,3.588.869,5.066-4.549-2.392-4.549,2.392.869-5.066-3.68-3.588,5.086-.739Z" transform="translate(-1569.384 -875.882)" fill="#99bbeb"/>
          <path id="Trazado_18643" data-name="Trazado 18643" d="M1653.29,875.882l2.275,4.609,5.087.739-3.681,3.588.869,5.066-4.549-2.392-4.549,2.392.869-5.066-3.681-3.588,5.087-.739Z" transform="translate(-1608.667 -875.882)" fill="#99bbeb"/>
          <path id="Trazado_18644" data-name="Trazado 18644" d="M1711.2,875.882l2.275,4.609,5.086.739-3.68,3.588.869,5.066-4.549-2.392-4.549,2.392.869-5.066-3.681-3.588,5.086-.739Z" transform="translate(-1647.95 -875.882)" fill="#99bbeb"/>
        </g>
      </g>
    </g>
    <path id="Trazado_18645" data-name="Trazado 18645" d="M1001.113,666.335H780.393l15.613-226.093h213.065Z" transform="translate(-225.187 -90.207)" fill="#99bbeb" opacity="0.2"/>
    <g id="Grupo_7556" data-name="Grupo 7556" transform="translate(578.391 307.25)">
      <rect id="Rectángulo_1734" data-name="Rectángulo 1734" width="191.027" height="313.104" transform="translate(0)" fill="#99bbeb"/>
      <rect id="Rectángulo_1735" data-name="Rectángulo 1735" width="174.742" height="294.79" transform="translate(10.004 6.38)" fill="#fff"/>
      <g id="Grupo_7555" data-name="Grupo 7555" transform="translate(20.131 18.951)">
        <g id="Grupo_7552" data-name="Grupo 7552" transform="translate(39.933 13.62)">
          <path id="Trazado_18646" data-name="Trazado 18646" d="M1097.03,444.224c-.122-.366-3.181-17.925-3.547-24.754s10.975-7.8,10.975-7.8,9.268-5,15.975-2.439a27.036,27.036,0,0,1,14.32,12.235c3.049,5.366-2.682,22.087-2.682,22.087Z" transform="translate(-1076.004 -408.497)" fill="#2e2d3d"/>
          <path id="Trazado_18647" data-name="Trazado 18647" d="M1039.169,639.847c-.042-.288.783-7.2.813-7.479,1.544-14.552,19.481-18.644,37.381-18.644,21.03,0,35.3,3.849,37.573,18.97.067.443,1.28,7.371,1.219,7.837C1077.178,641.065,1039.169,639.847,1039.169,639.847Z" transform="translate(-1039.167 -547.701)" fill="#d5e1e8"/>
          <path id="Trazado_18648" data-name="Trazado 18648" d="M1140.283,552.019c-2.084,3.076-3.611,3.2-5.873,0-1.8-2.547-7.8-8.358-7.8-11.295l2.465-29.284a5.355,5.355,0,0,1,5.339-5.339h5.873a5.355,5.355,0,0,1,5.339,5.339l1.145,29.284C1146.767,543.661,1142.152,549.26,1140.283,552.019Z" transform="translate(-1098.476 -474.701)" fill="#f09959"/>
          <path id="Trazado_18649" data-name="Trazado 18649" d="M1140.969,506.1H1135.1a5.355,5.355,0,0,0-5.339,5.339l-2.139,25.979c6.594,2.1,15.5-2.168,19.438-6.87l-.747-19.109A5.355,5.355,0,0,0,1140.969,506.1Z" transform="translate(-1099.162 -474.701)" fill="#e38540"/>
          <path id="Trazado_18650" data-name="Trazado 18650" d="M1097.339,619.175l9.415,17.4s5.04-4.146,5.528-3.333-.894,11.072-.894,11.072,11.219.153,11.706-.335-2.276-11.144-1.138-11.144,4.561,3.089,4.561,3.089l10.513-16.753-2.311-.563-17.225,9.268-18.423-9.064Z" transform="translate(-1078.625 -551.017)" fill="#bdccd4"/>
          <path id="Trazado_18651" data-name="Trazado 18651" d="M1130.81,639.877l6.993,4.692-2.167,12.454,9.43-.526-2.355-11.328,5.8-5.292-2.723-2.566h-12.251Z" transform="translate(-1101.328 -563.701)" fill="#d54a41"/>
          <path id="Trazado_18652" data-name="Trazado 18652" d="M1109.887,592.133l-8.649,8.23s8.811,15.671,9.3,15.671,7.477-8.64,7.477-8.64l4.475-.078,7.07,7.417,8.216-14.533-8.378-8.88s-7.154,13.82-8.455,14.145-1.31.488-2.362-.325S1109.887,592.133,1109.887,592.133Z" transform="translate(-1081.27 -532.505)" fill="#d5e1e8"/>
          <ellipse id="Elipse_711" data-name="Elipse 711" cx="17.753" cy="24.19" rx="17.753" ry="24.19" transform="translate(21.117 7.506)" fill="#f09959"/>
          <path id="Trazado_18653" data-name="Trazado 18653" d="M1090.634,496.086c1.66,3.5,1.117,7.227-1.213,8.334s-5.566-.83-7.227-4.326-1.117-7.228,1.214-8.335S1088.973,492.59,1090.634,496.086Z" transform="translate(-1067.699 -464.763)" fill="#f09959"/>
          <path id="Trazado_18654" data-name="Trazado 18654" d="M1205.01,496.086c-1.661,3.5-1.117,7.227,1.214,8.334s5.566-.83,7.226-4.326,1.117-7.228-1.213-8.335S1206.67,492.59,1205.01,496.086Z" transform="translate(-1151.005 -464.763)" fill="#f09959"/>
          <path id="Trazado_18655" data-name="Trazado 18655" d="M1151.262,537.875s-3.526,5.712-7.876,5.712-7.876-5.712-7.876-5.712Z" transform="translate(-1104.516 -496.253)" fill="#fff"/>
          <path id="Trazado_18656" data-name="Trazado 18656" d="M1111.955,434.909c7.317-5.122,10.609-4.268,16.1,4.146s12.072,8.562,12.072,8.562l.854-8.725s-8.174-15.812-19.147-13.739-17.213,11.95-17.213,11.95-.534,18.514,1,19.145,1.707-5.975,2.8-7.317-1.1-7.683.366-10.609S1111.955,434.909,1111.955,434.909Z" transform="translate(-1083.501 -419.668)" fill="#2e2d3d"/>
          <path id="Trazado_18657" data-name="Trazado 18657" d="M1200.773,485.439c2.554,2.8,1.585,13.9,2.927,13.779s1.829-10.609,1.463-11.706S1200.773,485.439,1200.773,485.439Z" transform="translate(-1148.784 -460.686)" fill="#2e2d3d"/>
        </g>
        <path id="Trazado_18658" data-name="Trazado 18658" d="M1099.818,791.835h-81.546a5.213,5.213,0,0,1,0-10.426h81.546a5.213,5.213,0,1,1,0,10.426Z" transform="translate(-981.525 -647.821)" fill="#99bbeb"/>
        <path id="Trazado_18659" data-name="Trazado 18659" d="M1111.066,841.623h-61.25a5.213,5.213,0,0,1,0-10.426h61.25a5.213,5.213,0,0,1,0,10.426Z" transform="translate(-1002.921 -681.592)" fill="#99bbeb"/>
        <path id="Trazado_18660" data-name="Trazado 18660" d="M1067.052,1029.906H918.062a3.025,3.025,0,0,1,0-6.05h148.99a3.025,3.025,0,1,1,0,6.05Z" transform="translate(-915.037 -812.272)" fill="#99bbeb"/>
        <path id="Trazado_18661" data-name="Trazado 18661" d="M1067.052,1073.608H918.062a3.025,3.025,0,0,1,0-6.05h148.99a3.025,3.025,0,1,1,0,6.05Z" transform="translate(-915.037 -841.915)" fill="#99bbeb"/>
        <path id="Trazado_18662" data-name="Trazado 18662" d="M1067.052,1117.309H918.062a3.025,3.025,0,0,1,0-6.05h148.99a3.025,3.025,0,1,1,0,6.05Z" transform="translate(-915.037 -871.557)" fill="#99bbeb"/>
        <g id="Grupo_7553" data-name="Grupo 7553" transform="translate(19.051)">
          <path id="Trazado_18663" data-name="Trazado 18663" d="M1086.382,474.689H979.068a4.818,4.818,0,0,1-4.812-4.812v-98.9a4.818,4.818,0,0,1,4.812-4.812h107.313a4.818,4.818,0,0,1,4.813,4.812v98.9A4.818,4.818,0,0,1,1086.382,474.689ZM979.068,369.377a1.6,1.6,0,0,0-1.6,1.6v98.9a1.6,1.6,0,0,0,1.6,1.595h107.313a1.6,1.6,0,0,0,1.6-1.595v-98.9a1.6,1.6,0,0,0-1.6-1.6Z" transform="translate(-974.256 -366.16)" fill="#99bbeb"/>
        </g>
        <g id="Grupo_7554" data-name="Grupo 7554" transform="translate(16.369 173.631)">
          <path id="Trazado_18664" data-name="Trazado 18664" d="M975.972,905.881l3.107,6.3,6.947,1.009-5.027,4.9,1.187,6.919-6.214-3.267-6.214,3.267,1.187-6.919-5.027-4.9,6.947-1.009Z" transform="translate(-965.918 -905.881)" fill="#99bbeb"/>
          <path id="Trazado_18665" data-name="Trazado 18665" d="M1055.074,905.881l3.107,6.3,6.947,1.009-5.027,4.9,1.187,6.919-6.214-3.267-6.214,3.267,1.187-6.919-5.027-4.9,6.947-1.009Z" transform="translate(-1019.573 -905.881)" fill="#99bbeb"/>
          <path id="Trazado_18666" data-name="Trazado 18666" d="M1134.176,905.881l3.107,6.3,6.947,1.009-5.027,4.9,1.187,6.919-6.214-3.267-6.214,3.267,1.187-6.919-5.027-4.9,6.947-1.009Z" transform="translate(-1073.227 -905.881)" fill="#99bbeb"/>
          <path id="Trazado_18667" data-name="Trazado 18667" d="M1213.278,905.881l3.107,6.3,6.947,1.009-5.027,4.9,1.187,6.919-6.214-3.267-6.214,3.267,1.187-6.919-5.027-4.9,6.947-1.009Z" transform="translate(-1126.881 -905.881)" fill="#99bbeb"/>
          <path id="Trazado_18668" data-name="Trazado 18668" d="M1293.637,905.881l3.107,6.3,6.947,1.009-5.027,4.9,1.187,6.919-6.214-3.267-6.214,3.267,1.187-6.919-5.027-4.9,6.947-1.009Z" transform="translate(-1181.389 -905.881)" fill="#99bbeb"/>
        </g>
      </g>
    </g>
  </g>
</svg>
