<svg xmlns="http://www.w3.org/2000/svg" xmlns:xlink="http://www.w3.org/1999/xlink" width="493.184" height="206.725" viewBox="0 0 493.184 206.725">
  <defs>
    <clipPath id="clip-path">
      <path id="Trazado_19424" data-name="Trazado 19424" d="M1210.07,84.235h137.342l.057,187.737h-137.4Z" transform="translate(-1210.07 -84.235)" fill="none" clip-rule="evenodd"/>
    </clipPath>
    <linearGradient id="linear-gradient" x1="0.503" y1="1.519" x2="0.499" y2="0.215" gradientUnits="objectBoundingBox">
      <stop offset="0" stop-color="#002990"/>
      <stop offset="0.225" stop-color="#0a4aad"/>
      <stop offset="0.576" stop-color="#1879d7"/>
      <stop offset="0.846" stop-color="#2096f1"/>
      <stop offset="1" stop-color="#24a1fb"/>
    </linearGradient>
    <clipPath id="clip-path-2">
      <path id="Trazado_19426" data-name="Trazado 19426" d="M1196.1,95.049h104.935l32.464,14.444V282.786H1196.1Z" transform="translate(-1196.1 -95.049)" fill="none"/>
    </clipPath>
    <linearGradient id="linear-gradient-2" x1="0.495" y1="1.001" x2="0.506" y2="-0.032" gradientUnits="objectBoundingBox">
      <stop offset="0" stop-color="#ea6200"/>
      <stop offset="1" stop-color="#ffc045"/>
    </linearGradient>
    <clipPath id="clip-path-3">
      <path id="Trazado_19443" data-name="Trazado 19443" d="M1154.931,292.089c1.9,8.344-.659,28.011-1.61,43.437l.149-.014a2.578,2.578,0,0,0,1.141,1.889c1.023.559,2.805.993,3.409,1.572.437.417,2.106,2.78-3.87,2.623-4.245-.112-5.257-.408-5.712-1.1-.063-.1-3.53-32.427-3.972-35.084-.758,3.388-9.341,32.283-9.339,32.3a7.248,7.248,0,0,0,1.506,2.714c.231.828.786,2.287-3.33,2.251s-3.27-1.076-3.711-1.743c1.827-17.177,4.763-44.856,5.683-49.427l.257-.238c.734-29.4,16.357-21.824,14.95-4.024-.159,2.011,3.741,2.066,4.448,4.84" transform="translate(-1129.592 -271.536)" fill="none" clip-rule="evenodd"/>
    </clipPath>
    <linearGradient id="linear-gradient-3" x1="0.407" y1="0.873" x2="0.678" y2="-0.215" gradientUnits="objectBoundingBox">
      <stop offset="0" stop-color="#031542"/>
      <stop offset="0.108" stop-color="#041c4b"/>
      <stop offset="0.291" stop-color="#093065"/>
      <stop offset="0.525" stop-color="#115090"/>
      <stop offset="0.798" stop-color="#1b7ccb"/>
      <stop offset="1" stop-color="#24a1fb"/>
    </linearGradient>
    <clipPath id="clip-path-4">
      <path id="Trazado_19444" data-name="Trazado 19444" d="M1155.789,267.366c1.8,3.943,6.92,8.671,12.063,9.437,4.6.686,15.312-6.108,14.82-7.362a2.19,2.19,0,0,0-3.484-.5,84,84,0,0,1-11.815,1.725c-.594-.042-7-8.668-10.646-9.992-.433-.278-2.2,4.787-.937,6.693" transform="translate(-1155.341 -260.662)" fill="none" clip-rule="evenodd"/>
    </clipPath>
    <linearGradient id="linear-gradient-4" x1="0.49" y1="1.439" x2="0.504" y2="0.164" xlink:href="#linear-gradient"/>
    <clipPath id="clip-path-5">
      <path id="Trazado_19445" data-name="Trazado 19445" d="M1133.6,262.967c-1.713,2.554,3.79,13.219,2.361,26.193,8.011,1.376,15.337.765,20.121-.758-.224-5.287-.238-23.639-6-28.069-5.7-1.6-14.139-.864-16.486,2.635" transform="translate(-1133.262 -259.528)" fill="none" clip-rule="evenodd"/>
    </clipPath>
    <linearGradient id="linear-gradient-5" x1="0.551" y1="1.461" x2="0.483" y2="0.176" xlink:href="#linear-gradient"/>
    <clipPath id="clip-path-6">
      <path id="Trazado_19449" data-name="Trazado 19449" d="M1149.17,244.593c-1.947,1-4.189-.185-5.323,1.149-.561.661-.505,1.615.124,3.087.185.434.433.754-.3.415-.336-.156-.891-.374-1.079-.221a.871.871,0,0,0,.127,1.286c.15.1.434.256.434.256a4.612,4.612,0,0,1-3.673-4.761,8.128,8.128,0,0,1,.206-1.728,1.893,1.893,0,0,1-.083-.556,1.805,1.805,0,0,1,1.246-1.742,1.757,1.757,0,0,1,1.708-1.52,1.667,1.667,0,0,1,.725.166l.087-.022a1.835,1.835,0,0,1,2.808-.432,2.5,2.5,0,0,1,2.005-1.063,2.778,2.778,0,0,1,2.6,2.926,3.034,3.034,0,0,1-1.151,2.428,2.926,2.926,0,0,1-.465.333" transform="translate(-1139.48 -238.906)" fill="none" clip-rule="evenodd"/>
    </clipPath>
    <linearGradient id="linear-gradient-6" x1="0.522" y1="0.903" x2="0.454" y2="-0.334" xlink:href="#linear-gradient-3"/>
    <clipPath id="clip-path-7">
      <path id="Trazado_19452" data-name="Trazado 19452" d="M1135.193,267.67c-.131-2.8-2.1-5.959-4.086-3.583-3.433,4.11-6.9,13.784-5.961,16.6.977,2.83,12.25,4.512,14.684,3.493,1.147-.48,1.478-.584,1.819-1.359a1.044,1.044,0,0,0-.569-1.582c-2.58-1.142-9.526-2.944-9.673-3.648-.508-3.778,3.95-6.445,3.786-9.926" transform="translate(-1124.99 -263.25)" fill="none" clip-rule="evenodd"/>
    </clipPath>
    <linearGradient id="linear-gradient-7" x1="-0.326" y1="1.061" x2="0.663" y2="0.389" xlink:href="#linear-gradient"/>
    <clipPath id="clip-path-8">
      <path id="Trazado_19461" data-name="Trazado 19461" d="M1495.07,84.235h137.342l.057,187.737h-137.4Z" transform="translate(-1495.07 -84.235)" fill="none" clip-rule="evenodd"/>
    </clipPath>
    <clipPath id="clip-path-9">
      <path id="Trazado_19462" data-name="Trazado 19462" d="M1481.1,95.049h104.935l32.464,14.444V282.786H1481.1Z" transform="translate(-1481.1 -95.049)" fill="none"/>
    </clipPath>
    <clipPath id="clip-path-10">
      <path id="Trazado_19482" data-name="Trazado 19482" d="M1720.072,195.205a9.693,9.693,0,0,1-.574,3.13,9.027,9.027,0,0,0,.036,5.566c.542,1.843-1.056,5.039-1.446,5.169a45.809,45.809,0,0,1-6.463.954c-1.042-.087-5.856-5.726-5.856-5.726l.52-4.944Z" transform="translate(-1705.769 -195.205)" fill="none" clip-rule="evenodd"/>
    </clipPath>
    <linearGradient id="linear-gradient-10" x1="0.471" y1="0.911" x2="0.568" y2="-0.459" xlink:href="#linear-gradient-3"/>
    <clipPath id="clip-path-11">
      <path id="Trazado_19485" data-name="Trazado 19485" d="M1722.75,234.493c1.886,6.26,18.843,5.1,15.1,25.725-6.41,1.077-14.822,1.357-19.938.133-2.686-9.466-18.145-2.064-10.166-25.56,1.634-3.818,14.4-2.742,15-.3" transform="translate(-1705.482 -232.285)" fill="none" clip-rule="evenodd"/>
    </clipPath>
    <linearGradient id="linear-gradient-11" x1="0.49" y1="0.907" x2="0.514" y2="-0.087" xlink:href="#linear-gradient-3"/>
    <clipPath id="clip-path-12">
      <path id="Trazado_19495" data-name="Trazado 19495" d="M1712.015,192.151s3.6,1.374,5.119.652c2.628-1.249,2.229-7.179-4.432-7.246-5.659.1-5.3,6.9-12.686,7.411-3.915.271-6.3,3.542-4.981,8.942.01.013.592-1.72,2.038-1.509-2.356,2.721.017,5.913.371,6.465.842-4.129,3.32-7.014,10.358-7.854,2.924-1.106.352-7.336,4.212-6.861" transform="translate(-1694.668 -185.556)" fill="none" clip-rule="evenodd"/>
    </clipPath>
    <linearGradient id="linear-gradient-12" x1="0.431" y1="0.971" x2="0.733" y2="-1.095" xlink:href="#linear-gradient-3"/>
    <clipPath id="clip-path-13">
      <path id="Trazado_19500" data-name="Trazado 19500" d="M1662.034,267.4c-.851-1.771-.2-5.24,1.607-6.019.478-.206,1.821-.854,2.7-.361,3.1,1.737,7.39,12.757,7.875,16.813.4,3.327.872,11.419-.341,15.793-.262.944-1.953.24-2.374-.018-1.059-.369-1.25-7.718-3.363-14.822-1.743-5.858-5.338-9.8-6.1-11.385" transform="translate(-1661.665 -260.841)" fill="none" clip-rule="evenodd"/>
    </clipPath>
    <linearGradient id="linear-gradient-13" x1="0.788" y1="0.599" x2="-0.193" y2="0.262" gradientUnits="objectBoundingBox">
      <stop offset="0" stop-color="#000446"/>
      <stop offset="1" stop-color="#03096b"/>
    </linearGradient>
    <clipPath id="clip-path-14">
      <path id="Trazado_19502" data-name="Trazado 19502" d="M1639.11,290.076c-2.589,4.522,2.974,30.22,3.935,45.8l-.15-.014a2.609,2.609,0,0,1-1.153,1.908c-1.033.564-4.835,1.027-5.446,1.611-.44.422-1.174,2.118,4.863,1.959,4.289-.113,6.358.256,6.818-.44.354-.535.23-3.169.155-4.352h.025c.556-10.651-.557-20.488,1.525-33.011,1.648,7.364,3.512,14.3,4.6,18.2.659,2.352,4.506,12.755,4.183,15.081-.072.517-2.5.751-3.522,1.574-.428.409-1.223,2.12,2.935,2.083s6.163.248,6.609-.426c.417-.63-2.695-18.178-2.938-20.653-1.073-10.935-1.408-23.024-2.843-30.148h0c-.741-29.7-16.524-22.047-15.1-4.066.16,2.031-3.779,2.087-4.493,4.889" transform="translate(-1636.011 -269.314)" fill="none" clip-rule="evenodd"/>
    </clipPath>
    <linearGradient id="linear-gradient-14" x1="0.598" y1="0.87" x2="0.371" y2="0.013" xlink:href="#linear-gradient-3"/>
    <clipPath id="clip-path-15">
      <path id="Trazado_19505" data-name="Trazado 19505" d="M1653.8,250.9a5.507,5.507,0,0,1-2.82-1.537c-.3-.331-.782-3.176-.95-3.234-.639-.224-.944,1.976-.944,1.976-.1-.115-.433-.21-.51-.574-.034-.161.182-1.07.041-1.3-.1-.169-.8-.77-.95-.995-1.233-1.832-2.643-3.812-.977-5.227a1.933,1.933,0,0,1,1.057-.39,3.82,3.82,0,0,0,1.606-.412c4.042-1.91,11.961,1.008,7.785,9.173a5.684,5.684,0,0,1-3.337,2.519" transform="translate(-1645.926 -238.643)" fill="none" clip-rule="evenodd"/>
    </clipPath>
    <linearGradient id="linear-gradient-15" x1="0.477" y1="0.929" x2="0.544" y2="-0.313" xlink:href="#linear-gradient-3"/>
    <clipPath id="clip-path-16">
      <path id="Trazado_19508" data-name="Trazado 19508" d="M1653.6,258.685c2.1,0,5.1.642,6.377,2.133,1.824,2.138,1.374,28.2.816,31.533-1.814,4.984-17.246,3.058-21.923.414l.856-30.1c3.347-5.105,8.586-3.976,13.874-3.976" transform="translate(-1638.874 -258.579)" fill="none" clip-rule="evenodd"/>
    </clipPath>
    <linearGradient id="linear-gradient-16" x1="0.5" y1="0.645" x2="0.5" y2="0.074" xlink:href="#linear-gradient-13"/>
    <clipPath id="clip-path-17">
      <path id="Trazado_19509" data-name="Trazado 19509" d="M1632.268,281.2c-2.588,1.28-10.591-6.934-11.231-9.137s1.932-3.51,1.932-3.51,5.828,4.794,6.821,4.463c.75-.249,2.856-6.674,4.838-9.3,2.092-1.91,6.633,11.424-2.359,17.479" transform="translate(-1620.934 -263.539)" fill="none" clip-rule="evenodd"/>
    </clipPath>
    <linearGradient id="linear-gradient-17" x1="0.396" y1="0.713" x2="0.714" y2="0.062" xlink:href="#linear-gradient-13"/>
  </defs>
  <g id="Grupo_7932" data-name="Grupo 7932" transform="translate(-1103.124 -84.235)">
    <path id="Trazado_19419" data-name="Trazado 19419" d="M1222.285,339.467s8.617-3.92,7.337-9.989-8.283-5.434-7.337-10.226,5.548-12.256,1.074-17.689-11.913-2.176-12.846-10.6c-.752-6.788-3.888-11.6-9.966-10.186-5.626,1.306-9.82,5.661-9.924,16.021-.113,11.03-7.881,7.931-7.977,16.057-.1,8.184,6.422,8.184,8.968,13.675,1.2,2.593-1.933,11.708,7.336,12.937Z" transform="translate(-23.932 -59.077)" fill="#b6e1f8"/>
    <path id="Trazado_19420" data-name="Trazado 19420" d="M1209.047,286.972s-.022.185-.054.547c-.1,1.086-.295,3.732-.295,7.42,0,10.789,1.7,30.5,12.438,46.225a.473.473,0,0,1,.046.084h-1.125c-10.64-15.926-12.3-35.526-12.3-46.309a78.2,78.2,0,0,1,.356-8.074.47.47,0,1,1,.935.108" transform="translate(-31.49 -60.857)" fill="#fff"/>
    <path id="Trazado_19421" data-name="Trazado 19421" d="M1207.543,348.385s1.356-7.492-3.729-10.542-10.277-5.424-9.712-10.338-.823-10.715-8.97-10.824c-5.036-.066-3.145-5.376-8.262-6.434-3.111-.644-5.162,2.6-5.559,5.791-.453,3.631,1.6,7.2-.755,10.157-3.06,3.831-4.3,10.977,2.273,13.01s.716,8.26,9.67,9.18h25.045Z" transform="translate(-19.545 -67.995)" fill="#b6e1f8" fill-rule="evenodd"/>
    <path id="Trazado_19422" data-name="Trazado 19422" d="M1180.741,315.178c.171,4.772,2.289,11.566,5.91,18.047s8.74,12.667,14.857,16.311a.455.455,0,0,1,.193.222h-1.615c-5.894-3.815-10.76-9.815-14.256-16.074-3.678-6.6-5.841-13.468-6.03-18.47a.471.471,0,0,1,.941-.036" transform="translate(-23.076 -69.368)" fill="#fff"/>
    <path id="Trazado_19423" data-name="Trazado 19423" d="M1217.6,92.925h137.342L1355,280.662H1217.6Z" transform="translate(-34.453 -2.615)" fill="#003398" fill-rule="evenodd"/>
    <g id="Grupo_7933" data-name="Grupo 7933" transform="translate(1177.884 84.235)">
      <g id="Grupo_7932-2" data-name="Grupo 7932" transform="translate(0)" clip-path="url(#clip-path)">
        <rect id="Rectángulo_1948" data-name="Rectángulo 1948" width="137.399" height="187.737" fill="url(#linear-gradient)"/>
      </g>
    </g>
    <path id="Trazado_19425" data-name="Trazado 19425" d="M1349.715,356.687c-136.189,0-246.591,3.642-246.591,8.134s110.4,8.135,246.591,8.135,246.592-3.642,246.592-8.135-110.4-8.134-246.592-8.134" transform="translate(0 -81.996)" fill="#b6e1f8" fill-rule="evenodd"/>
    <g id="Grupo_7935" data-name="Grupo 7935" transform="translate(1168.119 91.795)">
      <g id="Grupo_7934" data-name="Grupo 7934" transform="translate(0 0)" clip-path="url(#clip-path-2)">
        <rect id="Rectángulo_1949" data-name="Rectángulo 1949" width="137.399" height="187.737" fill="url(#linear-gradient-2)"/>
      </g>
    </g>
    <path id="Trazado_19427" data-name="Trazado 19427" d="M1233.374,204.294h-13.118a1.636,1.636,0,0,0-1.175.5h0a1.727,1.727,0,0,0-.485,1.208v13.5a1.736,1.736,0,0,0,.489,1.209,1.639,1.639,0,0,0,1.175.5h13.118a1.633,1.633,0,0,0,1.174-.5v0a1.733,1.733,0,0,0,.489-1.209v-13.5a1.73,1.73,0,0,0-.485-1.208l0,0a1.634,1.634,0,0,0-1.174-.5m-13.118-2.049h13.118a3.6,3.6,0,0,1,2.578,1.1l0,0a3.807,3.807,0,0,1,1.073,2.653v13.5a3.808,3.808,0,0,1-1.073,2.657l0,0a3.593,3.593,0,0,1-2.58,1.106h-13.118a3.6,3.6,0,0,1-2.583-1.1,3.807,3.807,0,0,1-1.072-2.657v-13.5a3.806,3.806,0,0,1,1.075-2.655l0,0A3.6,3.6,0,0,1,1220.255,202.245Z" transform="translate(-34.151 -35.516)" fill="#fff"/>
    <path id="Trazado_19428" data-name="Trazado 19428" d="M1258.84,203.24H1283.7a1.558,1.558,0,0,1,0,3.116H1258.84a1.558,1.558,0,0,1,0-3.116" transform="translate(-46.395 -35.815)" fill="#fff" fill-rule="evenodd"/>
    <path id="Trazado_19429" data-name="Trazado 19429" d="M1233.073,249.823h-12.9a1.609,1.609,0,0,0-1.155.495h0a1.7,1.7,0,0,0-.477,1.188v13.274a1.7,1.7,0,0,0,.481,1.188,1.609,1.609,0,0,0,1.155.495h12.9a1.607,1.607,0,0,0,1.155-.491v0a1.7,1.7,0,0,0,.481-1.188V251.507a1.7,1.7,0,0,0-.477-1.188l0,0a1.6,1.6,0,0,0-1.155-.491m-12.9-2.015h12.9a3.537,3.537,0,0,1,2.536,1.086l0,0a3.745,3.745,0,0,1,1.055,2.61v13.274a3.743,3.743,0,0,1-1.055,2.613v0a3.536,3.536,0,0,1-2.538,1.088h-12.9a3.534,3.534,0,0,1-2.539-1.086,3.743,3.743,0,0,1-1.054-2.613V251.507a3.742,3.742,0,0,1,1.056-2.611l0,0A3.534,3.534,0,0,1,1220.174,247.808Z" transform="translate(-34.146 -49.228)" fill="#fff"/>
    <path id="Trazado_19430" data-name="Trazado 19430" d="M1226.112,262.4l6.691-6.421a1.27,1.27,0,0,1,1.828.068,1.36,1.36,0,0,1-.066,1.882l-7.677,7.362-.02.016a1.272,1.272,0,0,1-1.823-.124l-3.7-4.356a1.362,1.362,0,0,1,.121-1.878,1.272,1.272,0,0,1,1.824.124Z" transform="translate(-35.484 -51.58)" fill="#fff" fill-rule="evenodd"/>
    <path id="Trazado_19431" data-name="Trazado 19431" d="M1258.84,214.968h75.566a1.557,1.557,0,1,1,0,3.115H1258.84a1.557,1.557,0,1,1,0-3.115" transform="translate(-46.395 -39.345)" fill="#fff" fill-rule="evenodd"/>
    <path id="Trazado_19432" data-name="Trazado 19432" d="M1258.84,226.7h75.566a1.558,1.558,0,1,1,0,3.116H1258.84a1.558,1.558,0,0,1,0-3.116" transform="translate(-46.395 -42.874)" fill="#fff" fill-rule="evenodd"/>
    <path id="Trazado_19433" data-name="Trazado 19433" d="M1258.84,248.047H1283.7a1.557,1.557,0,1,1,0,3.115H1258.84a1.557,1.557,0,1,1,0-3.115" transform="translate(-46.395 -49.3)" fill="#fff" fill-rule="evenodd"/>
    <path id="Trazado_19434" data-name="Trazado 19434" d="M1258.84,259.774h75.566a1.558,1.558,0,1,1,0,3.116H1258.84a1.558,1.558,0,0,1,0-3.116" transform="translate(-46.395 -52.829)" fill="#fff" fill-rule="evenodd"/>
    <path id="Trazado_19435" data-name="Trazado 19435" d="M1258.84,271.5h75.566a1.557,1.557,0,1,1,0,3.115H1258.84a1.557,1.557,0,1,1,0-3.115" transform="translate(-46.395 -56.359)" fill="#fff" fill-rule="evenodd"/>
    <path id="Trazado_19436" data-name="Trazado 19436" d="M1226.112,217.4l6.691-6.421a1.27,1.27,0,0,1,1.828.069,1.36,1.36,0,0,1-.066,1.882l-7.677,7.362-.02.016a1.272,1.272,0,0,1-1.823-.125l-3.7-4.356a1.362,1.362,0,0,1,.121-1.878,1.272,1.272,0,0,1,1.824.124Z" transform="translate(-35.484 -38.038)" fill="#fff" fill-rule="evenodd"/>
    <path id="Trazado_19437" data-name="Trazado 19437" d="M1233.073,295.949h-12.9a1.609,1.609,0,0,0-1.155.495h0a1.7,1.7,0,0,0-.477,1.188v13.274a1.7,1.7,0,0,0,.481,1.188,1.609,1.609,0,0,0,1.155.5h12.9a1.6,1.6,0,0,0,1.155-.491v0a1.7,1.7,0,0,0,.481-1.188V297.633a1.7,1.7,0,0,0-.477-1.188l0,0a1.607,1.607,0,0,0-1.155-.491m-12.9-2.015h12.9a3.535,3.535,0,0,1,2.536,1.086l0,0a3.745,3.745,0,0,1,1.055,2.609v13.274a3.742,3.742,0,0,1-1.055,2.613v0a3.536,3.536,0,0,1-2.538,1.088h-12.9a3.534,3.534,0,0,1-2.539-1.086,3.742,3.742,0,0,1-1.054-2.613V297.633a3.742,3.742,0,0,1,1.056-2.611h0A3.532,3.532,0,0,1,1220.174,293.934Z" transform="translate(-34.146 -63.11)" fill="#fff"/>
    <path id="Trazado_19438" data-name="Trazado 19438" d="M1226.112,308.525l6.691-6.421a1.271,1.271,0,0,1,1.828.068,1.36,1.36,0,0,1-.066,1.882l-7.677,7.363-.02.015a1.271,1.271,0,0,1-1.823-.124l-3.7-4.356a1.362,1.362,0,0,1,.121-1.878,1.271,1.271,0,0,1,1.824.124Z" transform="translate(-35.484 -65.462)" fill="#fff" fill-rule="evenodd"/>
    <path id="Trazado_19439" data-name="Trazado 19439" d="M1258.84,294.173H1283.7a1.557,1.557,0,1,1,0,3.115H1258.84a1.557,1.557,0,1,1,0-3.115" transform="translate(-46.395 -63.182)" fill="#fff" fill-rule="evenodd"/>
    <path id="Trazado_19440" data-name="Trazado 19440" d="M1258.84,305.9h75.566a1.558,1.558,0,1,1,0,3.116H1258.84a1.558,1.558,0,0,1,0-3.116" transform="translate(-46.395 -66.711)" fill="#fff" fill-rule="evenodd"/>
    <path id="Trazado_19441" data-name="Trazado 19441" d="M1258.84,317.628h75.566a1.558,1.558,0,1,1,0,3.116H1258.84a1.558,1.558,0,0,1,0-3.116" transform="translate(-46.395 -70.241)" fill="#fff" fill-rule="evenodd"/>
    <path id="Trazado_19442" data-name="Trazado 19442" d="M1346.212,95.049l18.089,22.27,14.375-7.826Z" transform="translate(-73.159 -3.255)" fill="#ea6200" fill-rule="evenodd"/>
    <g id="Grupo_7937" data-name="Grupo 7937" transform="translate(1121.626 215.167)">
      <g id="Grupo_7936" data-name="Grupo 7936" transform="translate(0)" clip-path="url(#clip-path-3)">
        <rect id="Rectángulo_1950" data-name="Rectángulo 1950" width="30.939" height="80.845" transform="translate(-0.405 -9.664)" fill="url(#linear-gradient-3)"/>
      </g>
    </g>
    <g id="Grupo_7939" data-name="Grupo 7939" transform="translate(1139.626 207.565)">
      <g id="Grupo_7938" data-name="Grupo 7938" clip-path="url(#clip-path-4)">
        <rect id="Rectángulo_1951" data-name="Rectángulo 1951" width="28.641" height="17.094" transform="translate(-0.817 -0.267)" fill="url(#linear-gradient-4)"/>
      </g>
    </g>
    <g id="Grupo_7941" data-name="Grupo 7941" transform="translate(1124.192 206.772)">
      <g id="Grupo_7940" data-name="Grupo 7940" clip-path="url(#clip-path-5)">
        <rect id="Rectángulo_1952" data-name="Rectángulo 1952" width="24.195" height="31.8" transform="translate(-1.379 -0.793)" fill="url(#linear-gradient-5)"/>
      </g>
    </g>
    <path id="Trazado_19446" data-name="Trazado 19446" d="M1137.287,289.633c.089,1.229.142,2.5.141,3.8a55.713,55.713,0,0,0,5.574-.122c3.522-.048,5,.865,5,.865a11.169,11.169,0,0,0,.283-2.578c-.157-.394-3.177-1.117-4.749-1.51a49.9,49.9,0,0,0-6.25-.451" transform="translate(-10.282 -61.816)" fill="#146ccb" fill-rule="evenodd"/>
    <path id="Trazado_19447" data-name="Trazado 19447" d="M1151.147,250.665a5.185,5.185,0,0,1-2.232,2.408l.03,1.629.237.2c.928,1-.077,3.038-1.134,2.974-2.674.132-4.727-2.06-3.923-3.251l.35-.389.077-2.306c-.138-.008-1.142-.579-1.441-.67a1.549,1.549,0,0,1-.768-1.276c-.029-.608.91-.411.91-.411-1.138-1.557-2.426-2.83-.756-4.232s5.51-2.221,5.51-2.221l2.31-.8c-.294.8.1,3.457.692,5.118.532,1.49.893,1.721.137,3.226" transform="translate(-11.609 -47.577)" fill="#f4b1b1" fill-rule="evenodd"/>
    <path id="Trazado_19448" data-name="Trazado 19448" d="M1147.337,256.527s1.307,2.242,2.38,2.445.524.052.925,0l-.03-1.629c-.74.119-1.464.061-3.275-.821" transform="translate(-13.306 -51.852)" fill="#e98385" fill-rule="evenodd"/>
    <g id="Grupo_7943" data-name="Grupo 7943" transform="translate(1128.538 192.357)">
      <g id="Grupo_7942" data-name="Grupo 7942" clip-path="url(#clip-path-6)">
        <rect id="Rectángulo_1953" data-name="Rectángulo 1953" width="11.342" height="11.659" transform="translate(-0.036 0)" fill="url(#linear-gradient-6)"/>
      </g>
    </g>
    <path id="Trazado_19450" data-name="Trazado 19450" d="M1176.323,261.94l2.491,4.129L1137.466,292.4a3.608,3.608,0,0,1-4.677-1.256,3.715,3.715,0,0,1,1.023-4.814Z" transform="translate(-8.786 -53.481)" fill="#254fb7"/>
    <path id="Trazado_19451" data-name="Trazado 19451" d="M1228.764,222.593a19.7,19.7,0,1,0,6.542,13.586,19.638,19.638,0,0,0-6.542-13.586m-29.337,29.737a1.16,1.16,0,0,1-.381.37,1.19,1.19,0,0,1-1.629-.4l-2.75-4.558a1.186,1.186,0,0,1,.638-1.737,22.139,22.139,0,1,1,5.594,7.772Q1200.127,253.084,1199.427,252.33Z" transform="translate(-27.205 -39.405)" fill="#254fb7"/>
    <g id="Grupo_7945" data-name="Grupo 7945" transform="translate(1118.409 209.375)">
      <g id="Grupo_7944" data-name="Grupo 7944" clip-path="url(#clip-path-7)">
        <rect id="Rectángulo_1954" data-name="Rectángulo 1954" width="17.844" height="23.492" transform="translate(-0.783 -1.54)" fill="url(#linear-gradient-7)"/>
      </g>
    </g>
    <path id="Trazado_19453" data-name="Trazado 19453" d="M1147.543,289.517l1.1.358,2.468-.431c.275-.124,2.071-.542,1.593.049-.336.416-1.368,1.1-1.342,1.147.331.6,3.672,1.5,3.706,1.558.464.761-1.692.312-2.061.252a13.479,13.479,0,0,1,1.346.7.748.748,0,0,1-.7.21,9.069,9.069,0,0,0-1.421-.317c-.1.074,1.368.7,1.267.761a.66.66,0,0,1-.544.085,12.707,12.707,0,0,0-1.383-.383c-.13.052.95.436.828.474-.1.029-.121.2-.217.188-2.581-.341-2.54-1.666-5.506-1.977-1.65-.173.3-2.421.865-2.676" transform="translate(-12.912 -61.68)" fill="#f4b1b1" fill-rule="evenodd"/>
    <path id="Trazado_19454" data-name="Trazado 19454" d="M1190.328,271.742c.193-.312,1.388.621,1.388.621l-1.19-1.375c-.045-.6.969-.222,1.284.1l-.739-1.168s.083-.292.3-.193a9.771,9.771,0,0,1,.9.6l-.815-1.037a.463.463,0,0,1,.562-.056,2.467,2.467,0,0,1,1.132,3.395c-1.183,1.834-2.979-.64-2.829-.882" transform="translate(-26.242 -55.656)" fill="#f4b1b1" fill-rule="evenodd"/>
    <path id="Trazado_19455" data-name="Trazado 19455" d="M1494.047,286.972s-.021.185-.054.547c-.1,1.086-.295,3.732-.295,7.42,0,10.789,1.7,30.5,12.438,46.225a.466.466,0,0,1,.046.084h-1.125c-10.64-15.926-12.3-35.526-12.3-46.309a78.23,78.23,0,0,1,.356-8.074.47.47,0,1,1,.935.108" transform="translate(-117.262 -60.857)" fill="#fff"/>
    <path id="Trazado_19456" data-name="Trazado 19456" d="M1647.282,315.185s-18.662-8.491-15.891-21.638,17.942-11.766,15.891-22.146-12.015-26.546-2.326-38.312,25.8-4.712,27.823-22.956c1.629-14.7,8.422-25.115,21.585-22.063,12.184,2.828,21.269,12.261,21.495,34.7.245,23.891,17.069,17.178,17.278,34.779.209,17.725-13.91,17.725-19.425,29.618-2.6,5.618,4.188,25.358-15.887,28.018Z" transform="translate(-158.9 -31.09)" fill="#78daff"/>
    <path id="Trazado_19457" data-name="Trazado 19457" d="M1707.362,201.487s.047.4.117,1.185c.212,2.352.64,8.083.64,16.07.007,23.367-3.681,66.049-26.941,100.116a.975.975,0,0,0-.1.183h2.436c23.046-34.493,26.635-76.945,26.641-100.3a169.684,169.684,0,0,0-.77-17.487,1.019,1.019,0,1,0-2.024.232" transform="translate(-173.939 -34.946)" fill="#fff"/>
    <path id="Trazado_19458" data-name="Trazado 19458" d="M1686.175,334.5s-2.935-16.226,8.078-22.831,22.258-11.747,21.037-22.392,1.782-23.208,19.428-23.443c10.908-.143,6.812-11.645,17.895-13.936,6.737-1.394,11.179,5.638,12.039,12.543.982,7.864-3.471,15.594,1.636,22,6.626,8.3,9.318,23.774-4.925,28.178s-1.549,17.889-20.944,19.882h-54.243Z" transform="translate(-175.366 -50.406)" fill="#bcecff" fill-rule="evenodd"/>
    <path id="Trazado_19459" data-name="Trazado 19459" d="M1760.766,262.579c-.372,10.336-4.957,25.049-12.8,39.086s-18.931,27.438-32.177,35.328a1,1,0,0,0-.419.481h3.5c12.765-8.262,23.3-21.258,30.875-34.815,7.967-14.285,12.651-29.17,13.06-40a1.019,1.019,0,0,0-2.037-.076" transform="translate(-184.258 -53.379)" fill="#fff"/>
    <path id="Trazado_19460" data-name="Trazado 19460" d="M1502.6,92.925h137.342L1640,280.662H1502.6Z" transform="translate(-120.225 -2.615)" fill="#003398" fill-rule="evenodd"/>
    <g id="Grupo_7947" data-name="Grupo 7947" transform="translate(1377.112 84.235)">
      <g id="Grupo_7946" data-name="Grupo 7946" transform="translate(0)" clip-path="url(#clip-path-8)">
        <rect id="Rectángulo_1955" data-name="Rectángulo 1955" width="137.399" height="187.737" fill="url(#linear-gradient)"/>
      </g>
    </g>
    <g id="Grupo_7949" data-name="Grupo 7949" transform="translate(1367.346 91.795)">
      <g id="Grupo_7948" data-name="Grupo 7948" transform="translate(0 0)" clip-path="url(#clip-path-9)">
        <rect id="Rectángulo_1956" data-name="Rectángulo 1956" width="137.399" height="187.737" fill="url(#linear-gradient-2)"/>
      </g>
    </g>
    <path id="Trazado_19463" data-name="Trazado 19463" d="M1518.374,204.294h-13.118a1.636,1.636,0,0,0-1.175.5h0a1.726,1.726,0,0,0-.485,1.208v13.5a1.735,1.735,0,0,0,.489,1.209,1.638,1.638,0,0,0,1.175.5h13.118a1.633,1.633,0,0,0,1.174-.5v0a1.732,1.732,0,0,0,.489-1.209v-13.5a1.729,1.729,0,0,0-.485-1.208l0,0a1.634,1.634,0,0,0-1.174-.5m-13.118-2.049h13.118a3.6,3.6,0,0,1,2.578,1.1l0,0a3.807,3.807,0,0,1,1.073,2.653v13.5a3.808,3.808,0,0,1-1.073,2.657l0,0a3.593,3.593,0,0,1-2.58,1.106h-13.118a3.6,3.6,0,0,1-2.583-1.1,3.807,3.807,0,0,1-1.072-2.657v-13.5a3.806,3.806,0,0,1,1.075-2.655l0,0A3.6,3.6,0,0,1,1505.255,202.245Z" transform="translate(-119.924 -35.516)" fill="#fff"/>
    <path id="Trazado_19464" data-name="Trazado 19464" d="M1543.84,203.24H1568.7a1.558,1.558,0,0,1,0,3.116H1543.84a1.558,1.558,0,0,1,0-3.116" transform="translate(-132.167 -35.815)" fill="#fff" fill-rule="evenodd"/>
    <path id="Trazado_19465" data-name="Trazado 19465" d="M1518.074,249.823h-12.9a1.609,1.609,0,0,0-1.155.495h0a1.7,1.7,0,0,0-.478,1.188v13.274a1.7,1.7,0,0,0,.481,1.188,1.609,1.609,0,0,0,1.155.495h12.9a1.607,1.607,0,0,0,1.155-.491v0a1.7,1.7,0,0,0,.481-1.188V251.507a1.7,1.7,0,0,0-.478-1.188l0,0a1.6,1.6,0,0,0-1.155-.491m-12.9-2.015h12.9a3.538,3.538,0,0,1,2.536,1.086l0,0a3.744,3.744,0,0,1,1.055,2.61v13.274a3.743,3.743,0,0,1-1.055,2.613v0a3.536,3.536,0,0,1-2.537,1.088h-12.9a3.534,3.534,0,0,1-2.539-1.086,3.742,3.742,0,0,1-1.054-2.613V251.507a3.742,3.742,0,0,1,1.056-2.611l0,0A3.534,3.534,0,0,1,1505.174,247.808Z" transform="translate(-119.918 -49.228)" fill="#fff"/>
    <path id="Trazado_19466" data-name="Trazado 19466" d="M1511.112,262.4l6.691-6.421a1.27,1.27,0,0,1,1.828.068,1.36,1.36,0,0,1-.066,1.882l-7.677,7.362-.02.016a1.272,1.272,0,0,1-1.823-.124l-3.7-4.356a1.362,1.362,0,0,1,.121-1.878,1.272,1.272,0,0,1,1.824.124Z" transform="translate(-121.256 -51.58)" fill="#fff" fill-rule="evenodd"/>
    <path id="Trazado_19467" data-name="Trazado 19467" d="M1543.84,214.968h75.566a1.557,1.557,0,1,1,0,3.115H1543.84a1.557,1.557,0,1,1,0-3.115" transform="translate(-132.167 -39.345)" fill="#fff" fill-rule="evenodd"/>
    <path id="Trazado_19468" data-name="Trazado 19468" d="M1543.84,226.7h75.566a1.558,1.558,0,1,1,0,3.116H1543.84a1.558,1.558,0,0,1,0-3.116" transform="translate(-132.167 -42.874)" fill="#fff" fill-rule="evenodd"/>
    <path id="Trazado_19469" data-name="Trazado 19469" d="M1543.84,248.047H1568.7a1.557,1.557,0,1,1,0,3.115H1543.84a1.557,1.557,0,1,1,0-3.115" transform="translate(-132.167 -49.3)" fill="#fff" fill-rule="evenodd"/>
    <path id="Trazado_19470" data-name="Trazado 19470" d="M1543.84,259.774h75.566a1.558,1.558,0,1,1,0,3.116H1543.84a1.558,1.558,0,0,1,0-3.116" transform="translate(-132.167 -52.829)" fill="#fff" fill-rule="evenodd"/>
    <path id="Trazado_19471" data-name="Trazado 19471" d="M1543.84,271.5h75.566a1.557,1.557,0,1,1,0,3.115H1543.84a1.557,1.557,0,1,1,0-3.115" transform="translate(-132.167 -56.359)" fill="#fff" fill-rule="evenodd"/>
    <path id="Trazado_19472" data-name="Trazado 19472" d="M1511.112,217.4l6.691-6.421a1.27,1.27,0,0,1,1.828.069,1.36,1.36,0,0,1-.066,1.882l-7.677,7.362-.02.016a1.272,1.272,0,0,1-1.823-.125l-3.7-4.356a1.362,1.362,0,0,1,.121-1.878,1.272,1.272,0,0,1,1.824.124Z" transform="translate(-121.256 -38.038)" fill="#fff" fill-rule="evenodd"/>
    <path id="Trazado_19473" data-name="Trazado 19473" d="M1518.074,295.949h-12.9a1.609,1.609,0,0,0-1.155.495h0a1.7,1.7,0,0,0-.478,1.188v13.274a1.7,1.7,0,0,0,.481,1.188,1.609,1.609,0,0,0,1.155.5h12.9a1.6,1.6,0,0,0,1.155-.491v0a1.7,1.7,0,0,0,.481-1.188V297.633a1.7,1.7,0,0,0-.478-1.188l0,0a1.607,1.607,0,0,0-1.155-.491m-12.9-2.015h12.9a3.535,3.535,0,0,1,2.536,1.086l0,0a3.744,3.744,0,0,1,1.055,2.609v13.274a3.742,3.742,0,0,1-1.055,2.613v0a3.536,3.536,0,0,1-2.537,1.088h-12.9a3.534,3.534,0,0,1-2.539-1.086,3.741,3.741,0,0,1-1.054-2.613V297.633a3.742,3.742,0,0,1,1.056-2.611h0A3.532,3.532,0,0,1,1505.174,293.934Z" transform="translate(-119.918 -63.11)" fill="#fff"/>
    <path id="Trazado_19474" data-name="Trazado 19474" d="M1511.112,308.525l6.691-6.421a1.271,1.271,0,0,1,1.828.068,1.36,1.36,0,0,1-.066,1.882l-7.677,7.363-.02.015a1.271,1.271,0,0,1-1.823-.124l-3.7-4.356a1.362,1.362,0,0,1,.121-1.878,1.271,1.271,0,0,1,1.824.124Z" transform="translate(-121.256 -65.462)" fill="#fff" fill-rule="evenodd"/>
    <path id="Trazado_19475" data-name="Trazado 19475" d="M1543.84,294.173H1568.7a1.557,1.557,0,1,1,0,3.115H1543.84a1.557,1.557,0,1,1,0-3.115" transform="translate(-132.167 -63.182)" fill="#fff" fill-rule="evenodd"/>
    <path id="Trazado_19476" data-name="Trazado 19476" d="M1543.84,305.9h75.566a1.558,1.558,0,1,1,0,3.116H1543.84a1.558,1.558,0,0,1,0-3.116" transform="translate(-132.167 -66.711)" fill="#fff" fill-rule="evenodd"/>
    <path id="Trazado_19477" data-name="Trazado 19477" d="M1543.84,317.628h75.566a1.558,1.558,0,1,1,0,3.116H1543.84a1.558,1.558,0,0,1,0-3.116" transform="translate(-132.167 -70.241)" fill="#fff" fill-rule="evenodd"/>
    <path id="Trazado_19478" data-name="Trazado 19478" d="M1631.212,95.049l18.089,22.27,14.375-7.826Z" transform="translate(-158.931 -3.255)" fill="#ea6200" fill-rule="evenodd"/>
    <path id="Trazado_19479" data-name="Trazado 19479" d="M1475.328,271.742c.193-.312,1.388.621,1.388.621l-1.19-1.375c-.045-.6.969-.222,1.284.1l-.739-1.168s.083-.292.3-.193a9.776,9.776,0,0,1,.9.6l-.815-1.037a.464.464,0,0,1,.562-.056,2.467,2.467,0,0,1,1.132,3.395c-1.183,1.834-2.979-.64-2.829-.882" transform="translate(-112.014 -55.656)" fill="#f4b1b1" fill-rule="evenodd"/>
    <rect id="Rectángulo_1957" data-name="Rectángulo 1957" width="30.801" height="2.939" transform="translate(1519.198 207.375)" fill="#a1c7e9"/>
    <path id="Trazado_19480" data-name="Trazado 19480" d="M1715.075,314.931h-26.457q-1.248,8.583-2.491,17.129h26.463q1.239-8.556,2.485-17.129m2.774-19.08h-26.463q-1.249,8.584-2.485,17.129h26.457Q1716.606,304.425,1717.848,295.851Zm2.774-19.079h-26.463q-1.249,8.582-2.491,17.129h26.463Q1719.371,285.346,1720.622,276.772Zm-26.18-1.95h26.463q1.05-7.217,2.1-14.432h2.433q-1.048,7.216-2.1,14.432c-.1.656-.191,1.311-.283,1.95q-1.249,8.582-2.491,17.129c-.093.656-.191,1.312-.284,1.95q-1.248,8.584-2.491,17.129c-.092.656-.19,1.313-.283,1.95q-1.239,8.583-2.485,17.129c-.1.656-.191,1.312-.283,1.95l-.752,5.178h-2.433l.752-5.178h-26.462l-.752,5.178h-2.422l.753-5.178c.092-.638.19-1.293.283-1.95q1.248-8.556,2.491-17.129c.092-.638.185-1.294.283-1.95q1.239-8.555,2.485-17.129c.092-.638.191-1.293.283-1.95q1.249-8.555,2.491-17.129c.092-.638.185-1.294.283-1.95q1.049-7.217,2.092-14.432h2.428Q1695.491,267.606,1694.442,274.822Z" transform="translate(-174.417 -53.015)" fill="#8dbae4" fill-rule="evenodd"/>
    <path id="Trazado_19481" data-name="Trazado 19481" d="M1709.468,314.931h26.457q1.249,8.583,2.491,17.129h-26.464q-1.239-8.556-2.484-17.129m-2.775-19.08h26.464q1.248,8.584,2.484,17.129h-26.457Q1707.936,304.425,1706.693,295.851Zm-2.774-19.079h26.463q1.249,8.582,2.491,17.129H1706.41Q1705.171,285.346,1703.919,276.772Zm26.18-1.95h-26.464l-2.1-14.432H1699.1q1.05,7.216,2.1,14.432c.1.656.191,1.311.283,1.95q1.249,8.582,2.491,17.129c.093.656.191,1.312.284,1.95q1.248,8.584,2.491,17.129c.092.656.191,1.313.283,1.95q1.239,8.583,2.485,17.129c.1.656.19,1.312.283,1.95l.752,5.178h2.433l-.753-5.178H1738.7l.751,5.178h2.422l-.753-5.178c-.092-.638-.191-1.293-.283-1.95q-1.248-8.556-2.491-17.129c-.092-.638-.185-1.294-.283-1.95q-1.239-8.555-2.485-17.129c-.092-.638-.191-1.293-.283-1.95q-1.249-8.555-2.491-17.129c-.092-.638-.185-1.294-.283-1.95q-1.05-7.217-2.092-14.432H1728Q1729.05,267.606,1730.1,274.822Z" transform="translate(-179.364 -53.015)" fill="#9ed8f5" fill-rule="evenodd"/>
    <g id="Grupo_7951" data-name="Grupo 7951" transform="translate(1524.4 161.808)">
      <g id="Grupo_7950" data-name="Grupo 7950" transform="translate(0)" clip-path="url(#clip-path-10)">
        <rect id="Rectángulo_1958" data-name="Rectángulo 1958" width="14.357" height="14.907" transform="translate(0 0)" fill="url(#linear-gradient-10)"/>
      </g>
    </g>
    <path id="Trazado_19483" data-name="Trazado 19483" d="M1734.01,247.54l9.778,6.875.432,30.619c.074.086.147.17.22.252.056.065.112.129.168.191.135.15.267.293.4.425.06.06.119.119.18.175a5.4,5.4,0,0,0,3.114,1.218,2.152,2.152,0,0,1,1.9,1.1.516.516,0,0,1,.045.09.561.561,0,0,1-.494.757l-8.713.419a.841.841,0,0,1-.873-.682.868.868,0,0,1-.015-.176l.279-3.841v-.016c-.8-7.389-3.336-18.11-2.649-26.871,0,0-10.74-12.586-10.737-12.983s6.971,2.443,6.971,2.443" transform="translate(-187.771 -48.401)" fill="#f4b1b1"/>
    <path id="Trazado_19484" data-name="Trazado 19484" d="M1732.822,254.526c-.379,3.27,1.9,5.211,1.524,8.481,0,8.187-5.742,17.621-7.682,25.888-.064.273.424,2.874.368,3.145-.861.921-3.317,2.222-3.58-2.027,1.1-7.139,2.464-18.676,5.292-27.361l-1.785-8.658Z" transform="translate(-186.691 -51.09)" fill="#f4b1b1"/>
    <g id="Grupo_7953" data-name="Grupo 7953" transform="translate(1524.199 187.728)">
      <g id="Grupo_7952" data-name="Grupo 7952" transform="translate(0)" clip-path="url(#clip-path-11)">
        <rect id="Rectángulo_1959" data-name="Rectángulo 1959" width="41.826" height="30.601" transform="translate(-5.715 -1.312)" fill="url(#linear-gradient-11)"/>
      </g>
    </g>
    <path id="Trazado_19486" data-name="Trazado 19486" d="M1727.729,212.056s-1.279,9.5.62,14.007c.243.574.052.744.86,1.545,1.729,1.711,3.484,4.579,4.51,4.817,3.733.866,5.426.156,5.045-2.294-.117-.758-1.513-1.5-3.07-1.987-1.342-.417-3.158-3.627-3.945-5.462-2.279-5.318-2.026-13.411-6.046-16.082-.457-.295.687,3.441,2.025,5.456" transform="translate(-187.338 -36.821)" fill="#b8036f" fill-rule="evenodd"/>
    <path id="Trazado_19487" data-name="Trazado 19487" d="M1702.816,207.648c-1.665,6.795,5.552,5.248,4.042,18.965,5,.694,10.557.886,14.853-.172-.687-5.048.168-7.752.366-10.507a13.9,13.9,0,0,0-2.347-9.156c-1.469-2.275-14.1-3.327-16.913.87" transform="translate(-180.405 -36.28)" fill="#dc0482" fill-rule="evenodd"/>
    <path id="Trazado_19488" data-name="Trazado 19488" d="M1708.914,231.368a14.982,14.982,0,0,1-.208,3.246,21.414,21.414,0,0,0,3.428.3,12.875,12.875,0,0,0-3.22-3.543" transform="translate(-182.253 -44.28)" fill="#b8036f" fill-rule="evenodd"/>
    <path id="Trazado_19489" data-name="Trazado 19489" d="M1718.888,199.586l-.419,1.624.18.265c.646,1.242-.914,2.991-1.945,2.637-2.688-.607-4.118-3.347-2.993-4.305l.454-.289.712-2.265c-.134-.046-.973-.889-1.244-1.062a1.6,1.6,0,0,1-.409-1.477c.138-.611,1.016-.157,1.016-.157-.7-1.858-1.626-3.475.418-4.4s6.075-.682,6.075-.682l2.512-.157a7.445,7.445,0,0,0-.751,4.24c.185,2.572-1.371,5.583-3.6,6.033" transform="translate(-183.602 -31.624)" fill="#f4b1b1" fill-rule="evenodd"/>
    <path id="Trazado_19490" data-name="Trazado 19490" d="M1717.021,201.553s.677,2.583,1.686,3.08.506.2.916.261l.419-1.625c-.766-.086-1.468-.343-3.021-1.716" transform="translate(-184.756 -35.307)" fill="#e98385" fill-rule="evenodd"/>
    <path id="Trazado_19491" data-name="Trazado 19491" d="M1702.7,207.26c-6.2,1.922-5.719,15.516-4.836,19.3.752,3.076,11.207,10.858,13.868,10.024,1.283-.4,2.133-1.9.386-3.281-.61-.717-8.95-7.616-9.038-8.37-.2-4.872,3.929-17.955-.38-17.677" transform="translate(-178.834 -37.024)" fill="#dc0482" fill-rule="evenodd"/>
    <path id="Trazado_19492" data-name="Trazado 19492" d="M1734.829,247.364l-16.2.243,5.617,4.823h17.8Z" transform="translate(-185.24 -49.095)" fill="#3b87c8" fill-rule="evenodd"/>
    <path id="Trazado_19493" data-name="Trazado 19493" d="M1749.547,235.872H1729.27l-2.6,13.1h20.276l2.761-12.989Z" transform="translate(-187.659 -45.636)" fill="#a1c7e9" fill-rule="evenodd"/>
    <path id="Trazado_19494" data-name="Trazado 19494" d="M1718.405,245.715l.615.34,2.208.037c.259-.062,1.883-.125,1.371.308-.36.3-1.28.663-1.265.707.732.547,2.709,1.757,2.729,1.809.275.736-1.671-.261-1.98-.374-.082-.03,1.272,1.039,1.2,1.081a.656.656,0,0,1-.643.066c-.415-.163-1.234-.807-1.332-.761s1.223,1.083,1.125,1.119a.578.578,0,0,1-.485-.017c-.425-.181-1.172-.833-1.288-.811s.772.686.792.8c.014.078-.138.155-.219.127-2.178-.725-1.6-1.376-4.112-2.139-1.4-.425.747-2.163,1.281-2.289" transform="translate(-184.646 -48.598)" fill="#f4b1b1" fill-rule="evenodd"/>
    <g id="Grupo_7955" data-name="Grupo 7955" transform="translate(1516.64 155.063)">
      <g id="Grupo_7954" data-name="Grupo 7954" clip-path="url(#clip-path-12)">
        <rect id="Rectángulo_1960" data-name="Rectángulo 1960" width="26.05" height="21.31" transform="translate(-0.956 0)" fill="url(#linear-gradient-12)"/>
      </g>
    </g>
    <path id="Trazado_19496" data-name="Trazado 19496" d="M1753.569,304.961s3.092.6,3.03,1.541c-.125,1.906-10.611,1.487-10.672,1.423a4.19,4.19,0,0,1-.172-3.225c.332-.5,4.6,1.7,7.814.261" transform="translate(-193.329 -66.327)" fill="#031542" fill-rule="evenodd"/>
    <path id="Trazado_19497" data-name="Trazado 19497" d="M1727.581,308.819c-.066,1.214-4.449.865-5.109.5-.981-.541.214-4.358.584-3.934,0,0,1.143,1.8,2.495,1.436s.877-.764,1.108-.309c.433.853.983,1.187.922,2.305" transform="translate(-186.283 -66.547)" fill="#000446" fill-rule="evenodd"/>
    <path id="Trazado_19498" data-name="Trazado 19498" d="M1742.952,243.255a1.217,1.217,0,1,0,1.27,1.216,1.244,1.244,0,0,0-1.27-1.216" transform="translate(-192.178 -47.858)" fill="#fff" fill-rule="evenodd"/>
    <path id="Trazado_19499" data-name="Trazado 19499" d="M1677.547,304.659c-.076.617-.309.9-.166,1.5a7.342,7.342,0,0,1,.164,1.75c-.028.353-.245,1.611-.858,1.585a.222.222,0,0,1-.168-.08c-.114.27-.531.02-.677-.071-.143.255-.606.069-.734-.091-.173.428-1.006-.111-1.253-.777-.333-.315-.281-1.323-.2-1.674a1.819,1.819,0,0,1,.226-.493c.255-.472.639-1.132.709-1.265.166-.313.423-.577.407-.942Z" transform="translate(-171.686 -66.17)" fill="#f4b1b1"/>
    <g id="Grupo_7957" data-name="Grupo 7957" transform="translate(1493.569 207.691)">
      <g id="Grupo_7956" data-name="Grupo 7956" transform="translate(0)" clip-path="url(#clip-path-13)">
        <rect id="Rectángulo_1961" data-name="Rectángulo 1961" width="13.903" height="34.042" transform="translate(-0.482 -0.312)" fill="url(#linear-gradient-13)"/>
      </g>
    </g>
    <path id="Trazado_19501" data-name="Trazado 19501" d="M1621.839,269.584l-.77-.955-.5-2.6c.019-.318-.243-2.251-.649-1.556-.285.488-.573,1.767-.628,1.759a19.632,19.632,0,0,0-2.936-3.075c-.926-.172.479,1.844.677,2.187.1.164-.563-.556-.658.294-.029.262.148.255.253.563.066.2-.435-.535-.517.143-.054.449.073.454.18.712.03.075-.163-.094-.283-.04-.1.044-.138.3-.041.464,1.241,2.128,2.177,1.246,3.555,3.968.792,1.565,2.28-1.207,2.318-1.864" transform="translate(-154.326 -53.844)" fill="#f4b1b1" fill-rule="evenodd"/>
    <g id="Grupo_7959" data-name="Grupo 7959" transform="translate(1475.636 213.613)">
      <g id="Grupo_7958" data-name="Grupo 7958" clip-path="url(#clip-path-14)">
        <rect id="Rectángulo_1962" data-name="Rectángulo 1962" width="29.785" height="82.048" transform="translate(-0.889 -9.762)" fill="url(#linear-gradient-14)"/>
      </g>
    </g>
    <path id="Trazado_19503" data-name="Trazado 19503" d="M1654.9,240.241s-4.1-1.532-6,1.591c-.474.782-1.211.9-1.2,1.964a10.92,10.92,0,0,1-.117,1.822c-.1.566-.532,1.4-.625,1.859-.116.57.732.874.751,1.124.144,1.985.262,2.939,1.175,3.279,2.307.323,5.549.463,6.607-1.49a15.633,15.633,0,0,0,1.97-6.667,4.114,4.114,0,0,0-2.567-3.481" transform="translate(-163.668 -46.838)" fill="#f4b1b1"/>
    <path id="Trazado_19504" data-name="Trazado 19504" d="M1651.192,255.288a3.445,3.445,0,0,1-.108,1.605c-.274.53,5.162.544,5.162.544a35.765,35.765,0,0,1,1.278-5.316c.838-2.435-6.331,3.167-6.331,3.167" transform="translate(-164.909 -50.342)" fill="#f4b1b1"/>
    <g id="Grupo_7961" data-name="Grupo 7961" transform="translate(1482.567 192.173)">
      <g id="Grupo_7960" data-name="Grupo 7960" clip-path="url(#clip-path-15)">
        <rect id="Rectángulo_1963" data-name="Rectángulo 1963" width="16.291" height="13.603" transform="translate(-0.905 -1.347)" fill="url(#linear-gradient-15)"/>
      </g>
    </g>
    <path id="Trazado_19506" data-name="Trazado 19506" d="M1650.626,258.528s.017-1.013.476-1.109a36.427,36.427,0,0,1,5.924-.194l.062,1.288s-1.442.434-6.462.016" transform="translate(-164.774 -52.039)" fill="#dbdcdc"/>
    <path id="Trazado_19507" data-name="Trazado 19507" d="M1650.85,249.766c.085-.359.969-1.831,1.319-.73s-.529,2.581-1.019,2.454-.518-.812-.3-1.725" transform="translate(-164.802 -49.477)" fill="#f4b1b1"/>
    <g id="Grupo_7963" data-name="Grupo 7963" transform="translate(1477.637 206.109)">
      <g id="Grupo_7962" data-name="Grupo 7962" transform="translate(0)" clip-path="url(#clip-path-16)">
        <rect id="Rectángulo_1964" data-name="Rectángulo 1964" width="22.931" height="39.779" transform="translate(0 -1.023)" fill="url(#linear-gradient-16)"/>
      </g>
    </g>
    <g id="Grupo_7965" data-name="Grupo 7965" transform="translate(1465.096 209.576)">
      <g id="Grupo_7964" data-name="Grupo 7964" transform="translate(0)" clip-path="url(#clip-path-17)">
        <rect id="Rectángulo_1965" data-name="Rectángulo 1965" width="20.864" height="20.669" transform="translate(-0.538 -1.725)" fill="url(#linear-gradient-17)"/>
      </g>
    </g>
    <g id="Grupo_7967" data-name="Grupo 7967" transform="translate(1179.688 110.216)">
      <g id="Grupo_7966" data-name="Grupo 7966" transform="translate(0 0)">
        <path id="Trazado_19510" data-name="Trazado 19510" d="M1225.684,122.136q0,1.109-.093,3.336t-.092,3.346v6.42c0,.175-.094.263-.282.263q-.234,0-.707.02t-.706.019q-.254,0-.759-.038t-.76-.039c-.117,0-.257-.107-.419-.322q-.7-.945-3.156-4.189-.671-.9-2.045-2.668a.406.406,0,0,0-.146-.117.267.267,0,0,0-.079.214q0,1.13.064,3.39t.064,3.39c0,.228-.087.341-.263.341h-3.37q-.283,0-.283-.3,0-1.053.1-3.176t.1-3.185q0-1.121-.092-3.351t-.093-3.341q0-.214.38-.214.564,0,1.393-.078c.129-.013.386-.055.77-.127a4.646,4.646,0,0,1,.77-.087q.116,0,.361.331l3.633,4.978q.487.672,1.471,1.968c.162.2.3.3.419.3q.127,0,.127-.759,0-1.022-.112-3.079t-.113-3.088c0-.24.069-.36.2-.36q.585,0,1.764-.049t1.763-.049C1225.622,121.833,1225.684,121.935,1225.684,122.136Z" transform="translate(-1212.65 -121.473)" fill="#fff"/>
        <path id="Trazado_19511" data-name="Trazado 19511" d="M1247.262,128.61a7.141,7.141,0,0,1-1.938,5.094,7.021,7.021,0,0,1-10-.019,7.61,7.61,0,0,1,0-10.17,6.949,6.949,0,0,1,9.984,0A7.16,7.16,0,0,1,1247.262,128.61Zm-3.692-.02a3.66,3.66,0,0,0-.887-2.484,3.072,3.072,0,0,0-4.695.039,3.863,3.863,0,0,0-.058,4.949,3.139,3.139,0,0,0,4.723-.058A3.612,3.612,0,0,0,1243.57,128.591Z" transform="translate(-1218.886 -121.401)" fill="#fff"/>
        <path id="Trazado_19512" data-name="Trazado 19512" d="M1266.93,135.461c0,.046-.066.078-.2.1a16.954,16.954,0,0,1-1.86.059,16.662,16.662,0,0,1-1.734-.059,1.039,1.039,0,0,1-.244-.049.436.436,0,0,1-.136-.2q-.146-.38-.428-1.13-.381-.974-1.189-2.873a.858.858,0,0,0-.809-.419q.292.02-1,.02c-.1,0-.146.166-.146.5q0,.663.121,1.978t.122,1.978c0,.11-.029.175-.087.2l-.273.02q-.575.038-1.792.039a12.962,12.962,0,0,1-1.675-.059c-.189-.039-.283-.139-.283-.3q0-1.072.1-3.234t.1-3.243q0-4.121-.185-6.43l-.01-.136c-.007-.11.1-.185.307-.224s1.2-.078,2.976-.117q1.8-.039,2.874-.039a6.083,6.083,0,0,1,3.623,1,3.755,3.755,0,0,1,1.588,3.263,5.286,5.286,0,0,1-.409,2.269,4.638,4.638,0,0,1-1.51,1.646q-.224.156-.224.292,0-.009,1.189,2.445A17.869,17.869,0,0,1,1266.93,135.461Zm-4.091-8.737a1.747,1.747,0,0,0-.779-1.646,3.906,3.906,0,0,0-1.89-.35q-.926,0-.984.282a16.827,16.827,0,0,0-.059,1.908c0,.15,0,.371.009.663s.01.509.01.652c0,.032.1.065.311.1a8.5,8.5,0,0,0,1.247.088Q1262.839,128.419,1262.838,126.724Z" transform="translate(-1225.491 -121.531)" fill="#fff"/>
        <path id="Trazado_19513" data-name="Trazado 19513" d="M1288.026,135.24c0,.2-.094.3-.282.3H1284.3c-.188,0-.282-.113-.282-.341q0-.984.073-2.951t.073-2.952c0-.187-.029-.289-.087-.3a27.892,27.892,0,0,0-1.305,3.009q-.7,1.734-1.4,3.458a.409.409,0,0,1-.244.263,3.872,3.872,0,0,1-.389.01q-.506,0-.6-.194-.526-1.072-1.383-3.117-.916-2.163-1.374-3.128a.3.3,0,0,0-.088-.106.466.466,0,0,0-.068.282q0,.955.049,2.864t.048,2.864c0,.228-.091.341-.273.341h-3.253c-.13,0-.21-.021-.239-.064a.4.4,0,0,1-.043-.219q0-1.061.1-3.19t.1-3.19q0-1.13-.1-4.238-.01-.808-.088-2.406l-.009-.166c-.007-.129.129-.2.409-.2q.535,0,1.607-.034t1.607-.034c.072,0,.172.136.3.409l2.844,6.244q.3.633.507.633.107,0,.458-.73.983-2.046,2.912-6.166.166-.38.361-.38.282,0,.852.029t.863.029c.162,0,.41-.015.745-.048s.583-.049.746-.049c.194,0,.292.078.292.233q0,1.15-.084,3.434t-.083,3.434q0,1.061.088,3.185T1288.026,135.24Z" transform="translate(-1230.964 -121.514)" fill="#fff"/>
        <path id="Trazado_19514" data-name="Trazado 19514" d="M1309.36,135.24q0,.176-.244.244a11.216,11.216,0,0,1-1.811.078,12.363,12.363,0,0,1-1.793-.078.525.525,0,0,1-.419-.438,3.744,3.744,0,0,0-.516-1.5,21.835,21.835,0,0,0-2.611-.067,7.686,7.686,0,0,0-1.763.087,2.662,2.662,0,0,0-.37,1.042q-.185.807-.449.877a16.431,16.431,0,0,1-2.22.078q-1.491,0-1.49-.282,0-.253,2.2-6.224,2.388-6.459,2.591-7.1c.078-.246.169-.37.273-.37q.262,0,.813.048t.823.05c.175,0,.433-.012.774-.034s.6-.034.765-.034c.124,0,.237.107.341.322q.477,1.022,2.786,7.013Q1309.359,134.977,1309.36,135.24Zm-6.906-8.874q-.2.429-.691,1.86a10.07,10.07,0,0,0-.526,1.783c0,.117.2.181.584.194q.3.02.994.02.643,0,.711-.156a.386.386,0,0,0,.02-.136,9.5,9.5,0,0,0-.448-1.773A13.808,13.808,0,0,0,1302.453,126.366Z" transform="translate(-1237.636 -121.456)" fill="#fff"/>
        <path id="Trazado_19515" data-name="Trazado 19515" d="M1325.821,124.848c0,.129-.071.194-.215.194q-.37,0-2.932-.146-.059,2.465-.059,3.439,0,1.15.093,3.458t.092,3.457c0,.124-.029.2-.087.234a1.2,1.2,0,0,1-.273.049,14.068,14.068,0,0,1-1.715.078,13.476,13.476,0,0,1-1.763-.078.286.286,0,0,1-.273-.3q0-1.15.1-3.448t.1-3.448q0-.76-.078-3.39-1.948.2-3.107.2c-.1,0-.156-.033-.156-.1a5.581,5.581,0,0,1,.136-.75q.156-.682.175-.828c.02-.3.042-.611.068-.916q.068-.731.234-.73l.136.009a39.172,39.172,0,0,0,4.666.2q.877,0,3.234-.185l1.276-.1a.528.528,0,0,1,.224.024c.02.017.033.079.039.19q0,.263-.019.73c-.013.345-.02.587-.02.73a5.923,5.923,0,0,0,.064.717A5.8,5.8,0,0,1,1325.821,124.848Z" transform="translate(-1243.617 -121.506)" fill="#fff"/>
        <path id="Trazado_19516" data-name="Trazado 19516" d="M1335.666,128.385q0,1.15.059,3.458t.058,3.457c0,.131-.029.211-.087.244a2.11,2.11,0,0,1-.254.039,14.6,14.6,0,0,1-1.7.078,12.43,12.43,0,0,1-1.811-.078c-.189-.039-.283-.139-.283-.3q0,.156.088-1.715.175-3.945.175-5.182,0-1.042-.067-3.127t-.069-3.127c0-.143.074-.215.224-.215.2,0,.5.01.911.029s.709.029.911.029.5-.01.891-.029.689-.029.891-.029.282.072.282.215q0,1.042-.112,3.127T1335.666,128.385Z" transform="translate(-1248.464 -121.556)" fill="#fff"/>
        <path id="Trazado_19517" data-name="Trazado 19517" d="M1345.61,135.622a14.286,14.286,0,0,1-1.5-.038.48.48,0,0,1-.311-.283q-1.111-2.19-2.231-4.393a21.357,21.357,0,0,1-1.763-4q0-.77.054-2.314t.053-2.313c0-.24.065-.361.195-.361q.585,0,1.773.049t1.783.049c.163,0,.244.068.244.2q0,.789-.112,2.371t-.112,2.373a19.137,19.137,0,0,0,1.977,4.315q.535-.965,1.218-2.367a8.775,8.775,0,0,0,.915-2.319q0-.711-.019-2.138t-.02-2.139c0-.175.029-.272.087-.292h.312q.536,0,1.622-.053t1.622-.054c.194,0,.292.078.292.234q0,.75-.024,2.264t-.025,2.275a20.9,20.9,0,0,1-1.919,4.442q-.759,1.383-2.192,4.168a.869.869,0,0,1-.131.239.763.763,0,0,1-.248.044Q1346.652,135.623,1345.61,135.622Z" transform="translate(-1250.918 -121.556)" fill="#fff"/>
        <path id="Trazado_19518" data-name="Trazado 19518" d="M1371.355,135.24c0,.117-.081.2-.244.244a11.213,11.213,0,0,1-1.811.078,12.37,12.37,0,0,1-1.793-.078.525.525,0,0,1-.418-.438,3.752,3.752,0,0,0-.517-1.5,21.833,21.833,0,0,0-2.611-.067,7.687,7.687,0,0,0-1.763.087,2.659,2.659,0,0,0-.37,1.042q-.186.807-.448.877a16.445,16.445,0,0,1-2.221.078q-1.491,0-1.49-.282,0-.253,2.2-6.224,2.388-6.459,2.591-7.1c.078-.246.169-.37.273-.37q.262,0,.813.048c.367.033.641.05.823.05s.433-.012.774-.034.6-.034.765-.034c.124,0,.237.107.341.322q.477,1.022,2.786,7.013Q1371.355,134.977,1371.355,135.24Zm-6.907-8.874q-.2.429-.691,1.86a10.07,10.07,0,0,0-.526,1.783c0,.117.2.181.584.194q.3.02.994.02.643,0,.711-.156a.392.392,0,0,0,.02-.136,9.514,9.514,0,0,0-.448-1.773A13.649,13.649,0,0,0,1364.448,126.366Z" transform="translate(-1256.294 -121.456)" fill="#fff"/>
        <path id="Trazado_19519" data-name="Trazado 19519" d="M1228.584,157.207a7.3,7.3,0,0,1-1.841,4.967,6,6,0,0,1-4.568,1.978q-.565.019-3.107.02-.477,0-1.437-.029t-1.437-.029q-.282,0-.282-.224,0-1.073.083-3.22t.082-3.219q0-1.121-.082-3.356t-.083-3.346q0-.206.282-.244.692-.078,2.27-.078,3,0,3.887.087a7.439,7.439,0,0,1,3.614,1.169,5.913,5.913,0,0,1,1.938,2.454A7.3,7.3,0,0,1,1228.584,157.207Zm-3.731,0a3.763,3.763,0,0,0-.984-2.689,3.4,3.4,0,0,0-2.63-1.081q-1.5,0-1.5.4,0,.575-.02,1.729t-.019,1.729q0,.564.019,1.7t.02,1.709q0,.418,1.558.419a3.313,3.313,0,0,0,2.649-1.121A4.157,4.157,0,0,0,1224.853,157.207Z" transform="translate(-1213.631 -130.137)" fill="#fff"/>
        <path id="Trazado_19520" data-name="Trazado 19520" d="M1246.158,161.092a12.66,12.66,0,0,1-.166,1.539,5.853,5.853,0,0,1-.312,1.451.362.362,0,0,1-.322.185,2.385,2.385,0,0,1-.292-.029q-.711-.1-4.149-.1-.751,0-2.231-.01t-2.221-.01q-.321,0-.321-.282,0-1.091.121-3.278t.122-3.278q0-1.11-.117-4.14-.028-.779-.107-2.329l-.01-.136c-.013-.149.068-.224.244-.224q.72,0,2.167.039t2.167.039q.712,0,2.143-.039t2.143-.039c.337,0,.533.127.584.38q.048.224.151,1.358t.1,1.379c0,.136-.065.2-.194.2-.039,0-.108,0-.2-.01q-2.592-.214-4.656-.214-.516,0-.633.243a3.065,3.065,0,0,0-.049.75,1.377,1.377,0,0,0,.2.877.843.843,0,0,0,.633.185c.064,0,.192,0,.38-.015s.344-.015.468-.015q1.226,0,2.483-.068l.536-.049a4.741,4.741,0,0,1,.526-.038c.155,0,.234.074.234.224a14.256,14.256,0,0,0-.176,1.49q-.077.779-.078,1.558c0,.13-.094.194-.283.194l-.876-.1q-.555-.059-2.533-.059H1240.6c-.266,0-.423.065-.468.2q-.011.048-.01.6a2.871,2.871,0,0,0,.1.956q.166.369,1.247.438h1.422q.516,0,1.534-.093t1.525-.092Q1246.158,160.742,1246.158,161.092Z" transform="translate(-1219.721 -130.145)" fill="#fff"/>
        <path id="Trazado_19521" data-name="Trazado 19521" d="M1261.3,164.292q-.838,0-2.182-.039l-2.182-.049-2.913-.038q-.438.008-1.257-.039a.289.289,0,0,1-.282-.3q0-1.061.033-3.181t.034-3.18q0-1.13-.067-3.385t-.068-3.385c0-.143.1-.215.292-.215s.485.01.872.029.674.029.862.029q.322,0,.955-.034c.422-.024.74-.034.954-.034.1,0,.143.062.136.185l-.01.127q-.116,1.832-.263,5.5l-.01,2.572q0,1.247.01,1.822c.006.078.013.156.02.233a.159.159,0,0,0,.146.146h.253q.877,0,2.626-.092t2.625-.092q.263,0,.263.224a14.749,14.749,0,0,1-.244,2.874c-.033.168-.1.269-.2.3A2.044,2.044,0,0,1,1261.3,164.292Z" transform="translate(-1224.619 -130.149)" fill="#fff"/>
        <path id="Trazado_19522" data-name="Trazado 19522" d="M1281.506,159.465a4.3,4.3,0,0,1-1.665,3.39,7.112,7.112,0,0,1-3.555,1.588,1.1,1.1,0,0,1-.127.009q-.224,0-.994-1.369a5.907,5.907,0,0,1-.769-1.67c0-.072.048-.117.145-.136a10.316,10.316,0,0,0,1.871-.546,1.609,1.609,0,0,0,1.013-1.5,2.292,2.292,0,0,0-.663-1.413q-1.148-1.324-1.246-1.471a3.96,3.96,0,0,1-.672-2.24,3.524,3.524,0,0,1,1.647-2.962,7.4,7.4,0,0,1,3.3-1.266c.072-.006.127-.01.167-.01.1,0,.175.078.233.234q.253.711,1.179,2.572a.231.231,0,0,1,.029.1c0,.111-.058.166-.175.166a1.947,1.947,0,0,1-.264-.029,1.957,1.957,0,0,0-.282-.029,2.3,2.3,0,0,0-1.227.322,1.143,1.143,0,0,0-.633,1.033,2.547,2.547,0,0,0,.7,1.461q1.236,1.558,1.3,1.636A3.909,3.909,0,0,1,1281.506,159.465Z" transform="translate(-1231.233 -129.969)" fill="#fff"/>
        <path id="Trazado_19523" data-name="Trazado 19523" d="M1296.838,161.092a12.774,12.774,0,0,1-.165,1.539,5.846,5.846,0,0,1-.312,1.451.362.362,0,0,1-.322.185,2.372,2.372,0,0,1-.292-.029q-.711-.1-4.15-.1-.75,0-2.231-.01t-2.221-.01c-.214,0-.322-.094-.322-.282q0-1.091.122-3.278t.122-3.278q0-1.11-.117-4.14-.028-.779-.107-2.329l-.01-.136c-.013-.149.069-.224.244-.224q.721,0,2.167.039t2.167.039q.711,0,2.143-.039t2.143-.039q.505,0,.584.38.048.224.151,1.358t.1,1.379c0,.136-.065.2-.2.2-.038,0-.107,0-.2-.01q-2.591-.214-4.656-.214-.516,0-.633.243a3.041,3.041,0,0,0-.049.75,1.377,1.377,0,0,0,.2.877.841.841,0,0,0,.633.185c.065,0,.192,0,.38-.015s.344-.015.468-.015q1.227,0,2.484-.068l.536-.049a4.736,4.736,0,0,1,.526-.038c.156,0,.233.074.233.224a14.2,14.2,0,0,0-.175,1.49A15.559,15.559,0,0,0,1296,158.7c0,.13-.094.194-.282.194l-.877-.1q-.554-.059-2.532-.059h-1.033c-.266,0-.422.065-.468.2q-.01.048-.01.6a2.894,2.894,0,0,0,.1.956q.167.369,1.248.438h1.422q.516,0,1.534-.093t1.525-.092C1296.767,160.742,1296.838,160.859,1296.838,161.092Z" transform="translate(-1234.973 -130.145)" fill="#fff"/>
        <path id="Trazado_19524" data-name="Trazado 19524" d="M1314.225,161.782a.735.735,0,0,1-.2.409,5.905,5.905,0,0,1-4.763,2.133,6.354,6.354,0,0,1-4.929-2.075,7.2,7.2,0,0,1-1.841-5.065,7.382,7.382,0,0,1,1.8-5.026,6.057,6.057,0,0,1,4.783-2.162,6.4,6.4,0,0,1,4.948,1.938.6.6,0,0,1,.2.38,6.145,6.145,0,0,1-.677,1.373,7.934,7.934,0,0,1-.852,1.334.265.265,0,0,1-.2.078,2.618,2.618,0,0,1-.487-.39,5.128,5.128,0,0,0-1.033-.73,3.487,3.487,0,0,0-1.6-.389,2.783,2.783,0,0,0-2.289,1.071,3.826,3.826,0,0,0-.788,2.455,3.9,3.9,0,0,0,.788,2.484,2.766,2.766,0,0,0,2.289,1.091,3.633,3.633,0,0,0,1.607-.37,4.966,4.966,0,0,0,1.013-.682,2.455,2.455,0,0,1,.478-.37.272.272,0,0,1,.194.107q.155.175.847,1.217A7.164,7.164,0,0,1,1314.225,161.782Z" transform="translate(-1239.687 -130.007)" fill="#fff"/>
        <path id="Trazado_19525" data-name="Trazado 19525" d="M1329.932,153.386c0,.129-.071.194-.214.194q-.371,0-2.932-.146-.058,2.465-.059,3.439,0,1.15.093,3.458t.092,3.458c0,.123-.029.2-.087.234a1.209,1.209,0,0,1-.273.048,14.063,14.063,0,0,1-1.715.078,13.476,13.476,0,0,1-1.763-.078.286.286,0,0,1-.273-.3q0-1.149.1-3.448t.1-3.448q0-.76-.078-3.39-1.948.2-3.107.2c-.1,0-.156-.033-.156-.1a5.653,5.653,0,0,1,.137-.75q.155-.682.176-.828c.019-.3.041-.611.067-.916.046-.487.124-.73.234-.73l.137.009a39.151,39.151,0,0,0,4.665.2q.877,0,3.234-.185l1.276-.1a.536.536,0,0,1,.224.024c.02.017.033.08.038.19,0,.175-.006.419-.019.73-.013.345-.02.587-.02.73a5.771,5.771,0,0,0,.064.716A5.872,5.872,0,0,1,1329.932,153.386Z" transform="translate(-1244.854 -130.095)" fill="#fff"/>
        <path id="Trazado_19526" data-name="Trazado 19526" d="M1349.222,157.148a7.141,7.141,0,0,1-1.939,5.094,7.021,7.021,0,0,1-10-.019,7.61,7.61,0,0,1,0-10.17,6.949,6.949,0,0,1,9.984,0A7.16,7.16,0,0,1,1349.222,157.148Zm-3.692-.02a3.662,3.662,0,0,0-.887-2.484,3.071,3.071,0,0,0-4.695.04,3.862,3.862,0,0,0-.058,4.948,3.139,3.139,0,0,0,4.723-.058A3.613,3.613,0,0,0,1345.53,157.129Z" transform="translate(-1249.572 -129.99)" fill="#fff"/>
        <path id="Trazado_19527" data-name="Trazado 19527" d="M1368.89,164c0,.046-.066.078-.2.1a16.762,16.762,0,0,1-1.86.059,16.447,16.447,0,0,1-1.734-.059,1.052,1.052,0,0,1-.244-.048.439.439,0,0,1-.136-.2q-.146-.38-.428-1.13-.381-.974-1.189-2.873a.858.858,0,0,0-.809-.419q.293.02-1,.02c-.1,0-.146.166-.146.5q0,.663.121,1.978t.122,1.978c0,.11-.029.175-.087.194l-.273.02q-.575.038-1.792.039a12.82,12.82,0,0,1-1.675-.059c-.189-.039-.283-.139-.283-.3q0-1.072.1-3.234t.1-3.243q0-4.121-.184-6.43l-.01-.136c-.007-.11.1-.185.307-.224s1.2-.078,2.976-.117q1.8-.039,2.874-.039a6.083,6.083,0,0,1,3.623,1,3.755,3.755,0,0,1,1.588,3.263,5.284,5.284,0,0,1-.409,2.269,4.637,4.637,0,0,1-1.51,1.646q-.224.156-.224.292,0-.009,1.188,2.445A17.827,17.827,0,0,1,1368.89,164Zm-4.092-8.737a1.747,1.747,0,0,0-.779-1.646,3.906,3.906,0,0,0-1.89-.35q-.926,0-.984.282a16.8,16.8,0,0,0-.059,1.909c0,.149,0,.37.009.663s.01.509.01.652c0,.032.1.065.311.1a8.5,8.5,0,0,0,1.247.088Q1364.8,156.957,1364.8,155.262Z" transform="translate(-1256.177 -130.12)" fill="#fff"/>
      </g>
    </g>
    <g id="Grupo_7968" data-name="Grupo 7968" transform="translate(1414.921 116.801)">
      <path id="Trazado_19528" data-name="Trazado 19528" d="M1562.337,150.281q.019.263-.273.264a7.3,7.3,0,0,1-1.066-.215q-.882-.214-1.086-.292a10.681,10.681,0,0,1-3.906.8,6.549,6.549,0,0,1-4.938-2.007,6.9,6.9,0,0,1-1.91-5,7.325,7.325,0,0,1,1.851-5.123,6.381,6.381,0,0,1,4.958-2.1,6.948,6.948,0,0,1,2.786.565,5.286,5.286,0,0,1,2.221,1.754.744.744,0,0,1,.166.331,3.7,3.7,0,0,1-.872,1.4q-.872,1.086-1.125,1.086a1.92,1.92,0,0,1-.448-.4,4.1,4.1,0,0,0-.974-.74,3.4,3.4,0,0,0-1.637-.4,2.793,2.793,0,0,0-2.318,1.091,3.891,3.891,0,0,0-.8,2.5,3.63,3.63,0,0,0,.828,2.513,3.09,3.09,0,0,0,2.426.955,6,6,0,0,0,2.221-.5q-.029-.322-.175-1.636a13.76,13.76,0,0,1-.126-1.636c0-.124.042-.2.126-.224a.442.442,0,0,1,.156-.02q.283,0,.852.055t.862.053q.311,0,.935-.044c.416-.029.727-.043.935-.043.162,0,.244.107.244.321,0,.312-.019.783-.054,1.413s-.054,1.1-.054,1.413q0,1.256.185,3.759Z" transform="translate(-1549.157 -132.562)" fill="#fff"/>
      <path id="Trazado_19529" data-name="Trazado 19529" d="M1581.572,145.948a6.72,6.72,0,0,1-.594,3.39q-1.091,1.656-5.446,1.655a11.682,11.682,0,0,1-3.029-.3,3.047,3.047,0,0,1-2.2-1.861,7.665,7.665,0,0,1-.254-2.4q0-.4.029-1.188c.02-.526.029-.919.029-1.179q0-1.129-.107-3.39t-.107-3.38c0-.155.068-.234.2-.234q.593,0,1.8.05t1.8.048c.163,0,.244.072.244.215q0,1.286-.083,3.852t-.083,3.853a4.481,4.481,0,0,0,.321,2.065,1.913,1.913,0,0,0,1.793.73,1.739,1.739,0,0,0,2-1.938q0-1.413-.068-4.238t-.068-4.238c0-.2.081-.3.244-.3q.575,0,1.734-.048t1.734-.05c.188,0,.282.079.282.234q0,1.121-.093,3.38t-.092,3.39q0,.311.01.94C1581.568,145.427,1581.572,145.741,1581.572,145.948Z" transform="translate(-1555.397 -132.701)" fill="#fff"/>
      <path id="Trazado_19530" data-name="Trazado 19530" d="M1593.274,141.654q0,1.15.059,3.459t.058,3.457c0,.13-.029.211-.087.244a2.2,2.2,0,0,1-.253.038,14.589,14.589,0,0,1-1.7.078,12.4,12.4,0,0,1-1.812-.078q-.282-.058-.282-.3,0,.155.088-1.715.175-3.944.175-5.182,0-1.042-.068-3.126t-.068-3.128c0-.143.075-.215.224-.215.2,0,.5.01.91.029s.71.029.911.029.5-.009.892-.029.689-.029.891-.029.282.072.282.215q0,1.042-.112,3.128T1593.274,141.654Zm-3.76-6.857q-.185.009-.185-.2a2.138,2.138,0,0,1,.02-.244,2.369,2.369,0,0,0,.019-.253,2.967,2.967,0,0,0-.034-.361,2.941,2.941,0,0,1-.034-.36c0-.091.068-.162.2-.215a18,18,0,0,0,1.851-.964q.593-.429,1.8-1.276a.667.667,0,0,1,.194-.1.507.507,0,0,1,.166.1c.148.156.386.376.71.662q.274.156.8.5c.1.071.156.136.156.194s-.046.12-.136.2a8.745,8.745,0,0,1-2.572,1.534,8.857,8.857,0,0,1-2.873.784Z" transform="translate(-1561.227 -130.822)" fill="#fff"/>
      <path id="Trazado_19531" data-name="Trazado 19531" d="M1610.333,150.387c0,.117-.082.2-.244.243a11.186,11.186,0,0,1-1.812.078,12.316,12.316,0,0,1-1.792-.078.522.522,0,0,1-.419-.438,3.74,3.74,0,0,0-.516-1.5,21.577,21.577,0,0,0-2.612-.068,7.677,7.677,0,0,0-1.762.087,2.672,2.672,0,0,0-.37,1.042q-.186.808-.449.877a16.376,16.376,0,0,1-2.221.078q-1.491,0-1.49-.283,0-.253,2.2-6.224,2.387-6.458,2.591-7.1.116-.37.273-.37c.175,0,.445.017.813.049s.641.049.823.049.434-.011.774-.034.6-.034.765-.034c.123,0,.236.108.341.322q.477,1.022,2.786,7.014Q1610.332,150.125,1610.333,150.387Zm-6.906-8.874q-.205.429-.692,1.86a10.134,10.134,0,0,0-.526,1.783c0,.117.2.182.584.2.2.013.533.02.994.02q.644,0,.712-.157a.39.39,0,0,0,.019-.136,9.529,9.529,0,0,0-.448-1.773A13.755,13.755,0,0,0,1603.426,141.513Z" transform="translate(-1563.449 -132.6)" fill="#fff"/>
    </g>
  </g>
</svg>
