<svg xmlns="http://www.w3.org/2000/svg" width="826" height="421.864" viewBox="0 0 826 421.864">
  <g id="Grupo_7535" data-name="Grupo 7535" transform="translate(-208.39 -347.55)">
    <path id="Trazado_18553" data-name="Trazado 18553" d="M340.937,768.394S247.55,668.126,325.144,559.572c68.846-96.316,149.114-89.733,208.005-50.647,25.083,16.647,97.4,2.052,158.948-95.954,83.937-133.653,374.894-52.592,321.843,153.037-25.673,99.509,78.132,103.127,25.24,202.6Z" transform="translate(-58.807 0)" fill="#ebf3fa"/>
    <g id="Grupo_7500" data-name="Grupo 7500" transform="translate(413.931 415.132)">
      <rect id="Rectángulo_1685" data-name="Rectángulo 1685" width="116.133" height="116.133" transform="matrix(0.725, -0.688, 0.688, 0.725, 0, 79.934)" fill="#ee9849"/>
      <rect id="Rectángulo_1686" data-name="Rectángulo 1686" width="23.389" height="116.133" transform="translate(67.279 16.099) rotate(-43.496)" fill="#e58638"/>
    </g>
    <g id="Grupo_7501" data-name="Grupo 7501" transform="translate(377.563 512.93)">
      <rect id="Rectángulo_1687" data-name="Rectángulo 1687" width="116.133" height="116.133" transform="translate(0 24.111) rotate(-11.983)" fill="#86d1cd"/>
      <rect id="Rectángulo_1688" data-name="Rectángulo 1688" width="116.133" height="23.389" transform="translate(0 24.111) rotate(-11.983)" fill="#76c0bf"/>
    </g>
    <g id="Grupo_7503" data-name="Grupo 7503" transform="translate(783.501 513.063)">
      <path id="Trazado_18554" data-name="Trazado 18554" d="M2126.682,901.031s-10.369-19.565,5.167-27.016c0,0,10.949-3.666,18.7-1.424,0,0-15.334,16.165-12.15,18.832s15.788-19.244,15.788-19.244,22.408,2.807,28.7,7.786c0,0-22.2,11.123-18.455,12.925s27.379-8.7,27.379-8.7,19.628,8.065,15.739,20.27-11.787,14.468-14.8,13.442-19.544-12-20.508-9.552,8.058,13.169,15.592,15.271c0,0-17.959,12.631-26.492,5.9s-7.716-14.175-13.064-18.239-10.439-5.2-8.6-1.871,12.018,8.457,14.07,15.254,4.2,11.552-5.363,7.838-24.013-14.573-22.854-23.022Z" transform="translate(-2093.916 -871.865)" fill="#599dad"/>
      <g id="Grupo_7502" data-name="Grupo 7502" transform="translate(0 23.711)">
        <path id="Trazado_18555" data-name="Trazado 18555" d="M2168.765,953.94s-54.954-14.608-70.762-1.509a41.1,41.1,0,0,1-14.524,13.009l-2.095,3.247s11.884-7.967,15.46-7.807C2096.844,960.881,2095.887,940.031,2168.765,953.94Z" transform="translate(-2065.237 -946.977)" fill="#599dad"/>
        <path id="Trazado_18556" data-name="Trazado 18556" d="M2048.475,1003.844s-13.878,6.122-18.242,21.659l2.116.679s7.458-15.4,15.757-20.215S2048.475,1003.844,2048.475,1003.844Z" transform="translate(-2030.233 -985.38)" fill="#599dad"/>
      </g>
    </g>
    <g id="Grupo_7505" data-name="Grupo 7505" transform="translate(732.296 382.681)">
      <path id="Trazado_18557" data-name="Trazado 18557" d="M1893.43,557.942s-37.712-19.667-21.241-48.374c0,0,13.333-17.723,28.037-22.616,0,0-6.661,42.275,1.282,43.028s4.026-47.641,4.026-47.641,38.511-19.958,53.888-18.93c0,0-23.012,41.771-15.128,40.547s33.848-43.579,33.848-43.579,39.84-8.612,46.976,14.936-2.9,35.727-8.786,37.388-43.988,2.3-42.851,7.216,27.09,12.064,41.3,7.185c0,0-14.663,39.543-35.494,38.183s-27.644-14.027-40.532-14.633-22.182,3.136-15.65,6.406,28.225.295,38.874,8.815,19.219,13.71.049,18.241-53.865,3.089-61.231-11.542Z" transform="translate(-1868.025 -458.84)" fill="#86d1cd"/>
      <g id="Grupo_7504" data-name="Grupo 7504" transform="translate(7.909 24.437)">
        <path id="Trazado_18558" data-name="Trazado 18558" d="M2043,536.251s-102.859,36.724-113.61,74.665c0,0,1,16.8-8.816,36.4l.221,7.418s10.13-25.547,15.962-29.186C1936.756,625.548,1912.539,593.6,2043,536.251Z" transform="translate(-1911.895 -536.251)" fill="#6bb7bf"/>
        <path id="Trazado_18559" data-name="Trazado 18559" d="M1901.759,877.769s-15.293,24.8-5.279,54.135l4.087-1.229s-4.971-32.492,2.92-49.143S1901.759,877.769,1901.759,877.769Z" transform="translate(-1893.08 -766.705)" fill="#6bb7bf"/>
      </g>
    </g>
    <g id="Grupo_7507" data-name="Grupo 7507" transform="translate(534.911 611.636)">
      <path id="Trazado_18560" data-name="Trazado 18560" d="M1347.083,1214.692s-.354-31.8-25.069-30.532c0,0-16.329,2.893-24.567,11.043,0,0,30.443,9.862,28.258,15.414s-33.13-13.435-33.13-13.435-26.339,18.927-30.856,29.527c0,0,35.64-1.211,32.155,3.632s-40.512,7.824-40.512,7.824-19.223,23.651-5.935,36.378,24.8,10.157,27.9,6.791,16.417-28.553,19.311-26.132-1.122,22.146-9.183,29.97c0,0,31.328,3.6,37.471-10.748s0-23.179,3.957-31.978,9.6-13.73,9.567-8.268-9.354,18.92-7.275,28.9,2.639,17.454,12.147,6.2,20.286-34.872,13.022-44.734Z" transform="translate(-1242.746 -1184.123)" fill="#599dad"/>
      <g id="Grupo_7506" data-name="Grupo 7506" transform="translate(16.108 30.167)">
        <path id="Trazado_18561" data-name="Trazado 18561" d="M1293.773,1330.579s59.292-56.161,88.229-50.492c0,0,10.866,6.348,27.254,6.437l4.872,2.658s-20.462-1.89-24.862.767C1389.265,1289.949,1376.156,1262.991,1293.773,1330.579Z" transform="translate(-1293.773 -1279.685)" fill="#599dad"/>
        <path id="Trazado_18562" data-name="Trazado 18562" d="M1649.327,1301.226s21.711-1.806,37.884,14.8l-2.2,2.31s-19.984-14.309-33.757-14.681S1649.327,1301.226,1649.327,1301.226Z" transform="translate(-1533.844 -1294.386)" fill="#599dad"/>
      </g>
    </g>
    <g id="Grupo_7509" data-name="Grupo 7509" transform="translate(558.089 489.135)">
      <path id="Trazado_18563" data-name="Trazado 18563" d="M1383.248,845.615s18.856-9.834,10.621-24.187c0,0-6.667-8.861-14.019-11.308,0,0,3.33,21.137-.641,21.514s-2.013-23.821-2.013-23.821-19.256-9.979-26.944-9.465c0,0,11.506,20.886,7.564,20.273s-16.924-21.789-16.924-21.789-19.92-4.306-23.488,7.468,1.448,17.863,4.394,18.694,21.994,1.15,21.426,3.608-13.545,6.032-20.65,3.593c0,0,7.332,19.771,17.747,19.092s13.822-7.014,20.266-7.317,11.091,1.568,7.825,3.2-14.112.147-19.437,4.407-9.609,6.855-.024,9.121,26.932,1.545,30.615-5.771Z" transform="translate(-1316.17 -796.064)" fill="#86d1cd"/>
      <g id="Grupo_7508" data-name="Grupo 7508" transform="translate(10.273 12.219)">
        <path id="Trazado_18564" data-name="Trazado 18564" d="M1348.712,834.77s51.43,18.362,56.8,37.332a39.473,39.473,0,0,0,4.408,18.2l-.11,3.709s-5.065-12.774-7.98-14.593C1401.834,879.418,1413.943,863.443,1348.712,834.77Z" transform="translate(-1348.712 -834.77)" fill="#6bb7bf"/>
        <path id="Trazado_18565" data-name="Trazado 18565" d="M1537.38,1005.529s7.646,12.4,2.64,27.068l-2.044-.615s2.485-16.246-1.46-24.571S1537.38,1005.529,1537.38,1005.529Z" transform="translate(-1476.167 -949.997)" fill="#6bb7bf"/>
      </g>
    </g>
    <g id="Grupo_7512" data-name="Grupo 7512" transform="translate(654.071 397.889)">
      <g id="Grupo_7510" data-name="Grupo 7510" transform="translate(14.708)">
        <path id="Trazado_18566" data-name="Trazado 18566" d="M1670.36,532.415l-1.858-1.541a4.679,4.679,0,0,1-.615-6.58l12.927-15.591a4.679,4.679,0,0,1,6.58-.615l2.661,2.207a.914.914,0,1,1-1.167,1.408l-2.661-2.207a2.847,2.847,0,0,0-4,.374L1669.3,525.462a2.848,2.848,0,0,0,.374,4l1.858,1.541a2.847,2.847,0,0,0,4.005-.374l8.581-10.35a.914.914,0,1,1,1.408,1.167l-8.581,10.35A4.679,4.679,0,0,1,1670.36,532.415Z" transform="translate(-1666.814 -507.015)" fill="#ee9849"/>
      </g>
      <g id="Grupo_7511" data-name="Grupo 7511" transform="translate(0 3.07)">
        <path id="Trazado_18567" data-name="Trazado 18567" d="M1626.07,555.668l-3.331-2.762a7.568,7.568,0,0,1-.626-10.66l19.435-23.44a.914.914,0,1,1,1.408,1.167l-19.435,23.441a5.741,5.741,0,0,0,.386,8.084l3.331,2.762a5.741,5.741,0,0,0,8.016-1.118l22.137-26.7a5.742,5.742,0,0,0-.386-8.085.914.914,0,1,1,1.167-1.408,7.568,7.568,0,0,1,.626,10.66l-22.137,26.7A7.568,7.568,0,0,1,1626.07,555.668Z" transform="translate(-1620.223 -516.739)" fill="#ee9849"/>
      </g>
    </g>
    <g id="Grupo_7515" data-name="Grupo 7515" transform="translate(430.417 422.838)">
      <g id="Grupo_7513" data-name="Grupo 7513" transform="translate(0 0.86)">
        <path id="Trazado_18568" data-name="Trazado 18568" d="M931.385,614.759l-2.064,1.251a4.679,4.679,0,0,1-6.419-1.575l-10.5-17.32a4.678,4.678,0,0,1,1.574-6.419l2.957-1.792a.914.914,0,1,1,.948,1.564l-2.957,1.792a2.847,2.847,0,0,0-.958,3.906l10.5,17.32a2.847,2.847,0,0,0,3.907.958l2.064-1.251a2.847,2.847,0,0,0,.958-3.906l-6.968-11.5a.914.914,0,1,1,1.564-.948l6.969,11.5A4.678,4.678,0,0,1,931.385,614.759Z" transform="translate(-911.729 -588.772)" fill="#86d1cd"/>
      </g>
      <g id="Grupo_7514" data-name="Grupo 7514" transform="translate(1.383 0)">
        <path id="Trazado_18569" data-name="Trazado 18569" d="M946,630.053l-3.7,2.243a7.568,7.568,0,0,1-10.277-2.9l-15.782-26.04a.914.914,0,1,1,1.564-.948l15.782,26.04a5.742,5.742,0,0,0,7.765,2.284l3.7-2.243a5.741,5.741,0,0,0,1.569-7.94l-17.976-29.661a5.742,5.742,0,0,0-7.765-2.284.914.914,0,1,1-.948-1.564,7.568,7.568,0,0,1,10.277,2.9L948.187,619.6A7.569,7.569,0,0,1,946,630.053Z" transform="translate(-916.11 -586.047)" fill="#86d1cd"/>
      </g>
    </g>
    <g id="Grupo_7516" data-name="Grupo 7516" transform="translate(759.455 589.874)">
      <rect id="Rectángulo_1689" data-name="Rectángulo 1689" width="182.285" height="177.629" rx="11.883" transform="translate(22.013)" fill="#e58638"/>
      <path id="Rectángulo_1690" data-name="Rectángulo 1690" d="M11.626,0H170.659a11.626,11.626,0,0,1,11.626,11.626V158.411a11.626,11.626,0,0,1-11.626,11.626H11.625A11.625,11.625,0,0,1,0,158.412V11.626A11.626,11.626,0,0,1,11.626,0Z" transform="translate(14.674 2.912)" fill="#f9ddbf"/>
      <path id="Rectángulo_1691" data-name="Rectángulo 1691" d="M11.883,0H170.4a11.884,11.884,0,0,1,11.884,11.884V165.743A11.884,11.884,0,0,1,170.4,177.627H11.884A11.884,11.884,0,0,1,0,165.743V11.883A11.883,11.883,0,0,1,11.883,0Z" transform="translate(0 0.001)" fill="#ee9849"/>
      <rect id="Rectángulo_1692" data-name="Rectángulo 1692" width="11.319" height="177.627" transform="translate(148.315 0.001)" fill="#c65447"/>
    </g>
    <g id="Grupo_7520" data-name="Grupo 7520" transform="translate(614.818 470.251)">
      <rect id="Rectángulo_1693" data-name="Rectángulo 1693" width="213.04" height="293.816" transform="translate(5.487 3.455)" fill="#dbaf8f"/>
      <rect id="Rectángulo_1694" data-name="Rectángulo 1694" width="213.04" height="293.816" transform="translate(0 3.455)" fill="#efcbab"/>
      <rect id="Rectángulo_1695" data-name="Rectángulo 1695" width="183.817" height="253.513" transform="translate(14.611 23.606)" fill="#ebf3fa"/>
      <path id="Rectángulo_1696" data-name="Rectángulo 1696" d="M12.546,0H68.381A12.546,12.546,0,0,1,80.927,12.546v7.184A12.546,12.546,0,0,1,68.381,32.276H12.547A12.547,12.547,0,0,1,0,19.729V12.546A12.546,12.546,0,0,1,12.546,0Z" transform="translate(66.056)" fill="#ee9849"/>
      <g id="Grupo_7519" data-name="Grupo 7519" transform="translate(14.611 35.101)">
        <g id="Grupo_7517" data-name="Grupo 7517">
          <rect id="Rectángulo_1697" data-name="Rectángulo 1697" width="183.817" height="0.775" fill="#d8e8fd"/>
          <rect id="Rectángulo_1698" data-name="Rectángulo 1698" width="183.817" height="0.775" transform="translate(0 13.323)" fill="#d8e8fd"/>
          <rect id="Rectángulo_1699" data-name="Rectángulo 1699" width="183.817" height="0.775" transform="translate(0 26.645)" fill="#d8e8fd"/>
          <rect id="Rectángulo_1700" data-name="Rectángulo 1700" width="183.817" height="0.775" transform="translate(0 39.968)" fill="#d8e8fd"/>
          <rect id="Rectángulo_1701" data-name="Rectángulo 1701" width="183.817" height="0.775" transform="translate(0 53.29)" fill="#d8e8fd"/>
          <rect id="Rectángulo_1702" data-name="Rectángulo 1702" width="183.817" height="0.775" transform="translate(0 66.613)" fill="#d8e8fd"/>
          <rect id="Rectángulo_1703" data-name="Rectángulo 1703" width="183.817" height="0.775" transform="translate(0 79.936)" fill="#d8e8fd"/>
          <rect id="Rectángulo_1704" data-name="Rectángulo 1704" width="183.817" height="0.775" transform="translate(0 93.258)" fill="#d8e8fd"/>
          <rect id="Rectángulo_1705" data-name="Rectángulo 1705" width="183.817" height="0.775" transform="translate(0 106.581)" fill="#d8e8fd"/>
        </g>
        <g id="Grupo_7518" data-name="Grupo 7518" transform="translate(0 121.08)">
          <rect id="Rectángulo_1706" data-name="Rectángulo 1706" width="183.817" height="0.775" fill="#d8e8fd"/>
          <rect id="Rectángulo_1707" data-name="Rectángulo 1707" width="183.817" height="0.775" transform="translate(0 13.322)" fill="#d8e8fd"/>
          <rect id="Rectángulo_1708" data-name="Rectángulo 1708" width="183.817" height="0.775" transform="translate(0 26.645)" fill="#d8e8fd"/>
          <rect id="Rectángulo_1709" data-name="Rectángulo 1709" width="183.817" height="0.775" transform="translate(0 39.968)" fill="#d8e8fd"/>
          <rect id="Rectángulo_1710" data-name="Rectángulo 1710" width="183.817" height="0.775" transform="translate(0 53.291)" fill="#d8e8fd"/>
          <rect id="Rectángulo_1711" data-name="Rectángulo 1711" width="183.817" height="0.775" transform="translate(0 66.613)" fill="#d8e8fd"/>
          <rect id="Rectángulo_1712" data-name="Rectángulo 1712" width="183.817" height="0.775" transform="translate(0 79.936)" fill="#d8e8fd"/>
          <rect id="Rectángulo_1713" data-name="Rectángulo 1713" width="183.817" height="0.775" transform="translate(0 93.258)" fill="#d8e8fd"/>
          <rect id="Rectángulo_1714" data-name="Rectángulo 1714" width="183.817" height="0.775" transform="translate(0 106.581)" fill="#d8e8fd"/>
        </g>
      </g>
    </g>
    <g id="Grupo_7523" data-name="Grupo 7523" transform="translate(296.815 570.989)">
      <path id="Trazado_18570" data-name="Trazado 18570" d="M795.222,1251.208c.978-.69,3.2-2.209,3.31-1.871a1.489,1.489,0,0,1-.3,1.088c1.341-.5,2.7-.83,5.924-.211a2.414,2.414,0,0,1,1.584,1.043,1.065,1.065,0,0,1-.371,1.661c-1.643,1.022-1.167.41-3.451,1.9s-5.081,1.868-6.752.824l-2.242-.373-.278-3.688S793.924,1251.425,795.222,1251.208Z" transform="translate(-696.636 -1188.07)" fill="#ffb27d"/>
      <path id="Trazado_18571" data-name="Trazado 18571" d="M614.677,1131.794s5.286,6.271,12.018,3.648a20.4,20.4,0,0,0,1.469-6.084c0-.318.006-.626.011-.919.036-2.907.134-4.539.134-4.539H628.3c-.306-.127-10.29-4.227-10.282-3.886C618.191,1127.875,614.677,1131.794,614.677,1131.794Z" transform="translate(-574.847 -1099.59)" fill="#ffb27d"/>
      <path id="Trazado_18572" data-name="Trazado 18572" d="M628.426,1125.836a15.618,15.618,0,0,0,9.153,6.552c.036-2.907.134-4.539.134-4.539h-.007C637.43,1127.773,628.14,1125.31,628.426,1125.836Z" transform="translate(-584.252 -1103.538)" fill="#ed975d"/>
      <path id="Trazado_18573" data-name="Trazado 18573" d="M633.122,1091.3s-11.228,2.64-12.765-4.378-4.02-11.4,3.084-13.385,9.088.39,10.17,2.607S636,1090.43,633.122,1091.3Z" transform="translate(-577.569 -1067.289)" fill="#ffb27d"/>
      <path id="Trazado_18574" data-name="Trazado 18574" d="M608.336,1076.9c-.153.1-2.57.841-7.145-8.274a7.938,7.938,0,0,1,.467-7.261c1.674-2.735,7.611-4.886,12.543-5.821s6.117,1.839,7.278,4.629c1.219,2.928,4.74,5.339,4.74,5.339-4.253,2.376-9.376-1.022-11.151-.463s-2.4,3.356-2.535,4.252-.337,1.642-2.569.841-1.009,3.163-.652,3.92C609.313,1074.064,609.616,1076.083,608.336,1076.9Z" transform="translate(-565.164 -1055.361)" fill="#a9453d"/>
      <g id="Grupo_7521" data-name="Grupo 7521" transform="translate(0 86.205)">
        <path id="Trazado_18575" data-name="Trazado 18575" d="M502.751,1641.59h-6.8c-1.425,0-3.009-1.427-3.405-4.04s-3.326-4.04-3.96-6.178,2.614-5.15,2.614-5.15l.543-.7.565-.728,5.385,1.266s.133,1.283.216,2.916a37.35,37.35,0,0,1,.022,3.739c-.158,2.852.8,5.923,3.332,6.478S502.751,1641.59,502.751,1641.59Z" transform="translate(-488.504 -1531.245)" fill="#2c3a64"/>
        <path id="Trazado_18576" data-name="Trazado 18576" d="M641.824,1656.724H623.8a1.608,1.608,0,0,1-.383-.111c-1.2-.6-.826-5.209-.682-6.632.028-.264.048-.418.048-.418s6.337-5.069,7.209-1.188c.027.121.059.24.093.357v0c1.1,3.631,6.018,5.281,8.859,5.74C641.117,1654.827,641.68,1656.091,641.824,1656.724Z" transform="translate(-580.246 -1546.379)" fill="#2c3a64"/>
        <path id="Trazado_18577" data-name="Trazado 18577" d="M613.77,1345.163s-.962,12.008-2.094,26.442c-1.538,19.608-3.386,43.692-3.569,48.255-.316,7.923-1.585,20.6-1.585,20.6s-3.009,3.011-9.03,1.742a207.317,207.317,0,0,1-6.9-37.233c-.024-.313-.048-.63-.071-.946-1.426-19.487-3.643-60.52-3.643-60.52Z" transform="translate(-555.824 -1338.746)" fill="#2b478b"/>
        <path id="Trazado_18578" data-name="Trazado 18578" d="M613.77,1345.163s-.962,12.008-2.094,26.442l-21.083,33.36c-.024-.313-.048-.63-.071-.946-1.426-19.487-3.643-60.52-3.643-60.52Z" transform="translate(-555.824 -1338.746)" fill="#233862"/>
        <path id="Trazado_18579" data-name="Trazado 18579" d="M547.9,1336.285s-17.348,43.488-28.754,63.925-14.972,26.141-14.972,26.141-6.535-2.614-7.129-4.4c0,0,4.362-39.454,12-49.072,4.316-5.435,9.387-21.744,9.624-27.447s1.545-16.991,1.545-16.991Z" transform="translate(-494.348 -1328.443)" fill="#2b478b"/>
      </g>
      <g id="Grupo_7522" data-name="Grupo 7522" transform="translate(8.161 32.899)">
        <path id="Trazado_18580" data-name="Trazado 18580" d="M520.185,1326.038l-.183,2.8a6.027,6.027,0,0,1-3.324,7.518s-2.212.892-2.3-.83.194-1.075.014-3.5.774-4.717,2.378-5.489l1.316-1.519Z" transform="translate(-514.358 -1272.791)" fill="#ffb27d"/>
        <path id="Trazado_18581" data-name="Trazado 18581" d="M521.245,1214.862c1.92.616,2.228.477,2.228.477s9.346-17.015,10.292-18.573,19.843-19.08,19.843-19.08l-4.856-18.108s-21.492,27.831-23.813,31.825c-3.835,6.6-6.082,21.926-6.082,21.926A5.619,5.619,0,0,0,521.245,1214.862Z" transform="translate(-517.437 -1159.578)" fill="#1e3d70"/>
      </g>
      <path id="Trazado_18582" data-name="Trazado 18582" d="M603.15,1176.288c-.067,3.718-.283,7.9-.575,12.145q-.027.378-.053.755c-.186,2.63-.389,5.267-.621,7.838q-.14,1.547-.3,3.051l-.016.135c-.008.375-.054.781-.1,1.152-.947,9.629-1.94,17.237-2.125,17.354a1.08,1.08,0,0,1-.739.188c-2.525-.317-10.06.256-16.229-1.086a46.771,46.771,0,0,1-14.436-5.986c-.63-.373-2.067-1.36-1.951-2.1.115-.811.327-1.982.6-3.455a186.988,186.988,0,0,0,3.1-24.245q.161-2.881.466-5.683a86.228,86.228,0,0,1,2.516-13.572c2.115-7.616,6.589-13.321,10.488-15.6.509-.285,1.885,1.332,4.4,2.948,2.325,1.49,4.529.811,6.91.6l2.339,3.409a23.4,23.4,0,0,1,5.976,12.458q.083.618.143,1.316A81.887,81.887,0,0,1,603.15,1176.288Z" transform="translate(-541.542 -1118.172)" fill="#2a4e96"/>
      <path id="Trazado_18583" data-name="Trazado 18583" d="M646.217,1212.039c-.067,3.718-.283,7.9-.575,12.145q-.026.378-.053.755c-14.425-9.029-16.647-25.551-16.647-25.551a39.451,39.451,0,0,1,17.079,4.276A81.884,81.884,0,0,1,646.217,1212.039Z" transform="translate(-584.609 -1153.923)" fill="#1e3d70"/>
      <path id="Trazado_18584" data-name="Trazado 18584" d="M669.154,1197.851c.149-2.139-.959-2.5-.959-2.5s-21.749-3.941-23.6-4.523-17.658-17.027-17.658-17.027-6.06-6.834-11.021-5.325c-4.312,1.311-6,4.675-6.571,7.879a9.438,9.438,0,0,0,4.383,9.688c7.422,4.552,22.281,13.522,25.78,14.548,7.789,2.283,28.714.183,28.714.183A6.758,6.758,0,0,0,669.154,1197.851Z" transform="translate(-571.1 -1132.622)" fill="#2a4e96"/>
    </g>
    <g id="Grupo_7530" data-name="Grupo 7530" transform="translate(388.527 666.4)">
      <rect id="Rectángulo_1715" data-name="Rectángulo 1715" width="172.797" height="101.121" transform="translate(3.675 0)" fill="#fcecdb"/>
      <g id="Grupo_7529" data-name="Grupo 7529" transform="translate(0 5)">
        <g id="Grupo_7524" data-name="Grupo 7524">
          <path id="Rectángulo_1716" data-name="Rectángulo 1716" d="M1.423,0H12.494a1.423,1.423,0,0,1,1.423,1.423v0a1.422,1.422,0,0,1-1.422,1.422H1.422A1.422,1.422,0,0,1,0,1.423v0A1.423,1.423,0,0,1,1.423,0Z" fill="#ee9849"/>
          <rect id="Rectángulo_1717" data-name="Rectángulo 1717" width="13.917" height="2.845" rx="1.422" transform="translate(0 5.436)" fill="#ee9849"/>
        </g>
        <g id="Grupo_7525" data-name="Grupo 7525" transform="translate(0 20.085)">
          <rect id="Rectángulo_1718" data-name="Rectángulo 1718" width="13.917" height="2.845" rx="1.422" fill="#ee9849"/>
          <path id="Rectángulo_1719" data-name="Rectángulo 1719" d="M1.423,0H12.494a1.423,1.423,0,0,1,1.423,1.423v0a1.423,1.423,0,0,1-1.423,1.423H1.422A1.422,1.422,0,0,1,0,1.423v0A1.423,1.423,0,0,1,1.423,0Z" transform="translate(0 5.436)" fill="#ee9849"/>
        </g>
        <g id="Grupo_7526" data-name="Grupo 7526" transform="translate(0 40.169)">
          <rect id="Rectángulo_1720" data-name="Rectángulo 1720" width="13.917" height="2.845" rx="1.423" fill="#ee9849"/>
          <path id="Rectángulo_1721" data-name="Rectángulo 1721" d="M1.423,0H12.494a1.423,1.423,0,0,1,1.423,1.423v0a1.422,1.422,0,0,1-1.422,1.422H1.422A1.422,1.422,0,0,1,0,1.423v0A1.423,1.423,0,0,1,1.423,0Z" transform="translate(0 5.436)" fill="#ee9849"/>
        </g>
        <g id="Grupo_7527" data-name="Grupo 7527" transform="translate(0 60.253)">
          <path id="Rectángulo_1722" data-name="Rectángulo 1722" d="M1.423,0H12.494a1.423,1.423,0,0,1,1.423,1.423v0a1.422,1.422,0,0,1-1.422,1.422H1.422A1.422,1.422,0,0,1,0,1.423v0A1.423,1.423,0,0,1,1.423,0Z" fill="#ee9849"/>
          <path id="Rectángulo_1723" data-name="Rectángulo 1723" d="M1.422,0H12.494a1.422,1.422,0,0,1,1.422,1.422v0a1.423,1.423,0,0,1-1.423,1.423H1.422A1.422,1.422,0,0,1,0,1.423v0A1.422,1.422,0,0,1,1.422,0Z" transform="translate(0 5.436)" fill="#ee9849"/>
        </g>
        <g id="Grupo_7528" data-name="Grupo 7528" transform="translate(0 80.338)">
          <rect id="Rectángulo_1724" data-name="Rectángulo 1724" width="13.917" height="2.845" rx="1.422" fill="#ee9849"/>
          <path id="Rectángulo_1725" data-name="Rectángulo 1725" d="M1.423,0H12.494a1.422,1.422,0,0,1,1.422,1.422v0a1.423,1.423,0,0,1-1.423,1.423H1.423A1.423,1.423,0,0,1,0,1.423v0A1.423,1.423,0,0,1,1.423,0Z" transform="translate(0 5.436)" fill="#ee9849"/>
        </g>
      </g>
    </g>
    <g id="Grupo_7531" data-name="Grupo 7531" transform="translate(505.257 651.389)">
      <path id="Trazado_18585" data-name="Trazado 18585" d="M1264.941,1310.053v116.133H1148.809V1310.053Z" transform="translate(-1148.809 -1310.053)" fill="#ffa412"/>
      <path id="Trazado_18586" data-name="Trazado 18586" d="M1309.726,1310.053V1332s.65,40.646,2.1,54.533c2.743,26.215,10.771,39.652,10.771,39.652H1206.156s-9.856-14.656-12.563-37.924c-1.625-13.971,0-56.261,0-56.261v-21.947Z" transform="translate(-1178.961 -1310.053)" fill="#ffb93e"/>
      <rect id="Rectángulo_1726" data-name="Rectángulo 1726" width="116.133" height="21.947" transform="translate(14.632)" fill="#ffaf28"/>
    </g>
    <rect id="Rectángulo_1727" data-name="Rectángulo 1727" width="826" height="2.159" rx="1.08" transform="translate(208.39 767.255)" fill="#2e3552"/>
    <g id="Grupo_7534" data-name="Grupo 7534" transform="translate(666.548 570.46)">
      <path id="Trazado_18587" data-name="Trazado 18587" d="M1712.844,1162.611l-1.314-2.48s.652-4.419-4.885-7.214a2.7,2.7,0,0,0-3.166.826c-1.052,1.52,2.005,1.246,1.841,3.846a4.783,4.783,0,0,0,2.789,4.974l1.42,1.645Z" transform="translate(-1689.523 -1121.451)" fill="#ffb27d"/>
      <path id="Trazado_18588" data-name="Trazado 18588" d="M1774.419,1163.436s-4.755,23.338-30.921,30.963c-8.168,2.38-26.724-24.511-26.724-24.511s.653-2.479,4.74-1.91c0,0,18.068,11.961,20.343,13.261,2.018,1.153,15.292-14.822,21.343-17.4A15.445,15.445,0,0,1,1774.419,1163.436Z" transform="translate(-1698.772 -1128.205)" fill="#233862"/>
      <g id="Grupo_7532" data-name="Grupo 7532" transform="translate(0 30.642)">
        <rect id="Rectángulo_1728" data-name="Rectángulo 1728" width="4.887" height="24.584" transform="translate(5.278 4.831) rotate(-81.267)" fill="#c65447"/>
        <path id="Trazado_18589" data-name="Trazado 18589" d="M1659.748,1152.3l5.278,3.283.742-4.83Z" transform="translate(-1659.748 -1150.753)" fill="#ffb27d"/>
        <path id="Rectángulo_1729" data-name="Rectángulo 1729" d="M0,0H4.887a0,0,0,0,1,0,0V.487A2.371,2.371,0,0,1,2.516,2.858h0A2.516,2.516,0,0,1,0,.342V0A0,0,0,0,1,0,0Z" transform="matrix(0.152, -0.988, 0.988, 0.152, 29.577, 8.563)" fill="#ffb27d"/>
      </g>
      <g id="Grupo_7533" data-name="Grupo 7533" transform="translate(47.982 88.053)">
        <path id="Trazado_18590" data-name="Trazado 18590" d="M1972.848,1626.988s3.246,2.962,2.613,5.067-3.562,3.508-3.958,6.081-1.979,3.976-3.4,3.976H1961.3s-1.049-1.81,1.484-2.356,3.488-3.569,3.33-6.375a49.511,49.511,0,0,1,.237-6.548l5.384-1.247Z" transform="translate(-1913.945 -1533.103)" fill="#233862"/>
        <path id="Trazado_18591" data-name="Trazado 18591" d="M1830.826,1648.646s.583,6.742-.843,7.443l-18.238-.037s0-2.1,2.929-2.573,8.076-2.183,8.947-6S1830.826,1648.646,1830.826,1648.646Z" transform="translate(-1811.745 -1547.098)" fill="#233862"/>
        <path id="Trazado_18592" data-name="Trazado 18592" d="M1823.411,1349.073s.962,11.818,2.092,26.023c1.537,19.3,3.385,43,3.568,47.49.316,7.8,1.584,20.27,1.584,20.27s3.007,2.963,9.026,1.714a201.279,201.279,0,0,0,6.9-36.643c.024-.309.047-.62.071-.931,1.425-19.177,3.641-59.56,3.641-59.56Z" transform="translate(-1819.728 -1342.759)" fill="#ee9849"/>
        <path id="Trazado_18593" data-name="Trazado 18593" d="M1823.411,1349.073s.962,11.818,2.092,26.023l21.073,32.83c.024-.309.047-.62.071-.931,1.425-19.177,3.641-59.56,3.641-59.56Z" transform="translate(-1819.728 -1342.759)" fill="#e58638"/>
        <path id="Trazado_18594" data-name="Trazado 18594" d="M1837.327,1340.337s17.339,42.8,28.739,62.911,14.964,25.726,14.964,25.726,6.531-2.573,7.125-4.327c0,0-4.359-38.829-11.994-48.294-4.314-5.349-9.382-21.4-9.62-27.012s-1.544-16.722-1.544-16.722Z" transform="translate(-1829.251 -1332.619)" fill="#ee9849"/>
      </g>
      <path id="Trazado_18595" data-name="Trazado 18595" d="M1869.5,1117.318s-11.731,5.66-18.495,3.56a15.956,15.956,0,0,1,4.578-3.663c-.234-1.357-.416-2.536-.521-3.535a32.661,32.661,0,0,1-.286-3.612l4.526-3.56,4.292-3.407C1863.257,1112.682,1869.5,1117.318,1869.5,1117.318Z" transform="translate(-1790.63 -1087.503)" fill="#ffb27d"/>
      <path id="Trazado_18596" data-name="Trazado 18596" d="M1820.556,1207.894a1.058,1.058,0,0,0,.7.281c2.548-.052,9.962,1.356,16.229.716a47.937,47.937,0,0,0,15.01-4.249c.676-.308,2.213-1.128,2.185-1.844-.027-.82-.1-1.972-.207-3.46-.21-2.926-.506-7.081-.6-12.007-.07-3.652-.03-7.727.234-12.044.015-.289.031-.582.043-.875.076-1.582.113-3.176.113-4.734a82.16,82.16,0,0,0-1.064-14.086c-1.277-7.429-3.67-13.242-7.206-15.83-.469-.36-3.383,1.048-6.087,2.356a11.248,11.248,0,0,1-7.282.872l-2.341,2.049a23.115,23.115,0,0,0-7.337,11.525c-1.143,4.56-1.82,12.806-2.186,21.362-.18,3.893-.311,7.786-.363,11.5v.128c-.027.384-.027.771-.027,1.155C1820.245,1200.209,1820.373,1207.766,1820.556,1207.894Z" transform="translate(-1769.632 -1112.551)" fill="#2b478b"/>
      <path id="Trazado_18597" data-name="Trazado 18597" d="M1871.849,1114.151s-2.965,5.4-8.61,6.916a32.648,32.648,0,0,1-.286-3.612l4.526-3.559Z" transform="translate(-1798.806 -1094.888)" fill="#ed985f"/>
      <path id="Trazado_18598" data-name="Trazado 18598" d="M1851.682,1085.156s11.191,1.831,12.242-5.049,3.2-11.277-3.9-12.737-8.894.959-9.812,3.172S1848.8,1084.5,1851.682,1085.156Z" transform="translate(-1789.599 -1062.746)" fill="#ffb27d"/>
      <path id="Trazado_18599" data-name="Trazado 18599" d="M1860.151,1057.486c.1-.117.336-.211.858-.239a2.112,2.112,0,0,0-.974-.274,2.622,2.622,0,0,0-1.743-2.321,1.565,1.565,0,0,1,.759,1.128c-1.446-1.484-4.543-2.565-13.12-1.888-11.3.892-7.578,8.129-6.115,8.992s5.147-1.5,7.873-1.286,3.245,4.156,4.17,4.7.562-.415,1.813-.981,1.371,1.508,1.009,2.856,1.358,3.127,1.358,3.127l1.738-1.872c1.737-1.871,3.375-9.8,2.585-11.488C1860.291,1057.789,1860.222,1057.637,1860.151,1057.486Z" transform="translate(-1781.758 -1053.685)" fill="#2c3a64"/>
      <path id="Trazado_18600" data-name="Trazado 18600" d="M1721.9,1166.047s.385-1.521-.67-2.2-2.026-2.543-2.471-2.291c-.921.521.5,2.144.243,4.168C1718.908,1166.428,1720.558,1168.284,1721.9,1166.047Z" transform="translate(-1699.914 -1127.485)" fill="#ffb27d"/>
      <path id="Trazado_18601" data-name="Trazado 18601" d="M1911.759,1240.675c-.07-3.652-.03-7.727.234-12.044.016-.289.031-.582.043-.875-1.064-5.271-2.673-9.946-5.042-10.1C1906.995,1217.657,1899.938,1228.747,1911.759,1240.675Z" transform="translate(-1827.515 -1165.895)" fill="#233862"/>
      <path id="Trazado_18602" data-name="Trazado 18602" d="M1940.57,1348.609s-.589,5.719-1.234,6.8-3.393,4.538-4.564,5.217.715-4.555.476-5.573-.963,1.858-1.479,1.926-.383-2.521-.4-3.463,2.51-3.268,3.4-5.274S1940.57,1348.609,1940.57,1348.609Z" transform="translate(-1846.991 -1254.706)" fill="#ffb27d"/>
      <path id="Trazado_18603" data-name="Trazado 18603" d="M1890.021,1139.7s7.081,3.353,10.476,8.508c5.266,8,11.371,37.137,11.484,39.836s-4.455,21.75-4.455,21.75-4.634-.305-5.828-2.644c0,0,.926-19.575.339-20.833s-19.316-26.258-17.209-31.592S1890.021,1139.7,1890.021,1139.7Z" transform="translate(-1813.661 -1112.551)" fill="#2b478b"/>
    </g>
  </g>
</svg>
