<svg xmlns="http://www.w3.org/2000/svg" width="450.294" height="262.148" viewBox="0 0 450.294 262.148">
  <g id="Grupo_7691" data-name="Grupo 7691" transform="translate(-999.017 -427.353)">
    <ellipse id="Elipse_717" data-name="Elipse 717" cx="225.147" cy="19.564" rx="225.147" ry="19.564" transform="translate(999.017 650.372)" fill="#cff5fc"/>
    <g id="Grupo_7646" data-name="Grupo 7646" transform="translate(1094.916 453.629)">
      <g id="Grupo_7643" data-name="Grupo 7643" transform="translate(124.177 32.214)">
        <path id="Trazado_18867" data-name="Trazado 18867" d="M1183.951,551.227c-3.993,43.579,9.809,80.7,30.829,82.9s41.3-31.329,45.291-74.908-30.829-82.9-30.829-82.9S1187.944,507.648,1183.951,551.227Z" transform="translate(-1183.263 -476.32)" fill="#edc28a"/>
        <path id="Trazado_18868" data-name="Trazado 18868" d="M1226.926,482.127l-2.267,22.714-2.179,22.723-4.222,45.46-4.027,45.48-1.945,22.747-1.856,22.756,2.268-22.714,2.179-22.723,4.22-45.46,4.026-45.48,1.945-22.747Z" transform="translate(-1177.98 -475.191)" fill="#fff"/>
      </g>
      <g id="Grupo_7645" data-name="Grupo 7645">
        <path id="Trazado_18869" data-name="Trazado 18869" d="M1126.131,583.87C1174.316,639.222,1253.8,649.8,1253.8,649.8s1.362-79.166-46.824-134.519-127.672-65.933-127.672-65.933S1077.945,528.517,1126.131,583.87Z" transform="translate(-1079.303 -449.351)" fill="#d0e9f1"/>
        <g id="Grupo_7644" data-name="Grupo 7644" transform="translate(1.474 1.445)">
          <path id="Trazado_18870" data-name="Trazado 18870" d="M1080.537,450.561l17.453,20.618,17.534,20.551,35.193,41,35.371,40.846,17.749,20.37,17.83,20.3-17.453-20.619-17.534-20.551-35.194-41-35.372-40.845-17.749-20.37Z" transform="translate(-1080.537 -450.561)" fill="#fff"/>
          <path id="Trazado_18871" data-name="Trazado 18871" d="M1089.47,460.456c3.067,3.319,6.174,6.715,9.239,10.114l18.042,20.124,35.74,40.541c11.891,13.533,23.587,27.23,35.383,40.846l17.6,20.505,17.511,20.573-2.609,2.192L1202.6,595l-17.694-20.424c-11.733-13.666-23.555-27.259-35.189-41.007l-34.832-41.3-17.242-20.8c-2.909-3.53-5.809-7.1-8.637-10.618-2.812-3.518-5.612-6.916-8.47-10.287C1083.452,453.884,1086.4,457.156,1089.47,460.456Zm.05.436c2.99,3.354,5.907,6.658,8.816,10l17.826,20.3,35.554,40.69c11.946,13.482,23.705,27.122,35.553,40.686l17.8,20.315,17.887,20.249-2.609,2.192-17.393-20.663-17.47-20.6c-11.669-13.715-23.435-27.349-35.007-41.146l-35.006-41.149-17.455-20.618c-2.876-3.368-5.713-6.74-8.589-10.188-2.874-3.466-5.866-6.962-8.9-10.407C1083.5,454.063,1086.514,457.537,1089.521,460.892Z" transform="translate(-1080.537 -450.561)" fill="#fff"/>
        </g>
        <path id="Trazado_18872" data-name="Trazado 18872" d="M1170.4,504.609q-1.4,5.864-2.614,11.767c-.822,3.931-1.585,7.874-2.338,11.819-.732,3.948-1.454,7.9-2.117,11.861s-1.289,7.93-1.837,11.915q1.4-5.866,2.616-11.767c.822-3.932,1.585-7.875,2.335-11.819.732-3.949,1.454-7.9,2.115-11.862Q1169.581,510.585,1170.4,504.609Z" transform="translate(-1063.318 -438.605)" fill="#fff"/>
        <path id="Trazado_18873" data-name="Trazado 18873" d="M1109.621,544.567q6.1-.2,12.186-.6c4.059-.251,8.111-.56,12.162-.88,4.05-.339,8.1-.692,12.142-1.1s8.084-.856,12.117-1.381q-6.1.2-12.187.6c-4.057.251-8.11.56-12.161.882-4.05.34-8.1.693-12.142,1.1S1113.653,544.044,1109.621,544.567Z" transform="translate(-1073.407 -431.605)" fill="#fff"/>
        <path id="Trazado_18874" data-name="Trazado 18874" d="M1138.172,467.4q-1.172,5.916-2.151,11.861c-.668,3.962-1.276,7.931-1.873,11.9-.578,3.975-1.143,7.952-1.651,11.936s-.977,7.977-1.369,11.979q1.173-5.916,2.154-11.861c.667-3.961,1.274-7.931,1.87-11.9.577-3.975,1.142-7.952,1.65-11.936S1137.779,471.4,1138.172,467.4Z" transform="translate(-1069.224 -445.842)" fill="#fff"/>
        <path id="Trazado_18875" data-name="Trazado 18875" d="M1119.115,489.4q-4.727-.444-9.458-.7c-3.155-.183-6.31-.307-9.466-.419-3.157-.093-6.314-.174-9.472-.2s-6.318-.008-9.479.084q4.727.446,9.459.7c3.155.182,6.309.306,9.466.417,3.156.093,6.313.174,9.471.2Q1114.373,489.534,1119.115,489.4Z" transform="translate(-1078.926 -441.822)" fill="#fff"/>
      </g>
    </g>
    <g id="Grupo_7656" data-name="Grupo 7656" transform="translate(1308.573 448.581)">
      <path id="Trazado_18876" data-name="Trazado 18876" d="M1261.69,520.853c6.291-19.945,21.316-32.706,26.25-36.895,10.846-9.211,20.225-10.639,36.206-24.047a149.875,149.875,0,0,0,15.278-14.786,150.969,150.969,0,0,1,9.549,38.7c1.3,11.891,2.883,28.856-3.118,49.156-3.064,10.36-7.784,26.328-22.479,38.923-2.8,2.4-27.433,23-46.626,14.175C1257.15,577.068,1254.8,542.693,1261.69,520.853Z" transform="translate(-1258.175 -445.125)" fill="#d0e9f1"/>
      <g id="Grupo_7647" data-name="Grupo 7647" transform="translate(18.618 14.904)">
        <path id="Trazado_18877" data-name="Trazado 18877" d="M1273.775,577.4c7.464-35.116,37.555-58.8,51.956-90.628a75.947,75.947,0,0,0,7.156-28.741c.023-.668,1.052-.5,1.031.161-1.2,36.35-30.98,62.179-48.01,91.73a95.4,95.4,0,0,0-11.1,27.64c-.139.652-1.169.5-1.03-.162Z" transform="translate(-1273.762 -457.602)" fill="#fff"/>
      </g>
      <g id="Grupo_7648" data-name="Grupo 7648" transform="translate(10.301 70.154)">
        <path id="Trazado_18878" data-name="Trazado 18878" d="M1279.883,552.956a73.346,73.346,0,0,0-12.984-48.261c-.386-.548.448-1.174.834-.623a74.479,74.479,0,0,1,13.18,49.046c-.057.668-1.087.505-1.03-.161Z" transform="translate(-1266.8 -503.857)" fill="#fff"/>
      </g>
      <g id="Grupo_7649" data-name="Grupo 7649" transform="translate(23.81 109.771)">
        <path id="Trazado_18879" data-name="Trazado 18879" d="M1278.336,545.629a59.072,59.072,0,0,1,44.732-6.9c.645.16.491,1.192-.161,1.03a58.029,58.029,0,0,0-43.946,6.708c-.57.348-1.2-.485-.625-.834Z" transform="translate(-1278.109 -537.024)" fill="#fff"/>
      </g>
      <g id="Grupo_7650" data-name="Grupo 7650" transform="translate(40.852 83.926)">
        <path id="Trazado_18880" data-name="Trazado 18880" d="M1292.668,520.914a47.894,47.894,0,0,1,40.627-1.9.521.521,0,0,1-.422.953,46.89,46.89,0,0,0-39.818,1.91c-.591.315-.975-.654-.388-.966Z" transform="translate(-1292.376 -515.387)" fill="#fff"/>
      </g>
      <g id="Grupo_7651" data-name="Grupo 7651" transform="translate(56.828 59.605)">
        <path id="Trazado_18881" data-name="Trazado 18881" d="M1305.928,503.176a31.189,31.189,0,0,1,33.091-5.712.522.522,0,0,1-.422.954,30.156,30.156,0,0,0-32.045,5.591c-.491.457-1.111-.381-.625-.834Z" transform="translate(-1305.751 -495.026)" fill="#fff"/>
      </g>
      <g id="Grupo_7652" data-name="Grupo 7652" transform="translate(29.255 47.362)">
        <path id="Trazado_18882" data-name="Trazado 18882" d="M1293.722,527.753a47.931,47.931,0,0,0-10.926-42.171c-.449-.5.391-1.12.834-.624a48.91,48.91,0,0,1,11.123,42.955c-.148.651-1.179.5-1.031-.161Z" transform="translate(-1282.668 -484.776)" fill="#fff"/>
      </g>
      <g id="Grupo_7653" data-name="Grupo 7653" transform="translate(49.443 32.443)">
        <path id="Trazado_18883" data-name="Trazado 18883" d="M1306.7,507.6c.8-11.793,1.432-25.071-7-34.511-.448-.5.391-1.12.834-.624,8.625,9.649,8.015,23.234,7.2,35.3-.044.668-1.075.5-1.03-.162Z" transform="translate(-1299.569 -472.286)" fill="#fff"/>
      </g>
      <g id="Grupo_7654" data-name="Grupo 7654" transform="translate(71.811 32.698)">
        <path id="Trazado_18884" data-name="Trazado 18884" d="M1318.392,481.355a20.459,20.459,0,0,1,15.35-8.853c.667-.05.788.985.118,1.036A19.454,19.454,0,0,0,1319.208,482c-.379.554-1.192-.1-.816-.65Z" transform="translate(-1318.295 -472.5)" fill="#fff"/>
      </g>
      <g id="Grupo_7655" data-name="Grupo 7655" transform="translate(63.073 22.281)">
        <path id="Trazado_18885" data-name="Trazado 18885" d="M1319.687,483.186a20.275,20.275,0,0,0-8.5-18.49c-.55-.387.1-1.2.649-.816a21.326,21.326,0,0,1,8.881,19.467c-.067.667-1.1.505-1.031-.161Z" transform="translate(-1310.98 -463.779)" fill="#fff"/>
      </g>
    </g>
    <g id="Grupo_7666" data-name="Grupo 7666" transform="translate(1312.32 526.993)">
      <path id="Trazado_18886" data-name="Trazado 18886" d="M1269.251,570.628c8.967-17.909,25.107-27.7,30.4-30.919,11.651-7.07,20.736-7,37.878-17.265a143.617,143.617,0,0,0,16.684-11.673,144.625,144.625,0,0,1,3.176,38.046c-.566,11.442-1.638,27.725-10.384,46.014-4.464,9.334-11.344,23.721-27.144,33.409-3.015,1.849-29.423,17.6-46.238,6.352C1256.456,623.1,1259.434,590.241,1269.251,570.628Z" transform="translate(-1261.312 -510.771)" fill="#b5e0eb"/>
      <g id="Grupo_7657" data-name="Grupo 7657" transform="translate(13.443 13.789)">
        <path id="Trazado_18887" data-name="Trazado 18887" d="M1272.59,626.5c6.013-15.655,17.255-28.391,28.9-40.152,11.929-12.053,24.65-23.554,34.03-37.82a72.492,72.492,0,0,0,11.031-25.974c.081-.424.73-.245.649.179-3.157,16.408-13.016,30.385-24.034,42.551-11.362,12.545-24.344,23.558-35.059,36.7a91.291,91.291,0,0,0-14.864,24.693c-.153.4-.8.226-.649-.179Z" transform="translate(-1272.566 -522.315)" fill="#fff"/>
      </g>
      <g id="Grupo_7658" data-name="Grupo 7658" transform="translate(15.282 55.846)">
        <path id="Trazado_18888" data-name="Trazado 18888" d="M1279.123,605.767a70.281,70.281,0,0,0-4.979-47.731c-.19-.387.391-.729.581-.339a70.984,70.984,0,0,1,6.88,37.577,70.222,70.222,0,0,1-1.833,10.672.336.336,0,0,1-.649-.178Z" transform="translate(-1274.106 -557.525)" fill="#fff"/>
      </g>
      <g id="Grupo_7659" data-name="Grupo 7659" transform="translate(20.816 99.246)">
        <path id="Trazado_18889" data-name="Trazado 18889" d="M1278.962,598.023a56.283,56.283,0,0,1,43.219.3c.4.17.055.749-.339.582a55.631,55.631,0,0,0-42.7-.237c-.4.165-.575-.485-.179-.649Z" transform="translate(-1278.739 -593.859)" fill="#fff"/>
      </g>
      <g id="Grupo_7660" data-name="Grupo 7660" transform="translate(41.24 76.254)">
        <path id="Trazado_18890" data-name="Trazado 18890" d="M1296.069,577.047a45.625,45.625,0,0,1,38.585,4.318c.368.227.03.81-.339.58a44.967,44.967,0,0,0-38.066-4.25c-.41.142-.587-.508-.179-.649Z" transform="translate(-1295.838 -574.61)" fill="#fff"/>
      </g>
      <g id="Grupo_7661" data-name="Grupo 7661" transform="translate(59.641 55.665)">
        <path id="Trazado_18891" data-name="Trazado 18891" d="M1311.395,562.268a29.669,29.669,0,0,1,31.994-.419c.364.233.027.815-.339.582a29,29,0,0,0-31.314.418c-.36.244-.7-.339-.34-.58Z" transform="translate(-1311.243 -557.373)" fill="#fff"/>
      </g>
      <g id="Grupo_7662" data-name="Grupo 7662" transform="translate(36.668 37.15)">
        <path id="Trazado_18892" data-name="Trazado 18892" d="M1296.02,584.028a45.982,45.982,0,0,0-3.955-41.659c-.235-.366.348-.7.582-.341a46.623,46.623,0,0,1,4.022,42.179c-.16.4-.811.223-.649-.179Z" transform="translate(-1292.01 -541.873)" fill="#fff"/>
      </g>
      <g id="Grupo_7663" data-name="Grupo 7663" transform="translate(58.016 26.095)">
        <path id="Trazado_18893" data-name="Trazado 18893" d="M1311.34,566.935c2.54-11.037,5.2-23.623-1.4-33.823-.237-.364.345-.7.581-.339,6.7,10.354,4.051,23.13,1.47,34.341-.1.422-.746.244-.648-.179Z" transform="translate(-1309.882 -532.618)" fill="#fff"/>
      </g>
      <g id="Grupo_7664" data-name="Grupo 7664" transform="translate(77.793 31.922)">
        <path id="Trazado_18894" data-name="Trazado 18894" d="M1326.533,543.589a19.347,19.347,0,0,1,15.734-6.02c.428.038.432.711,0,.672a18.71,18.71,0,0,0-15.258,5.823c-.3.317-.772-.16-.476-.475Z" transform="translate(-1326.44 -537.496)" fill="#fff"/>
      </g>
      <g id="Grupo_7665" data-name="Grupo 7665" transform="translate(72.434 18.55)">
        <path id="Trazado_18895" data-name="Trazado 18895" d="M1327.316,545.807a19.516,19.516,0,0,0-5.26-18.933c-.313-.3.164-.776.475-.477a20.2,20.2,0,0,1,5.433,19.589.337.337,0,0,1-.649-.179Z" transform="translate(-1321.953 -526.301)" fill="#fff"/>
      </g>
    </g>
    <g id="Grupo_7668" data-name="Grupo 7668" transform="translate(1186.956 445.049)">
      <rect id="Rectángulo_1811" data-name="Rectángulo 1811" width="150.366" height="212.788" rx="8.238" fill="#82cdd8"/>
      <rect id="Rectángulo_1812" data-name="Rectángulo 1812" width="149.136" height="211.827" rx="8.186" transform="translate(0.615 0.5)" fill="#4e7eba"/>
      <rect id="Rectángulo_1813" data-name="Rectángulo 1813" width="132.221" height="175.273" transform="translate(8.611 18.756)" fill="#d2e8de"/>
      <g id="Grupo_7667" data-name="Grupo 7667" transform="translate(8.381 18.524)">
        <path id="Trazado_18896" data-name="Trazado 18896" d="M1163.375,457.676V633.41h132.683V457.676ZM1295.6,632.947H1163.836V458.138H1295.6Z" transform="translate(-1163.375 -457.676)" fill="#fff"/>
      </g>
      <circle id="Elipse_718" data-name="Elipse 718" cx="5.996" cy="5.996" r="5.996" transform="translate(66.902 200.59) rotate(-22.246)" fill="#82cdd8"/>
    </g>
    <path id="Trazado_18897" data-name="Trazado 18897" d="M1186.082,591.733l-5.1-2.572-5.011,2.745.87-5.647-4.159-3.918,5.639-.918,2.441-5.166,2.616,5.08,5.668.725-4.023,4.057Z" transform="translate(33.772 28.957)" fill="#ea942d"/>
    <path id="Trazado_18898" data-name="Trazado 18898" d="M1207.368,591.008l-5.1-2.572-5.011,2.745.87-5.647-4.159-3.918,5.639-.918,2.441-5.166,2.616,5.08,5.667.725-4.023,4.058Z" transform="translate(37.911 28.816)" fill="#ea942d"/>
    <path id="Trazado_18899" data-name="Trazado 18899" d="M1226.5,590.356l-5.1-2.572-5.011,2.745.87-5.647-4.159-3.918,5.64-.918,2.441-5.166,2.616,5.08,5.668.725-4.023,4.057Z" transform="translate(41.633 28.689)" fill="#ea942d"/>
    <path id="Trazado_18900" data-name="Trazado 18900" d="M1245.661,590.349l-5.1-2.572-5.011,2.745.869-5.647-4.159-3.918,5.64-.918,2.441-5.166,2.616,5.08,5.667.725-4.023,4.057Z" transform="translate(45.358 28.688)" fill="#ea942d"/>
    <path id="Trazado_18901" data-name="Trazado 18901" d="M1264.09,590.349l-5.1-2.572-5.011,2.745.87-5.647-4.159-3.918,5.64-.918,2.441-5.166,2.616,5.08,5.668.725-4.023,4.057Z" transform="translate(48.942 28.688)" fill="#ea942d"/>
    <g id="Grupo_7670" data-name="Grupo 7670" transform="translate(1278.291 469.062)">
      <rect id="Rectángulo_1814" data-name="Rectángulo 1814" width="76.467" height="46.894" rx="4.763" fill="#ea942d"/>
      <rect id="Rectángulo_1815" data-name="Rectángulo 1815" width="24.817" height="22.253" transform="translate(8.449 5.486)" fill="#ecf5f7"/>
      <path id="Trazado_18902" data-name="Trazado 18902" d="M1248.272,485.741a11.014,11.014,0,0,0,5.087-3.669l-2.084-2.67-3.671,2.752Z" transform="translate(-1229.949 -458.94)" fill="#fff"/>
      <path id="Trazado_18903" data-name="Trazado 18903" d="M1256.477,484.282c-2.524,2.4-7.141,2.3-7.333,1.923a39.146,39.146,0,0,0,.215-4.43,13.674,13.674,0,0,0-.094-2.3l4.328-3.727a10.947,10.947,0,0,0,.322,4.345,9.328,9.328,0,0,0,2.562,4.19Z" transform="translate(-1229.649 -459.651)" fill="#edc094"/>
      <path id="Trazado_18904" data-name="Trazado 18904" d="M1253.895,480.091a3.837,3.837,0,0,1-.8.946,4.134,4.134,0,0,1-2.212.948,1.3,1.3,0,0,1-.226.006,3.932,3.932,0,0,1-1.316-.217,13.67,13.67,0,0,0-.094-2.3l4.328-3.727A10.944,10.944,0,0,0,1253.895,480.091Z" transform="translate(-1229.63 -459.651)" fill="#efa55b"/>
      <path id="Trazado_18905" data-name="Trazado 18905" d="M1250.546,481.366a1.328,1.328,0,0,1-.228.006,2.628,2.628,0,0,1-2.131-.837c-.781-1.093.221-2.033.24-2.524.058-1.556-.356-2.291-.361-3.847v-.033a2.62,2.62,0,0,1,2.625-2.611h1.616a1.266,1.266,0,0,1,.284.03,2.031,2.031,0,0,1,.75.344,2.533,2.533,0,0,1,.858,2.114c0,.027,0,.055,0,.082v2.96a4.415,4.415,0,0,1-1.441,3.367A4.156,4.156,0,0,1,1250.546,481.366Z" transform="translate(-1229.893 -460.473)" fill="#052a4f"/>
      <path id="Trazado_18906" data-name="Trazado 18906" d="M1252.6,473.773h-1.669a3.511,3.511,0,0,1-3.5-3.5v-.136a.934.934,0,0,1,.932-.932h2.555c1.719,0,3.846,2.285,3.245,4.208h0C1254.165,474.205,1253.4,473.773,1252.6,473.773Z" transform="translate(-1229.982 -460.923)" fill="#052a4f"/>
      <path id="Trazado_18907" data-name="Trazado 18907" d="M1250.031,478.47h-.286c-.793,0-1.443-.168-1.443-.962a19.137,19.137,0,0,0-.24-2.163c-.091-.318-.558-3.607.721-3.607.12,0,.081.388.361.481a2.188,2.188,0,0,0,1.425-.229l.053-.032a2.226,2.226,0,0,1,1.445-.309c.634.088,1.02.976,1.043,2.146a1.152,1.152,0,0,0,.022.213l.195,1.012a1.158,1.158,0,0,1,.023.264A3.33,3.33,0,0,1,1250.031,478.47Z" transform="translate(-1229.89 -460.452)" fill="#f7cfa4"/>
      <path id="Trazado_18908" data-name="Trazado 18908" d="M1252.949,474.126c0,.377-.2.683-.437.683s-.437-.306-.437-.683.2-.682.437-.682S1252.949,473.75,1252.949,474.126Z" transform="translate(-1229.08 -460.099)" fill="#f7cfa4"/>
      <path id="Trazado_18909" data-name="Trazado 18909" d="M1251.694,486.3a11.045,11.045,0,0,0,5.087-3.671l-2.086-2.668-3.669,2.752Z" transform="translate(-1229.283 -458.831)" fill="#fff"/>
      <g id="Grupo_7669" data-name="Grupo 7669" transform="translate(8.449 5.183)">
        <rect id="Rectángulo_1816" data-name="Rectángulo 1816" width="35.611" height="2.337" transform="translate(28.525)" fill="#fff"/>
        <rect id="Rectángulo_1817" data-name="Rectángulo 1817" width="20.727" height="2.335" transform="translate(28.524 6.628)" fill="#fff"/>
        <rect id="Rectángulo_1818" data-name="Rectángulo 1818" width="35.35" height="2.337" transform="translate(28.524 14.324) rotate(-0.057)" fill="#fff"/>
        <rect id="Rectángulo_1819" data-name="Rectángulo 1819" width="23.031" height="2.339" transform="translate(28.526 21.467)" fill="#fff"/>
        <rect id="Rectángulo_1820" data-name="Rectángulo 1820" width="65.909" height="1.779" transform="translate(0 29)" fill="#fff"/>
        <rect id="Rectángulo_1821" data-name="Rectángulo 1821" width="65.909" height="1.779" transform="translate(0 34.766)" fill="#fff"/>
      </g>
    </g>
    <g id="Grupo_7673" data-name="Grupo 7673" transform="translate(1248.114 533.303)">
      <rect id="Rectángulo_1822" data-name="Rectángulo 1822" width="86.279" height="52.912" rx="8.77" fill="#7ad1d8"/>
      <rect id="Rectángulo_1823" data-name="Rectángulo 1823" width="28.001" height="25.108" transform="translate(9.534 6.19)" fill="#ecf5f7"/>
      <path id="Trazado_18910" data-name="Trazado 18910" d="M1232.535,523.222c-3.034-.678-6.937.613-8.138,3.175-.952,2.032.643,3.687-.6,6.579a4.151,4.151,0,0,1-1.66,2.107c-1.024.581-1.734.2-2.008.638-.569.921,1.552,4.179,4.471,4.744.816.158.812-.064,2.463-.091,3.327-.053,3.853.845,6.021.547,2.143-.294,4.258-1.531,4.2-2.463-.023-.337-.313-.412-.822-1a6.1,6.1,0,0,1-1.344-2.979c-.1-1.037.272-2,1.162-3.864a6.379,6.379,0,0,0,.73-1.733,4.832,4.832,0,0,0-.548-3.1A5.8,5.8,0,0,0,1232.535,523.222Z" transform="translate(-1205.133 -514.694)" fill="#1c68da"/>
      <g id="Grupo_7671" data-name="Grupo 7671" transform="translate(20.215 12.31)">
        <path id="Trazado_18911" data-name="Trazado 18911" d="M1230.637,539.222a19.182,19.182,0,0,0,.214,3.241,4.566,4.566,0,0,1-2.583.975,4.3,4.3,0,0,1-3.785-2.506,12.273,12.273,0,0,0,3.479-6.549,13.267,13.267,0,0,0,.178-3.405l4.071.995a19.567,19.567,0,0,0-1.523,6.2C1230.662,538.512,1230.644,538.863,1230.637,539.222Z" transform="translate(-1224.483 -525.461)" fill="#f2b879"/>
        <path id="Trazado_18912" data-name="Trazado 18912" d="M1231.645,531.972a19.573,19.573,0,0,0-1.523,6.2,7.577,7.577,0,0,1-2.726-3.785,13.279,13.279,0,0,0,.178-3.405Z" transform="translate(-1223.917 -525.461)" fill="#e5a76a"/>
        <path id="Trazado_18913" data-name="Trazado 18913" d="M1234.062,528.245c.568.8.656,1.722.829,3.57a7.768,7.768,0,0,1-.075,3.281c-.343,1.083-1.34,2.961-2.87,3.22-2.117.357-4.463-2.514-4.968-5.2-.455-2.418.337-6,2.732-6.652A4.382,4.382,0,0,1,1234.062,528.245Z" transform="translate(-1224.022 -526.359)" fill="#f7c589"/>
      </g>
      <path id="Trazado_18914" data-name="Trazado 18914" d="M1231.739,525.4a4.952,4.952,0,0,1-4.4,6.61,1.763,1.763,0,0,1-1.178-.266,1.816,1.816,0,0,1-.484-1.694,5.563,5.563,0,0,1,2.363-3.87c1.04-.707,2.942-1.352,4.16-.8C1232.051,525.4,1231.9,525.383,1231.739,525.4Z" transform="translate(-1204.041 -514.28)" fill="#1c68da"/>
      <g id="Grupo_7672" data-name="Grupo 7672" transform="translate(9.534 9.523)">
        <rect id="Rectángulo_1824" data-name="Rectángulo 1824" width="40.838" height="2.337" transform="translate(29.629)" fill="#fff"/>
        <rect id="Rectángulo_1825" data-name="Rectángulo 1825" width="23.769" height="2.335" transform="translate(29.629 6.628)" fill="#fff"/>
        <rect id="Rectángulo_1826" data-name="Rectángulo 1826" width="40.539" height="2.337" transform="translate(29.629 14.306)" fill="#fff"/>
        <rect id="Rectángulo_1827" data-name="Rectángulo 1827" width="26.411" height="2.339" transform="translate(29.63 21.467)" fill="#fff"/>
        <rect id="Rectángulo_1828" data-name="Rectángulo 1828" width="72.5" height="1.779" transform="translate(0 29)" fill="#fff"/>
        <rect id="Rectángulo_1829" data-name="Rectángulo 1829" width="72.5" height="1.779" transform="translate(0 34.766)" fill="#fff"/>
      </g>
    </g>
    <g id="Grupo_7680" data-name="Grupo 7680" transform="translate(1103.596 427.353)">
      <g id="Grupo_7675" data-name="Grupo 7675" transform="translate(68.596)">
        <path id="Trazado_18915" data-name="Trazado 18915" d="M1216.252,512.858l-59.544.037-.041-64.866a20.632,20.632,0,0,1,20.619-20.644l52.812-.032.044,71.6A13.939,13.939,0,0,1,1216.252,512.858Z" transform="translate(-1141.534 -427.353)" fill="#b3f2fc"/>
        <path id="Trazado_18916" data-name="Trazado 18916" d="M1157.844,511.439l62.8-.06c.508-.291,1.033-.618,1.567-.984a22.192,22.192,0,0,0,3.375-2.84l6.97-12.912L1144,494.7l0,4.23C1144,505.813,1150.234,511.443,1157.844,511.439Z" transform="translate(-1143.998 -414.267)" fill="#83c9cc"/>
        <path id="Trazado_18917" data-name="Trazado 18917" d="M1210.878,513.21h0a10.9,10.9,0,0,0,10.861-10.874l-.008-12.955a4.12,4.12,0,0,0-4.11-4.105l-13.52.008a4.12,4.12,0,0,0-4.1,4.11l.007,12.955A10.9,10.9,0,0,0,1210.878,513.21Z" transform="translate(-1133.108 -416.089)" fill="#b3f2fc"/>
        <g id="Grupo_7674" data-name="Grupo 7674" transform="translate(21.895 13.218)">
          <rect id="Rectángulo_1830" data-name="Rectángulo 1830" width="14.477" height="2.47" transform="translate(0 0.023)" fill="#0f8c91"/>
          <rect id="Rectángulo_1831" data-name="Rectángulo 1831" width="32.929" height="2.472" transform="translate(26.795)" fill="#0f8c91"/>
          <rect id="Rectángulo_1832" data-name="Rectángulo 1832" width="59.725" height="2.47" transform="translate(0.035 7.569)" fill="#0f8c91"/>
          <rect id="Rectángulo_1833" data-name="Rectángulo 1833" width="34.852" height="2.468" transform="translate(0.072 15.138)" fill="#0f8c91"/>
          <rect id="Rectángulo_1834" data-name="Rectángulo 1834" width="14.112" height="2.468" transform="translate(45.685 15.116)" fill="#0f8c91"/>
          <rect id="Rectángulo_1835" data-name="Rectángulo 1835" width="15.806" height="2.472" transform="translate(0.213 22.701)" fill="#0f8c91"/>
          <rect id="Rectángulo_1836" data-name="Rectángulo 1836" width="30.885" height="2.472" transform="translate(29.055 22.679)" fill="#0f8c91"/>
          <rect id="Rectángulo_1837" data-name="Rectángulo 1837" width="59.725" height="2.47" transform="translate(0.143 30.249)" fill="#0f8c91"/>
          <rect id="Rectángulo_1838" data-name="Rectángulo 1838" width="36.778" height="2.472" transform="translate(0.179 37.815)" fill="#0f8c91"/>
          <rect id="Rectángulo_1839" data-name="Rectángulo 1839" width="12.784" height="2.472" transform="translate(47.12 37.794)" fill="#0f8c91"/>
          <rect id="Rectángulo_1840" data-name="Rectángulo 1840" width="59.725" height="2.47" transform="translate(0.214 45.369)" fill="#0f8c91"/>
        </g>
        <path id="Rectángulo_1841" data-name="Rectángulo 1841" d="M0,0H55.3a6.114,6.114,0,0,1,6.114,6.114V8.445a0,0,0,0,1,0,0H0a0,0,0,0,1,0,0V0A0,0,0,0,1,0,0Z" transform="translate(39.746 0.036)" fill="#b3f2fc"/>
        <path id="Trazado_18918" data-name="Trazado 18918" d="M1230.787,444.913l-12.819.008-.007-10.421a6.411,6.411,0,0,1,6.406-6.413h0a6.41,6.41,0,0,1,6.414,6.406Z" transform="translate(-1129.615 -427.21)" fill="#83c9cc"/>
      </g>
      <g id="Grupo_7677" data-name="Grupo 7677" transform="translate(34.279 62.713)">
        <path id="Trazado_18919" data-name="Trazado 18919" d="M1187.523,565.361l-59.546.037-.039-64.866a20.631,20.631,0,0,1,20.619-20.644l52.811-.032.044,71.6A13.939,13.939,0,0,1,1187.523,565.361Z" transform="translate(-1112.804 -479.856)" fill="#b3f2fc"/>
        <path id="Trazado_18920" data-name="Trazado 18920" d="M1129.114,563.942l62.8-.06c.509-.291,1.033-.617,1.568-.984a22.31,22.31,0,0,0,3.376-2.84l6.97-12.912-88.557.054,0,4.23C1115.275,558.316,1121.5,563.946,1129.114,563.942Z" transform="translate(-1115.268 -466.77)" fill="#83c9cc"/>
        <path id="Trazado_18921" data-name="Trazado 18921" d="M1182.149,565.713h0a10.9,10.9,0,0,0,10.861-10.874L1193,541.883a4.12,4.12,0,0,0-4.11-4.105l-13.52.008a4.12,4.12,0,0,0-4.105,4.11l.008,12.955A10.9,10.9,0,0,0,1182.149,565.713Z" transform="translate(-1104.378 -468.592)" fill="#b3f2fc"/>
        <g id="Grupo_7676" data-name="Grupo 7676" transform="translate(21.657 15.378)">
          <rect id="Rectángulo_1842" data-name="Rectángulo 1842" width="57.754" height="2.337" fill="#0f8c91"/>
          <rect id="Rectángulo_1843" data-name="Rectángulo 1843" width="22.396" height="2.337" transform="translate(0.035 7.165)" fill="#0f8c91"/>
          <rect id="Rectángulo_1844" data-name="Rectángulo 1844" width="30.128" height="2.335" transform="translate(27.661 7.147)" fill="#0f8c91"/>
          <rect id="Rectángulo_1845" data-name="Rectángulo 1845" width="57.754" height="2.337" transform="translate(0.069 14.308)" fill="#0f8c91"/>
          <rect id="Rectángulo_1846" data-name="Rectángulo 1846" width="33.476" height="2.339" transform="translate(0.103 21.468)" fill="#0f8c91"/>
          <rect id="Rectángulo_1847" data-name="Rectángulo 1847" width="14.592" height="2.339" transform="translate(43.264 21.448)" fill="#0f8c91"/>
          <rect id="Rectángulo_1848" data-name="Rectángulo 1848" width="57.754" height="2.337" transform="translate(0.138 28.616)" fill="#0f8c91"/>
          <rect id="Rectángulo_1849" data-name="Rectángulo 1849" width="16.189" height="2.339" transform="translate(0.173 35.782)" fill="#0f8c91"/>
          <rect id="Rectángulo_1850" data-name="Rectángulo 1850" width="31.522" height="2.339" transform="translate(26.405 35.761)" fill="#0f8c91"/>
          <rect id="Rectángulo_1851" data-name="Rectángulo 1851" width="57.754" height="2.337" transform="translate(0.207 42.924)" fill="#0f8c91"/>
        </g>
        <path id="Rectángulo_1852" data-name="Rectángulo 1852" d="M0,0H55.3a6.114,6.114,0,0,1,6.114,6.114V8.445a0,0,0,0,1,0,0H0a0,0,0,0,1,0,0V0A0,0,0,0,1,0,0Z" transform="translate(39.746 0.036)" fill="#b3f2fc"/>
        <path id="Trazado_18922" data-name="Trazado 18922" d="M1202.024,497.416l-12.616.007L1189.4,486.9a6.308,6.308,0,0,1,6.3-6.312h0a6.308,6.308,0,0,1,6.311,6.3Z" transform="translate(-1100.851 -479.713)" fill="#83c9cc"/>
      </g>
      <g id="Grupo_7679" data-name="Grupo 7679" transform="translate(0 125.565)">
        <path id="Trazado_18923" data-name="Trazado 18923" d="M1158.824,617.981l-59.544.037-.039-64.866a20.631,20.631,0,0,1,20.619-20.645l52.811-.032.044,71.6A13.939,13.939,0,0,1,1158.824,617.981Z" transform="translate(-1084.106 -532.475)" fill="#b3f2fc"/>
        <path id="Trazado_18924" data-name="Trazado 18924" d="M1100.416,616.562l62.8-.061c.509-.292,1.033-.618,1.567-.983a22.255,22.255,0,0,0,3.376-2.84q3.485-6.457,6.971-12.913l-88.557.055,0,4.228C1086.577,610.935,1092.806,616.567,1100.416,616.562Z" transform="translate(-1086.57 -519.389)" fill="#83c9cc"/>
        <path id="Trazado_18925" data-name="Trazado 18925" d="M1153.451,618.332h0a10.9,10.9,0,0,0,10.86-10.874L1164.3,594.5a4.12,4.12,0,0,0-4.11-4.105l-13.52.008a4.12,4.12,0,0,0-4.105,4.11l.008,12.955A10.9,10.9,0,0,0,1153.451,618.332Z" transform="translate(-1075.68 -521.211)" fill="#b3f2fc"/>
        <g id="Grupo_7678" data-name="Grupo 7678" transform="translate(23.052 15.96)">
          <rect id="Rectángulo_1853" data-name="Rectángulo 1853" width="13.762" height="3.09" transform="translate(0 0.023)" fill="#0f8c91"/>
          <rect id="Rectángulo_1854" data-name="Rectángulo 1854" width="33.661" height="3.092" transform="translate(26.399)" fill="#0f8c91"/>
          <rect id="Rectángulo_1855" data-name="Rectángulo 1855" width="31.66" height="3.092" transform="translate(0.038 9.475)" fill="#0f8c91"/>
          <rect id="Rectángulo_1856" data-name="Rectángulo 1856" width="15.982" height="3.092" transform="translate(44.116 9.454)" fill="#0f8c91"/>
          <rect id="Rectángulo_1857" data-name="Rectángulo 1857" width="15.839" height="3.092" transform="translate(0.075 18.938)" fill="#0f8c91"/>
          <rect id="Rectángulo_1858" data-name="Rectángulo 1858" width="30.106" height="3.09" transform="translate(30.029 18.916)" fill="#0f8c91"/>
          <rect id="Rectángulo_1859" data-name="Rectángulo 1859" width="60.061" height="3.09" transform="translate(0.112 28.383)" fill="#0f8c91"/>
          <rect id="Rectángulo_1860" data-name="Rectángulo 1860" width="37.758" height="3.092" transform="translate(0.149 37.847)" fill="#0f8c91"/>
          <rect id="Rectángulo_1861" data-name="Rectángulo 1861" width="7.944" height="3.092" transform="translate(52.266 37.824)" fill="#0f8c91"/>
          <rect id="Rectángulo_1862" data-name="Rectángulo 1862" width="60.061" height="3.09" transform="translate(0.186 47.299)" fill="#0f8c91"/>
          <rect id="Rectángulo_1863" data-name="Rectángulo 1863" width="13.539" height="3.088" transform="translate(0.223 56.773)" fill="#0f8c91"/>
          <rect id="Rectángulo_1864" data-name="Rectángulo 1864" width="32.411" height="3.088" transform="translate(27.873 56.749)" fill="#0f8c91"/>
        </g>
        <path id="Rectángulo_1865" data-name="Rectángulo 1865" d="M0,0H55.3a6.114,6.114,0,0,1,6.114,6.114V8.445a0,0,0,0,1,0,0H0a0,0,0,0,1,0,0V0A0,0,0,0,1,0,0Z" transform="translate(39.746 0.036)" fill="#b3f2fc"/>
        <path id="Trazado_18926" data-name="Trazado 18926" d="M1173.322,550.036l-12.593.007-.007-10.532a6.3,6.3,0,0,1,6.294-6.3h0a6.3,6.3,0,0,1,6.3,6.293Z" transform="translate(-1072.15 -532.332)" fill="#83c9cc"/>
      </g>
    </g>
    <g id="Grupo_7683" data-name="Grupo 7683" transform="translate(1304.609 505.225)">
      <ellipse id="Elipse_719" data-name="Elipse 719" cx="5.542" cy="7.673" rx="5.542" ry="7.673" transform="translate(43.919 3.204)" fill="#f7cfa4"/>
      <g id="Grupo_7681" data-name="Grupo 7681" transform="translate(28.557 28.364)">
        <path id="Trazado_18927" data-name="Trazado 18927" d="M1316.146,546.6a3.467,3.467,0,0,1-2.487,3.937,2.586,2.586,0,0,1-1.315.037c-2.424-.594-2.4-4.71-5.78-14.042-2.17-6-2.928-7.862-2.928-7.862-1.874-4.618-3.095-6.928-2.144-9.317a6.14,6.14,0,0,1,2.433-2.8,2.921,2.921,0,0,1,1.483-.25c1.391.155,2.314,1.431,2.856,2.272,3.022,4.679,4.7,11.939,5.44,15.345.068.317.249,1.147.511,2.415C1315.062,540.431,1315.693,543.913,1316.146,546.6Z" transform="translate(-1274.407 -516.293)" fill="#efaf70"/>
        <path id="Trazado_18928" data-name="Trazado 18928" d="M1319.537,542.525c-.424-1.4-2.543-2.051-4.208-2.062-2.363-.017-3.943,1.26-6.386,2.662a44.217,44.217,0,0,1-10.1,4.089c-1.734.517-8.023,2.275-12.552,3.14a7.158,7.158,0,0,0-3.437,1.506c-.306.266-1.64,1.343-1.392,1.99.11.283.755,1.093,10.756-.492,3.281-.52,6.067-1.059,10.565-2.019,10.258-2.188,12.076-3.6,14.716-4.93A3.411,3.411,0,0,0,1319.537,542.525Z" transform="translate(-1278.245 -511.593)" fill="#efaf70"/>
        <path id="Trazado_18929" data-name="Trazado 18929" d="M1284.466,553.878a10.739,10.739,0,0,1-4.139,1.807,1.694,1.694,0,0,1-1.272-.234c-.567-.484-.216-1.462.275-2.2a10.677,10.677,0,0,1,5.188-3.984,2.487,2.487,0,0,1,1.659-.154,1.255,1.255,0,0,1,.575.509,2.456,2.456,0,0,1-.051,2.43A5.276,5.276,0,0,1,1284.466,553.878Z" transform="translate(-1278.763 -509.927)" fill="#efaf70"/>
      </g>
      <path id="Trazado_18930" data-name="Trazado 18930" d="M1304.527,636.655l2.85,3.4c.266-7.237.462-13.231.984-17.112,1.132-8.411,1.763-11.854,2.094-18.375.327-6.451-1.8-12.3-2.335-15.386-.515-1.532-6.568.5-7.235,2.126C1299.378,594.992,1304.527,636.655,1304.527,636.655Z" transform="translate(-1245.959 -473.861)" fill="#efaf70"/>
      <path id="Trazado_18931" data-name="Trazado 18931" d="M1296.807,633.548l10.492-.845a2.009,2.009,0,0,0,1.928-1.547l.066-.228a1.3,1.3,0,0,0-.622-1.525l-4-1.285-6.644,2.738C1296.34,630.761,1296.542,633.541,1296.807,633.548Z" transform="translate(-1246.732 -466.183)" fill="#1156a8"/>
      <rect id="Rectángulo_1866" data-name="Rectángulo 1866" width="3.288" height="0.876" transform="matrix(-0.999, 0.049, -0.049, -0.999, 61.485, 167.023)" fill="#1156a8"/>
      <path id="Trazado_18932" data-name="Trazado 18932" d="M1295.893,636.818l3.427,3c-.789-7.217-1.47-13.192-1.5-17.112-.075-8.5.066-11.995-.554-18.511-.611-6.445-3.654-11.975-4.661-14.967-.754-1.455-6.673,1.347-7.118,3.049C1284.476,596.135,1295.893,636.818,1295.893,636.818Z" transform="translate(-1248.912 -473.824)" fill="#f7c589"/>
      <path id="Trazado_18933" data-name="Trazado 18933" d="M1285.535,633.423l11.9-.625a2.272,2.272,0,0,0,2.23-1.506l.081-.227a1.233,1.233,0,0,0-.657-1.538l-4.484-1.369-7.6,2.6C1285.092,630.627,1285.235,633.41,1285.535,633.423Z" transform="translate(-1248.925 -466.175)" fill="#1156a8"/>
      <path id="Trazado_18934" data-name="Trazado 18934" d="M1287.583,599.872c.56.111,1.023-.03,2.811-.663,1.544-.546,2.9-1.04,4.011-1.456a32.89,32.89,0,0,1,1.014-13.37c.7-2.345,1.4-3.611,2.274-6.69a46.593,46.593,0,0,0,1.691-10.318,16.777,16.777,0,0,0-3.149-3.806,4.964,4.964,0,0,0-2.452-1.526,3.787,3.787,0,0,0-4.336,3.115,59.105,59.105,0,0,0-4.98,30.378C1284.783,596.684,1285.7,599.5,1287.583,599.872Z" transform="translate(-1249.156 -479.042)" fill="#f7c589"/>
      <rect id="Rectángulo_1867" data-name="Rectángulo 1867" width="3.723" height="0.876" transform="translate(49.655 167.242) rotate(174.607)" fill="#1156a8"/>
      <path id="Trazado_18935" data-name="Trazado 18935" d="M1288.664,526.446c0,2.115,1.394,3.829,3.112,3.829s3.112-1.714,3.112-3.829-1.393-3.829-3.112-3.829S1288.664,524.331,1288.664,526.446Z" transform="translate(-1248.281 -486.699)" fill="#1156a8"/>
      <path id="Trazado_18936" data-name="Trazado 18936" d="M1303.2,600.752c.57.019,1-.195,2.666-1.108,1.436-.79,2.689-1.5,3.722-2.086a32.889,32.889,0,0,1-1.161-13.359c.314-2.426.8-3.79,1.161-6.97a46.467,46.467,0,0,0,0-10.454,16.729,16.729,0,0,0-3.722-3.248,4.97,4.97,0,0,0-2.666-1.108,3.786,3.786,0,0,0-3.776,3.776,59.1,59.1,0,0,0,0,30.783C1299.919,598.058,1301.278,600.689,1303.2,600.752Z" transform="translate(-1246.586 -478.959)" fill="#efaf70"/>
      <path id="Trazado_18937" data-name="Trazado 18937" d="M1288.666,548.533l15.047.033a12.72,12.72,0,0,1-1.165-2.906c-1.249-4.766.874-8.634,1.915-12.445a35.93,35.93,0,0,0,.957-13.4h-16.754c2.442,6,2.411,10.436,1.915,13.4-.473,2.837-1.763,6.669-1.915,12.924C1288.643,547.156,1288.653,547.991,1288.666,548.533Z" transform="translate(-1248.284 -487.245)" fill="#1156a8"/>
      <path id="Trazado_18938" data-name="Trazado 18938" d="M1281.377,597.454a45.47,45.47,0,0,0,34.041,0,74.69,74.69,0,0,1-1.571-11.568,94.354,94.354,0,0,1,.523-14.873c.4-5.95-2.271-15.941-9.005-28.358-5.74,0-9.839,1.089-15.579,1.089-.308,1.631-.678,3.734-1.053,6.238-.208,1.393-.376,2.631-.514,3.721-.033.262-.316,2.5-.558,4.915-.971,9.733-.926,19.064-3.42,26.846-.176.548-.51,1.546-.938,3.059A72.405,72.405,0,0,0,1281.377,597.454Z" transform="translate(-1249.699 -482.803)" fill="#f9a63a"/>
      <path id="Trazado_18939" data-name="Trazado 18939" d="M1312.3,511.612c1.586,2.547,2.867,5.909,1.192,8.426-1.019,1.53-2.965,2.419-3.745,4.159-1.481,3.305,1.99,7.382,1.4,11.336-.332,2.228-1.9,4-2.683,6.2a9.975,9.975,0,0,0-.475,4.311,3.611,3.611,0,0,1-5.427,3.486,16.881,16.881,0,0,1-3.463-2.672c-3.005-3.035-4.725-7.544-3.869-11.663.258-1.241,1.254-2.492.885-3.639-2-6.223-7.557-10.521-3.728-16.172,1.494-2.206-2.231-5.465-1.338-7.731,1.592-4.037,6.292-6.216,3.931-9.965-2.081-3.306,4.223-5.846,8.423-4.957,3.543.749,7.09,4.089,6.884,7.047-.137,1.951-1.419,3.576-1.111,5.719S1311.067,509.635,1312.3,511.612Z" transform="translate(-1247.845 -492.547)" fill="#f7bd3c"/>
      <g id="Grupo_7682" data-name="Grupo 7682" transform="translate(0 8.517)">
        <path id="Trazado_18940" data-name="Trazado 18940" d="M1272.416,535.369a3.468,3.468,0,0,1-4.233-1.941,2.6,2.6,0,0,1-.213-1.3c.266-2.481,4.349-3.009,13.149-7.6,5.656-2.949,7.4-3.947,7.4-3.947,4.328-2.473,6.455-3.991,8.949-3.366a6.13,6.13,0,0,1,3.1,2.04,2.9,2.9,0,0,1,.444,1.435c.032,1.4-1.11,2.484-1.871,3.134-4.236,3.618-11.209,6.242-14.485,7.432-.3.111-1.1.4-2.326.829C1278.387,533.472,1275.021,534.56,1272.416,535.369Z" transform="translate(-1252.308 -496.293)" fill="#f7cfa4"/>
        <path id="Trazado_18941" data-name="Trazado 18941" d="M1273.82,538c1.327-.607,1.694-2.793,1.484-4.445-.3-2.345-1.774-3.741-3.488-5.976a44.212,44.212,0,0,1-5.4-9.465c-.744-1.652-3.323-7.651-4.783-12.024a7.181,7.181,0,0,0-1.951-3.206c-.3-.266-1.549-1.445-2.157-1.113-.266.146-.983.893,1.918,10.595.952,3.182,1.857,5.872,3.407,10.2,3.534,9.876,5.172,11.491,6.844,13.93A3.413,3.413,0,0,0,1273.82,538Z" transform="translate(-1254.39 -499.282)" fill="#f7cfa4"/>
        <path id="Trazado_18942" data-name="Trazado 18942" d="M1256.647,504.853c-1.658-2.033-1.759-2.756-1.781-3.1a2.041,2.041,0,0,1,.426-1.562,1.882,1.882,0,0,1,1.288-.511c1.82-.076,3.316,2.033,4.639,4.611a2.494,2.494,0,0,1,.374,1.624,1.259,1.259,0,0,1-.427.637,2.455,2.455,0,0,1-2.417.272C1258.538,506.747,1258.034,506.553,1256.647,504.853Z" transform="translate(-1254.856 -499.677)" fill="#f7cfa4"/>
      </g>
    </g>
    <g id="Grupo_7689" data-name="Grupo 7689" transform="translate(1042.566 505.023)">
      <g id="Grupo_7684" data-name="Grupo 7684" transform="translate(32.253 17.481)">
        <path id="Trazado_18943" data-name="Trazado 18943" d="M1116.483,510.473a1.982,1.982,0,0,0,.494-2.258,2.565,2.565,0,0,0-1.814-.981,7.5,7.5,0,0,0-3.557-.012,9.04,9.04,0,0,0-3.292,2.156c-.914.812-1.9,1.8-1.807,3.035.245,3.135,2.956.945,4.256.423C1112.673,512.072,1115,512.055,1116.483,510.473Z" transform="translate(-1053.917 -507.013)" fill="#f2b879"/>
        <path id="Trazado_18944" data-name="Trazado 18944" d="M1116.669,512.4c-2.538,3.116-5.346,8.46-10.935,14.383-4.511,4.781-15.638,10.859-18.566,10.141-5.073-1.242-8.151-10.275-5.595-12.526,1.107-.976,4.625,1.69,5.81,1.7,10.238.1,25.422-17.012,25.422-17.012A8.814,8.814,0,0,1,1116.669,512.4Z" transform="translate(-1058.943 -506.608)" fill="#0a6d6d"/>
        <path id="Trazado_18945" data-name="Trazado 18945" d="M1094.759,532.264l.2-2.9a4.671,4.671,0,0,0-2.729-4.324l-20.917-10.233a6.632,6.632,0,0,0-6.058.26,6.817,6.817,0,0,0-2.671,6.542c.759,3.923,5.36,4.795,15.908,10.187,5.72,2.924,7.706,2.911,10.736,3.753C1091.984,536.316,1094.588,534.76,1094.759,532.264Z" transform="translate(-1062.478 -505.618)" fill="#0a6d6d"/>
      </g>
      <g id="Grupo_7685" data-name="Grupo 7685" transform="translate(27.925 64.941)">
        <path id="Trazado_18946" data-name="Trazado 18946" d="M1059.646,561.676c1.83,9.19,5.307,14.788,9.369,22.935a208.973,208.973,0,0,1,8.806,20.324,10.731,10.731,0,0,0,5.725-5.956c1.435-3.537,1.953-3.635,1.724-4.78l-12.1-46.207c-.472-.18-9.283-3.417-13.026,1.326C1059.66,549.93,1057.819,552.5,1059.646,561.676Z" transform="translate(-1058.854 -546.746)" fill="#1b62c9"/>
        <path id="Trazado_18947" data-name="Trazado 18947" d="M1079.774,636.323l4.614.165a183.343,183.343,0,0,1-1.163-46.286,7.294,7.294,0,0,0-1-4.554,4.748,4.748,0,0,0-2.794-2.267c-1.487-.375-3.016.792-5.195,1.192a5.421,5.421,0,0,0-3.079,1.9,116.578,116.578,0,0,0,.534,17.857A118.126,118.126,0,0,0,1079.774,636.323Z" transform="translate(-1056.487 -539.637)" fill="#1b62c9"/>
        <path id="Trazado_18948" data-name="Trazado 18948" d="M1078.172,631.242l7.856-1-3.659-3.913-4.461.57Z" transform="translate(-1055.149 -531.271)" fill="#195fb2"/>
        <path id="Trazado_18949" data-name="Trazado 18949" d="M1096.152,634.1c-6.7.355-9.181.041-10.028-.4a6.062,6.062,0,0,0-1.7-.566,3.551,3.551,0,0,0-1.687.035,3.213,3.213,0,0,0-1.113.622c-.595.465-1.7.895-3.925.678a8.293,8.293,0,0,1-.105-6,15.055,15.055,0,0,1,6.746-.135,15.579,15.579,0,0,1,6.236,2.875l5.907,1.553A.729.729,0,0,1,1096.152,634.1Z" transform="translate(-1055.309 -530.941)" fill="#0a6d6d"/>
      </g>
      <g id="Grupo_7686" data-name="Grupo 7686" transform="translate(2.674 62.603)">
        <path id="Trazado_18950" data-name="Trazado 18950" d="M1054.456,556.244c-2.563,9.023-2.009,15.542-2.1,24.6a206.823,206.823,0,0,1-1.406,22.016,11.046,11.046,0,0,0,7.848-2.849c2.9-2.544,3.41-2.408,3.729-3.533l10.288-46.621c-.34-.367-6.75-7.086-12.27-4.463C1059.837,545.734,1057.013,547.239,1054.456,556.244Z" transform="translate(-1035.139 -544.789)" fill="#1c68da"/>
        <path id="Trazado_18951" data-name="Trazado 18951" d="M1039.459,631.8l4.055,2.149A186.123,186.123,0,0,1,1063.632,592a7.3,7.3,0,0,0,1.185-4.513,4.6,4.6,0,0,0-1.466-3.242c-1.161-.981-3.064-.6-5.2-1.186a5.532,5.532,0,0,0-3.626.368,117.8,117.8,0,0,0-15.068,48.374Z" transform="translate(-1037.375 -537.378)" fill="#1c68da"/>
        <path id="Trazado_18952" data-name="Trazado 18952" d="M1037.714,626.31l7.032,3.555-.7-5.249-3.993-2.019Z" transform="translate(-1037.714 -529.657)" fill="#1c68da"/>
      </g>
      <path id="Trazado_18953" data-name="Trazado 18953" d="M1051.462,544.592q.088.676.184,1.389c0,.042.01.082.016.124,1.122,8.435,1.951,7.929,2.016,10.755a29.969,29.969,0,0,1-.343,5.238,9.069,9.069,0,0,0,6.9,10.155l.2.048a23.856,23.856,0,0,0,10.265.37c.252-.048.5-.1.747-.153a9.024,9.024,0,0,0,6.982-10.544c-.571-2.83-.939-4.741-1.07-5.59a23.181,23.181,0,0,0-.644-2.938c-.136-.478-.255-.827-.318-1.024-1.605-4.926-1.89-13.1-1.389-16.648.192-1.356.423-2.445.574-3.931,0-.039.086-.926.13-1.859.21-4.417.331-6.966-.355-9.3-1.486-5.051-6.336-7.63-6.711-7.824l-.184-.092a13.132,13.132,0,0,0-8.825-1.173c-.221.056-.441.122-.663.2a11.469,11.469,0,0,0-3.364,1.834q-.443.339-.828.694l-.145.134a12.533,12.533,0,0,0-2.2,2.779,8.614,8.614,0,0,0-.908,2.217,51.874,51.874,0,0,0-1.263,6.683C1049.833,529.657,1049.874,532.458,1051.462,544.592Z" transform="translate(-1032.646 -488.705)" fill="#b3dee5"/>
      <path id="Trazado_18954" data-name="Trazado 18954" d="M1057.065,511.868c1.283,1.656,2.674,3.359,4.181,5.092,1.9,2.182,3.778,4.185,5.608,6.018q.116-5.187.234-10.372a12.476,12.476,0,0,0-3.51-1.226A12.928,12.928,0,0,0,1057.065,511.868Z" transform="translate(-1031.278 -488.724)" fill="#fff"/>
      <g id="Grupo_7687" data-name="Grupo 7687" transform="translate(21.176)">
        <path id="Trazado_18955" data-name="Trazado 18955" d="M1068.36,504.84a35.122,35.122,0,0,0-1.231,4.86q-.093.516-.166,1.014a35.3,35.3,0,0,0-.371,4.357,6.532,6.532,0,0,1-5.344.664,6.136,6.136,0,0,1-3.305-2.742,14.454,14.454,0,0,0,3.74-8.727l.814.069Z" transform="translate(-1052.283 -490.066)" fill="#f2b879"/>
        <path id="Trazado_18956" data-name="Trazado 18956" d="M1067.626,504.829a35.124,35.124,0,0,0-1.231,4.86q-.093.516-.166,1.014a5.768,5.768,0,0,1-1.62-.887,6.628,6.628,0,0,1-2.869-4.3,4.943,4.943,0,0,1,.022-1.189Z" transform="translate(-1051.55 -490.055)" fill="#eda966"/>
        <path id="Trazado_18957" data-name="Trazado 18957" d="M1070.108,502.507c-.306,1.3.889,2.565.688,3.878-.188,1.224-1.486,1.962-2.694,2.348a6.987,6.987,0,0,1-5.265-.1,8.216,8.216,0,0,1-2.643-2.543c-1.246-1.667-2.438-3.617-2.135-5.657a5.712,5.712,0,0,1,3.337-4.055c1.895-.908,4.538-.947,5.882.872.495.67.78,1.458,1.3,2.12C1069.558,500.613,1070.5,500.858,1070.108,502.507Z" transform="translate(-1052.27 -491.719)" fill="#f7c589"/>
        <path id="Trazado_18958" data-name="Trazado 18958" d="M1063.8,510.987a2.023,2.023,0,0,1-.953,1.182,2.173,2.173,0,0,1-2.262-.2,2.474,2.474,0,0,0,.578-2.046c-.325-1.295-2.026-1.388-4.262-3.216a11.827,11.827,0,0,1-2.172-2.334,5.462,5.462,0,0,1-1.142-5.669,5.534,5.534,0,0,1,2.917-2.606c1.633-.7,2.544-.259,4.169-.588a8.583,8.583,0,0,0,4.826-3.128c1.856,2.311,1.9,3.691,1.6,4.526-.754,2.05-4.153,2.206-4.5,4.392-.173,1.087.506,2.072,0,2.447s-1.425-.432-2.053.013a1.253,1.253,0,0,0-.358,1.357c.339.952,1.833.724,2.813,1.566C1063.649,507.243,1064.208,508.4,1063.8,510.987Z" transform="translate(-1053.205 -492.378)" fill="#1c68da"/>
      </g>
      <path id="Trazado_18959" data-name="Trazado 18959" d="M1051.462,544.072l7.437-17.906c2.082-5.011.278-10.447-4.026-12.144-.079-.031-.159-.06-.24-.085a12.658,12.658,0,0,0-2.862,4.071,51.955,51.955,0,0,0-1.51,7.609C1049.833,529.137,1049.874,531.938,1051.462,544.072Z" transform="translate(-1032.646 -488.185)" fill="#84ccd3"/>
      <g id="Grupo_7688" data-name="Grupo 7688" transform="translate(1.253 24.303)">
        <path id="Trazado_18960" data-name="Trazado 18960" d="M1075.271,548.1a5.907,5.907,0,0,0-6.1-3.887l-.9,4.077a24.269,24.269,0,0,1,2.309,1.068c2.98,1.573,3.96,2.892,4.651,2.507C1075.98,551.439,1075.717,549.346,1075.271,548.1Z" transform="translate(-1030.353 -506.605)" fill="#f7c589"/>
        <path id="Trazado_18961" data-name="Trazado 18961" d="M1075.337,550.774a52.922,52.922,0,0,1-18.812-.148c-1.9-.363-19.448-3.727-19.987-10.865-.2-2.648,1.941-5.825,4.275-6.368,2.066-.479,3.919,1.192,5.208,2.174,9.292,7.084,25.592,9.425,29.792,10.146a.867.867,0,0,1,.668,1.106Q1075.91,548.8,1075.337,550.774Z" transform="translate(-1036.525 -508.721)" fill="#0f8c91"/>
        <path id="Trazado_18962" data-name="Trazado 18962" d="M1040.75,545.131l3.065.495a5.265,5.265,0,0,0,4.99-2.387L1060.691,526c3.093-4.488,2.475-10.169-1.38-12.691h0a4.508,4.508,0,0,0-5.743,1.224,94.934,94.934,0,0,0-10.068,13.843,92.682,92.682,0,0,0-5.49,10.714C1036.811,541.861,1038.11,544.7,1040.75,545.131Z" transform="translate(-1036.324 -512.724)" fill="#0f8c91"/>
      </g>
      <path id="Trazado_18963" data-name="Trazado 18963" d="M1051.92,637.636c-6.08-2.768-8.113-4.183-8.647-4.961a5.863,5.863,0,0,0-1.223-1.279,3.518,3.518,0,0,0-1.5-.745,3.266,3.266,0,0,0-1.283.037c-.75.137-1.929.009-3.789-1.205a8.279,8.279,0,0,1,.9-2.917,8.5,8.5,0,0,1,1.906-2.42,14.844,14.844,0,0,1,6.013,2.981,15.019,15.019,0,0,1,4.107,5.4l4.457,4.083A.742.742,0,0,1,1051.92,637.636Z" transform="translate(-1035.476 -466.753)" fill="#0f8c91"/>
    </g>
    <g id="Grupo_7690" data-name="Grupo 7690" transform="translate(1085.03 446.246)">
      <path id="Trazado_18964" data-name="Trazado 18964" d="M1094.341,534.052a5.066,5.066,0,0,0,7.2.177c18.5-17.787,31.6-33.107,29.792-35.027s-17.88,10.245-36.736,27.658a5.064,5.064,0,0,0-.252,7.192Z" transform="translate(-1066.76 -432.312)" fill="#4e7eba"/>
      <path id="Trazado_18965" data-name="Trazado 18965" d="M1104.733,517.656c-20.428,19.246-35.426,36.508-33.5,38.553s20.049-11.9,40.477-31.147Z" transform="translate(-1071.018 -428.685)" fill="#4e7eba"/>
      <path id="Trazado_18966" data-name="Trazado 18966" d="M1104.693,517.6c-20.428,19.246-35.427,36.508-33.5,38.551a.339.339,0,0,0,.048.045l36.985-34.847Z" transform="translate(-1071.026 -428.695)" fill="#4e7eba"/>
      <circle id="Elipse_720" data-name="Elipse 720" cx="36.836" cy="36.836" r="36.836" transform="translate(29.793 43.22) rotate(-35.92)" fill="#4e7eba"/>
      <path id="Trazado_18967" data-name="Trazado 18967" d="M1124.394,465.323a33.177,33.177,0,0,0-9.989,12.351c-.3.652-.591,1.309-.848,1.972a33.1,33.1,0,0,0,28.372,45.089,32.639,32.639,0,0,0,8.62-.5,33.158,33.158,0,0,0,8.973-3.09,32.5,32.5,0,0,0,6.291-4.2,33.109,33.109,0,0,0-41.419-51.627Z" transform="translate(-1063.201 -440.167)" fill="#82cdd8"/>
      <path id="Trazado_18968" data-name="Trazado 18968" d="M1127.095,521.073a33.1,33.1,0,0,0,28.1-59.946Z" transform="translate(-1060.123 -439.678)" fill="#82cdd8"/>
      <path id="Trazado_18969" data-name="Trazado 18969" d="M1154.786,475.424a3.925,3.925,0,1,0,5.548.165A3.924,3.924,0,0,0,1154.786,475.424Z" transform="translate(-1054.978 -437.106)" fill="#fff"/>
      <path id="Trazado_18970" data-name="Trazado 18970" d="M1155.944,487.466a2.248,2.248,0,1,0,2.181,2.314A2.248,2.248,0,0,0,1155.944,487.466Z" transform="translate(-1054.963 -434.556)" fill="#fff"/>
      <circle id="Elipse_721" data-name="Elipse 721" cx="24.249" cy="24.249" r="24.249" transform="matrix(0.858, -0.513, 0.513, 0.858, 49.58, 42.756)" fill="#ecf5f7" opacity="0.36"/>
    </g>
    <path id="Trazado_18971" data-name="Trazado 18971" d="M1074.784,551.839c-.661.366-1.583-.818-4.258-2.292V544.3a5.739,5.739,0,0,1,1.438.51,6.05,6.05,0,0,1,2.867,3.26C1075.279,549.323,1075.54,551.415,1074.784,551.839Z" transform="translate(13.906 22.743)" fill="#f7c589"/>
    <path id="Trazado_18972" data-name="Trazado 18972" d="M1108.631,509.628c.161.581,1.67.743,2.757.4.27-.084,1.181-.369,1.234-.9.054-.546-.829-1.167-1.636-1.234C1109.732,507.8,1108.461,509.018,1108.631,509.628Z" transform="translate(21.313 15.663)" fill="#f7c589"/>
  </g>
</svg>
