<svg xmlns="http://www.w3.org/2000/svg" width="61.091" height="68.294" viewBox="0 0 61.091 68.294">
  <g id="Grupo_7733" data-name="Grupo 7733" transform="translate(-320 -1268)">
    <g id="Grupo_7732" data-name="Grupo 7732" transform="translate(320 1268)">
      <g id="Grupo_7723" data-name="Grupo 7723" transform="translate(0)">
        <g id="Grupo_7722" data-name="Grupo 7722">
          <path id="Trazado_18987" data-name="Trazado 18987" d="M86.757,0H33.669A6.677,6.677,0,0,0,27,6.669v6.625a1.334,1.334,0,0,0,2.668,0V6.669a4.006,4.006,0,0,1,4-4h1.867V46.33a1.334,1.334,0,0,0,2.668,0V2.668H85.424V54.955H33.669a6.634,6.634,0,0,0-4,1.337V25.477a1.334,1.334,0,0,0-2.668,0V61.625a6.677,6.677,0,0,0,6.669,6.669H86.757a1.334,1.334,0,0,0,1.334-1.334V1.334A1.334,1.334,0,0,0,86.757,0ZM85.424,60.291H73.835a1.334,1.334,0,0,0,0,2.668H85.424v2.668H33.669a4,4,0,0,1,0-8H85.424Z" transform="translate(-27)" fill="#cb4f29"/>
        </g>
      </g>
      <g id="Grupo_7725" data-name="Grupo 7725" transform="translate(0 18.541)">
        <g id="Grupo_7724" data-name="Grupo 7724">
          <path id="Trazado_18988" data-name="Trazado 18988" d="M29.277,139.391a1.333,1.333,0,1,0,.391.943A1.344,1.344,0,0,0,29.277,139.391Z" transform="translate(-27 -139)" fill="#cb4f29"/>
        </g>
      </g>
      <g id="Grupo_7727" data-name="Grupo 7727" transform="translate(8.537 49.9)">
        <g id="Grupo_7726" data-name="Grupo 7726">
          <path id="Trazado_18989" data-name="Trazado 18989" d="M93.277,374.491a1.333,1.333,0,1,0,.391.943A1.338,1.338,0,0,0,93.277,374.491Z" transform="translate(-91 -374.1)" fill="#cb4f29"/>
        </g>
      </g>
      <g id="Grupo_7729" data-name="Grupo 7729" transform="translate(13.751 7.749)">
        <g id="Grupo_7728" data-name="Grupo 7728">
          <path id="Trazado_18990" data-name="Trazado 18990" d="M170.882,74.292h-.677a2.958,2.958,0,0,1-2.732-1.853l-.025-.061a2.971,2.971,0,0,1,.615-3.257l.478-.478a1.334,1.334,0,0,0,0-1.886l-4.991-4.991a1.334,1.334,0,0,0-1.886,0l-.478.478a2.971,2.971,0,0,1-3.256.616l-.058-.024a2.96,2.96,0,0,1-1.858-2.733v-.677a1.334,1.334,0,0,0-1.334-1.334h-7.058a1.334,1.334,0,0,0-1.334,1.334v.69a2.95,2.95,0,0,1-1.847,2.724l-.064.026a2.963,2.963,0,0,1-3.251-.612l-.488-.488a1.334,1.334,0,0,0-1.886,0l-4.991,4.991a1.334,1.334,0,0,0,0,1.886l.5.5a2.959,2.959,0,0,1,.615,3.24l-.024.06a2.949,2.949,0,0,1-2.723,1.852h-.7a1.334,1.334,0,0,0-1.334,1.334v7.058a1.334,1.334,0,0,0,1.334,1.334h.717a2.943,2.943,0,0,1,2.717,1.845l.024.058a2.955,2.955,0,0,1-.611,3.24l-.506.506a1.334,1.334,0,0,0,0,1.886l4.991,4.991a1.334,1.334,0,0,0,1.887,0l.506-.506a2.954,2.954,0,0,1,3.239-.612l.059.025a2.943,2.943,0,0,1,1.845,2.717v.717a1.334,1.334,0,0,0,1.334,1.334h7.058a1.334,1.334,0,0,0,1.334-1.334v-.7a2.951,2.951,0,0,1,1.857-2.726l.051-.021a2.96,2.96,0,0,1,3.243.614l.5.5a1.334,1.334,0,0,0,1.886,0l4.991-4.991a1.334,1.334,0,0,0,0-1.886l-.488-.487a2.963,2.963,0,0,1-.612-3.252l.025-.061a2.951,2.951,0,0,1,2.725-1.85h.69a1.334,1.334,0,0,0,1.334-1.334V75.625A1.334,1.334,0,0,0,170.882,74.292ZM142.047,92.624l-.02.022a5.556,5.556,0,0,0-2.305,1.092l-3.152-3.152a5.546,5.546,0,0,0,1.052-2.141c.026-.022.052-.045.077-.07l5.237-5.237a1.334,1.334,0,0,0,.326-1.355,8.28,8.28,0,0,1,8.893-10.776l-3.906,3.905a1.334,1.334,0,0,0-.351,1.267l1.065,4.26a1.334,1.334,0,0,0,.971.97l4.26,1.065a1.333,1.333,0,0,0,1.267-.351l3.89-3.89A8.28,8.28,0,0,1,148.586,87.1a1.329,1.329,0,0,0-1.428.416Zm27.5-11.238A5.617,5.617,0,0,0,165,84.849l-.022.052a5.633,5.633,0,0,0,.759,5.683l-3.155,3.155a5.631,5.631,0,0,0-5.685-.77l-.045.019a5.614,5.614,0,0,0-3.47,4.561h-4.459a5.611,5.611,0,0,0-3.463-4.566l3.118-3.118A10.946,10.946,0,0,0,161.29,75.149a1.334,1.334,0,0,0-2.181-.447l-5,5-2.751-.688-.688-2.751,5.01-5.01a1.334,1.334,0,0,0-.444-2.18A10.947,10.947,0,0,0,140.5,81.805l-3.135,3.135c-.007-.016-.011-.032-.018-.048l-.019-.046a5.609,5.609,0,0,0-4.566-3.462V76.924a5.616,5.616,0,0,0,4.562-3.471l.02-.047a5.63,5.63,0,0,0-.771-5.682l3.155-3.155a5.633,5.633,0,0,0,5.684.759l.05-.021a5.617,5.617,0,0,0,3.463-4.547h4.465a5.627,5.627,0,0,0,3.474,4.544l.045.019a5.642,5.642,0,0,0,5.675-.755l3.159,3.159a5.641,5.641,0,0,0-.755,5.674l.005.013.015.037a5.626,5.626,0,0,0,4.543,3.472v4.465Z" transform="translate(-130.09 -58.091)" fill="#cb4f29"/>
        </g>
      </g>
      <g id="Grupo_7731" data-name="Grupo 7731" transform="translate(40.498 60.291)">
        <g id="Grupo_7730" data-name="Grupo 7730">
          <path id="Trazado_18991" data-name="Trazado 18991" d="M332.888,452.391a1.333,1.333,0,1,0,.391.943A1.347,1.347,0,0,0,332.888,452.391Z" transform="translate(-330.61 -452)" fill="#cb4f29"/>
        </g>
      </g>
    </g>
  </g>
</svg>
