<svg xmlns="http://www.w3.org/2000/svg" width="61.091" height="73.771" viewBox="0 0 61.091 73.771">
  <g id="Grupo_7721" data-name="Grupo 7721" transform="translate(-337 -1268)">
    <g id="Grupo_7720" data-name="Grupo 7720" transform="translate(337 1268)">
      <g id="Grupo_7693" data-name="Grupo 7693" transform="translate(29.105 21.901)">
        <g id="Grupo_7692" data-name="Grupo 7692">
          <path id="Trazado_18973" data-name="Trazado 18973" d="M268.19,152H247.442a1.441,1.441,0,0,0,0,2.882H268.19a1.441,1.441,0,0,0,0-2.882Z" transform="translate(-246.001 -152)" fill="#cb4f29"/>
        </g>
      </g>
      <g id="Grupo_7695" data-name="Grupo 7695" transform="translate(43.793 28.817)">
        <g id="Grupo_7694" data-name="Grupo 7694">
          <path id="Trazado_18974" data-name="Trazado 18974" d="M350.4,200.423a1.44,1.44,0,1,0,.422,1.019A1.452,1.452,0,0,0,350.4,200.423Z" transform="translate(-347.941 -200.001)" fill="#cb4f29"/>
        </g>
      </g>
      <g id="Grupo_7697" data-name="Grupo 7697" transform="translate(29.103 6.196)">
        <g id="Grupo_7696" data-name="Grupo 7696">
          <path id="Trazado_18975" data-name="Trazado 18975" d="M248.451,43.423a1.44,1.44,0,1,0,.422,1.019A1.452,1.452,0,0,0,248.451,43.423Z" transform="translate(-245.991 -43.001)" fill="#cb4f29"/>
        </g>
      </g>
      <g id="Grupo_7699" data-name="Grupo 7699" transform="translate(29.105 28.817)">
        <g id="Grupo_7698" data-name="Grupo 7698">
          <path id="Trazado_18976" data-name="Trazado 18976" d="M256.069,200h-8.627a1.441,1.441,0,0,0,0,2.882h8.627a1.441,1.441,0,0,0,0-2.882Z" transform="translate(-246.001 -200)" fill="#cb4f29"/>
        </g>
      </g>
      <g id="Grupo_7701" data-name="Grupo 7701" transform="translate(29.105 37.462)">
        <g id="Grupo_7700" data-name="Grupo 7700">
          <path id="Trazado_18977" data-name="Trazado 18977" d="M268.19,260H247.442a1.441,1.441,0,0,0,0,2.882H268.19a1.441,1.441,0,0,0,0-2.882Z" transform="translate(-246.001 -260)" fill="#cb4f29"/>
        </g>
      </g>
      <g id="Grupo_7703" data-name="Grupo 7703" transform="translate(43.793 44.378)">
        <g id="Grupo_7702" data-name="Grupo 7702">
          <path id="Trazado_18978" data-name="Trazado 18978" d="M350.4,308.423a1.44,1.44,0,1,0,.422,1.019A1.452,1.452,0,0,0,350.4,308.423Z" transform="translate(-347.941 -308.001)" fill="#cb4f29"/>
        </g>
      </g>
      <g id="Grupo_7705" data-name="Grupo 7705" transform="translate(29.105 44.378)">
        <g id="Grupo_7704" data-name="Grupo 7704">
          <path id="Trazado_18979" data-name="Trazado 18979" d="M256.069,308h-8.627a1.441,1.441,0,1,0,0,2.882h8.627a1.441,1.441,0,1,0,0-2.882Z" transform="translate(-246.001 -308)" fill="#cb4f29"/>
        </g>
      </g>
      <g id="Grupo_7707" data-name="Grupo 7707" transform="translate(29.105 53.023)">
        <g id="Grupo_7706" data-name="Grupo 7706">
          <path id="Trazado_18980" data-name="Trazado 18980" d="M268.19,368H247.442a1.441,1.441,0,0,0,0,2.882H268.19a1.441,1.441,0,0,0,0-2.882Z" transform="translate(-246.001 -368)" fill="#cb4f29"/>
        </g>
      </g>
      <g id="Grupo_7709" data-name="Grupo 7709" transform="translate(43.793 59.939)">
        <g id="Grupo_7708" data-name="Grupo 7708">
          <path id="Trazado_18981" data-name="Trazado 18981" d="M350.4,416.423a1.44,1.44,0,1,0,.422,1.019A1.452,1.452,0,0,0,350.4,416.423Z" transform="translate(-347.941 -416.001)" fill="#cb4f29"/>
        </g>
      </g>
      <g id="Grupo_7711" data-name="Grupo 7711" transform="translate(29.105 59.939)">
        <g id="Grupo_7710" data-name="Grupo 7710">
          <path id="Trazado_18982" data-name="Trazado 18982" d="M256.069,416h-8.627a1.441,1.441,0,0,0,0,2.882h8.627a1.441,1.441,0,0,0,0-2.882Z" transform="translate(-246.001 -416)" fill="#cb4f29"/>
        </g>
      </g>
      <g id="Grupo_7713" data-name="Grupo 7713" transform="translate(0)">
        <g id="Grupo_7712" data-name="Grupo 7712">
          <path id="Trazado_18983" data-name="Trazado 18983" d="M98.067,5.619h-11a8.828,8.828,0,0,0-6.107-2.45H79.693a5.763,5.763,0,0,0-10.293,0H68.135a8.827,8.827,0,0,0-6.107,2.45h-11A7.033,7.033,0,0,0,44,12.645v54.1a7.033,7.033,0,0,0,7.025,7.025H98.067a7.033,7.033,0,0,0,7.025-7.025v-54.1A7.033,7.033,0,0,0,98.067,5.619Zm-29.932.432h2.246A1.441,1.441,0,0,0,71.77,4.994a2.882,2.882,0,0,1,5.554,0,1.441,1.441,0,0,0,1.389,1.057h2.243a5.988,5.988,0,0,1,5.958,5.475H62.177A5.988,5.988,0,0,1,68.135,6.052Zm34.076,60.694a4.148,4.148,0,0,1-4.144,4.144H51.026a4.148,4.148,0,0,1-4.144-4.144v-54.1A4.148,4.148,0,0,1,51.026,8.5h8.983a8.809,8.809,0,0,0-.736,3.53v.937a1.441,1.441,0,0,0,1.441,1.441H88.376a1.441,1.441,0,0,0,1.441-1.441v-.937a8.809,8.809,0,0,0-.736-3.53h8.986a4.148,4.148,0,0,1,4.144,4.144Z" transform="translate(-44.001)" fill="#cb4f29"/>
        </g>
      </g>
      <g id="Grupo_7715" data-name="Grupo 7715" transform="translate(8.827 21.132)">
        <g id="Grupo_7714" data-name="Grupo 7714">
          <path id="Trazado_18984" data-name="Trazado 18984" d="M117.818,147.089a1.441,1.441,0,0,0-2.038,0l-6.161,6.161-1.9-1.9a1.441,1.441,0,0,0-2.038,2.038l2.917,2.917a1.441,1.441,0,0,0,2.038,0l7.18-7.18A1.441,1.441,0,0,0,117.818,147.089Z" transform="translate(-105.261 -146.667)" fill="#cb4f29"/>
        </g>
      </g>
      <g id="Grupo_7717" data-name="Grupo 7717" transform="translate(9.51 53.023)">
        <g id="Grupo_7716" data-name="Grupo 7716">
          <path id="Trazado_18985" data-name="Trazado 18985" d="M118.358,368h-6.916A1.441,1.441,0,0,0,110,369.441v6.916a1.441,1.441,0,0,0,1.441,1.441h6.916a1.441,1.441,0,0,0,1.441-1.441v-6.916A1.441,1.441,0,0,0,118.358,368Zm-1.441,6.916h-4.034v-4.034h4.034Z" transform="translate(-110.001 -368)" fill="#cb4f29"/>
        </g>
      </g>
      <g id="Grupo_7719" data-name="Grupo 7719" transform="translate(9.51 37.462)">
        <g id="Grupo_7718" data-name="Grupo 7718">
          <path id="Trazado_18986" data-name="Trazado 18986" d="M118.358,260h-6.916A1.441,1.441,0,0,0,110,261.441v6.916a1.441,1.441,0,0,0,1.441,1.441h6.916a1.441,1.441,0,0,0,1.441-1.441v-6.916A1.441,1.441,0,0,0,118.358,260Zm-1.441,6.916h-4.034v-4.034h4.034Z" transform="translate(-110.001 -260)" fill="#cb4f29"/>
        </g>
      </g>
    </g>
  </g>
</svg>
