<svg xmlns="http://www.w3.org/2000/svg" xmlns:xlink="http://www.w3.org/1999/xlink" width="592.031" height="354.366" viewBox="0 0 592.031 354.366">
  <defs>
    <linearGradient id="linear-gradient" x1="0.232" y1="0.695" x2="1.191" y2="-0.232" gradientUnits="objectBoundingBox">
      <stop offset="0" stop-color="#e59122"/>
      <stop offset="0.986" stop-color="#e7d162"/>
    </linearGradient>
    <linearGradient id="linear-gradient-2" x1="-3.622" y1="9.278" x2="1.966" y2="-2.339" xlink:href="#linear-gradient"/>
    <linearGradient id="linear-gradient-3" x1="-4.9" y1="5.899" x2="2.054" y2="-0.979" xlink:href="#linear-gradient"/>
    <linearGradient id="linear-gradient-4" x1="-6.472" y1="3.927" x2="3.473" y2="-1.017" xlink:href="#linear-gradient"/>
    <linearGradient id="linear-gradient-5" x1="-5.644" y1="2.808" x2="4.185" y2="-0.944" xlink:href="#linear-gradient"/>
    <linearGradient id="linear-gradient-6" x1="-4.844" y1="1.932" x2="8.077" y2="-1.619" xlink:href="#linear-gradient"/>
    <linearGradient id="linear-gradient-7" x1="-2.406" y1="1.147" x2="10.546" y2="-1.779" xlink:href="#linear-gradient"/>
    <linearGradient id="linear-gradient-8" x1="-3.183" y1="2.23" x2="4.087" y2="-1.262" xlink:href="#linear-gradient"/>
    <linearGradient id="linear-gradient-9" x1="-3.817" y1="7.687" x2="2.586" y2="-3.031" xlink:href="#linear-gradient"/>
    <linearGradient id="linear-gradient-10" x1="-2.171" y1="6.192" x2="3.215" y2="-5.133" xlink:href="#linear-gradient"/>
    <linearGradient id="linear-gradient-11" x1="-1.357" y1="4.481" x2="3.666" y2="-6.081" xlink:href="#linear-gradient"/>
    <linearGradient id="linear-gradient-12" x1="-0.507" y1="2.746" x2="3.219" y2="-5.23" xlink:href="#linear-gradient"/>
    <linearGradient id="linear-gradient-13" x1="-3.241" y1="1.514" x2="8.828" y2="-1.667" xlink:href="#linear-gradient"/>
    <linearGradient id="linear-gradient-14" x1="-0.041" y1="2.239" x2="3.219" y2="-7.918" xlink:href="#linear-gradient"/>
    <linearGradient id="linear-gradient-15" x1="0.541" y1="0.404" x2="3.226" y2="-5.21" xlink:href="#linear-gradient"/>
    <linearGradient id="linear-gradient-16" x1="-0.835" y1="0.747" x2="15.503" y2="-1.983" xlink:href="#linear-gradient"/>
    <linearGradient id="linear-gradient-17" x1="0.281" y1="1.12" x2="3.002" y2="-6.942" xlink:href="#linear-gradient"/>
    <linearGradient id="linear-gradient-18" x1="0.597" y1="0.48" x2="11.992" y2="-1.989" xlink:href="#linear-gradient"/>
    <linearGradient id="linear-gradient-19" x1="-0.126" y1="0.646" x2="1.217" y2="0.252" gradientUnits="objectBoundingBox">
      <stop offset="0" stop-color="#aeccf9"/>
      <stop offset="0.971" stop-color="#8088c1"/>
    </linearGradient>
    <linearGradient id="linear-gradient-20" x1="-2.112" y1="-0.38" x2="-1.883" y2="-2.81" xlink:href="#linear-gradient"/>
    <linearGradient id="linear-gradient-21" x1="-14.613" y1="-6.112" x2="-13.284" y2="-36.935" xlink:href="#linear-gradient"/>
    <linearGradient id="linear-gradient-22" x1="-18.369" y1="-2.898" x2="-16.709" y2="-20.947" xlink:href="#linear-gradient"/>
    <linearGradient id="linear-gradient-23" x1="-26.608" y1="-1.903" x2="-24.224" y2="-14.929" xlink:href="#linear-gradient"/>
    <linearGradient id="linear-gradient-24" x1="-26.366" y1="-1.373" x2="-24.004" y2="-11.27" xlink:href="#linear-gradient"/>
    <linearGradient id="linear-gradient-25" x1="-34.834" y1="-1.786" x2="-31.732" y2="-11.165" xlink:href="#linear-gradient"/>
    <linearGradient id="linear-gradient-26" x1="-34.599" y1="-1.757" x2="-31.52" y2="-9.5" xlink:href="#linear-gradient"/>
    <linearGradient id="linear-gradient-27" x1="-19.346" y1="-1.546" x2="-17.602" y2="-10.747" xlink:href="#linear-gradient"/>
    <linearGradient id="linear-gradient-28" x1="-16.777" y1="-6.493" x2="-15.258" y2="-35.109" xlink:href="#linear-gradient"/>
    <linearGradient id="linear-gradient-29" x1="-14.078" y1="-7.345" x2="-12.798" y2="-37.302" xlink:href="#linear-gradient"/>
    <linearGradient id="linear-gradient-30" x1="-13.108" y1="-8.316" x2="-11.913" y2="-36.257" xlink:href="#linear-gradient"/>
    <linearGradient id="linear-gradient-31" x1="-9.605" y1="-6.983" x2="-8.719" y2="-28.037" xlink:href="#linear-gradient"/>
    <linearGradient id="linear-gradient-32" x1="-32.486" y1="-1.711" x2="-29.591" y2="-10.116" xlink:href="#linear-gradient"/>
    <linearGradient id="linear-gradient-33" x1="-8.348" y1="-10.26" x2="-7.572" y2="-37.014" xlink:href="#linear-gradient"/>
    <linearGradient id="linear-gradient-34" x1="-6.784" y1="-6.928" x2="-6.146" y2="-22.007" xlink:href="#linear-gradient"/>
    <linearGradient id="linear-gradient-35" x1="-43.253" y1="-1.895" x2="-39.419" y2="-9.118" xlink:href="#linear-gradient"/>
    <linearGradient id="linear-gradient-36" x1="-6.882" y1="-9.118" x2="-6.235" y2="-30.499" xlink:href="#linear-gradient"/>
    <linearGradient id="linear-gradient-37" x1="-30.155" y1="-1.821" x2="-27.469" y2="-8.361" xlink:href="#linear-gradient"/>
    <linearGradient id="linear-gradient-38" x1="36.693" y1="-13.388" x2="35.114" y2="-14.278" xlink:href="#linear-gradient-19"/>
    <linearGradient id="linear-gradient-39" x1="0" y1="0.5" x2="1" y2="0.5" xlink:href="#linear-gradient"/>
    <linearGradient id="linear-gradient-41" x1="0.585" y1="0.5" x2="-0.191" y2="0.5" gradientUnits="objectBoundingBox">
      <stop offset="0.031" stop-color="#dad9fd"/>
      <stop offset="0.59" stop-color="#eaeaf4"/>
      <stop offset="1" stop-color="#f1f1f1"/>
    </linearGradient>
    <linearGradient id="linear-gradient-42" y1="0.5" x2="1" y2="0.5" gradientUnits="objectBoundingBox">
      <stop offset="0" stop-color="#2531ad"/>
      <stop offset="0.104" stop-color="#1f2b90"/>
      <stop offset="0.228" stop-color="#1a2676"/>
      <stop offset="0.365" stop-color="#162261"/>
      <stop offset="0.519" stop-color="#132053"/>
      <stop offset="0.703" stop-color="#111e4a"/>
      <stop offset="1" stop-color="#111e48"/>
    </linearGradient>
    <linearGradient id="linear-gradient-45" x1="-0.285" y1="0.5" x2="0.715" y2="0.5" gradientUnits="objectBoundingBox">
      <stop offset="0" stop-color="#f1f1f1"/>
      <stop offset="0.41" stop-color="#eaeaf4"/>
      <stop offset="0.969" stop-color="#dad9fd"/>
    </linearGradient>
    <linearGradient id="linear-gradient-46" x1="-0.113" y1="0.5" x2="0.887" y2="0.5" xlink:href="#linear-gradient-41"/>
    <linearGradient id="linear-gradient-47" x1="0.5" y1="1.189" x2="0.5" y2="0.312" gradientUnits="objectBoundingBox">
      <stop offset="0" stop-color="#111e48"/>
      <stop offset="0.265" stop-color="#15225f"/>
      <stop offset="0.631" stop-color="#1b287a"/>
      <stop offset="0.847" stop-color="#1d2a84"/>
      <stop offset="0.936" stop-color="#212d9a"/>
      <stop offset="1" stop-color="#2531ad"/>
    </linearGradient>
    <linearGradient id="linear-gradient-48" x1="0.5" y1="1.108" x2="0.5" y2="0.08" xlink:href="#linear-gradient-41"/>
    <linearGradient id="linear-gradient-50" x1="0" y1="0.5" x2="1" y2="0.5" xlink:href="#linear-gradient-19"/>
    <linearGradient id="linear-gradient-51" x1="0.5" y1="1.158" x2="0.5" y2="-0.403" xlink:href="#linear-gradient-47"/>
    <linearGradient id="linear-gradient-52" x1="0.502" y1="-0.301" x2="0.553" y2="-19.683" xlink:href="#linear-gradient-41"/>
    <linearGradient id="linear-gradient-53" x1="0.507" y1="-2.292" x2="0.558" y2="-21.673" xlink:href="#linear-gradient-41"/>
    <linearGradient id="linear-gradient-54" x1="0.466" y1="13.48" x2="0.517" y2="-5.901" xlink:href="#linear-gradient-41"/>
    <linearGradient id="linear-gradient-55" x1="0.471" y1="11.49" x2="0.522" y2="-7.892" xlink:href="#linear-gradient-41"/>
    <linearGradient id="linear-gradient-56" x1="0.468" y1="0.964" x2="0.627" y2="-1.313" xlink:href="#linear-gradient-41"/>
    <linearGradient id="linear-gradient-57" x1="0.482" y1="5.353" x2="0.559" y2="-15.683" xlink:href="#linear-gradient-41"/>
    <linearGradient id="linear-gradient-58" x1="0.489" y1="2.724" x2="0.592" y2="-17.653" xlink:href="#linear-gradient-41"/>
    <linearGradient id="linear-gradient-59" x1="0.463" y1="10.746" x2="0.539" y2="-10.29" xlink:href="#linear-gradient-41"/>
    <linearGradient id="linear-gradient-60" x1="0.452" y1="7.967" x2="0.587" y2="-13.069" xlink:href="#linear-gradient-41"/>
    <linearGradient id="linear-gradient-61" x1="-0.257" y1="0.5" x2="0.743" y2="0.5" gradientUnits="objectBoundingBox">
      <stop offset="0" stop-color="#e59122"/>
      <stop offset="0.228" stop-color="#e28d22"/>
      <stop offset="0.419" stop-color="#dc8324"/>
      <stop offset="0.596" stop-color="#d17126"/>
      <stop offset="0.765" stop-color="#c2592a"/>
      <stop offset="0.927" stop-color="#ae3a2e"/>
      <stop offset="0.994" stop-color="#a52b31"/>
    </linearGradient>
    <linearGradient id="linear-gradient-62" x1="0.417" y1="0.5" x2="1.417" y2="0.5" gradientUnits="objectBoundingBox">
      <stop offset="0" stop-color="#e59122"/>
      <stop offset="0.168" stop-color="#d27426"/>
      <stop offset="0.393" stop-color="#be542a"/>
      <stop offset="0.61" stop-color="#b03d2e"/>
      <stop offset="0.815" stop-color="#a72f30"/>
      <stop offset="0.994" stop-color="#a52b31"/>
    </linearGradient>
    <linearGradient id="linear-gradient-63" x1="1.481" y1="-0.024" x2="-0.57" y2="0.997" gradientUnits="objectBoundingBox">
      <stop offset="0.006" stop-color="#a52b31"/>
      <stop offset="0.073" stop-color="#ae3a2e"/>
      <stop offset="0.235" stop-color="#c2592a"/>
      <stop offset="0.404" stop-color="#d17126"/>
      <stop offset="0.581" stop-color="#dc8324"/>
      <stop offset="0.772" stop-color="#e28d22"/>
      <stop offset="1" stop-color="#e59122"/>
    </linearGradient>
    <linearGradient id="linear-gradient-64" x1="1.303" y1="0.5" x2="-0.006" y2="0.5" xlink:href="#linear-gradient-47"/>
    <linearGradient id="linear-gradient-65" x1="1.79" y1="-1.524" x2="0.374" y2="0.698" xlink:href="#linear-gradient-19"/>
    <linearGradient id="linear-gradient-66" x1="42.157" y1="-25.673" x2="41.832" y2="-8.492" xlink:href="#linear-gradient-19"/>
    <linearGradient id="linear-gradient-67" x1="0.641" y1="4.555" x2="0.389" y2="-2.681" gradientUnits="objectBoundingBox">
      <stop offset="0.001" stop-color="#a52b31"/>
      <stop offset="0.305" stop-color="#a52e33"/>
      <stop offset="0.559" stop-color="#a5383a"/>
      <stop offset="0.794" stop-color="#a64947"/>
      <stop offset="0.984" stop-color="#a75e56"/>
    </linearGradient>
    <linearGradient id="linear-gradient-68" x1="1.098" y1="1.556" x2="0.458" y2="0.408" xlink:href="#linear-gradient-67"/>
    <linearGradient id="linear-gradient-69" x1="3.2" y1="3.654" x2="-0.664" y2="-0.859" xlink:href="#linear-gradient-67"/>
    <linearGradient id="linear-gradient-70" x1="0.835" y1="11.96" x2="0.423" y2="-2.42" xlink:href="#linear-gradient-67"/>
    <linearGradient id="linear-gradient-71" x1="0.594" y1="0.201" x2="0.063" y2="1.52" xlink:href="#linear-gradient-63"/>
    <linearGradient id="linear-gradient-72" x1="0.5" y1="-0.01" x2="0.5" y2="1.278" xlink:href="#linear-gradient-47"/>
    <linearGradient id="linear-gradient-73" x1="1.479" y1="0.079" x2="0.022" y2="0.815" xlink:href="#linear-gradient-63"/>
    <linearGradient id="linear-gradient-74" x1="1.349" y1="-0.052" x2="0.616" y2="0.55" xlink:href="#linear-gradient-63"/>
    <linearGradient id="linear-gradient-75" x1="0.769" y1="0.109" x2="-0.315" y2="1.367" xlink:href="#linear-gradient-63"/>
    <linearGradient id="linear-gradient-76" x1="0.5" y1="1.049" x2="0.5" y2="0.2" xlink:href="#linear-gradient-19"/>
    <linearGradient id="linear-gradient-77" x1="0.5" y1="3.469" x2="0.5" y2="-0.059" xlink:href="#linear-gradient-47"/>
    <linearGradient id="linear-gradient-81" x1="0.5" y1="3.469" x2="0.5" y2="-0.059" xlink:href="#linear-gradient-47"/>
    <linearGradient id="linear-gradient-82" x1="-0.223" y1="0.493" x2="0.839" y2="0.506" xlink:href="#linear-gradient-47"/>
    <linearGradient id="linear-gradient-83" x1="0.353" y1="0.488" x2="1.056" y2="0.545" xlink:href="#linear-gradient-47"/>
    <linearGradient id="linear-gradient-84" x1="0.135" y1="0.436" x2="1.995" y2="0.767" xlink:href="#linear-gradient-63"/>
    <linearGradient id="linear-gradient-85" x1="-101.697" y1="-205.78" x2="-100.831" y2="-205.78" xlink:href="#linear-gradient-47"/>
    <linearGradient id="linear-gradient-86" x1="0.031" y1="0.421" x2="0.85" y2="0.551" xlink:href="#linear-gradient-63"/>
    <linearGradient id="linear-gradient-87" x1="-4.837" y1="0.485" x2="1.593" y2="0.503" xlink:href="#linear-gradient-19"/>
    <linearGradient id="linear-gradient-88" x1="50.926" y1="-0.036" x2="52.399" y2="0.105" xlink:href="#linear-gradient-19"/>
    <linearGradient id="linear-gradient-89" x1="565.361" y1="4.405" x2="567.707" y2="-3.416" xlink:href="#linear-gradient-67"/>
    <linearGradient id="linear-gradient-90" x1="0.361" y1="14.087" x2="0.611" y2="-10.832" xlink:href="#linear-gradient-67"/>
    <linearGradient id="linear-gradient-91" x1="0.436" y1="1.707" x2="0.557" y2="-0.341" xlink:href="#linear-gradient-67"/>
    <linearGradient id="linear-gradient-92" x1="0" y1="0.5" x2="1" y2="0.5" xlink:href="#linear-gradient-47"/>
    <linearGradient id="linear-gradient-93" x1="0" y1="0.5" x2="1" y2="0.5" xlink:href="#linear-gradient-19"/>
    <linearGradient id="linear-gradient-94" x1="0.231" y1="0.5" x2="1.231" y2="0.5" gradientUnits="objectBoundingBox">
      <stop offset="0.006" stop-color="#a52b31"/>
      <stop offset="0.29" stop-color="#b94b2c"/>
      <stop offset="0.765" stop-color="#d87d24"/>
      <stop offset="1" stop-color="#e59122"/>
    </linearGradient>
    <linearGradient id="linear-gradient-95" x1="-6.574" y1="0.552" x2="2.157" y2="0.488" xlink:href="#linear-gradient-19"/>
    <linearGradient id="linear-gradient-96" x1="51.388" y1="4.176" x2="53.388" y2="3.683" xlink:href="#linear-gradient-19"/>
    <linearGradient id="linear-gradient-97" x1="663.144" y1="4.859" x2="665.49" y2="-2.963" xlink:href="#linear-gradient-67"/>
    <linearGradient id="linear-gradient-98" x1="0.358" y1="14.417" x2="0.608" y2="-10.502" xlink:href="#linear-gradient-67"/>
    <linearGradient id="linear-gradient-99" x1="0.428" y1="1.841" x2="0.549" y2="-0.207" xlink:href="#linear-gradient-67"/>
    <linearGradient id="linear-gradient-100" x1="0.5" y1="-0.103" x2="0.5" y2="1.028" xlink:href="#linear-gradient-63"/>
    <linearGradient id="linear-gradient-102" x1="0.5" y1="-0.057" x2="0.5" y2="0.592" xlink:href="#linear-gradient-63"/>
    <linearGradient id="linear-gradient-103" x1="0.5" y1="-0.049" x2="0.5" y2="0.597" xlink:href="#linear-gradient-63"/>
  </defs>
  <g id="Grupo_7931" data-name="Grupo 7931" transform="translate(-897.23 -524.105)">
    <ellipse id="Elipse_724" data-name="Elipse 724" cx="296.015" cy="23.58" rx="296.015" ry="23.58" transform="translate(897.23 831.311)" fill="#f1f1f1" style="mix-blend-mode: multiply;isolation: isolate"/>
    <g id="Grupo_7851" data-name="Grupo 7851" transform="translate(907.518 524.105)">
      <g id="Grupo_7845" data-name="Grupo 7845" transform="translate(411.264 67.927)">
        <g id="Grupo_7841" data-name="Grupo 7841" transform="translate(21.37)">
          <path id="Trazado_19244" data-name="Trazado 19244" d="M1219.261,615.714c-11.187-4.257-1.1-9.235,5.923-11.223,5.68-1.606,19.907-4.228,14.132-13.925-6.048-10.157-11.84,2.389-16.651,3.805-10.753,3.165.436-10.322,3.108-13.919,3.657-4.927,11.355-14.994,1.851-16.672-7.688-1.357-15.649,9.353-18.838,14.692-2.273,3.805-7.865,21.631-13.682,17.68-4.4-2.993.151-20.84-10.363-8.083-4.276,5.186-3.585,13.521-5.514,19.454-2.823,8.691-4.013,12.293-11.727,10.063-4-1.157-4.128-6.175-9.062-2.787-2.54,1.746-3.293,9.776-3.271,12.565.2,25.617,10.44,42.773,15.271,44.985,6.542,2.995,18.7-1.331,24.291-4.544,2.78-1.6,7.853-4.236,7.5-8.287-.4-4.544-7.417-3.89-7.678-6.56-.737-7.568,13.186-.337,17.043-1.417,4.992-1.4,13.265-10.318,8.026-15.037-.539-.486-22.3-2.061-9.853-8.989,6.894-3.838,14.287,6.807,20.936-.75C1240.269,615.89,1223.456,617.31,1219.261,615.714Z" transform="translate(-1155.167 -563.662)" fill="#111e48"/>
          <path id="Trazado_19245" data-name="Trazado 19245" d="M1215.947,610.393c-4.806-2.031-9.776-3.862-15.01-4.308,3.682-4.6,7.542-9.158,10.342-14.266.79-1.441-1.564-2.435-2.349-1-.342.623-.721,1.228-1.09,1.837-.405-1.561.079-3.893.227-5.138a32.591,32.591,0,0,1,2.854-9.058,1.278,1.278,0,0,0-2.349-1,35.217,35.217,0,0,0-3.226,11.667c-.142,2.055-.265,4.284.929,5.986-3.958,5.874-8.89,11.285-13.018,16.986a25,25,0,0,1-3.658-9.022c-.651-3.608-.21-7.276-.584-10.908a1.278,1.278,0,0,0-2.535.318c.45,4.368-.062,8.658,1.036,12.963a28.847,28.847,0,0,0,4.154,8.886,157.611,157.611,0,0,0-12.729,21.523c-1.2,2.5-2.287,5.05-3.345,7.617a47.562,47.562,0,0,1-5.73-11.373,38.219,38.219,0,0,1-1.915-7.071c-.232-1.807-.041-3.512-.752-5.224a1.278,1.278,0,0,0-2.371.95c.871,2.1.577,4.834,1.128,7.078a66.368,66.368,0,0,0,1.946,6.415,50.381,50.381,0,0,0,6.415,11.919c.038.055.088.077.129.122-1.786,4.434-3.529,8.885-5.514,13.22a1.178,1.178,0,0,0-.393.515,11.892,11.892,0,0,0-.692,1.748c-3.548,8.955-7.121,17.9-10.554,26.9-.586,1.533,1.762,2.545,2.349,1.006,3.421-8.969,6.98-17.888,10.518-26.812.021-.038.052-.06.072-.1,1.133-2.337,2.176-4.719,3.179-7.119,4.648,1.182,9.815-.175,14.15-1.918a1.278,1.278,0,0,0-.95-2.371c-3.769,1.515-8.133,2.691-12.206,1.889,2.236-5.49,4.341-11.042,6.888-16.387,1.013-2.128,2.1-4.216,3.228-6.278a1.252,1.252,0,0,0,.261.173,37.5,37.5,0,0,0,19.96,2.536c1.621-.254,1.314-2.792-.318-2.535a34.881,34.881,0,0,1-18.636-2.351c-.012-.005-.024,0-.036-.007a193.359,193.359,0,0,1,11.555-17.6c.7-.967,1.437-1.92,2.179-2.871a1.063,1.063,0,0,0,.955.675c5.078.405,9.845,2.174,14.5,4.142A1.278,1.278,0,0,0,1215.947,610.393Z" transform="translate(-1153.709 -554.311)" fill="#111e8c"/>
        </g>
        <g id="Grupo_7844" data-name="Grupo 7844" transform="translate(16.413 74.932)">
          <g id="Grupo_7843" data-name="Grupo 7843">
            <g id="Grupo_7842" data-name="Grupo 7842" transform="translate(0 7.981)">
              <path id="Trazado_19246" data-name="Trazado 19246" d="M1268.612,615c-11.3,4.392-22.849,7.037-33.425,13.2a257.957,257.957,0,0,0-29.281,19.916c-8.522,6.7-16.687,13.8-25.248,20.467-9.991,7.779-17.031,17.223-25.565,26.376-1.37,1.466-3.776-.527-2.4-2,7.739-8.3,14.132-17.242,23.015-24.447,9.434-7.653,18.844-15.444,28.394-22.945a255.227,255.227,0,0,1,30.531-20.639c10.384-5.95,21.853-8.567,32.918-12.869,1.875-.73,2.94,2.208,1.065,2.936Z" transform="translate(-1152.28 -611.947)" fill="url(#linear-gradient)"/>
            </g>
            <path id="Trazado_19247" data-name="Trazado 19247" d="M1223.215,613.5c2.425-1.068,6.71-.682,8.68,1.159,2.3,2.155.192,4.24-2.31,4.719-2.787.532-5.656-.517-8.359-1.046-2.8-.548-5.837.07-8.466-.843,1.613-1.26,4.683-2.023,6.64-2.526,2.083-.534,4.006-1.556,6.046-2.109" transform="translate(-1108.904 -603.318)" fill="url(#linear-gradient-2)"/>
            <path id="Trazado_19248" data-name="Trazado 19248" d="M1216.556,618.957c4.295-1.513,10.633-1.03,13.636-5.208,1.964-2.734,1.278-5.213-2.227-5.512-2.66-.227-4.823,1.532-6.518,3.35a53.815,53.815,0,0,0-6.345,7.9" transform="translate(-1107.225 -606.641)" fill="url(#linear-gradient-3)"/>
            <path id="Trazado_19249" data-name="Trazado 19249" d="M1209.041,622.2c1.561-4.971,3.374-11.29,8.181-14.282,2.995-1.863,3.577,1.791,2.84,3.874-1.683,4.746-6.321,8.775-10.523,11.287Z" transform="translate(-1111.572 -607.225)" fill="url(#linear-gradient-4)"/>
            <path id="Trazado_19250" data-name="Trazado 19250" d="M1202.531,626.986c.95-6.292,1.951-14.256,7.188-18.769,3.264-2.813,4.654,1.489,4.156,4.138-1.138,6.044-5.978,11.776-10.578,15.6Z" transform="translate(-1116.241 -607.299)" fill="url(#linear-gradient-5)"/>
            <path id="Trazado_19251" data-name="Trazado 19251" d="M1188.691,636.257c-.165-6.36-.568-14.378,3.8-19.735,2.722-3.34,4.841.654,4.813,3.35-.064,6.149-3.828,12.638-7.689,17.2Z" transform="translate(-1126.232 -601.597)" fill="url(#linear-gradient-6)"/>
            <path id="Trazado_19252" data-name="Trazado 19252" d="M1178.9,647.014c-2.186-7.2-5.167-16.2-1.872-23.683,2.054-4.662,5.723-.776,6.539,2.3,1.86,7.028-.392,15.606-3.359,22.023Z" transform="translate(-1135.582 -597.35)" fill="url(#linear-gradient-7)"/>
            <path id="Trazado_19253" data-name="Trazado 19253" d="M1193.269,632.732c2.062-7.037,4.446-15.977,11.067-20.22,4.126-2.644,5.018,2.526,4.037,5.473-2.236,6.719-8.6,12.426-14.392,15.99Z" transform="translate(-1122.883 -604.084)" fill="url(#linear-gradient-8)"/>
            <path id="Trazado_19254" data-name="Trazado 19254" d="M1209.67,618.132c4.386,2.816,9.827,6.5,15.434,5.715,3.494-.49,1.6-3.668-.3-4.793-4.334-2.565-10.475-2.682-15.312-1.915Z" transform="translate(-1111.251 -600.54)" fill="url(#linear-gradient-9)"/>
            <path id="Trazado_19255" data-name="Trazado 19255" d="M1194.772,625.021c5.692,1.657,12.82,3.922,18.683,1.257,3.654-1.662.56-4.518-1.877-5.133-5.557-1.4-12.295.453-17.324,2.851Z" transform="translate(-1122.178 -597.715)" fill="url(#linear-gradient-10)"/>
            <path id="Trazado_19256" data-name="Trazado 19256" d="M1187.2,632.457c6.1,1.776,13.746,4.205,20.032,1.348,3.917-1.782.6-4.844-2.014-5.5-5.957-1.5-13.181.486-18.575,3.055Z" transform="translate(-1127.632 -592.609)" fill="url(#linear-gradient-11)"/>
            <path id="Trazado_19257" data-name="Trazado 19257" d="M1179.358,639.4c8.143,2.033,18.327,4.851,26.949.769,5.373-2.543,1.051-6.412-2.438-7.149-7.959-1.679-17.8,1.3-25.206,4.957Z" transform="translate(-1133.358 -589.197)" fill="url(#linear-gradient-12)"/>
            <path id="Trazado_19258" data-name="Trazado 19258" d="M1184.858,642.054c-1.4-3.9-3.5-7.3-3.654-11.545a14.26,14.26,0,0,1,3.847-9.774c1.044-1.207,2.145-2.816,3.891-3.019,2.452-.287,1.424,2.335.963,3.934a98.436,98.436,0,0,0-2.385,10.4c-.333,1.918-.7,3.706-1.192,5.529-.323,1.2-.316,3.6-.836,4.41" transform="translate(-1131.541 -599.844)" fill="url(#linear-gradient-13)"/>
            <path id="Trazado_19259" data-name="Trazado 19259" d="M1200.285,639.463c-4.551.055-19.227,1.473-24.87,1.544-1.288,1.032-2.6,2.04-3.927,3.053,9.2,2.229,24.373,3.69,28.381,2.734,1.729-.41,5.322-1.913,5.943-3.685C1206.929,639.911,1202.27,639.441,1200.285,639.463Z" transform="translate(-1138.504 -584.232)" fill="url(#linear-gradient-14)"/>
            <path id="Trazado_19260" data-name="Trazado 19260" d="M1195.569,654.691c-5.462-1.214-23.429-3.642-30.2-5.145-1.832.874-3.687,1.71-5.56,2.55,10.387,5.256,28.138,11.27,33.2,11.253,2.184-.007,6.908-.8,8.15-2.741C1203.4,657.095,1197.954,655.221,1195.569,654.691Z" transform="translate(-1146.881 -577.001)" fill="url(#linear-gradient-15)"/>
            <path id="Trazado_19261" data-name="Trazado 19261" d="M1171.692,654.909c-.732-2.445-6.979-9.717-4.269-23.073.386-1.894,1.072-4.381,3.091-5.115,2.8-1.02,3.012,2.124,3.088,4.114.148,3.924-.352,18.837.005,22.558" transform="translate(-1141.905 -593.513)" fill="url(#linear-gradient-16)"/>
            <path id="Trazado_19262" data-name="Trazado 19262" d="M1165.318,648.253c2.752.792,5.5,2.505,8.356,3.422,3.06.984,20.032,3.867,25.392,2.766,2.325-.477,6.862-.306,7.439-3.268.556-2.861-2.924-4.64-5.169-5.38-5.21-1.716-29.836.019-36.1,1.338" transform="translate(-1142.986 -580.206)" fill="url(#linear-gradient-17)"/>
            <path id="Trazado_19263" data-name="Trazado 19263" d="M1167.254,660.612c-6.445-9.156-9.007-28.114-7.434-30.035,3.412-4.169,7.719,2.327,8.569,5.488,1.9,7.085.18,23.764-1,24.006" transform="translate(-1147.195 -591.577)" fill="url(#linear-gradient-18)"/>
          </g>
        </g>
        <path id="Trazado_19264" data-name="Trazado 19264" d="M1162.514,673.981c-4.248,3.481-9.711,7.892-14.131,11.117-5.758,4.2-5.758,8.339-.8,13.308,6.118,6.137,17.01,9.487,25.438,10.83,2.979.474,3.537.27,3.6-3.113.045-2.5-.287-4.815-.062-7.336.434-4.865,1.212-9.036,4.07-13.049,4.508-6.33,4.913,1.535,3.62,5.177a41.53,41.53,0,0,0-2.55,13.42c-.063,7.89,25.7-3.937,29.487-8.455-2.948-2.243-6.4-11.507-4.107-15.135,2.016-3.194,2.881.307,3.319,2.425.5,2.438.739,4.741,2.186,6.762,5.921,8.261,18.255-13.562,20.573-18.054,3.051-5.909,6.57-6.774,12.712-7.023-4.365-5.739-10.726-14.014-18.42-14.307-3.729-.143-6.906,2.507-9.838,4.437-2.019,1.331-8.655,4.686-5.108-.337,2.474-3.506,7.219-4.672,9.657-8.325-1.983-2.481-8.849-7.027-12.165-6.286-3.972.886-5.182,8.673-7.688,11.364-2.811-4.777,2.588-9.539,4.456-13.451-5.229-3.771-15.831-8.407-22.651-6.573-9.946,2.675-.683,15.552,1.2,17.69,1.388,1.575,3.575,4.423-.148,3.185-3.264-1.085-7.471-8.306-8.828-11.412-.663-1.516-.776-5.84-2.169-6.788-1.59-1.08-28.041,10.695-31.022,19.445C1140.045,662.591,1154.794,672.827,1162.514,673.981Z" transform="translate(-1142.722 -515.397)" fill="url(#linear-gradient-19)"/>
      </g>
      <g id="Grupo_7850" data-name="Grupo 7850">
        <g id="Grupo_7846" data-name="Grupo 7846" transform="translate(37.991)">
          <path id="Trazado_19265" data-name="Trazado 19265" d="M946.6,576.207c11.218-4.173,1.169-9.227-5.838-11.266-5.668-1.648-19.875-4.375-14.029-14.029,6.123-10.112,11.824,2.476,16.624,3.929,10.729,3.245-.361-10.325-3-13.944-3.623-4.954-11.244-15.078-1.727-16.684,7.7-1.3,15.578,9.47,18.727,14.831,2.244,3.824,7.7,21.69,13.55,17.781,4.427-2.959,0-20.84,10.422-8.005,4.238,5.219,3.486,13.549,5.37,19.5,2.758,8.713,3.92,12.322,11.651,10.15,4.008-1.126,4.175-6.144,9.082-2.718,2.528,1.763,3.22,9.8,3.177,12.589-.388,25.615-10.758,42.694-15.607,44.87-6.563,2.945-18.686-1.47-24.255-4.726-2.768-1.618-7.822-4.3-7.434-8.342.434-4.54,7.446-3.836,7.726-6.5.8-7.562-13.183-.436-17.031-1.544-4.982-1.434-13.186-10.416-7.913-15.1.541-.481,22.316-1.894,9.918-8.916-6.864-3.888-14.337,6.7-20.929-.9C925.587,576.226,942.39,577.772,946.6,576.207Z" transform="translate(-925.345 -524.105)" fill="#111e48"/>
          <path id="Trazado_19266" data-name="Trazado 19266" d="M939.1,570.854c4.822-1.994,9.805-3.788,15.042-4.2-3.647-4.628-7.473-9.214-10.236-14.344-.78-1.446,1.582-2.425,2.356-.987.337.625.713,1.233,1.078,1.846.416-1.559-.052-3.895-.189-5.141a32.625,32.625,0,0,0-2.787-9.079,1.279,1.279,0,0,1,2.358-.987,35.193,35.193,0,0,1,3.137,11.692c.127,2.057.233,4.286-.972,5.979,3.913,5.9,8.8,11.351,12.891,17.081a25.007,25.007,0,0,0,3.724-8.993c.677-3.6.263-7.274.665-10.9a1.278,1.278,0,0,1,2.533.337c-.482,4.363,0,8.656-1.133,12.954a28.792,28.792,0,0,1-4.219,8.855,157.59,157.59,0,0,1,12.568,21.618c1.176,2.509,2.249,5.067,3.288,7.641a47.542,47.542,0,0,0,5.814-11.33,38.174,38.174,0,0,0,1.968-7.057c.246-1.8.067-3.51.79-5.219a1.279,1.279,0,0,1,2.366.968c-.888,2.092-.613,4.83-1.183,7.07a65.678,65.678,0,0,1-1.994,6.4,50.34,50.34,0,0,1-6.5,11.871c-.038.055-.088.076-.129.12,1.752,4.446,3.462,8.91,5.414,13.262a1.19,1.19,0,0,1,.39.517,11.864,11.864,0,0,1,.678,1.755c3.481,8.981,6.987,17.956,10.353,26.98.573,1.537-1.781,2.533-2.356.987-3.354-8.993-6.848-17.937-10.317-26.887-.022-.04-.052-.062-.072-.1-1.116-2.346-2.14-4.736-3.125-7.144-4.657,1.149-9.814-.249-14.136-2.023a1.278,1.278,0,0,1,.968-2.365c3.757,1.542,8.112,2.753,12.192,1.98-2.195-5.505-4.259-11.072-6.766-16.437-1-2.136-2.066-4.233-3.182-6.3a1.2,1.2,0,0,1-.263.172,37.5,37.5,0,0,1-19.978,2.389c-1.619-.268-1.293-2.8.337-2.535a34.879,34.879,0,0,0,18.654-2.21c.012-.005.022,0,.034-.007A193.376,193.376,0,0,0,957.74,571.4c-.7-.972-1.422-1.93-2.157-2.887a1.066,1.066,0,0,1-.96.668c-5.081.367-9.862,2.1-14.534,4.032A1.278,1.278,0,0,1,939.1,570.854Z" transform="translate(-916.024 -514.707)" fill="#111e8c"/>
        </g>
        <g id="Grupo_7849" data-name="Grupo 7849" transform="translate(0 55.127)">
          <g id="Grupo_7848" data-name="Grupo 7848">
            <g id="Grupo_7847" data-name="Grupo 7847" transform="translate(6.696 7.827)">
              <path id="Trazado_19267" data-name="Trazado 19267" d="M908.091,563.815c11.263,4.478,22.8,7.209,33.327,13.452a257.939,257.939,0,0,1,29.13,20.136c8.473,6.759,16.586,13.926,25.095,20.654,9.932,7.853,16.9,17.349,25.368,26.565,1.358,1.479,3.781-.5,2.418-1.98-7.676-8.354-14-17.347-22.832-24.619-9.376-7.722-18.729-15.583-28.22-23.156A255.212,255.212,0,0,0,942,574c-10.339-6.027-21.787-8.73-32.822-13.116-1.87-.742-2.955,2.188-1.087,2.93Z" transform="translate(-907.121 -560.767)" fill="url(#linear-gradient-20)"/>
            </g>
            <path id="Trazado_19268" data-name="Trazado 19268" d="M912.915,562.331c-2.416-1.087-6.706-.732-8.687,1.094-2.322,2.138-.225,4.238,2.274,4.736,2.782.555,5.66-.476,8.366-.984,2.807-.527,5.837.115,8.473-.778-1.6-1.272-4.667-2.059-6.621-2.576-2.08-.549-4-1.587-6.031-2.155" transform="translate(-903.22 -552.293)" fill="url(#linear-gradient-21)"/>
            <path id="Trazado_19269" data-name="Trazado 19269" d="M917.881,567.838c-4.284-1.544-10.624-1.109-13.6-5.309-1.946-2.747-1.238-5.222,2.268-5.495,2.662-.208,4.812,1.569,6.493,3.4a53.819,53.819,0,0,1,6.285,7.945" transform="translate(-903.221 -555.628)" fill="url(#linear-gradient-22)"/>
            <path id="Trazado_19270" data-name="Trazado 19270" d="M923.339,571.128c-1.523-4.983-3.288-11.314-8.072-14.342-2.981-1.885-3.591,1.765-2.87,3.852,1.647,4.76,6.254,8.821,10.439,11.366Z" transform="translate(-896.838 -556.17)" fill="url(#linear-gradient-23)"/>
            <path id="Trazado_19271" data-name="Trazado 19271" d="M929.872,575.964c-.9-6.3-1.844-14.271-7.047-18.822-3.244-2.839-4.664,1.454-4.185,4.107,1.09,6.053,5.888,11.819,10.459,15.676Z" transform="translate(-892.228 -556.208)" fill="url(#linear-gradient-24)"/>
            <path id="Trazado_19272" data-name="Trazado 19272" d="M942.5,585.328c.211-6.359.677-14.373-3.652-19.763-2.7-3.36-4.846.616-4.839,3.314.019,6.151,3.735,12.666,7.562,17.261Z" transform="translate(-881.139 -550.421)" fill="url(#linear-gradient-25)"/>
            <path id="Trazado_19273" data-name="Trazado 19273" d="M952.219,596.151c2.241-7.181,5.287-16.166,2.049-23.67-2.018-4.676-5.716-.819-6.554,2.256-1.913,7.015.275,15.607,3.192,22.047Z" transform="translate(-871.828 -546.099)" fill="url(#linear-gradient-26)"/>
            <path id="Trazado_19274" data-name="Trazado 19274" d="M940.772,581.789c-2.009-7.051-4.327-16.009-10.916-20.3-4.106-2.675-5.035,2.488-4.077,5.442,2.184,6.735,8.505,12.489,14.271,16.1Z" transform="translate(-887.291 -552.956)" fill="url(#linear-gradient-27)"/>
            <path id="Trazado_19275" data-name="Trazado 19275" d="M925.364,567.044c-4.406,2.782-9.877,6.427-15.477,5.6-3.491-.515-1.569-3.68.34-4.791,4.353-2.533,10.494-2.6,15.326-1.8Z" transform="translate(-899.831 -549.474)" fill="url(#linear-gradient-28)"/>
            <path id="Trazado_19276" data-name="Trazado 19276" d="M941.588,574.069c-5.7,1.614-12.848,3.828-18.691,1.118-3.642-1.69-.525-4.521,1.915-5.117,5.567-1.36,12.292.544,17.3,2.978Z" transform="translate(-890.304 -546.593)" fill="url(#linear-gradient-29)"/>
            <path id="Trazado_19277" data-name="Trazado 19277" d="M949.73,581.563c-6.117,1.731-13.775,4.1-20.041,1.2-3.9-1.81-.563-4.848,2.054-5.486,5.969-1.458,13.178.584,18.552,3.192Z" transform="translate(-885.519 -541.448)" fill="url(#linear-gradient-30)"/>
            <path id="Trazado_19278" data-name="Trazado 19278" d="M960.779,588.584c-8.158,1.973-18.362,4.715-26.953.57-5.356-2.584-1-6.421,2.492-7.131,7.971-1.621,17.792,1.434,25.167,5.145Z" transform="translate(-883.073 -538.014)" fill="url(#linear-gradient-31)"/>
            <path id="Trazado_19279" data-name="Trazado 19279" d="M946.538,591.159c1.425-3.891,3.56-7.277,3.74-11.519a14.27,14.27,0,0,0-3.773-9.8c-1.036-1.214-2.124-2.832-3.871-3.048-2.449-.3-1.441,2.325-.991,3.927a98.922,98.922,0,0,1,2.308,10.416c.318,1.922.675,3.711,1.151,5.538.313,1.205.288,3.6.8,4.417" transform="translate(-876.089 -548.636)" fill="url(#linear-gradient-32)"/>
            <path id="Trazado_19280" data-name="Trazado 19280" d="M941.651,588.519c4.549.089,19.215,1.618,24.856,1.727,1.281,1.042,2.586,2.061,3.907,3.084-9.219,2.16-24.4,3.506-28.4,2.522-1.726-.424-5.308-1.954-5.916-3.73C935,588.917,939.664,588.481,941.651,588.519Z" transform="translate(-879.762 -533.038)" fill="url(#linear-gradient-33)"/>
            <path id="Trazado_19281" data-name="Trazado 19281" d="M949.357,603.708c5.473-1.173,23.457-3.465,30.241-4.92,1.824.888,3.673,1.74,5.541,2.593-10.428,5.179-28.223,11.059-33.289,11-2.184-.022-6.9-.847-8.129-2.8C941.513,606.053,946.97,604.221,949.357,603.708Z" transform="translate(-874.545 -525.671)" fill="url(#linear-gradient-34)"/>
            <path id="Trazado_19282" data-name="Trazado 19282" d="M958.663,604.1c.749-2.44,7.051-9.664,4.439-23.041-.371-1.9-1.037-4.389-3.051-5.139-2.8-1.039-3.027,2.1-3.118,4.09-.179,3.924.211,18.842-.175,22.558" transform="translate(-864.826 -542.218)" fill="url(#linear-gradient-35)"/>
            <path id="Trazado_19283" data-name="Trazado 19283" d="M979.411,597.564c-2.758.771-5.521,2.464-8.381,3.361-3.067.96-20.06,3.716-25.411,2.576-2.323-.495-6.86-.357-7.415-3.323-.534-2.864,2.959-4.619,5.208-5.34,5.224-1.678,29.836.24,36.086,1.606" transform="translate(-878.171 -528.974)" fill="url(#linear-gradient-36)"/>
            <path id="Trazado_19284" data-name="Trazado 19284" d="M964.278,609.832c6.515-9.108,9.216-28.045,7.659-29.978-3.381-4.2-7.736,2.268-8.608,5.423-1.958,7.071-.357,23.762.823,24.013" transform="translate(-860.773 -540.236)" fill="url(#linear-gradient-37)"/>
          </g>
        </g>
        <path id="Trazado_19285" data-name="Trazado 19285" d="M996.927,627.316c-4.156,3.594-9.432,8.224-13.363,12.029-5.124,4.957-9.2,4.253-13.251-1.479-5-7.075-6.448-18.379-6.335-26.912.04-3.017.337-3.532,3.68-3.014,2.469.381,4.7,1.1,7.217,1.31,4.868.4,9.111.345,13.552-1.788,7-3.362-.675-5.1-4.485-4.447a41.545,41.545,0,0,1-13.658.225c-7.786-1.281,8.261-24.657,13.358-27.616,1.708,3.288,10.248,8.267,14.215,6.628,3.489-1.443.187-2.893-1.823-3.685-2.318-.912-4.547-1.535-6.292-3.306-7.131-7.243,16.476-15.678,21.3-17.2,6.341-2,7.8-5.32,9.087-11.33,4.909,5.279,11.981,12.958,10.959,20.589-.495,3.7-3.647,6.378-6.05,8.938-1.654,1.764-6.091,7.729-.537,5.092,3.877-1.841,5.833-6.318,9.848-8.1,2.107,2.377,5.416,9.917,4.123,13.059-1.551,3.761-9.431,3.627-12.51,5.639,4.229,3.582,9.839-.927,14.014-2.1,2.825,5.8,5.586,17.031,2.615,23.439-4.331,9.347-15.441-1.976-17.225-4.2-1.315-1.635-3.75-4.277-3.165-.4.512,3.4,6.912,8.78,9.74,10.645,1.382.912,5.624,1.76,6.319,3.3.793,1.75-15.315,25.807-24.447,27.253C1004.321,651.4,996.746,635.121,996.927,627.316Z" transform="translate(-859.652 -507.874)" fill="url(#linear-gradient-38)"/>
      </g>
    </g>
    <g id="Grupo_7857" data-name="Grupo 7857" transform="translate(897.23 659.288)">
      <g id="Grupo_7852" data-name="Grupo 7852" transform="translate(0 38.499)">
        <rect id="Rectángulo_1917" data-name="Rectángulo 1917" width="285.008" height="34.741" rx="4.833" fill="url(#linear-gradient-39)"/>
        <path id="Trazado_19286" data-name="Trazado 19286" d="M1159.559,633.548V651.69a8.3,8.3,0,0,1-8.3,8.3H946.217a17.37,17.37,0,1,1,0-34.74H1151.26A8.3,8.3,0,0,1,1159.559,633.548Z" transform="translate(-874.55 -625.249)" fill="url(#linear-gradient-39)" style="mix-blend-mode: multiply;isolation: isolate"/>
      </g>
      <g id="Grupo_7853" data-name="Grupo 7853" transform="translate(1.144 73.24)">
        <rect id="Rectángulo_1918" data-name="Rectángulo 1918" width="285.008" height="5.65" fill="#884668"/>
        <rect id="Rectángulo_1919" data-name="Rectángulo 1919" width="285.008" height="5.65" transform="translate(0 29.091)" fill="#884668"/>
        <rect id="Rectángulo_1920" data-name="Rectángulo 1920" width="275.199" height="23.441" transform="translate(4.904 5.651)" fill="url(#linear-gradient-41)"/>
      </g>
      <g id="Grupo_7854" data-name="Grupo 7854" transform="translate(0 107.98)">
        <rect id="Rectángulo_1921" data-name="Rectángulo 1921" width="285.008" height="34.741" rx="4.833" fill="url(#linear-gradient-42)"/>
        <path id="Trazado_19287" data-name="Trazado 19287" d="M1159.559,674.011v18.142a8.3,8.3,0,0,1-8.3,8.3H946.217a17.37,17.37,0,1,1,0-34.74H1151.26A8.3,8.3,0,0,1,1159.559,674.011Z" transform="translate(-874.55 -665.711)" fill="#223b77" style="mix-blend-mode: multiply;isolation: isolate"/>
      </g>
      <g id="Grupo_7855" data-name="Grupo 7855" transform="translate(1.144 142.721)">
        <rect id="Rectángulo_1922" data-name="Rectángulo 1922" width="285.008" height="5.65" fill="url(#linear-gradient-39)"/>
        <rect id="Rectángulo_1923" data-name="Rectángulo 1923" width="285.008" height="5.65" transform="translate(0 29.091)" fill="url(#linear-gradient-39)"/>
        <rect id="Rectángulo_1924" data-name="Rectángulo 1924" width="275.199" height="23.441" transform="translate(4.904 5.651)" fill="url(#linear-gradient-45)"/>
      </g>
      <g id="Grupo_7856" data-name="Grupo 7856" transform="translate(1.67)">
        <path id="Trazado_19288" data-name="Trazado 19288" d="M903.9,608.654V635.5h211.513v5.825H901.1c-1.6,0-2.9-1.691-2.9-3.78V606.609c0-2.086,1.3-3.78,2.9-3.78h214.31v5.825Z" transform="translate(-898.202 -602.829)" fill="#884668"/>
        <rect id="Rectángulo_1925" data-name="Rectángulo 1925" width="207.555" height="26.842" transform="translate(5.699 5.826)" fill="url(#linear-gradient-46)"/>
      </g>
    </g>
    <g id="Grupo_7866" data-name="Grupo 7866" transform="translate(1023.125 617.167)">
      <g id="Grupo_7860" data-name="Grupo 7860" transform="translate(13.955)">
        <rect id="Rectángulo_1926" data-name="Rectángulo 1926" width="315.848" height="203.191" rx="4.001" fill="url(#linear-gradient-47)"/>
        <rect id="Rectángulo_1927" data-name="Rectángulo 1927" width="285.897" height="173.533" transform="translate(14.975 14.829)" fill="url(#linear-gradient-48)"/>
        <g id="Grupo_7859" data-name="Grupo 7859" transform="translate(14.975 14.829)">
          <rect id="Rectángulo_1928" data-name="Rectángulo 1928" width="285.897" height="7.692" fill="url(#linear-gradient-39)"/>
          <rect id="Rectángulo_1929" data-name="Rectángulo 1929" width="285.897" height="7.692" transform="translate(0 5.53)" fill="url(#linear-gradient-50)"/>
          <g id="Grupo_7858" data-name="Grupo 7858" transform="translate(1.902 7.726)">
            <path id="Trazado_19289" data-name="Trazado 19289" d="M991.667,593.018a1.583,1.583,0,1,1-1.583-1.583A1.582,1.582,0,0,1,991.667,593.018Z" transform="translate(-988.5 -591.435)" fill="#da1c24"/>
            <path id="Trazado_19290" data-name="Trazado 19290" d="M994.813,593.018a1.583,1.583,0,1,1-1.583-1.583A1.582,1.582,0,0,1,994.813,593.018Z" transform="translate(-986.244 -591.435)" fill="#efd14e"/>
            <path id="Trazado_19291" data-name="Trazado 19291" d="M997.884,593.018a1.582,1.582,0,1,1-1.583-1.583A1.582,1.582,0,0,1,997.884,593.018Z" transform="translate(-984.04 -591.435)" fill="#64b049"/>
          </g>
        </g>
      </g>
      <rect id="Rectángulo_1930" data-name="Rectángulo 1930" width="343.757" height="17.488" rx="3.92" transform="translate(0 202.412)" fill="url(#linear-gradient-51)"/>
      <g id="Grupo_7865" data-name="Grupo 7865" transform="translate(48.674 43.711)" style="mix-blend-mode: multiply;isolation: isolate">
        <g id="Grupo_7861" data-name="Grupo 7861" transform="translate(0 95.176)">
          <rect id="Rectángulo_1931" data-name="Rectángulo 1931" width="246.409" height="6.846" fill="url(#linear-gradient-52)"/>
          <rect id="Rectángulo_1932" data-name="Rectángulo 1932" width="246.409" height="6.846" transform="translate(0 13.748)" fill="url(#linear-gradient-53)"/>
        </g>
        <g id="Grupo_7862" data-name="Grupo 7862">
          <rect id="Rectángulo_1933" data-name="Rectángulo 1933" width="246.409" height="6.846" fill="url(#linear-gradient-54)"/>
          <rect id="Rectángulo_1934" data-name="Rectángulo 1934" width="246.409" height="6.845" transform="translate(0 13.748)" fill="url(#linear-gradient-55)"/>
        </g>
        <rect id="Rectángulo_1935" data-name="Rectángulo 1935" width="78.338" height="58.272" transform="translate(0 28.748)" fill="url(#linear-gradient-56)"/>
        <g id="Grupo_7863" data-name="Grupo 7863" transform="translate(84.166 62.991)">
          <rect id="Rectángulo_1936" data-name="Rectángulo 1936" width="162.243" height="6.307" fill="url(#linear-gradient-57)"/>
          <rect id="Rectángulo_1937" data-name="Rectángulo 1937" width="120.593" height="6.511" transform="translate(0 14.208)" fill="url(#linear-gradient-58)"/>
        </g>
        <g id="Grupo_7864" data-name="Grupo 7864" transform="translate(84.166 28.676)">
          <rect id="Rectángulo_1938" data-name="Rectángulo 1938" width="162.243" height="6.307" fill="url(#linear-gradient-59)"/>
          <rect id="Rectángulo_1939" data-name="Rectángulo 1939" width="92.698" height="6.307" transform="translate(0 14.412)" fill="url(#linear-gradient-60)"/>
        </g>
      </g>
    </g>
    <g id="Grupo_7877" data-name="Grupo 7877" transform="translate(1362.069 713.898)">
      <g id="Grupo_7875" data-name="Grupo 7875">
        <path id="Trazado_19292" data-name="Trazado 19292" d="M1206.347,641.617c2.562-5.9,7.448-5.179,8.2-5.423a11.9,11.9,0,0,1,5.294-.325c5.28.845,8.95,5.481,10.177,10.538a50.521,50.521,0,0,0,1.549,5.079c.244.685.484,1.379.733,2.073.731,2.026,2.591,10.748-.613,10.384-.05,1.753,1.214,4.532,1.673,6.288a51.686,51.686,0,0,1,1.272,6.671c.3,2.387.344,4.913-1.25,6.433-1.371,1.3-2.694.537-3.673-1.089-.151,3.529-1.539,5.224-4,5.648-3.74.646-6.187-1.824-7.659-6.75-1.42,2.823-3.93,2.99-6.274,2.655-1.475-.211-6.209-2.718-4.58-5.874-.548.805-1.8-.62-2.15-1.386-.7-1.545-.4-3.817-.345-5.54a56.2,56.2,0,0,0-.6-7.1C1202.882,649.947,1205.531,643.5,1206.347,641.617Z" transform="translate(-1142.214 -633.854)" fill="#884668"/>
        <path id="Trazado_19293" data-name="Trazado 19293" d="M1198.838,658.119l7.025,9.865v.009c-.072,2.729-.615,6.944-3.031,9.534-5.428-2.222-9.276-21.319-9.276-21.319a1.7,1.7,0,0,0-1.525-1.092c-4.152-.139-8.093-4.988-8.433-6.908a2.381,2.381,0,0,1,4.089-2.038c.78.845,3.086,2.773,4.7,4.205a.319.319,0,0,0,.524-.228c.12-3.123,1.516-4.427,1.93-2.3l.376,5.179,1.432,2.013Z" transform="translate(-1156.723 -626.907)" fill="#e9a596"/>
        <path id="Trazado_19294" data-name="Trazado 19294" d="M1221.644,657.738a5.087,5.087,0,0,1-.6,2.37,5.037,5.037,0,0,1-2.663,2.378s-11.1,4.336-18.738,7.312l.606-9.7,14.062-6.9A5.088,5.088,0,0,1,1221.644,657.738Z" transform="translate(-1145.185 -621.704)" fill="url(#linear-gradient-61)"/>
        <path id="Trazado_19295" data-name="Trazado 19295" d="M1187.693,717.2l-.431-.992c.017.027.045.074.063.1A3.586,3.586,0,0,1,1187.693,717.2Z" transform="translate(-1154.066 -576.13)" fill="#e38570"/>
        <g id="Grupo_7867" data-name="Grupo 7867" transform="translate(18.909 76.11)">
          <path id="Trazado_19296" data-name="Trazado 19296" d="M1193.261,733.155c-.228,3.573-.458,6.862-.642,9.635l-.009.129-4.116.074-.017-.083c-2.839-16.4-8.028-49.71-8.028-49.71-1.075-4.133-1.1-9.846,2.241-12.309a9.506,9.506,0,0,1,2.682-1.369v-.009l.192-.055.012,0a7.848,7.848,0,0,1,2.169-.309l9.953-.192a9.12,9.12,0,0,0,.422.963c1.02,2.213,3.711,7.725,5.328,11.022-4.245.074-8.433.313-12.621.716C1195.439,692.989,1194.374,716.145,1193.261,733.155Z" transform="translate(-1178.323 -678.954)" fill="#e38570"/>
          <path id="Trazado_19297" data-name="Trazado 19297" d="M1190.023,721.788l-5.062-.027-4.022-.036c-1.856-.184-2.931-1.24-.9-2.2l9.075-3.242,4.116-.074.431.992c.019.11.055.239.065.359A3.685,3.685,0,0,1,1190.023,721.788Z" transform="translate(-1178.942 -652.239)" fill="#111e48"/>
        </g>
        <g id="Grupo_7869" data-name="Grupo 7869" transform="translate(0 77.312)">
          <g id="Grupo_7868" data-name="Grupo 7868" transform="translate(11.349)">
            <path id="Trazado_19298" data-name="Trazado 19298" d="M1178.365,743.938a.577.577,0,0,0-.065.11.538.538,0,0,0,0,.129c-1.252-.682-2.507-1.351-3.755-2.038-.009.026.038-.1.045-.117,1.114-2.868,3.3-8.114,4.4-10.658,4.861-11.189,9.99-30.114,11.828-39.354,1.3-6.541,1.844-8.079,3.79-9.908a9.105,9.105,0,0,1,7.379-2.373l.017,0c.5.067,1.714.206,1.714.206s7.049,12.523,7.169,13.227c-1.6-.1-7.7-.568-9.3-.653C1205.769,705.447,1185.419,733.125,1178.365,743.938Z" transform="translate(-1174.539 -679.654)" fill="#e9a596"/>
          </g>
          <path id="Trazado_19299" data-name="Trazado 19299" d="M1179.713,722.783c-3.215-1.456-7.065-3.723-10.4-5.064-.78-.314-1.085-.395-1.348-1.121s.895-1.243,1.583-1.333c2.1.314,6.134.919,7.767,1.108s.835.093,2,.235c1.163.671,2.488,1.348,3.716,2.033-.016.136,0,.488-.019.6C1182.742,721.3,1182.6,724.091,1179.713,722.783Z" transform="translate(-1167.93 -654.115)" fill="#111e48"/>
        </g>
        <path id="Trazado_19300" data-name="Trazado 19300" d="M1215.369,654.414l-1.281-6.3-5.689.266c.781,2.593,1.24,5.067.4,7.07Z" transform="translate(-1138.907 -624.962)" fill="#e38570"/>
        <path id="Trazado_19301" data-name="Trazado 19301" d="M1221.907,643.278c-.5-3.036-1.722-5.7-3.62-6.676-2.747-1.42-7.681,2.488-10.753,5.351a34.506,34.506,0,0,0-4.674,5.332,5.117,5.117,0,0,0-.51.8c-.112.407.385.761.768.991a.191.191,0,0,0,.1.027c-.538,3.735.8,7.753,3.872,9.7,2.71,1.715,8.267.457,11.344-2.22C1223.449,652.228,1222.252,645.37,1221.907,643.278Z" transform="translate(-1143.257 -633.434)" fill="#e9a596"/>
        <g id="Grupo_7870" data-name="Grupo 7870" transform="translate(60.872 16.036)">
          <path id="Trazado_19302" data-name="Trazado 19302" d="M1205.438,646.637a3.408,3.408,0,0,0,2.49-2.354.237.237,0,1,0-.448-.153,3.276,3.276,0,0,1-3.815,2.114.237.237,0,0,0-.1.464A4.679,4.679,0,0,0,1205.438,646.637Z" transform="translate(-1203.379 -643.97)" fill="#111e48"/>
        </g>
        <g id="Grupo_7871" data-name="Grupo 7871" transform="translate(62.348 11.446)">
          <path id="Trazado_19303" data-name="Trazado 19303" d="M1205.7,642.887c-.258.74-.761,1.24-1.123,1.113s-.445-.829-.185-1.569.762-1.24,1.123-1.115S1205.957,642.146,1205.7,642.887Z" transform="translate(-1204.239 -641.297)" fill="#111e48"/>
        </g>
        <g id="Grupo_7872" data-name="Grupo 7872" transform="translate(63.855 9.177)">
          <path id="Trazado_19304" data-name="Trazado 19304" d="M1207.224,642.035l.026,0a.237.237,0,0,0,.2-.268,1.951,1.951,0,0,0-2.119-1.784.236.236,0,0,0-.215.256.23.23,0,0,0,.256.216,1.5,1.5,0,0,1,1.609,1.379A.235.235,0,0,0,1207.224,642.035Z" transform="translate(-1205.117 -639.976)" fill="#111e48"/>
        </g>
        <path id="Trazado_19305" data-name="Trazado 19305" d="M1204.387,698.414a46,46,0,0,0,15.128-.186l3.826-.948c-4.042-8.96,1.293-22,.78-31.814a49.584,49.584,0,0,0-2.909-15.159l-6.5,3.57L1202.8,664.482a7.5,7.5,0,0,0,.458,11.828,4.854,4.854,0,0,1,.941,2.452A109.494,109.494,0,0,1,1204.387,698.414Z" transform="translate(-1144.828 -623.389)" fill="url(#linear-gradient-62)"/>
        <path id="Trazado_19306" data-name="Trazado 19306" d="M1215.684,670.341c1.459,1.5,4.233,4.758,3.4,9.415-5.548,1.837-20.622-10.921-20.622-10.921-.165-.1-.908-.625-.908-.625s-.847.625-.965.707c-3.343,2.471-9.443,1.111-10.894-.184a2.377,2.377,0,0,1,1.938-4.133c1.13.173,4.133.266,6.292.376a.31.31,0,0,0,.266-.5c-1.838-2.526-1.552-4.418.091-3l3.51,3.831,2.37.689,3.628,1.056,11.83,3.436Z" transform="translate(-1155.777 -615.726)" fill="#e9a596"/>
        <path id="Trazado_19307" data-name="Trazado 19307" d="M1219.69,660.86s-5.905,10.094-10.049,17.158a28.218,28.218,0,0,0-4.674-9.821l5.768-12.1a5.076,5.076,0,1,1,8.955,4.758Z" transform="translate(-1141.368 -621.308)" fill="url(#linear-gradient-63)"/>
        <path id="Trazado_19308" data-name="Trazado 19308" d="M1233.425,688.642a7.559,7.559,0,0,1-.483,1.49c-1.885,4.271-7.011,5.239-11.167,5.686l-.129.012c-1,.106-2.013.175-3.022.228a94.175,94.175,0,0,1-17.855-1.032c-1.176-.165-2.354-.338-3.522-.555,0,0-.168-.337-.453-.917-.211-.443-.5-1.011-.823-1.686-1.612-3.3-4.3-8.812-5.323-11.026-.263-.57-.423-.917-.423-.96l.16-.01L1211.5,678.8c.675.117,1.329.211,1.981.3l16.973-1.434c.041.074.084.137.125.211.084.137.158.273.242.41.043.074.084.158.127.232C1232.608,681.418,1234.167,685.2,1233.425,688.642Z" transform="translate(-1151.94 -603.773)" fill="url(#linear-gradient-64)"/>
        <path id="Trazado_19309" data-name="Trazado 19309" d="M1216.943,645c-1.685.33-3.855.137-4.022-2-.9,1.418-4.319,1.966-4.61-.209-1.71,2.076-5.783.891-5.114-2.1.491-2.188,4.063-5.274,6.182-5.8,5.342-1.319,11.215,2.44,14.426,6.309a5.012,5.012,0,0,1,1.108,3.936c-.246,1.228-4.554,11.752-3.774,5.292C1221.138,650.437,1216.862,647.829,1216.943,645Z" transform="translate(-1142.691 -634.631)" fill="#884668"/>
        <g id="Grupo_7874" data-name="Grupo 7874" transform="translate(66.97 4.882)">
          <g id="Grupo_7873" data-name="Grupo 7873">
            <path id="Trazado_19310" data-name="Trazado 19310" d="M1223.952,661.535a39.035,39.035,0,0,1-.531-5.742c-.5-4.842-2.155-10.483-5.261-14.307-2.351-2.9-6.127-5.658-9.6-2.821-1.485,1.214-1.635,3.724-1.631,5.486a4.223,4.223,0,0,0,1.391,3.189c.024.551.333,1.02,1.166,1.3l.024.029c-1.605,1.794-1.312,3.985,1.319,4.384-1.3,2.018-.242,4.077,2.244,3.955-1.606,2.019-1.048,3.8,1.724,3.828-.323,2.234-.135,3.438,2,4.621a6.612,6.612,0,0,1,2.36,2.157c.544.776.843,1.5,1.877,1.569,1.882.124,2.982-1.7,3.244-3.324A10.509,10.509,0,0,0,1223.952,661.535Z" transform="translate(-1206.93 -637.475)" fill="#884668"/>
          </g>
        </g>
        <path id="Trazado_19311" data-name="Trazado 19311" d="M1211.183,671.759c-2.176,3.711-3.865,6.585-3.958,6.714a2.653,2.653,0,0,1-1.01.606c.834-4.657-1.939-7.918-3.4-9.415l3.692-7.726A28.218,28.218,0,0,1,1211.183,671.759Z" transform="translate(-1142.91 -615.048)" fill="#eec059"/>
        <path id="Trazado_19312" data-name="Trazado 19312" d="M1203.739,656.991a23.158,23.158,0,0,1-.606,9.7c-3.914,1.516-6.917,2.682-7.064,2.729a2.608,2.608,0,0,1-1.286-.2c2.416-2.589,2.959-6.805,3.031-9.534l.12.165Z" transform="translate(-1148.673 -618.596)" fill="#eec059"/>
      </g>
      <g id="Grupo_7876" data-name="Grupo 7876" transform="translate(43.285 35.978)">
        <rect id="Rectángulo_1940" data-name="Rectángulo 1940" width="7.37" height="47.749" transform="translate(31.763 107.572) rotate(180)" fill="url(#linear-gradient-65)"/>
        <path id="Trazado_19313" data-name="Trazado 19313" d="M1200.119,722.6H1232.3a6.176,6.176,0,0,0-6.177-6.175H1206.3a6.175,6.175,0,0,0-6.177,6.175Z" transform="translate(-1188.13 -611.945)" fill="url(#linear-gradient-66)"/>
        <rect id="Rectángulo_1941" data-name="Rectángulo 1941" width="48.37" height="9.674" rx="2.782" transform="translate(48.37 64.398) rotate(180)" fill="url(#linear-gradient-67)"/>
        <path id="Trazado_19314" data-name="Trazado 19314" d="M1227.635,696.028c9.269-40.445-1.552-40.445-7.054-40.445-5.643,0-8.335,27.032-8.335,40.445s1.853,20.5,10.061,20.5C1229.942,716.529,1224.639,709.1,1227.635,696.028Z" transform="translate(-1179.433 -655.583)" fill="url(#linear-gradient-68)"/>
        <rect id="Rectángulo_1942" data-name="Rectángulo 1942" width="3.151" height="15.509" transform="translate(19.863 58.355) rotate(180)" fill="url(#linear-gradient-69)"/>
        <path id="Trazado_19315" data-name="Trazado 19315" d="M1229.094,683.6h-27.125a2.434,2.434,0,0,1-2.433-2.435h0a2.432,2.432,0,0,1,2.433-2.433h27.125Z" transform="translate(-1188.548 -638.98)" fill="url(#linear-gradient-70)"/>
      </g>
    </g>
    <g id="Grupo_7888" data-name="Grupo 7888" transform="translate(1274.158 672.68)">
      <path id="Trazado_19316" data-name="Trazado 19316" d="M1160.584,661.607c-1.032-3.985-3.087-7.707-3.256-11.843-.172-4.185,1.623-8.191,1.776-12.374.172-4.655-1.521-13.286-4.463-16.631-5.765-6.553-18.52-7.471-23.7,2.663-2.012,3.941-1.8,8.768-1.264,13.25s1.348,9.082.355,13.469c-1.635,7.228-7.944,12.884-7.866,20.331a15.639,15.639,0,0,0,4.257,10.064,34.453,34.453,0,0,0,8.5,6.393,4.078,4.078,0,0,0,1.642.658c1.18.1,2.189-.835,3.17-1.566,4.1-3.057,9.491-3.127,13.842-5.722,5.376-3.208,8.5-10.452,7.355-17.07C1160.842,662.682,1160.722,662.142,1160.584,661.607Z" transform="translate(-1112.836 -606.908)" fill="#111e48"/>
      <g id="Grupo_7887" data-name="Grupo 7887">
        <path id="Trazado_19317" data-name="Trazado 19317" d="M1118.083,642.466a6.125,6.125,0,0,1-.69-6.6L1126,618.963s-3.61-2.828-3.021-7.2a1.317,1.317,0,0,1,1.894-.987c1.118.589,2.583,1.992,3.424,5.318l1.1-2.346a.739.739,0,0,1,1.3-.084c.33.591.338,1.74-.965,3.961l-6.529,20.139a.564.564,0,0,0,.191.628C1122.536,641.225,1120.781,642.619,1118.083,642.466Z" transform="translate(-1116.734 -610.628)" fill="#ba7f79"/>
        <path id="Trazado_19318" data-name="Trazado 19318" d="M1137.724,638.642l-3.271,8.246L1119.8,633.707a1.77,1.77,0,0,0,.376-.153,7.561,7.561,0,0,0,3.5-5.188,1.3,1.3,0,0,0,.031-.452Z" transform="translate(-1114.536 -598.23)" fill="url(#linear-gradient-71)"/>
        <g id="Grupo_7878" data-name="Grupo 7878" transform="translate(12.976 92.498)">
          <path id="Trazado_19319" data-name="Trazado 19319" d="M1133.66,664.494c-.022.184-.053.383-.084.6-.06.507-.137,1.1-.23,1.755q-.136-.873-.23-1.631l.261-.345Z" transform="translate(-1117.963 -664.494)" fill="#e9a596"/>
          <path id="Trazado_19320" data-name="Trazado 19320" d="M1131.355,708.274a2.731,2.731,0,0,1-.311.771l-6.355,5.069a.992.992,0,0,0,.271,1.733c.094.029.187.058.283.082,1.762.45,4.956.536,6.189-.869a2.771,2.771,0,0,1,2.131-.956l.268.009c2.074.034,1.458-2.382,1.029-4.484l.01-1.255Z" transform="translate(-1124.292 -633.096)" fill="#111e48"/>
        </g>
        <g id="Grupo_7879" data-name="Grupo 7879" transform="translate(28.039 92.498)">
          <path id="Trazado_19321" data-name="Trazado 19321" d="M1133.614,665.092c-.06.507-.137,1.1-.23,1.755q-.137-.873-.23-1.631c-.038-.252-.069-.491-.091-.721l.352.376Z" transform="translate(-1133.063 -664.494)" fill="#e9a596"/>
          <path id="Trazado_19322" data-name="Trazado 19322" d="M1141.611,709.449c-.33,2.009-.828,4.326,1.138,4.212l.254-.017a2.618,2.618,0,0,1,2.054.824c1.221,1.284,4.248,1.078,5.9.586.089-.027.177-.058.265-.089a.944.944,0,0,0,.2-1.655l-6.211-4.561a5.623,5.623,0,0,1-.165-.9l-3.129.108Z" transform="translate(-1127.155 -633.402)" fill="#111e48"/>
        </g>
        <path id="Trazado_19323" data-name="Trazado 19323" d="M1152.387,696.69c-.881-8.538-1.77-15.266-2.559-18.063a20.379,20.379,0,0,0-1.4-3.738,16.222,16.222,0,0,1-1.033-2.476,14.984,14.984,0,0,1-.682-3.026,13.756,13.756,0,0,1-.124-1.472,8.051,8.051,0,0,1,.414-3.089l3.549-6.261a21.677,21.677,0,0,0,2.727-9.012q.069-.837.068-1.678c0-.582-.022-1.164-.075-1.74v-.069l-.024-.215c-.029-.261-.084-.743-.168-1.372a21.111,21.111,0,0,0-2.275-6.834l-2.269-.613-1.992-.537-1.824-.489c.007-.223.007-.429.015-.644,0-.154.007-.3,0-.453.014-.689.007-1.379-.009-2.061l-.077-2.337-5.6,1.034a4.917,4.917,0,0,1,.168,2.974c-.029.146-.06.3-.106.46-.038.184-.091.383-.153.582-.046.153-.1.314-.146.467-.046.122-.093.253-.137.376l-.27.022-1.708.153-2.207.2-2.643,6.659-1.3,3.3a12.4,12.4,0,0,0-.23,8.507l.367,1.1,1.434,4.229a8.995,8.995,0,0,1,.474,2.866,8.877,8.877,0,0,1-1.578,5.073,8.264,8.264,0,0,1-.912,1.111,13.842,13.842,0,0,0-1.288,1.54,22.156,22.156,0,0,0-2.452,4.338,22.828,22.828,0,0,0-2.014,10.3l.95,10.667,6.048,67.583,3.515.1s5.212-29.613-.359-33.928c.474-3.9.98-13.463,2.2-22.56.423-3.141.653-6.6.836-9.754.19-3.3.337-6.261.6-8.2.184,1.18.9,4.192,1.877,8.038,2.583,10.145,6.967,26.062,8.016,29.211-3.3,1.9,2.425,22.636,6.081,36.468l3.129-.108C1157,754.337,1154.718,719.257,1152.387,696.69Z" transform="translate(-1111.307 -596.368)" fill="#ba7f79"/>
        <path id="Trazado_19324" data-name="Trazado 19324" d="M1138.58,634.91a6.847,6.847,0,0,1-2.881.629,6.99,6.99,0,0,1-2.744-.558c.047-.161.077-.314.106-.46a4.917,4.917,0,0,0-.168-2.974l5.6-1.034.077,2.337C1138.587,633.531,1138.594,634.221,1138.58,634.91Z" transform="translate(-1105.146 -596.368)" fill="#a75e56"/>
        <path id="Trazado_19325" data-name="Trazado 19325" d="M1148.927,627.755a2.209,2.209,0,0,0-1.271.369,17.214,17.214,0,0,0-3.665-7.353,5.829,5.829,0,0,0-2.435-1.953,4.192,4.192,0,0,0-1.465-.438,13.862,13.862,0,0,0-2,0,4.191,4.191,0,0,0-1.465.438,5.828,5.828,0,0,0-2.435,1.953,17.212,17.212,0,0,0-3.665,7.353,2.21,2.21,0,0,0-1.271-.369c-1.31.113-1.738,2.188-1.377,3.761.457,1.994,1.963,2.619,3.359,3.017a14.535,14.535,0,0,0,2.59,3.692,7.868,7.868,0,0,0,4.111,2.632c.048.012.094.022.142.033.093.022.184.05.28.067.064.012.129.01.192.019s.108.01.161.015c.125.01.249.019.376.017s.249-.007.374-.017c.053-.005.108-.009.161-.015s.131-.007.194-.019c.094-.017.186-.045.278-.067.048-.01.1-.021.142-.033a7.874,7.874,0,0,0,4.113-2.634,14.52,14.52,0,0,0,2.588-3.69c1.4-.4,2.9-1.023,3.359-3.017C1150.665,629.942,1150.237,627.868,1148.927,627.755Z" transform="translate(-1108.827 -605.095)" fill="#ba7f79"/>
        <path id="Trazado_19326" data-name="Trazado 19326" d="M1139.774,619.085c1.073,2.207-.024,4.93-1.853,6.426-1.672,1.369-3.879,2.009-5.375,3.577a12.547,12.547,0,0,0-2.507,5.316q-.446-2.3-.889-4.605a13.566,13.566,0,0,1-.367-4.162c.293-2.419,1.875-4.418,3.566-6.091a10.143,10.143,0,0,1,2.291-1.808c3.27-1.743,8.691-.884,11.005,2.195s2.8,6.161.6,15.674c.309-7.878-4.681-6.688-6.13-14.766" transform="translate(-1108.131 -606.168)" fill="#111e48"/>
        <g id="Grupo_7880" data-name="Grupo 7880" transform="translate(28.835 28.777)">
          <path id="Trazado_19327" data-name="Trazado 19327" d="M1135.588,630.171a3.4,3.4,0,0,0,2.347-2.486.236.236,0,0,0-.455-.125,3.267,3.267,0,0,1-3.682,2.32.239.239,0,0,0-.27.2.236.236,0,0,0,.2.268A4.632,4.632,0,0,0,1135.588,630.171Z" transform="translate(-1133.526 -627.386)" fill="#111e48"/>
        </g>
        <g id="Grupo_7881" data-name="Grupo 7881" transform="translate(32.555 24.445)">
          <path id="Trazado_19328" data-name="Trazado 19328" d="M1137.08,626.326c-.053.781-.405,1.394-.786,1.369s-.647-.68-.594-1.461.405-1.394.786-1.369S1137.134,625.544,1137.08,626.326Z" transform="translate(-1135.693 -624.864)" fill="#111e48"/>
        </g>
        <g id="Grupo_7882" data-name="Grupo 7882" transform="translate(26.049 24.33)">
          <path id="Trazado_19329" data-name="Trazado 19329" d="M1133.292,626.259c-.053.781-.405,1.394-.786,1.369s-.648-.68-.594-1.461.405-1.394.786-1.369S1133.345,625.477,1133.292,626.259Z" transform="translate(-1131.904 -624.797)" fill="#111e48"/>
        </g>
        <g id="Grupo_7883" data-name="Grupo 7883" transform="translate(32.403 22.273)">
          <path id="Trazado_19330" data-name="Trazado 19330" d="M1138.123,625.191l.024-.01a.237.237,0,0,0,.122-.311,1.949,1.949,0,0,0-2.511-1.156.238.238,0,0,0-.139.3.229.229,0,0,0,.3.139,1.5,1.5,0,0,1,1.911.9A.24.24,0,0,0,1138.123,625.191Z" transform="translate(-1135.605 -623.599)" fill="#111e48"/>
        </g>
        <g id="Grupo_7884" data-name="Grupo 7884" transform="translate(25.789 22.162)">
          <path id="Trazado_19331" data-name="Trazado 19331" d="M1132.061,624.724a.238.238,0,0,0,.151-.144h0a.88.88,0,0,1,1.15-.517.236.236,0,1,0,.136-.452,1.345,1.345,0,0,0-1.731.807.236.236,0,0,0,.143.3A.226.226,0,0,0,1132.061,624.724Z" transform="translate(-1131.753 -623.534)" fill="#111e48"/>
        </g>
        <path id="Trazado_19332" data-name="Trazado 19332" d="M1151.468,642.539q0,.84-.068,1.678a21.679,21.679,0,0,1-2.727,9.012l-3.549,6.261a8.053,8.053,0,0,0-.414,3.089,13.756,13.756,0,0,0,.124,1.472,15,15,0,0,0,.682,3.026c-3.61.766-13.6,2.437-18.583-1.257a13.841,13.841,0,0,1,1.288-1.54,8.265,8.265,0,0,0,.912-1.111,8.877,8.877,0,0,0,1.578-5.073,8.995,8.995,0,0,0-.474-2.866L1128.8,651l-.367-1.1a12.4,12.4,0,0,1,.23-8.507l1.3-3.3c2.064-.757,4.624,1.635,8.579,1.879,3.563.218,8.38-1.911,12.846.819C1151.445,641.375,1151.468,641.957,1151.468,642.539Z" transform="translate(-1109.422 -591.03)" fill="#884668"/>
        <path id="Trazado_19333" data-name="Trazado 19333" d="M1152.387,680.823l-12.375,1.049c-.98-3.846-1.693-6.858-1.877-8.038-.261,1.939-.407,4.9-.6,8.2a71.976,71.976,0,0,1-12.238-1.441l-.95-10.667a22.828,22.828,0,0,1,2.014-10.3,19.845,19.845,0,0,1,3.74-5.878,8.264,8.264,0,0,0,.912-1.111c3.654,3.589,10.81,3.254,15.7.883a16.192,16.192,0,0,0,1.715,5.5,20.379,20.379,0,0,1,1.4,3.738C1150.617,665.557,1151.507,672.285,1152.387,680.823Z" transform="translate(-1111.307 -580.5)" fill="url(#linear-gradient-72)"/>
        <g id="Grupo_7885" data-name="Grupo 7885" transform="translate(14.114 40.06)">
          <path id="Trazado_19334" data-name="Trazado 19334" d="M1145.855,675.194l-5.77,1.532c-5.308-10.277-5.7-21.42-5.133-28.837a20.494,20.494,0,0,1,3.673-10.172,4.406,4.406,0,0,0,.426-3.719l1.992.537,2.268.613a22.222,22.222,0,0,1,2.552,6.592,14.344,14.344,0,0,1,.172,1.939,30.1,30.1,0,0,1-1.487,10.437C1142.286,660.977,1141.5,664.58,1145.855,675.194Z" transform="translate(-1117.923 -633.928)" fill="url(#linear-gradient-73)"/>
          <path id="Trazado_19335" data-name="Trazado 19335" d="M1133.968,658.358l-.23,17.185s-5.557-.084-7.84-2.521a3.407,3.407,0,0,1-.943-2.076c3.556-3.257,5.533-8.66,5.265-17.081l-.367-1.1a13.02,13.02,0,0,1,.07-8.727l4.106-9.735,2.207-.2,1.708-.153a5.363,5.363,0,0,0-1.027,2.538,27.4,27.4,0,0,1-1.882,7.837,16.439,16.439,0,0,0-1.231,7.88A59.178,59.178,0,0,1,1133.968,658.358Z" transform="translate(-1124.954 -633.957)" fill="url(#linear-gradient-74)"/>
        </g>
        <path id="Trazado_19336" data-name="Trazado 19336" d="M1125.316,629.17a7.561,7.561,0,0,1-3.5,5.188,1.77,1.77,0,0,1-.376.153,1.6,1.6,0,0,1-1.708-.6l-2.215-3.034h.009c2.7.153,4.453-1.242,5.31-4.077l1.48.551a1.577,1.577,0,0,1,1.034,1.372A1.3,1.3,0,0,1,1125.316,629.17Z" transform="translate(-1116.175 -599.033)" fill="#eec059"/>
        <path id="Trazado_19337" data-name="Trazado 19337" d="M1152.542,653.1c-3.623.077-5.162,3.043-5.775,6.1l-9.424-17.352,1.113-7.653s4.9.376,6.736,4.264Z" transform="translate(-1101.955 -593.726)" fill="url(#linear-gradient-75)"/>
        <path id="Trazado_19338" data-name="Trazado 19338" d="M1149.279,654.839a4.844,4.844,0,0,1-5.775-2.3l-.673-1.236c.613-3.053,2.151-6.019,5.775-6.1l.493.986.8-.881C1149.557,645.717,1145.718,650.446,1149.279,654.839Z" transform="translate(-1098.019 -585.829)" fill="#eec059"/>
        <path id="Trazado_19339" data-name="Trazado 19339" d="M1147.508,645.286l-.026.027-.8.881-.493-.986A7.039,7.039,0,0,1,1147.508,645.286Z" transform="translate(-1095.607 -585.831)" fill="#ecc6c5"/>
        <path id="Trazado_19340" data-name="Trazado 19340" d="M1169.764,634.579l-2.136,1.631a3.766,3.766,0,0,1-2.128.8c.053-.149.1-.292.156-.412.276-.634,1.006-1.671.427-1.849-.877.213-4.106,2.854-4.8,3.75l-1.138,1.262-12.3,13.212-.026.027c-.336.405-4.176,5.134-.615,9.527a4.75,4.75,0,0,0,2.378-1.678l14.241-20.728c6.587.319,6.941-3.421,7.032-4.631C1170.918,634.777,1170.287,634.286,1169.764,634.579Z" transform="translate(-1095.954 -593.513)" fill="#ba7f79"/>
        <g id="Grupo_7886" data-name="Grupo 7886" transform="translate(27.754 26.419)">
          <path id="Trazado_19341" data-name="Trazado 19341" d="M1134.142,629.219c-1.061-.179-1.217-.661-1.24-.771a.241.241,0,0,1,.038-.187l1.43-2.136a.249.249,0,1,1,.414.276l-1.346,2.011c.108.11.429.335,1.346.369a.237.237,0,0,1,.239.258.249.249,0,0,1-.258.24A5.41,5.41,0,0,1,1134.142,629.219Z" transform="translate(-1132.897 -626.013)" fill="#111e48"/>
        </g>
      </g>
    </g>
    <g id="Grupo_7889" data-name="Grupo 7889" transform="translate(1141.014 782.914)">
      <path id="Trazado_19342" data-name="Trazado 19342" d="M1043.614,677.059H1165.1v7.4h-5.155v71.568a.8.8,0,0,1-.826.766H1153.5a.8.8,0,0,1-.828-.766V684.458h-89.8v71.618a.745.745,0,0,1-.773.716h-5.729a.744.744,0,0,1-.771-.716V684.458h-11.986Z" transform="translate(-1036.031 -673.219)" fill="url(#linear-gradient-76)"/>
      <path id="Trazado_19343" data-name="Trazado 19343" d="M1041.52,679.126h132.011a2.249,2.249,0,0,0,2.322-2.152h0a2.249,2.249,0,0,0-2.322-2.152H1041.52a2.248,2.248,0,0,0-2.322,2.152h0A2.248,2.248,0,0,0,1041.52,679.126Z" transform="translate(-1039.198 -674.823)" fill="url(#linear-gradient-77)"/>
    </g>
    <g id="Grupo_7890" data-name="Grupo 7890" transform="translate(975.532 782.914)">
      <path id="Trazado_19344" data-name="Trazado 19344" d="M947.245,677.059h121.49v7.4h-5.155v71.568a.8.8,0,0,1-.826.766h-5.619a.8.8,0,0,1-.828-.766V684.458H966.5v71.618a.745.745,0,0,1-.773.716H960a.744.744,0,0,1-.771-.716V684.458H947.245Z" transform="translate(-939.662 -673.219)" fill="url(#linear-gradient-76)"/>
      <path id="Trazado_19345" data-name="Trazado 19345" d="M945.151,679.126h132.011a2.249,2.249,0,0,0,2.322-2.152h0a2.249,2.249,0,0,0-2.322-2.152H945.151a2.248,2.248,0,0,0-2.322,2.152h0A2.248,2.248,0,0,0,945.151,679.126Z" transform="translate(-942.829 -674.823)" fill="url(#linear-gradient-77)"/>
    </g>
    <g id="Grupo_7891" data-name="Grupo 7891" transform="translate(1329.534 776.603)">
      <path id="Trazado_19346" data-name="Trazado 19346" d="M1153.4,673.384h77.067v7.4h-5.155v71.568a.8.8,0,0,1-.828.766h-5.619a.8.8,0,0,1-.826-.766V680.783h-45.381V752.4a.746.746,0,0,1-.773.716h-5.728a.745.745,0,0,1-.771-.716V680.783H1153.4Z" transform="translate(-1145.816 -669.544)" fill="url(#linear-gradient-76)"/>
      <path id="Trazado_19347" data-name="Trazado 19347" d="M1151.3,675.451h87.586a2.248,2.248,0,0,0,2.322-2.152h0a2.248,2.248,0,0,0-2.322-2.152H1151.3a2.248,2.248,0,0,0-2.322,2.152h0A2.248,2.248,0,0,0,1151.3,675.451Z" transform="translate(-1148.983 -671.148)" fill="url(#linear-gradient-81)"/>
    </g>
    <g id="Grupo_7904" data-name="Grupo 7904" transform="translate(1156.437 725.558)">
      <g id="Grupo_7902" data-name="Grupo 7902" transform="translate(17.928)">
        <g id="Grupo_7896" data-name="Grupo 7896" transform="translate(20.585)">
          <path id="Trazado_19348" data-name="Trazado 19348" d="M1076.259,651.183A102.753,102.753,0,0,0,1070.7,663.9c-.956,2.84,5.792,7.779,6.124,7.727a.961.961,0,0,0,.814-.821c.445-3.077,1.652-8.455,4.86-12.115Z" transform="translate(-1070.608 -634.422)" fill="#a75e56"/>
          <g id="Grupo_7895" data-name="Grupo 7895" transform="translate(1.854 3.036)">
            <path id="Trazado_19349" data-name="Trazado 19349" d="M1072.248,660.7c1.29,4.042,4.76,7.8,8.114,7.729,3.7-.081,6.781-2.938,8.275-6.475a.221.221,0,0,0,.106.031c.453,0,1.736,0,1.853-.417.106-.374-.807-4.391-.773-5.151a30.864,30.864,0,0,0-.122-4.87c-.723-6.328-3.769-8.108-7.428-8.349-3.144-.206-6.908,3.41-9.074,7.459A13.91,13.91,0,0,0,1072.248,660.7Z" transform="translate(-1071.688 -643.19)" fill="#ba7f79"/>
            <g id="Grupo_7892" data-name="Grupo 7892" transform="translate(15.121 13.226)">
              <path id="Trazado_19350" data-name="Trazado 19350" d="M1080.554,652.171c-.163.783.014,1.48.4,1.561s.823-.49.987-1.271-.014-1.482-.4-1.561S1080.718,651.39,1080.554,652.171Z" transform="translate(-1080.494 -650.893)" fill="#111e48"/>
            </g>
            <g id="Grupo_7893" data-name="Grupo 7893" transform="translate(14.138 10.626)">
              <path id="Trazado_19351" data-name="Trazado 19351" d="M1080.031,650.558l-.021-.017a.24.24,0,0,1-.034-.338,1.988,1.988,0,0,1,2.785-.441.241.241,0,0,1,.052.335.234.234,0,0,1-.336.055,1.524,1.524,0,0,0-2.128.357A.242.242,0,0,1,1080.031,650.558Z" transform="translate(-1079.922 -649.378)" fill="#111e48"/>
            </g>
            <g id="Grupo_7894" data-name="Grupo 7894" transform="translate(12.918 17.473)">
              <path id="Trazado_19352" data-name="Trazado 19352" d="M1081.2,655.616l-.005.026a.241.241,0,0,1-.283.189,1.988,1.988,0,0,1-1.688-2.26.242.242,0,0,1,.273-.2.235.235,0,0,1,.2.273,1.525,1.525,0,0,0,1.307,1.715A.243.243,0,0,1,1081.2,655.616Z" transform="translate(-1079.211 -653.366)" fill="#111e48"/>
            </g>
          </g>
          <path id="Trazado_19353" data-name="Trazado 19353" d="M1085.117,652.946a2.518,2.518,0,0,0-2.222-2.65l-1.683-.192a2.521,2.521,0,0,0-.572,5.009l1.683.192a2.515,2.515,0,0,0,2.545-1.408c.405.005.68-.117.7-.369C1085.607,653.136,1085.483,652.927,1085.117,652.946ZM1082.4,654.6l-1.684-.192a1.814,1.814,0,0,1,.412-3.6l1.684.192a1.814,1.814,0,1,1-.412,3.6Z" transform="translate(-1065.016 -635.207)" fill="#111e48"/>
          <rect id="Rectángulo_1943" data-name="Rectángulo 1943" width="4.736" height="0.587" transform="matrix(0.927, 0.375, -0.375, 0.927, 9.855, 14.64)" fill="#111e48"/>
          <path id="Trazado_19354" data-name="Trazado 19354" d="M1096.4,655.987c-2.663,1.525-5.89-.108-8.076-1.688-.184-.132-.371-.254-.565-.368a5.353,5.353,0,0,0-7.13,1.954,10.857,10.857,0,0,0-1.817,4.877c-.135,2.663-4.758,5.012-6.548,1.015-1.65-3.687-2.6-8.819.4-15.42a4.954,4.954,0,0,1,2.049-2.473,2.39,2.39,0,0,0-.177,2.2,7.075,7.075,0,0,1,2.725-3.089,12.638,12.638,0,0,1,5.208-1.569c-.566.342-.975.539-1.063,1.176a10.732,10.732,0,0,1,3.628-.955,8.608,8.608,0,0,1,6.858,3.634c.831,1.059,1.693,3.189,2.766,4.068a5,5,0,0,0,4.123,1.13A4.574,4.574,0,0,1,1096.4,655.987Z" transform="translate(-1070.527 -641.422)" fill="#111e48"/>
          <path id="Trazado_19355" data-name="Trazado 19355" d="M1078.3,651.892c.584,1.5.244,3.029-.761,3.421s-2.291-.5-2.875-2-.244-3.029.759-3.421S1077.72,650.394,1078.3,651.892Z" transform="translate(-1067.901 -635.415)" fill="#ba7f79"/>
        </g>
        <g id="Grupo_7899" data-name="Grupo 7899" transform="translate(0 27.973)">
          <g id="Grupo_7897" data-name="Grupo 7897" transform="translate(31.578 62.156)">
            <path id="Trazado_19356" data-name="Trazado 19356" d="M1099.986,695.284l-18.021,41.958-3.99-.688,11.006-42.646Z" transform="translate(-1076.317 -693.909)" fill="url(#linear-gradient-82)"/>
            <path id="Trazado_19357" data-name="Trazado 19357" d="M1078.667,718.744l3.989.687.826,2.722s12.106-1.072,12.932,4.157l-8.354.515a15.073,15.073,0,0,1-5.454-.668l-4.257-1.343a1.915,1.915,0,0,1-1.183-2.583Z" transform="translate(-1077.01 -676.097)" fill="#111e48"/>
          </g>
          <g id="Grupo_7898" data-name="Grupo 7898" transform="translate(12.623 49.387)">
            <path id="Trazado_19358" data-name="Trazado 19358" d="M1075.783,686.516l34.9,3.439a14.511,14.511,0,0,1,12.79,17.385c-3.244,15.657-7.727,37.36-7.727,37.711,0,.551-3.9,0-3.9,0l-.915-41.485-37.448-.713a7.661,7.661,0,0,1-7.384-9.072v-.005A8.956,8.956,0,0,1,1075.783,686.516Z" transform="translate(-1065.971 -686.473)" fill="url(#linear-gradient-83)"/>
            <path id="Trazado_19359" data-name="Trazado 19359" d="M1092.69,720.266h3.9V722.6s13.344-.826,13.482,3.3H1094a1.3,1.3,0,0,1-1.305-1.305Z" transform="translate(-1046.809 -662.237)" fill="#111e48"/>
          </g>
          <path id="Trazado_19360" data-name="Trazado 19360" d="M1067.985,662.1a22.932,22.932,0,0,0-3.3,3.584c-4.173,5.567-6.244,13.035-6.057,20.764.646,26.764,7.554,39.16,21.068,36.4,5.948-1.216,9.706-8.028,8.421-15.295h0c-1.894-10.712.252-21.6,5.85-29.678h0a9.379,9.379,0,0,0-.041-10.106h0c-1.8-2.8-6.446-6.611-6.446-6.611l-7.775-3.448S1072.1,658.535,1067.985,662.1Z" transform="translate(-1058.62 -657.712)" fill="url(#linear-gradient-84)"/>
        </g>
        <g id="Grupo_7901" data-name="Grupo 7901" transform="translate(17.408 28.817)">
          <g id="Grupo_7900" data-name="Grupo 7900" transform="translate(45.272 3.347)">
            <path id="Trazado_19361" data-name="Trazado 19361" d="M1109.367,673.312l.292,1.41-1.278-.416L1095.33,661.35a.7.7,0,0,1,0-.991h0a.7.7,0,0,1,.991,0Z" transform="translate(-1095.122 -660.152)" fill="url(#linear-gradient-85)"/>
          </g>
          <path id="Trazado_19362" data-name="Trazado 19362" d="M1099.063,676.954c-1.193,1.819-3.757,6.283-3.168,10.25a32.492,32.492,0,0,1-16.094-7.173,90.608,90.608,0,0,1-8.055-7.284,11.513,11.513,0,0,1-2.663-10.379c1.111-4.456,4.169-5.54,9.717-2.26a25.153,25.153,0,0,1,4.951,3.867l8.332,8.294A21.861,21.861,0,0,0,1099.063,676.954Z" transform="translate(-1068.758 -658.203)" fill="url(#linear-gradient-86)"/>
          <path id="Trazado_19363" data-name="Trazado 19363" d="M1113.343,666.24c-1.7-2.212-3.148-3.445-4.08-2.584a3,3,0,0,0-1.075,2.5l-1.346,1.13a1.192,1.192,0,0,0-.222,1.568,4.584,4.584,0,0,0,1.048,1.049l-.742.63a22.186,22.186,0,0,1-17.369,4.1c-1.516,2.911-1.25,6.383-.661,9.13a31.184,31.184,0,0,0,20.693-9.848c.253-.27.505-.55.749-.829l.016.012.021-.027a10.688,10.688,0,0,1,1.53-1.6C1113.02,670.538,1114.964,668.448,1113.343,666.24Z" transform="translate(-1054.65 -654.492)" fill="#ba7f79"/>
        </g>
        <path id="Trazado_19364" data-name="Trazado 19364" d="M1091.706,679.641a31.81,31.81,0,0,1-7.109-.268c-.589-3.967,1.975-8.431,3.168-10.25a22.216,22.216,0,0,0,4.6,1.388C1090.851,673.421,1091.117,676.893,1091.706,679.641Z" transform="translate(-1040.052 -621.556)" fill="#eec059"/>
      </g>
      <g id="Grupo_7903" data-name="Grupo 7903" transform="translate(0 38.446)">
        <rect id="Rectángulo_1944" data-name="Rectángulo 1944" width="7.37" height="47.749" transform="translate(39.813 103.259) rotate(180)" fill="url(#linear-gradient-87)"/>
        <path id="Trazado_19365" data-name="Trazado 19365" d="M1059.849,728.323h32.178a6.177,6.177,0,0,0-6.177-6.177h-19.824a6.177,6.177,0,0,0-6.177,6.177Z" transform="translate(-1039.811 -621.975)" fill="url(#linear-gradient-88)"/>
        <rect id="Rectángulo_1945" data-name="Rectángulo 1945" width="3.151" height="15.509" transform="translate(45.716 31.538)" fill="url(#linear-gradient-89)"/>
        <path id="Trazado_19366" data-name="Trazado 19366" d="M1062.758,685.244h27.124a2.433,2.433,0,0,0,2.433-2.433h0a2.434,2.434,0,0,0-2.433-2.435h-27.124Z" transform="translate(-1037.724 -651.931)" fill="url(#linear-gradient-90)"/>
        <path id="Trazado_19367" data-name="Trazado 19367" d="M1093.886,704.828h-5.052a7.183,7.183,0,0,1-7.161-6.6l1.214-15.7a17.377,17.377,0,0,0-17.325-18.717h0a17.374,17.374,0,0,0-17.021,20.874c3.211,15.6,8.076,34.594,13.044,36.694a21.233,21.233,0,0,0,8.292,1.674h36.572a2.83,2.83,0,0,0,2.831-2.83h0A15.4,15.4,0,0,0,1093.886,704.828Z" transform="translate(-1048.18 -663.811)" fill="url(#linear-gradient-91)"/>
      </g>
    </g>
    <g id="Grupo_7913" data-name="Grupo 7913" transform="translate(1002.192 716.638)">
      <g id="Grupo_7911" data-name="Grupo 7911" transform="translate(8.468)">
        <g id="Grupo_7905" data-name="Grupo 7905" transform="translate(53.505 49.204)">
          <path id="Trazado_19368" data-name="Trazado 19368" d="M999.711,679.58l-1.051-.785,10.432-13.655a.664.664,0,0,1,.924-.127h0a.646.646,0,0,1,.129.912Z" transform="translate(-991.422 -664.881)" fill="url(#linear-gradient-92)"/>
          <path id="Trazado_19369" data-name="Trazado 19369" d="M1013.863,674.249h-18.42a.992.992,0,0,0-1,.986h20.416A.992.992,0,0,0,1013.863,674.249Z" transform="translate(-994.445 -658.163)" fill="url(#linear-gradient-93)"/>
        </g>
        <g id="Grupo_7910" data-name="Grupo 7910" transform="translate(14.119 3.696)">
          <g id="Grupo_7906" data-name="Grupo 7906" transform="translate(11.242 69.895)">
            <path id="Trazado_19370" data-name="Trazado 19370" d="M995.216,719.846c-1.533,5.77-3.129,10.71-4.023,13.415a6.994,6.994,0,0,0-.081,4.125c.969,3.393,1.063,6.537,1.516,8.94a7.105,7.105,0,0,0,1.2,3.12c1.8,2.258-4.176,3.043-6.472,2.061-2.311-1-.943-8.673-.943-8.673s-3.239-4.624-.082-7.368l-.016-.294c-.261-5.6-.491-11.424-.563-16.873-.158-13.243.579-24.332,3.859-24.935-.251-.065-2.449-.826-2.691-.9-4.851-1.525-8.1-4.006-8.869-7.976,0,0,19.672-1.681,20.865,6.659C1000.037,698.876,997.706,710.459,995.216,719.846Z" transform="translate(-978.055 -675.305)" fill="#e9a596"/>
            <path id="Trazado_19371" data-name="Trazado 19371" d="M1017.167,738.284a23.873,23.873,0,0,1-6.875-11.206v-.005a.044.044,0,0,1-.01-.024c-3.347-4.32-7-8.735-10.514-13.1-8.639-10.767-16.351-21.274-16.121-29.594a5.342,5.342,0,0,1,1.676-3.743,5.574,5.574,0,0,1,3.853-1.533,8.005,8.005,0,0,1,7.394,4.872l10.294,24.767,6.584,15.846.031-.021c3.233,2.679,5.129,4.511,6.456,6.9a20,20,0,0,1,1.736,4.482C1022.5,738.887,1019.31,740.492,1017.167,738.284Z" transform="translate(-974.049 -679.083)" fill="#e9a596"/>
          </g>
          <g id="Grupo_7909" data-name="Grupo 7909" transform="translate(16.617)">
            <path id="Trazado_19372" data-name="Trazado 19372" d="M981.486,651.27A12.755,12.755,0,0,1,982.937,642c1.09-1.8,2.492-3.151,3.991-3.427,3.318-.611,7.731-.22,8.794,7.444a4.428,4.428,0,0,0,1.257,2.588c.738.714,1.248,1.669-.807,1.973.115,3.685-2.121,7.5-5.6,8.459-1.863.514-4.085-.477-5.943-2.092a9.666,9.666,0,0,1-3.06-5.306Z" transform="translate(-981.185 -638.379)" fill="#e9a596"/>
            <path id="Trazado_19373" data-name="Trazado 19373" d="M988.1,643.866c.108.716.424,1.262.706,1.221s.422-.656.314-1.372-.426-1.264-.707-1.223S987.992,643.148,988.1,643.866Z" transform="translate(-976.251 -635.432)" fill="#111e48"/>
            <g id="Grupo_7907" data-name="Grupo 7907" transform="translate(9.48 4.454)">
              <path id="Trazado_19374" data-name="Trazado 19374" d="M987.014,643.008a.278.278,0,0,0,.237-.186,1.765,1.765,0,0,1,2.174-1.236.282.282,0,0,0,.347-.189.277.277,0,0,0-.194-.342,2.312,2.312,0,0,0-2.857,1.587.277.277,0,0,0,.175.352A.283.283,0,0,0,987.014,643.008Z" transform="translate(-986.705 -640.974)" fill="#111e48"/>
            </g>
            <g id="Grupo_7908" data-name="Grupo 7908" transform="translate(11.022 11.935)">
              <path id="Trazado_19375" data-name="Trazado 19375" d="M990.494,647.1a.279.279,0,0,0-.271-.13,1.751,1.751,0,0,1-2.064-1.406.283.283,0,0,0-.325-.227.275.275,0,0,0-.227.319,2.3,2.3,0,0,0,2.68,1.863.275.275,0,0,0,.206-.419Z" transform="translate(-987.603 -645.33)" fill="#111e48"/>
            </g>
          </g>
          <path id="Trazado_19376" data-name="Trazado 19376" d="M982.976,647.845s-1.53,8.811-1.552,8.742l7.112.622s-.486-4.228,1.053-7.044Z" transform="translate(-964.397 -631.591)" fill="#e9a596"/>
          <path id="Trazado_19377" data-name="Trazado 19377" d="M984.479,730.183c-2.311-1-.943-8.673-.943-8.673s-3.239-4.624-.082-7.368c-.005-.1.005.1,0,0,2.3-.268,4.6.227,4.889,5.277a18.266,18.266,0,0,0,.4,3.022,6.771,6.771,0,0,0,1,2.562,7.105,7.105,0,0,0,1.2,3.12C992.754,730.38,986.775,731.165,984.479,730.183Z" transform="translate(-963.932 -584.087)" fill="#111e48"/>
          <path id="Trazado_19378" data-name="Trazado 19378" d="M1006.037,719.288a23.873,23.873,0,0,1-6.875-11.206v-.005a30.253,30.253,0,0,1,3.156-2.505s1.386,1.115,1.516,1.235c2.177,2.016,4.231,4.017,4.971,5.646a20,20,0,0,1,1.736,4.482C1011.367,719.891,1008.18,721.5,1006.037,719.288Z" transform="translate(-951.676 -590.191)" fill="#111e48"/>
          <path id="Trazado_19379" data-name="Trazado 19379" d="M1007.572,680.908a93.424,93.424,0,0,1-.79-11.012c-.019-1.1-.027-2.224-.038-3.335,0-.146,0-.294-.009-.441a1.568,1.568,0,0,1-.019-.22c-.175.125-.522.324-.955.56a10.735,10.735,0,0,0,.955-.563,11.361,11.361,0,0,0-7.313-9.778q-.461-.183-.938-.319l-.671-1.484a3.359,3.359,0,0,0-2-2.092l-.093-.036-6.206-2.328h-.005l-.055-.021a.517.517,0,0,0-.7.436l-.271,3.1v.01a1.125,1.125,0,0,1-.943.968,9.467,9.467,0,0,0-7.887,7.1c-2.562,10.279-1.808,22.7-8.127,38.623l18.818-1.029c.23-3.8,4.236-19.157,4.236-19.157a5.181,5.181,0,0,0,4.7-4.056,15.838,15.838,0,0,0,.543-2.724v-.005c.046-.386.077-.766.093-1.145l0-.007a.05.05,0,0,0,.007-.031l1.2,13.255c2.332-.929,4.858-1.25,7.035,0Zm-7.712-9.762a3.158,3.158,0,0,1,.606-1.611A3.164,3.164,0,0,0,999.86,671.146Zm.629-1.645-.005.007Z" transform="translate(-971.508 -630.184)" fill="url(#linear-gradient-94)"/>
          <path id="Trazado_19380" data-name="Trazado 19380" d="M1012.018,673.23c-.312,3.426-5.071,2.7-5.071,2.7l-13.483,6.364a4,4,0,0,1-2.131.395,16.126,16.126,0,0,1,3.031-7.817l.027.2,10.406-2.545.938-.239a4.18,4.18,0,0,1-.091-1.377,1.114,1.114,0,0,1,1.138-.955l1.654.036a2.829,2.829,0,0,1,2.315-1.083C1011.944,668.885,1012.2,670.64,1012.018,673.23Z" transform="translate(-957.29 -616.488)" fill="#e9a596"/>
        </g>
        <path id="Trazado_19381" data-name="Trazado 19381" d="M1000.746,693.483H976.9a7.493,7.493,0,0,1-7.442-7.5h0a7.493,7.493,0,0,1,7.442-7.5h23.848a7.493,7.493,0,0,1,7.442,7.5h0A7.493,7.493,0,0,1,1000.746,693.483Z" transform="translate(-958.861 -605.921)" fill="#111e48"/>
        <path id="Trazado_19382" data-name="Trazado 19382" d="M996.224,674.138a16.126,16.126,0,0,0-3.031,7.817,4.077,4.077,0,0,1-3.776-3.692l-.678-7.513c2.332-.929,4.858-1.25,7.035,0Z" transform="translate(-945.032 -612.057)" fill="#eec059"/>
        <path id="Trazado_19383" data-name="Trazado 19383" d="M1008.724,638.21a11.041,11.041,0,0,0-1.983-.637,51.681,51.681,0,0,0-6.908-1.192c-2.957-.3-6.152-.3-8.641,1.331-3.63,2.375-4.5,7.241-6.889,10.863a31.976,31.976,0,0,1-5.565,5.819c-1.561,1.41-3.2,3.113-3.187,5.217.019,2.48,2.31,4.31,3.136,6.649a6.016,6.016,0,0,1-1.546,6.263c-2.677,2.481-7,2.016-10.126,3.891a3.352,3.352,0,0,0-1.9,2.931c.122,1.247,1.286,2.1,1.884,3.2a3.753,3.753,0,0,1-3.709,5.526,7.512,7.512,0,0,0,4.348,3.393,35.148,35.148,0,0,0,5.531,1.132c4.532.783,8.9,2.325,13.4,3.256s9.312,1.216,13.593-.465a12.6,12.6,0,0,1-4.6-2.835c-.527-.51-1.039-1.284-.68-1.923a1.8,1.8,0,0,1,.821-.642c2.832-1.437,6-2.665,7.811-5.421,1.26-1.918,2.95-5.66.972-7.638-.845-1.825-2.414-3.366-2.67-5.358-.237-1.834.7-3.585,1.223-5.358a12.521,12.521,0,0,0-3.719-12.7,7.141,7.141,0,0,1-1.827-1.887,1.775,1.775,0,0,1,.446-2.342,1.7,1.7,0,0,1,1.913.388,4.991,4.991,0,0,1,1.042,1.791,22.478,22.478,0,0,1,5.069-8.232,1.735,1.735,0,0,0,2.9-1.612,2.5,2.5,0,0,1,1.588.821,2.561,2.561,0,0,0-.4-3.333A4.542,4.542,0,0,0,1008.724,638.21Z" transform="translate(-963.286 -636.227)" fill="#884668"/>
      </g>
      <g id="Grupo_7912" data-name="Grupo 7912" transform="translate(0 45.027)">
        <rect id="Rectángulo_1946" data-name="Rectángulo 1946" width="7.37" height="47.749" transform="translate(39.813 103.258) rotate(180)" fill="url(#linear-gradient-95)"/>
        <path id="Trazado_19384" data-name="Trazado 19384" d="M970.025,726.96H1002.2a6.177,6.177,0,0,0-6.177-6.177H976.2a6.176,6.176,0,0,0-6.175,6.177Z" transform="translate(-949.985 -620.613)" fill="url(#linear-gradient-96)"/>
        <rect id="Rectángulo_1947" data-name="Rectángulo 1947" width="3.151" height="15.509" transform="translate(45.716 31.537)" fill="url(#linear-gradient-97)"/>
        <path id="Trazado_19385" data-name="Trazado 19385" d="M972.933,683.882h27.125a2.435,2.435,0,0,0,2.435-2.435h0a2.434,2.434,0,0,0-2.435-2.433H972.933Z" transform="translate(-947.9 -650.569)" fill="url(#linear-gradient-98)"/>
        <path id="Trazado_19386" data-name="Trazado 19386" d="M1004.061,703.465h-5.052a7.184,7.184,0,0,1-7.161-6.6l1.214-15.7a17.376,17.376,0,0,0-17.324-18.716h0a17.374,17.374,0,0,0-17.021,20.874c3.213,15.6,8.076,34.593,13.045,36.694a21.219,21.219,0,0,0,8.291,1.674h36.574a2.83,2.83,0,0,0,2.83-2.83h0A15.4,15.4,0,0,0,1004.061,703.465Z" transform="translate(-958.355 -662.449)" fill="url(#linear-gradient-99)"/>
      </g>
    </g>
    <g id="Grupo_7928" data-name="Grupo 7928" transform="translate(1162.122 524.861)">
      <path id="Trazado_19387" data-name="Trazado 19387" d="M1076.623,543.255l-2.635,14.319-11.187,8.82-8.074,6.364a4.18,4.18,0,0,1-2.251-6.759l3.96-4.714c.137-.165.266-.321.4-.486a109.142,109.142,0,0,0,7.954-11.141C1070.2,541.134,1076.623,543.255,1076.623,543.255Z" transform="translate(-1051.49 -511.295)" fill="url(#linear-gradient-100)"/>
      <path id="Trazado_19388" data-name="Trazado 19388" d="M1086.77,537.221a12.892,12.892,0,0,0-.7-6.017,12.349,12.349,0,0,0-3.565-4.353c-2.015-1.551-9.288-2.952-13.428,1.472a33.17,33.17,0,0,0-2.875,2.878,10.7,10.7,0,0,0-2.105,6.321,61.044,61.044,0,0,0,.819,8.265,20.383,20.383,0,0,1,.493,5.818c-.24,1.8-.828,3.495-1.092,5.3-.689,4.672,1.264,9.8,5.751,11.881a35.636,35.636,0,0,0,5.4,1.964c1.528.421,3.168.517,4.671,1a6.579,6.579,0,0,1,2.219,1.09c.836.738.2,1.341.46,2.227,2.5-.962,4.59-3.714,5.735-6.089a9.554,9.554,0,0,0,.24-8.54C1082.013,547.066,1086.6,539.765,1086.77,537.221Z" transform="translate(-1042.45 -523.97)" fill="#eec059"/>
      <path id="Trazado_19389" data-name="Trazado 19389" d="M1097.048,572.758l-8.79-6.925-10.471-8.258-2.636-14.319s6.421-2.121,11.838,6.4a110.343,110.343,0,0,0,7.835,11c.167.211.34.422.515.623L1099.3,566A4.178,4.178,0,0,1,1097.048,572.758Z" transform="translate(-1034.522 -511.295)" fill="url(#linear-gradient-100)"/>
      <path id="Trazado_19390" data-name="Trazado 19390" d="M1091.574,565.39l-8.79-6.925a8.141,8.141,0,0,1,6.566-5.17c.167.211.34.422.515.623l3.958,4.714A4.178,4.178,0,0,1,1091.574,565.39Z" transform="translate(-1029.048 -503.927)" fill="#eec059"/>
      <path id="Trazado_19391" data-name="Trazado 19391" d="M1090.48,569.122l-22.756.525a6.777,6.777,0,0,0-4.307,11.883l3.266,2.85,22.229.117S1098.9,570.484,1090.48,569.122Z" transform="translate(-1044.611 -492.576)" fill="#111e48"/>
      <path id="Trazado_19392" data-name="Trazado 19392" d="M1084.947,555.134c-.218.567-1.067,1.068-2.31,1.47-5.086,1.71-16.687,1.994-17.745-.261l2.919-8.737a1.305,1.305,0,0,1,.055-.185l.491-1.448,1.088-.13a3.923,3.923,0,0,0,1.221-.446,2.491,2.491,0,0,0,1.131-1.788v-.01a7.436,7.436,0,0,0,.077-.807,4.463,4.463,0,0,0-.436-2.363l6.122-1.472.228,2.5c.045.457.077.926.1,1.394.034.424.055.86.067,1.3a1.273,1.273,0,0,0,1.144,1.264l1.339.173,3.115,6.6Z" transform="translate(-1041.879 -514.21)" fill="#e38570"/>
      <path id="Trazado_19393" data-name="Trazado 19393" d="M1085.6,578.039a4.271,4.271,0,0,1-.632-1.9c-.033-.381-.033-.763-.033-1.144a6.435,6.435,0,0,1,.306-2.179l1.6-3.137,1.939-3.78c1.863-3.649,3.084-8.323,1.329-11.874-1.72-3.486-.991-8.692-2.3-10.784a11.785,11.785,0,0,0-4.02-.381h-.033l-1.688-.153s3.913,10.5-3.551,10.99c-7.43.484-6.1-10.554-6.1-10.554l-1.089.13q-.933.015-1.8.065a13.876,13.876,0,0,0-3.235.5l.283,2.854.108,4.356a14.921,14.921,0,0,1-.752,3.443,12.893,12.893,0,0,0,.263,9.118l2.026,4.848.3.73a9.386,9.386,0,0,1-.076,7.3l-7.714,12.484c11.864,8.268,22.364,8.7,31.124-.915Z" transform="translate(-1044.855 -511.516)" fill="#884668"/>
      <g id="Grupo_7914" data-name="Grupo 7914" transform="translate(14.73 31.198)">
        <path id="Trazado_19394" data-name="Trazado 19394" d="M1066.823,575.93a21.245,21.245,0,0,0-1.056-12.491,12.932,12.932,0,0,1-.257-9.122,15.377,15.377,0,0,0,.754-3.445l-.112-4.353-.283-2.857a13.675,13.675,0,0,1,3.231-.5c.579-.036,1.176-.055,1.8-.072l1.084-.129a18.4,18.4,0,0,0-.055,3.077,25.406,25.406,0,0,1-.666,4.449q-.309,2.321-.531,4.655-.446,4.662-.539,9.352a113.85,113.85,0,0,0,1.1,18.269,118.19,118.19,0,0,0,2.361,12.019,32.294,32.294,0,0,1-13.281-6.026c-1.3-1.041,1.911-4.027,2.54-4.77A18.64,18.64,0,0,0,1066.823,575.93Z" transform="translate(-1060.069 -542.532)" fill="url(#linear-gradient-102)"/>
        <path id="Trazado_19395" data-name="Trazado 19395" d="M1083.975,588.06c-3.4,3.73-7.054,5.943-10.948,6.779,9.649-46.965,1.157-52.126,1.157-52.126l1.69.148h.036a11.877,11.877,0,0,1,4.015.386c1.3,2.093.579,7.293,2.3,10.782,1.46,2.957.848,6.5-.259,9.469-.831,2.225-2.139,4.257-2.811,6.542a16.962,16.962,0,0,0,2.363,14.007C1081.765,584.425,1084.261,587.746,1083.975,588.06Z" transform="translate(-1050.776 -542.713)" fill="url(#linear-gradient-103)"/>
      </g>
      <g id="Grupo_7921" data-name="Grupo 7921" transform="translate(21.249 3.486)">
        <path id="Trazado_19396" data-name="Trazado 19396" d="M1086.281,536.543a2.343,2.343,0,0,0-1.344.39,18.233,18.233,0,0,0-3.883-7.787,6.183,6.183,0,0,0-2.577-2.068,4.437,4.437,0,0,0-1.552-.464,14.778,14.778,0,0,0-2.114,0,4.423,4.423,0,0,0-1.552.464,6.173,6.173,0,0,0-2.578,2.068,18.23,18.23,0,0,0-3.882,7.787,2.348,2.348,0,0,0-1.346-.39c-1.385.118-1.839,2.316-1.458,3.982.484,2.112,2.08,2.775,3.558,3.2a15.434,15.434,0,0,0,2.741,3.91,8.351,8.351,0,0,0,4.355,2.789l.151.034c.1.022.2.053.3.07.069.012.137.012.2.021s.115.01.172.016a4.2,4.2,0,0,0,.8,0c.057-.005.113-.009.172-.016s.136-.009.2-.021c.1-.017.2-.048.3-.07l.151-.034a8.343,8.343,0,0,0,4.355-2.79,15.389,15.389,0,0,0,2.741-3.908c1.479-.421,3.074-1.083,3.556-3.2C1088.122,538.859,1087.669,536.661,1086.281,536.543Z" transform="translate(-1063.865 -526.575)" fill="#e9a596"/>
        <g id="Grupo_7915" data-name="Grupo 7915" transform="translate(10.486 16.446)">
          <path id="Trazado_19397" data-name="Trazado 19397" d="M1072.155,539.1a3.6,3.6,0,0,0,2.485-2.632.25.25,0,0,0-.481-.134,3.46,3.46,0,0,1-3.9,2.457.25.25,0,0,0-.076.495A4.935,4.935,0,0,0,1072.155,539.1Z" transform="translate(-1069.971 -536.153)" fill="#111e48"/>
        </g>
        <g id="Grupo_7916" data-name="Grupo 7916" transform="translate(14.523 12.211)">
          <path id="Trazado_19398" data-name="Trazado 19398" d="M1073.6,534.852c-.041.62-.361,1.1-.713,1.078s-.6-.544-.56-1.164.361-1.1.713-1.078S1073.642,534.233,1073.6,534.852Z" transform="translate(-1072.323 -533.687)" fill="#111e48"/>
        </g>
        <g id="Grupo_7917" data-name="Grupo 7917" transform="translate(7.541 12.063)">
          <path id="Trazado_19399" data-name="Trazado 19399" d="M1069.533,534.766c-.043.62-.361,1.1-.713,1.078s-.6-.546-.56-1.164.36-1.1.712-1.078S1069.575,534.146,1069.533,534.766Z" transform="translate(-1068.256 -533.601)" fill="#111e48"/>
        </g>
        <g id="Grupo_7918" data-name="Grupo 7918" transform="translate(14.265 9.558)">
          <path id="Trazado_19400" data-name="Trazado 19400" d="M1074.839,533.827l.024-.01a.249.249,0,0,0,.13-.328,2.064,2.064,0,0,0-2.66-1.224.25.25,0,0,0-.146.321.244.244,0,0,0,.321.148,1.581,1.581,0,0,1,2.025.955A.251.251,0,0,0,1074.839,533.827Z" transform="translate(-1072.172 -532.141)" fill="#111e48"/>
        </g>
        <g id="Grupo_7919" data-name="Grupo 7919" transform="translate(6.43 9.631)">
          <path id="Trazado_19401" data-name="Trazado 19401" d="M1070.569,532.828l.014-.024a.25.25,0,0,0-.108-.337,2.063,2.063,0,0,0-2.832.742.249.249,0,0,0,.089.34.244.244,0,0,0,.343-.088,1.581,1.581,0,0,1,2.171-.548A.251.251,0,0,0,1070.569,532.828Z" transform="translate(-1067.609 -532.184)" fill="#111e48"/>
        </g>
        <g id="Grupo_7920" data-name="Grupo 7920" transform="translate(9.637 13.878)">
          <path id="Trazado_19402" data-name="Trazado 19402" d="M1070.722,537.863c-1.063-.177-1.218-.661-1.24-.771a.239.239,0,0,1,.038-.186l1.43-2.138a.249.249,0,0,1,.414.278l-1.346,2.009c.106.11.429.335,1.346.369a.237.237,0,0,1,.239.258.249.249,0,0,1-.259.24A5.393,5.393,0,0,1,1070.722,537.863Z" transform="translate(-1069.477 -534.658)" fill="#111e48"/>
        </g>
        <path id="Trazado_19403" data-name="Trazado 19403" d="M1079.3,533.823h-1.806a2.468,2.468,0,0,0-2.672,1.9,2.781,2.781,0,0,0-1.149-.23,2.678,2.678,0,0,1-3.427-1.669h-1.807c-1.482,0-2.687.9-2.687,2.011s1.205,2.011,2.687,2.011h1.807a2.664,2.664,0,0,0,2.583-1.49,1.6,1.6,0,0,1,.886-.3,2.022,2.022,0,0,1,1.255.443,2.744,2.744,0,0,0,2.524,1.346h1.806c1.482,0,2.686-.9,2.686-2.011S1080.778,533.823,1079.3,533.823Zm-9.055,3.458h-1.807c-1.066,0-1.933-.649-1.933-1.448s.867-1.448,1.933-1.448h1.807c1.065,0,1.932.649,1.932,1.448S1071.307,537.281,1070.242,537.281Zm9.055,0h-1.806c-1.067,0-1.934-.649-1.934-1.448s.867-1.448,1.934-1.448h1.806c1.067,0,1.934.649,1.934,1.448S1080.363,537.281,1079.3,537.281Z" transform="translate(-1062.514 -521.378)" fill="#111e48"/>
        <path id="Trazado_19404" data-name="Trazado 19404" d="M1074.987,536.545l.369.578,1.6-4.1.016-1Z" transform="translate(-1055.888 -522.667)" fill="#111e48"/>
      </g>
      <g id="Grupo_7922" data-name="Grupo 7922" transform="translate(33.984 53.35)">
        <path id="Trazado_19405" data-name="Trazado 19405" d="M1095.429,564.027l-10.94,7.2-2.945,1.939-1.683,1.113-1.073-2.835a1.375,1.375,0,0,0,.443-.345l.137-.156,1.94-2.225s9.314-15.422,14.426-12.8A4.986,4.986,0,0,1,1095.429,564.027Z" transform="translate(-1065.897 -555.614)" fill="#e9a596"/>
        <path id="Trazado_19406" data-name="Trazado 19406" d="M1085.245,568.25l-.247.168a2.75,2.75,0,0,1-1.319.414l-4.835.127c.759,1.7-6.144,5.268-7.562,2.984,0,0,3.407-5.819,4.037-6.431l.73-.689a2.983,2.983,0,0,1,3.022-.641l3.85,1.329a1.541,1.541,0,0,0,1.252-.1Z" transform="translate(-1071.281 -549.586)" fill="#e9a596"/>
      </g>
      <g id="Grupo_7923" data-name="Grupo 7923" transform="translate(0.001 49.504)">
        <path id="Trazado_19407" data-name="Trazado 19407" d="M1062.8,558.969l-8.074,6.364a4.18,4.18,0,0,1-2.251-6.759l3.96-4.714c.137-.165.266-.321.4-.486A8.167,8.167,0,0,1,1062.8,558.969Z" transform="translate(-1051.491 -553.374)" fill="#eec059"/>
      </g>
      <g id="Grupo_7924" data-name="Grupo 7924" transform="translate(0 53.35)">
        <path id="Trazado_19408" data-name="Trazado 19408" d="M1053.737,564.027l10.94,7.2,2.943,1.939,1.685,1.113,1.073-2.835a1.334,1.334,0,0,1-.443-.345l-.138-.156-1.94-2.225s-9.315-15.422-14.426-12.8A4.985,4.985,0,0,0,1053.737,564.027Z" transform="translate(-1051.491 -555.614)" fill="#e9a596"/>
        <path id="Trazado_19409" data-name="Trazado 19409" d="M1061.865,568.25l.246.168a2.756,2.756,0,0,0,1.32.414l4.834.127c-.757,1.7,6.144,5.268,7.562,2.984,0,0-3.407-5.819-4.037-6.431l-.728-.689a2.985,2.985,0,0,0-3.024-.641l-3.85,1.329a1.538,1.538,0,0,1-1.25-.1Z" transform="translate(-1044.05 -549.586)" fill="#e9a596"/>
      </g>
      <g id="Grupo_7925" data-name="Grupo 7925" transform="translate(13.404 60.728)">
        <path id="Trazado_19410" data-name="Trazado 19410" d="M1095.69,559.91h-34.572a1.822,1.822,0,0,0-1.8,2.09l2.663,17.919a1.513,1.513,0,0,0-1.154,1.463h0a1.515,1.515,0,0,0,1.509,1.509h31.919a1.515,1.515,0,0,0,1.509-1.509h0a1.511,1.511,0,0,0-1.449-1.5l3.168-17.828A1.821,1.821,0,0,0,1095.69,559.91Z" transform="translate(-1059.296 -559.91)" fill="#111e48"/>
        <path id="Trazado_19411" data-name="Trazado 19411" d="M1073.243,565.889a2.178,2.178,0,1,1-3.08,0A2.177,2.177,0,0,1,1073.243,565.889Z" transform="translate(-1051.961 -556.079)" fill="#fff"/>
      </g>
      <g id="Grupo_7927" data-name="Grupo 7927" transform="translate(9.229 76.722)">
        <g id="Grupo_7926" data-name="Grupo 7926" transform="translate(6.121)">
          <path id="Trazado_19412" data-name="Trazado 19412" d="M1092.852,620.26l-3.192,2.6c0-.012-.012-.034-.012-.046-3.4-4.4-11.879-16.432-15.441-20.881-8.758-10.981-14-18.839-13.77-27.332a5.5,5.5,0,0,1,1.707-3.814,5.669,5.669,0,0,1,3.9-1.568,8.123,8.123,0,0,1,7.5,4.978l7.858,22.4Z" transform="translate(-1060.43 -569.224)" fill="#e9a596"/>
          <path id="Trazado_19413" data-name="Trazado 19413" d="M1089,610.572c-1.36-4.944-3.065-7.156-7.4-10.854a.012.012,0,0,1-.012-.012c-.288-.242-.587-.5-.9-.749l-.034.022-.012-.034-3.192,2.6c.161.6.347,1.162.531,1.705a25.052,25.052,0,0,0,6.441,9.714C1086.6,615.215,1089.828,613.579,1089,610.572Z" transform="translate(-1048.222 -547.909)" fill="#111e48"/>
        </g>
        <path id="Trazado_19414" data-name="Trazado 19414" d="M1094.247,574.606c.23,8.493-5.013,16.351-13.77,27.332-3.561,4.449-12.043,16.478-15.441,20.881,0,.012-.012.034-.012.046l-3.261-2.571c.012,0,.022-.012.034-.022l.024.022,11.454-23.692,7.858-22.4a8.125,8.125,0,0,1,7.5-4.978,5.655,5.655,0,0,1,3.907,1.568A5.5,5.5,0,0,1,1094.247,574.606Z" transform="translate(-1053.353 -569.224)" fill="#e9a596"/>
        <path id="Trazado_19415" data-name="Trazado 19415" d="M1065.275,598.965c-.565.472-1.094.922-1.578,1.338-3.826,3.352-5.416,5.588-6.7,10.255-.841,3.007,2.385,4.643,4.563,2.4a25.031,25.031,0,0,0,6.177-9.024c.288-.737.553-1.544.8-2.4Z" transform="translate(-1056.865 -547.895)" fill="#111e48"/>
      </g>
      <path id="Trazado_19416" data-name="Trazado 19416" d="M1084.745,532.616c-.761-1.971-2.454-4.2-4.788-4.149a3.955,3.955,0,0,0-1.1-2.826,3.519,3.519,0,0,0-2.4-1.078c-1.863-.191-12.106,1.034-12.106,12.776,0,1.954,1.006,5.78,1.439,7.636.33,1.415.931,2.813,1.144,4.245.337,2.255-.254,3.68-.8,5.71a5.894,5.894,0,0,0,.75,4.836c2,2.717,5.3,4.892,8.419,4.621-1.257-1.111-3.036-1.729-3.388-3.937-.342-2.155.986-2.689,1.745-4.2,1.674-3.33-2.529-5.706-3.771-7.885-1.472-2.581-.982-7.564.558-9.906,1.918-2.916,4.695-2.49,7-4.468a7.161,7.161,0,0,0,1.018-1.075c.265.349.57.685.781.929a5.468,5.468,0,0,0,2.155,1.434c.862.355,1.729.524,2.2,1.432a4.994,4.994,0,0,1,.2,2.354C1085.885,537.523,1085.578,534.776,1084.745,532.616Z" transform="translate(-1042.267 -524.545)" fill="#eec059"/>
    </g>
    <g id="Grupo_7930" data-name="Grupo 7930" transform="translate(1293.679 690.952)">
      <g id="Grupo_7929" data-name="Grupo 7929">
        <path id="Trazado_19417" data-name="Trazado 19417" d="M1144.432,631.17h-.04l-13-.46h-.031c-1.688,0-3.016-1.47-3.232-3.668-.228-2.323.8-4.911,3.216-5.364l.148-.022a37.945,37.945,0,0,1,10.619-.033l2.512.275a4.814,4.814,0,0,1,3.553,5.466A3.911,3.911,0,0,1,1144.432,631.17Zm-12.747-3.884,12.786.452h0c.094,0,.252-.347.3-.745.065-.613-.132-1.532-.775-1.717l-2.243-.235a34.438,34.438,0,0,0-9.784.019.965.965,0,0,0-.287.472A2.707,2.707,0,0,0,1131.685,627.286Zm-.24-.009h0l.034,0Z" transform="translate(-1128.103 -621.269)" fill="#3a3b3a"/>
      </g>
      <path id="Trazado_19418" data-name="Trazado 19418" d="M1130.4,622.251c7.19-.721,7.427-.429,14.052.24,3.359.7,3.177,6.578.144,6.546l-14.431-.512C1127.739,628.55,1127.655,622.77,1130.4,622.251Z" transform="translate(-1127.931 -620.866)" fill="#54ceff"/>
    </g>
  </g>
</svg>
