<svg xmlns="http://www.w3.org/2000/svg" width="488" height="318.97" viewBox="0 0 488 318.97">
  <g id="Grupo_7751" data-name="Grupo 7751" transform="translate(-674.254 -721.766)">
    <g id="Grupo_7735" data-name="Grupo 7735" transform="translate(815.601 721.766)">
      <g id="Grupo_7734" data-name="Grupo 7734">
        <path id="Rectángulo_1868" data-name="Rectángulo 1868" d="M4.023,0h172.7a4.023,4.023,0,0,1,4.023,4.023V118.246a4.023,4.023,0,0,1-4.023,4.023H4.024A4.024,4.024,0,0,1,0,118.245V4.023A4.023,4.023,0,0,1,4.023,0Z" fill="#0254e4"/>
        <rect id="Rectángulo_1869" data-name="Rectángulo 1869" width="164.314" height="102.791" transform="translate(8.215 9.74)" fill="#afeaf0"/>
      </g>
      <path id="Trazado_18992" data-name="Trazado 18992" d="M775.737,741.26v50.35l49.015-25.176Z" transform="translate(-709.872 -701.456)" fill="#ff4c6b"/>
    </g>
    <ellipse id="Elipse_722" data-name="Elipse 722" cx="244" cy="34.098" rx="244" ry="34.098" transform="translate(674.254 972.54)" fill="#9881b7" opacity="0.55" style="mix-blend-mode: multiply;isolation: isolate"/>
    <g id="Grupo_7750" data-name="Grupo 7750" transform="translate(714.58 784.987)">
      <path id="Trazado_18993" data-name="Trazado 18993" d="M752.04,791.136l5.085,73.4,56.036,3.495-1.551-74.89Z" transform="translate(-633.539 -712.714)" fill="#afeaf0"/>
      <path id="Trazado_18994" data-name="Trazado 18994" d="M786.288,790.231c-4.531-1.364-14.869,39.508-13.256,46.066,1.1,4.5,39.234,2.869,39.234,2.869l.4-7.843s-24.192-2.742-24.067-4.723,7.148-15.05,7.148-15.05S790.866,791.611,786.288,790.231Z" transform="translate(-611.845 -713.692)" fill="#afeaf0"/>
      <path id="Trazado_18995" data-name="Trazado 18995" d="M776.686,778.409l-10.272,1.6s2.887,9.131-1.542,16.923c0,0,7.385,8,12.535,5.885,5.5-2.26,3.453-7.818,3.453-7.818S775.253,790.556,776.686,778.409Z" transform="translate(-620.17 -725.974)" fill="#e76f59"/>
      <path id="Trazado_18996" data-name="Trazado 18996" d="M766.981,771s16.008-1.834,17.117.858,1.348,10.272,2.385,11.871,2.914,3.516,2.213,4.547-1.472.78-1.915,1.94-.274,7.712-2.387,8.688-12.9.4-16.806-5.742S759.246,771.569,766.981,771Z" transform="translate(-622.404 -734.325)" fill="#f9a57e"/>
      <path id="Trazado_18997" data-name="Trazado 18997" d="M764.764,771.675l10.618,4.915a23.852,23.852,0,0,0,2.72,11.6s-.953,1.462-1.956.633a3.882,3.882,0,0,1-1.878-2.816c-.235-1.54-1.16-5.678-3.943-3.637s.157,4.464,1.574,5.066c0,0,2.248,8.059-2.03,7.488,0,0-3.947-2.5-7.349-12.184S762.119,769.86,764.764,771.675Z" transform="translate(-624.205 -733.494)" fill="#292c3d"/>
      <path id="Trazado_18998" data-name="Trazado 18998" d="M789,772.062s3.8,5.46-5.025,9.111-21.513-5.966-21.513-5.966.325-4.788,7.363-6.838c5.26-1.531,10.187-1.315,12.872,1.729C787.263,775.274,789,772.062,789,772.062Z" transform="translate(-622.676 -737.403)" fill="#292c3d"/>
      <g id="Grupo_7736" data-name="Grupo 7736" transform="translate(128.428 159.248)">
        <rect id="Rectángulo_1870" data-name="Rectángulo 1870" width="3.061" height="80.644" fill="#afeaf0"/>
        <rect id="Rectángulo_1871" data-name="Rectángulo 1871" width="3.061" height="80.644" transform="translate(56.677)" fill="#afeaf0"/>
      </g>
      <rect id="Rectángulo_1872" data-name="Rectángulo 1872" width="76.164" height="10.552" transform="translate(120.215 151.821)" fill="#292c3d"/>
      <path id="Trazado_18999" data-name="Trazado 18999" d="M773.607,786.164s-14.33,3.988-14.92,4.345c0,0,1.584,20.729,1.348,26.311S757.55,846.3,757.55,846.3h44.528s-.533-24.312-.3-29.658c0,0-1.429-18.048.459-22.207,0,0-9.356-5.86-13.754-7.514,0,0,.067,5.874-3.061,7.479S773.607,786.164,773.607,786.164Z" transform="translate(-627.799 -717.894)" fill="#afeaf0"/>
      <path id="Trazado_19000" data-name="Trazado 19000" d="M801.782,812.421s-.11-2.483-.159-5.836a54.081,54.081,0,0,1-3.206,8.7c-2.9,6-10.093,14.3-17.74,13.419-7.673-.886-13.795-7.7-15.71-15.142-1.442-5.6-.733-11.71-2.618-17.172a22.673,22.673,0,0,0-3.377-6.172c.445,6.289,1.233,18.332,1.062,22.387-.235,5.583-2.485,29.478-2.485,29.478h44.528S801.546,817.767,801.782,812.421Z" transform="translate(-627.799 -713.675)" fill="#5ac4e0"/>
      <g id="Grupo_7737" data-name="Grupo 7737" transform="translate(149.567 106.651)">
        <path id="Trazado_19001" data-name="Trazado 19001" d="M785.341,822.451,775.228,805.3s-2.411-1.419-2.428,1.523l11.675,16.3S787.166,826.447,785.341,822.451Z" transform="translate(-761.478 -804.961)" fill="#292c3d"/>
        <path id="Trazado_19002" data-name="Trazado 19002" d="M787.145,813.381c-.782-1.1-1.717-2.922-3.369-3.769s-9.08,2.181-9.6,2.309c-.269.067-4.966,1.48-5.934,1.158a42.821,42.821,0,0,1-.986,5.1c1.727.649,7.308-.435,8.006-.539a5.331,5.331,0,0,1,3.847,1.082c1.166.827,2.275,1.517,3.1,1.352.774-.153-.051-1.178-.521-1.727l.041.043c2.066,2.507,3.138,2.132,3.547,1.6.521-.668-2.24-3.006-2.507-3.326s-2.591-2.126-2.591-2.126a10.5,10.5,0,0,1,2.977,2.081c.261.267,3.042,4.492,3.994,3.2s-1.374-3.451-2.3-4.794a10.574,10.574,0,0,0-3.093-2.509c1.135-.151,3.073,1.987,3.72,2.736s2.338,4.292,3.679,3.4S787.927,814.479,787.145,813.381Zm-5.658,4.745a22.208,22.208,0,0,0-2.219-1.652A11.946,11.946,0,0,1,781.487,818.126Z" transform="translate(-767.255 -800.273)" fill="#f9a57e"/>
        <path id="Trazado_19003" data-name="Trazado 19003" d="M776.813,809.911s2.748,1.056,3.228,2.285-.274,1.962-.927,1.674Z" transform="translate(-757.297 -799.805)" fill="#f9a57e"/>
      </g>
      <path id="Trazado_19004" data-name="Trazado 19004" d="M768.2,788.292s-4.7,3.3-6.924,7.473-14.326,35.959-12.715,42.517c1.1,4.5,39.234,2.869,39.234,2.869l.4-7.843s-24.192-2.742-24.069-4.723,7.149-15.05,7.149-15.05S775.11,797.454,768.2,788.292Z" transform="translate(-637.314 -715.677)" fill="#afeaf0"/>
      <path id="Trazado_19005" data-name="Trazado 19005" d="M792.668,863.9s12.768,3.438,18.048,5.129c4.39,1.407,3.828,5.348-.876,7.177s-8.76,1.217-9.985-.223-3.877-.647-4.859-.071-10.127-.67-10.734-2.5.276-9.121.276-9.121Z" transform="translate(-600.192 -636.911)" fill="#292c3d"/>
      <path id="Trazado_19006" data-name="Trazado 19006" d="M782.869,865.28s12.441,4.482,17.564,6.6c4.257,1.764,3.373,5.646-1.468,7.079s-8.831.488-9.932-1.045-3.81-.966-4.837-.474-10.038-1.5-10.491-3.375,1.917-10.675,1.917-10.675Z" transform="translate(-611.029 -637.434)" fill="#292c3d"/>
      <path id="Trazado_19007" data-name="Trazado 19007" d="M820.475,841c-1.407-5.225-27.416-21.021-29.537-25.778h-21a34.214,34.214,0,0,0-5.56,16.071c-1.335,13.344,11,8.77,23.222,9.215s17.158,7.965,17.476,11.3-1.864,63.889-1.864,63.889l16.6-.094S821.313,844.109,820.475,841Z" transform="translate(-620.791 -687.621)" fill="#0254e4"/>
      <path id="Trazado_19008" data-name="Trazado 19008" d="M808.651,915.653s5.511-72.324,4.278-74.2c-3.794-5.756-22.215-19.291-28.543-25.574l-14.45-.661a34.214,34.214,0,0,0-5.56,16.071c-1.335,13.344,11,8.77,23.222,9.215s17.158,7.965,17.476,11.3-1.864,63.889-1.864,63.889Z" transform="translate(-620.791 -687.621)" fill="#00a1cc" opacity="0.65" style="mix-blend-mode: multiply;isolation: isolate"/>
      <path id="Trazado_19009" data-name="Trazado 19009" d="M817.959,843.119c-.982-4.59-28.112-20.643-33.8-26.781l-22.254-1.529c-2.718,3.042-5.437,7.8-5.393,12.88.112,12.813,9.77,15.9,22,16.269,14.1.421,21.339,2.236,21.321,5.589s-8.69,66.3-8.69,66.3l16.443.847S818.635,846.27,817.959,843.119Z" transform="translate(-628.878 -688.051)" fill="#0254e4"/>
      <g id="Grupo_7740" data-name="Grupo 7740" transform="translate(176.12)">
        <g id="Grupo_7738" data-name="Grupo 7738" transform="translate(130.636 30.172)">
          <path id="Trazado_19010" data-name="Trazado 19010" d="M844.239,791.88a98.134,98.134,0,0,0,5.141-9.752c1.362-3.42,6.838-15.269,8.588-14.025s-3.157,11.181-3.157,11.181,4.327-12.441,6.665-11.751-4,12.278-4,12.278,5.213-10.922,6.579-9.868.29,3.485-4.194,11.569c0,0,3.824-6.938,5.27-5.313s-3.216,8-4.911,9.5-9.693,7.857-11.606,10.54C848.617,796.237,844.327,794.741,844.239,791.88Z" transform="translate(-844.239 -767.505)" fill="#f9a57e"/>
          <path id="Trazado_19011" data-name="Trazado 19011" d="M849.251,776.613s5.738-3.261,7.338-2-.016,2.581-5.962,4.5c0,0-2.1,2.669-3.44,2.877A4,4,0,0,1,849.251,776.613Z" transform="translate(-841.549 -760.402)" fill="#ffb089"/>
        </g>
        <path id="Trazado_19012" data-name="Trazado 19012" d="M799.54,787.5s-2.224-4.419-2.224-5.707.647-2.679.694-4.439,2.409-5.838,1.9-7-1.946-.88-3.334,1.9-.927,4.494-2.04,3.706a30.613,30.613,0,0,1-4.725-5.652c-.88-1.435-3.659-4.261-4.4-3.8s-.949,1.2,3.974,8.151c0,0-5.576-8.361-7.218-6.852-1.145,1.054,4.3,7.173,5.088,8.147,0,0-5.043-6.328-6.546-4.835-1.413,1.4,5.523,6.671,5.523,6.671s-5.176-4.1-5.87-2.9,2.315,3.869,5.28,5.538,3.726,2.107,4.482,3.218a58.456,58.456,0,0,1,2.607,5.56S797.455,790.373,799.54,787.5Z" transform="translate(-780.259 -738.419)" fill="#f9a57e"/>
        <path id="Trazado_19013" data-name="Trazado 19013" d="M830.38,762.751l-10.542,1.609s-.6,19.689-8.941,21.264c0,0-2.965,32.245,8.061,29.558s16.955-30.668,16.955-30.668S826.192,781.822,830.38,762.751Z" transform="translate(-748.717 -742.287)" fill="#e76f59"/>
        <path id="Trazado_19014" data-name="Trazado 19014" d="M831.337,756.971s-11.375-4.684-15.892-1.84-4.147,12.653-4.821,17.147c-1.053,7.026,1.977,13.887,3.816,14.556s16.061-3.179,18.319-13.468S834.014,758.729,831.337,756.971Z" transform="translate(-748.849 -751.18)" fill="#f9a57e"/>
        <path id="Trazado_19015" data-name="Trazado 19015" d="M825.794,860.7s1.535,9.464.394,11.661c-1.2,2.315-25.164,1.2-26.6-.361s.956-4.276,2.209-4.9,14.272-6.334,14.272-6.334Z" transform="translate(-760.581 -640.238)" fill="#292c3d"/>
        <path id="Trazado_19016" data-name="Trazado 19016" d="M831.77,860.7h-8.361s-.557,7.028,0,8.6,8.453,11.33,12.531,11.33c2.224,0,4.968.012,5.4-1.968.359-1.65-1.268-5.127-2.618-6.991C835.753,867.57,831.77,860.7,831.77,860.7Z" transform="translate(-735.563 -640.238)" fill="#292c3d"/>
        <path id="Trazado_19017" data-name="Trazado 19017" d="M831.86,776.4s-4.078,2.258-6.714,2.446-4.257-2.936-7.967-2.132-4.184.935-4.184.935-1.964,13.3,3.055,12.929,13.552-5.646,16.561-9.223a6.592,6.592,0,0,0,5.146-3.073c2.007-3.075,4.7-12.61,2.948-18.383s-9.535-8.031-12.8-5.331c0,0-2.489-2.07-7.214-1.819s-5.707,2.759-7.714,4.265-3.974,1.5-4.643.208c0,0-1.421,2.385,1.129,6.483s5.5,3.471,9.47,2.552,8.909-4.851,8.909-4.851-.208,8.2,1.842,11.208c0,0,.751.335,1.045,0s.084-4.6,2.383-3.639S833.908,774.789,831.86,776.4Z" transform="translate(-751.42 -752.729)" fill="#292c3d"/>
        <path id="Trazado_19018" data-name="Trazado 19018" d="M812.035,766.258a12.61,12.61,0,0,0,6.273.292s-1.85,2.436-3.89,2.091A2.665,2.665,0,0,1,812.035,766.258Z" transform="translate(-747.154 -738.633)" fill="#fff"/>
        <path id="Trazado_19019" data-name="Trazado 19019" d="M831.766,771.957l-9.754,5.276-7.585-4.551a69.215,69.215,0,0,0-2.75,24.753c1.113,13.158,3.242,22.609,12.139,10.379S836.013,776.218,831.766,771.957Z" transform="translate(-747.737 -732.696)" fill="#fff"/>
        <path id="Trazado_19020" data-name="Trazado 19020" d="M831.766,771.957l-9.754,5.276-7.585-4.551a69.215,69.215,0,0,0-2.75,24.753c1.113,13.158,3.242,22.609,12.139,10.379S836.013,776.218,831.766,771.957Z" transform="translate(-747.737 -732.696)" fill="#fff"/>
        <path id="Trazado_19021" data-name="Trazado 19021" d="M818.952,783.262s-5.239,28.363-4.8,28.908c.288-.363,3.477,7.692,5.319,0,1.433-5.987,1.609-28.257,1.838-28.527,0,0,2.736-2.944,4.335-4.4,1.049-.952,2.062-1.925,3.042-2.936.255-.464.5-.929.719-1.429-.143.339-.286.676-.427,1.015a23.84,23.84,0,0,1,2.062-3.308,4.163,4.163,0,0,0-.5-.633l-9.754,5.278-7.585-4.551s-.225.68-.547,1.874c.8,1.111,1.519,2.234,2.142,3.31C815.591,779.247,818.952,783.262,818.952,783.262Z" transform="translate(-746.51 -732.697)" fill="#292c3d"/>
        <path id="Trazado_19022" data-name="Trazado 19022" d="M806.591,798.1l29.933-.564s4.551,7.461,5.57,29c.7,14.746,1.3,18.828,2.767,38.321,1,13.231,5.691,63.948,5.691,63.948H834.644s-6.734-57.874-7.079-61.027c-.12-1.115-4.059-31.714-4.059-31.714s.643,27.716.643,30.94.7,60.165.7,60.165H808.088s-1.883-48.416-2.042-59.5C805.789,849.734,804.256,803.892,806.591,798.1Z" transform="translate(-754.156 -706.046)" fill="#292c3d"/>
        <path id="Trazado_19023" data-name="Trazado 19023" d="M822.739,772.312s-10.534,2.038-14.609,3.389c0,0,1.3,24.331-2.781,30.446l-1.852,53s23.071-.278,23.812-29,.694-30.021.694-30.021Z" transform="translate(-756.049 -732.326)" fill="#4d505e"/>
        <g id="Grupo_7739" data-name="Grupo 7739" transform="translate(66.484 70.209)">
          <path id="Trazado_19024" data-name="Trazado 19024" d="M815.423,788.017a.886.886,0,1,1-.87-.9A.885.885,0,0,1,815.423,788.017Z" transform="translate(-811.954 -787.114)" fill="#292c3d"/>
          <path id="Trazado_19025" data-name="Trazado 19025" d="M815.146,792.277a.886.886,0,1,1-.87-.9A.885.885,0,0,1,815.146,792.277Z" transform="translate(-812.243 -782.674)" fill="#292c3d"/>
          <path id="Trazado_19026" data-name="Trazado 19026" d="M814.869,796.54a.886.886,0,1,1-.87-.9A.885.885,0,0,1,814.869,796.54Z" transform="translate(-812.531 -778.234)" fill="#292c3d"/>
          <path id="Trazado_19027" data-name="Trazado 19027" d="M814.592,800.8a.886.886,0,1,1-.87-.9A.887.887,0,0,1,814.592,800.8Z" transform="translate(-812.82 -773.795)" fill="#292c3d"/>
        </g>
        <path id="Trazado_19028" data-name="Trazado 19028" d="M843.263,778.681l-14.379-6.724-12.075,28.537-2.567,33.337s.3,29.3,25.315,25.684l-2.036-53.766S837.333,786.056,843.263,778.681Z" transform="translate(-744.855 -732.696)" fill="#4d505e"/>
        <path id="Trazado_19029" data-name="Trazado 19029" d="M871.649,787.15l-8.711-6.3s-16.12,25.449-17.047,24.678-8.619-27.547-14.454-30.276c0,0-2.95,2.111-4.633,8.286-1.19,4.368-1.364,11.412-1.109,18.356,0,0,15.191,22.505,20.566,21.762S871.649,787.15,871.649,787.15Z" transform="translate(-733.029 -729.265)" fill="#4d505e"/>
        <path id="Trazado_19030" data-name="Trazado 19030" d="M794.951,776.581l-9.862,3.931S798.583,829.283,806.367,825s18.121-19.477,18.121-19.477a36.123,36.123,0,0,0,4-12.135c1-6.516.382-15.446-1.182-19.42,0,0-6.856,4.174-12.6,15.643s-7.5,14.75-8.012,14.036S794.951,776.581,794.951,776.581Z" transform="translate(-775.228 -730.596)" fill="#4d505e"/>
        <path id="Trazado_19031" data-name="Trazado 19031" d="M812.69,774.031c-.069.251,2.558,9.4,2.558,9.4l5.5-4.12,4.678,4.376,4.943-10.463-.809-1.023-5.895,3.189-2.918,2.624-6.442-4.911-.378-.229Z" transform="translate(-746.473 -732.436)" fill="#abacb3" opacity="0.55" style="mix-blend-mode: multiply;isolation: isolate"/>
        <path id="Trazado_19032" data-name="Trazado 19032" d="M820.933,777.725l-6.783-5.172-1.639,1.522,2.627,9.29,5.8-4.342,5.219,4.881,5.038-10.483-2.531-2.643Z" transform="translate(-746.658 -733.925)" fill="#fff"/>
      </g>
      <g id="Grupo_7741" data-name="Grupo 7741" transform="translate(173.4 82.607)">
        <rect id="Rectángulo_1873" data-name="Rectángulo 1873" width="50.767" height="3.091" transform="translate(4.727 40.412)" fill="#3f6a85"/>
        <rect id="Rectángulo_1874" data-name="Rectángulo 1874" width="58.133" height="41.957" rx="1.484" transform="translate(1.043 0)" fill="#292c3d"/>
        <path id="Trazado_19033" data-name="Trazado 19033" d="M781.61,832.114v-35.9a3.029,3.029,0,0,1,3.03-3.03h-2.683a3.029,3.029,0,0,0-3.03,3.03v35.9a3.03,3.03,0,0,0,3.03,3.03h2.683A3.03,3.03,0,0,1,781.61,832.114Z" transform="translate(-778.927 -793.186)" fill="#5b5d6a"/>
        <path id="Trazado_19034" data-name="Trazado 19034" d="M798.079,804.948a2.917,2.917,0,1,1-2.916-2.916A2.918,2.918,0,0,1,798.079,804.948Z" transform="translate(-765.052 -783.97)" fill="#fff"/>
      </g>
      <g id="Grupo_7742" data-name="Grupo 7742" transform="translate(250.621 84.438)">
        <rect id="Rectángulo_1875" data-name="Rectángulo 1875" width="38.242" height="5.468" transform="translate(10.341 36.206)" fill="#292c3d"/>
        <path id="Trazado_19035" data-name="Trazado 19035" d="M816.746,794.793l12.389,38.425,1.936-.71-12.389-38.425Z" transform="translate(-816.746 -794.082)" fill="#292c3d"/>
      </g>
      <path id="Trazado_19036" data-name="Trazado 19036" d="M859.777,860.814s-10.181,5.017-15.636,7.273c-4.535,1.879-3.6,6.011,1.558,7.541s9.4.523,10.579-1.111,4.057-1.027,5.149-.5,9.693-1.458,10.179-3.451-1.65-10.771-1.65-10.771Z" transform="translate(-540.621 -641.184)" fill="#292c3d"/>
      <path id="Trazado_19037" data-name="Trazado 19037" d="M910.193,813.991l-17.3.227s-42.331,15.792-47.861,19.939,9.086,76.428,9.086,76.428l14.365-1.5s-3.387-64.673-.623-67.438,47.577-6.854,50.4-7.7C921.021,833.111,917.08,823.181,910.193,813.991Z" transform="translate(-537.961 -688.903)" fill="#4d505e"/>
      <path id="Trazado_19038" data-name="Trazado 19038" d="M910.193,813.991l-17.3.227s-42.331,15.792-47.861,19.939,9.086,76.428,9.086,76.428l14.365-1.5s-3.387-64.673-.623-67.438,47.577-6.854,50.4-7.7C921.021,833.111,917.08,823.181,910.193,813.991Z" transform="translate(-537.961 -688.903)" fill="#3d3848"/>
      <g id="Grupo_7744" data-name="Grupo 7744" transform="translate(319.343 84.083)">
        <path id="Trazado_19039" data-name="Trazado 19039" d="M906.182,796.343,888.608,866.6l-7.274-1.82,15.113-70.872Z" transform="translate(-818.178 -793.909)" fill="#afeaf0"/>
        <g id="Grupo_7743" data-name="Grupo 7743" transform="translate(7.809 74.737)">
          <rect id="Rectángulo_1876" data-name="Rectángulo 1876" width="2.911" height="76.682" fill="#afeaf0"/>
          <rect id="Rectángulo_1877" data-name="Rectángulo 1877" width="2.911" height="76.682" transform="translate(53.891)" fill="#afeaf0"/>
        </g>
        <rect id="Rectángulo_1878" data-name="Rectángulo 1878" width="72.422" height="10.034" transform="translate(0 67.675)" fill="#292c3d"/>
      </g>
      <path id="Trazado_19040" data-name="Trazado 19040" d="M879.115,777.9l-9.93,2.12s2.857,12.21,0,18.938c0,0,5.415,2.128,14.538-4.784C883.724,794.178,878.1,789.424,879.115,777.9Z" transform="translate(-511.491 -726.5)" fill="#e76f59"/>
      <path id="Trazado_19041" data-name="Trazado 19041" d="M885.8,772.479s-11.048-4.163-14.009-2.642-6.565,3.763-6.005,6,.98,8.866.261,10.946-1.962,3.522-1.662,4.243,2.042.153,2.522,1.037,3.063,6.709,4.563,7.549,10.066-2.179,14.03-11.485S888.26,774.059,885.8,772.479Z" transform="translate(-516.544 -735.253)" fill="#f9a57e"/>
      <path id="Trazado_19042" data-name="Trazado 19042" d="M855.325,860.838s-13.294,4.639-18.773,6.844c-4.553,1.831-3.653,5.974,1.486,7.553s9.4.617,10.587-1.007,4.067-.988,5.154-.451,9.709-1.364,10.213-3.351-.721-7.812-.721-7.812Z" transform="translate(-548.56 -640.096)" fill="#292c3d"/>
      <path id="Trazado_19043" data-name="Trazado 19043" d="M880.777,770.616s3.781-4.2,8.045-1.742,2.593,6.381,3.484,8.106c2.06,3.994,1.74,7.365-.337,11.026-2.313,4.08-.921,6.726-4.753,7.146s-5-.7-5-.7a14.786,14.786,0,0,0,1.5-6.005s3.281-1.821,2.842-4.664-3.924-3.2-4.843-.28.719,4.923-1.442,6.324c0,0-1.282.361-1.282-2.881a31,31,0,0,1,.6-5.972s-7.759,4.116-13.736,0-1.848-10.593,2.493-12.071A14.269,14.269,0,0,1,880.777,770.616Z" transform="translate(-518.068 -736.713)" fill="#292c3d"/>
      <path id="Trazado_19044" data-name="Trazado 19044" d="M917.059,812.737l-19.322,3.849s-43.906,15.857-49.435,20-6.52,75.3-6.52,75.3l14.413,1.391s6.17-67.636,9.546-69.61c2.91-1.7,50.144-1.7,53.092-1.7C923.088,841.968,926.753,822.519,917.059,812.737Z" transform="translate(-540.042 -690.209)" fill="#4d505e"/>
      <path id="Trazado_19045" data-name="Trazado 19045" d="M850.541,812.289s-2.914.355-3.532.349-8.613-4.851-9.486-4.212-9.109,6.524-8.874,7.7,2.528.5,6.906-3.3c0,0-5.823,4.22-4.721,5.274s6.191-3.692,6.191-3.692-5.244,4.008-4.016,4.933,5.86-3.875,5.86-3.875-3.628,3.6-3.14,4.21,2.769-.4,5.272-2.8c0,0,.455-.253,1.768.5s9.415-.58,9.415-.58Z" transform="translate(-553.73 -694.762)" fill="#f9a57e"/>
      <path id="Trazado_19046" data-name="Trazado 19046" d="M838.355,831.7l2.464,9.262s39.987-9.029,44.03-12.026,28.259-29.217,24.7-36.52-8.159-5.5-11.055-1.358-16.714,21.842-18.689,23.916S838.355,831.7,838.355,831.7Z" transform="translate(-543.613 -716.558)" fill="#0254e4"/>
      <path id="Trazado_19047" data-name="Trazado 19047" d="M853.314,814.4s-3.061.355-3.71.347-9.047-4.849-9.964-4.21-9.568,6.522-9.321,7.7,2.655.5,7.255-3.3c0,0-6.117,4.22-4.96,5.274s6.5-3.694,6.5-3.694-5.507,4.008-4.216,4.933,6.156-3.873,6.156-3.873-3.814,3.6-3.3,4.21,2.908-.4,5.537-2.8c0,0,.478-.255,1.858.5s9.889-.58,9.889-.58Z" transform="translate(-551.991 -692.558)" fill="#f9a57e"/>
      <path id="Trazado_19048" data-name="Trazado 19048" d="M887.623,785.532s-8.953,4.535-14.015,4.249c0,0-8.2,17.223-8.749,21.831s.937,34.67.937,34.67,19.83,4.306,31.52-1.593c0,0-3.151-19.622-1.86-29.392S895.723,792.772,887.623,785.532Z" transform="translate(-516.128 -718.553)" fill="#0254e4"/>
      <path id="Trazado_19049" data-name="Trazado 19049" d="M883.792,811.581c1.981-4.568,9.734-11.926,5.83-17.055-3.138-4.125-5.386-4.408-8.835-.478-3.23,3.683-6.183,7.649-9.854,10.9a62.541,62.541,0,0,1-6.2,4.533c0,9.47,1.06,30.832,1.06,30.832a80.1,80.1,0,0,0,14.132,1.507C875.807,832.831,879.633,821.167,883.792,811.581Z" transform="translate(-516.128 -712.586)" fill="#00a1cc" opacity="0.65" style="mix-blend-mode: multiply;isolation: isolate"/>
      <path id="Trazado_19050" data-name="Trazado 19050" d="M840.514,833.818l2.589,9.262s42-9.029,46.248-12.026,29.682-29.217,25.95-36.518-8.572-5.5-11.612-1.358-17.556,21.842-19.63,23.914S840.514,833.818,840.514,833.818Z" transform="translate(-541.363 -714.355)" fill="#0254e4"/>
      <g id="Grupo_7745" data-name="Grupo 7745" transform="translate(99.581 49.664)">
        <path id="Trazado_19051" data-name="Trazado 19051" d="M742.774,798.8a83.094,83.094,0,0,0,3.692-8.59c.923-2.981,4.755-13.366,6.318-12.433s-1.915,9.664-1.915,9.664,2.822-10.807,4.843-10.381-2.554,10.648-2.554,10.648,3.673-9.584,4.9-8.786.478,2.928-2.769,10.062c0,0,2.769-6.121,4.1-4.845s-2.183,6.975-3.512,8.359-7.667,7.293-9.1,9.691C746.768,802.193,743.042,801.217,742.774,798.8Z" transform="translate(-742.774 -777.052)" fill="#f9a57e"/>
        <path id="Trazado_19052" data-name="Trazado 19052" d="M746.629,785.279s4.631-3.142,6.068-2.183.159,2.183-4.739,4.2c0,0-1.6,2.4-2.714,2.663A3.387,3.387,0,0,1,746.629,785.279Z" transform="translate(-740.665 -770.945)" fill="#ffb089"/>
      </g>
      <path id="Trazado_19053" data-name="Trazado 19053" d="M769.036,786.3s-16.437,27.642-17.288,27.448-24.7-7.4-32.89-13.509c-2.32-1.731-2.316,17.176,0,18.334s37.055,7.334,38.6,6.369,19.179-34.133,19.179-34.133Z" transform="translate(-669.921 -717.748)" fill="#0254e4"/>
      <path id="Trazado_19054" data-name="Trazado 19054" d="M759.975,810.527c-11.857,7.618-39.626-14.358-42.823-15.1-.476,5.176.3,12.878,1.819,13.64,2.318,1.158,37.055,7.334,38.6,6.369.392-.243,1.825-2.575,3.737-5.895A13.364,13.364,0,0,1,759.975,810.527Z" transform="translate(-670.033 -708.241)" fill="#00a1cc" opacity="0.65" style="mix-blend-mode: multiply;isolation: isolate"/>
      <path id="Trazado_19055" data-name="Trazado 19055" d="M725.055,793.815c-1.047-.219-6.07-10.812-8.22-12.874-1.029,7.236-5.4,24.4-5.4,24.4,5.307,5.693,15.892,2.205,15.892,2.205C725.586,803.779,724.753,796.273,725.055,793.815Z" transform="translate(-675.846 -723.336)" fill="#e76f59"/>
      <path id="Trazado_19056" data-name="Trazado 19056" d="M720.119,774.455s10.3,2.317,12.274,5.321,1.966,10.82,3.059,12.884c.66,1.252,1.252,2.26,1.58,2.993.29.645-.439,1.023-1.337,1.339a1.557,1.557,0,0,0-.962,1c-.608,1.891-2.311,6.714-4.012,7.385-2.126.835-12.619.515-15.771-8.627S713.522,772.494,720.119,774.455Z" transform="translate(-673.775 -730.274)" fill="#f9a57e"/>
      <path id="Trazado_19057" data-name="Trazado 19057" d="M741.259,861.327l-6.918-1.143s-.351,6.575-.927,8.079c0,0,7.757,3.712,15.712.776,0,0-5.07-2.185-6.4-3.737A7.63,7.63,0,0,1,741.259,861.327Z" transform="translate(-652.945 -640.777)" fill="#f9a57e"/>
      <path id="Trazado_19058" data-name="Trazado 19058" d="M734.279,862.627A22.223,22.223,0,0,0,747.7,865.7s9.927,5.313,10.569,6.642c.9,1.862-3.453,1.979-10.24,1.756-5.789-.19-5.364-.625-6.526-1.76s-2.609-2.4-2.609-2.4-.533.717-1.131,4.022l-2.587-.372s.3-3.179-.945-4.874C733.348,867.521,732.341,864.748,734.279,862.627Z" transform="translate(-653.201 -638.232)" fill="#292c3d"/>
      <path id="Trazado_19059" data-name="Trazado 19059" d="M728.282,860.64l-5.225-1.427s-3.065,5.113-3.961,6.454c0,0,6.744,5.337,15.151,4.235,0,0-4.461-3.253-5.413-5.06A7.647,7.647,0,0,1,728.282,860.64Z" transform="translate(-667.862 -641.789)" fill="#f9a57e"/>
      <path id="Trazado_19060" data-name="Trazado 19060" d="M720.091,861.783a22.21,22.21,0,0,0,13.078,4.292s9.395,6.207,9.909,7.592c.721,1.936-3.622,1.652-10.358.8-5.746-.723-5.284-1.115-6.334-2.354s-2.379-2.63-2.379-2.63-.6.664-1.5,3.9l-2.542-.611s.594-3.136-.492-4.939C718.713,866.571,717.965,863.717,720.091,861.783Z" transform="translate(-668.275 -639.111)" fill="#292c3d"/>
      <path id="Trazado_19061" data-name="Trazado 19061" d="M716.432,813.158l13.64,9.654s44.249,8.527,49.862,12.739-35.72,78.864-35.72,78.864l-12.87-4.274s30.881-66.1,28.075-68.908-48.308-6.961-51.175-7.82C705.437,832.572,709.441,822.489,716.432,813.158Z" transform="translate(-680.109 -689.771)" fill="#ff4c6b"/>
      <path id="Trazado_19062" data-name="Trazado 19062" d="M716.432,813.158l13.64,9.654s44.249,8.527,49.862,12.739-35.72,78.864-35.72,78.864l-12.87-4.274s30.881-66.1,28.075-68.908-48.308-6.961-51.175-7.82C705.437,832.572,709.441,822.489,716.432,813.158Z" transform="translate(-680.109 -689.771)" fill="#da395b"/>
      <path id="Trazado_19063" data-name="Trazado 19063" d="M713.082,815.3l17.829,1.5s45.7,11.522,51.315,15.732-8.188,78.88-8.188,78.88l-13.966-3.532s7.873-66.152,4.447-68.159C761.566,838,713.6,838,710.613,838,706.291,838,703.24,825.237,713.082,815.3Z" transform="translate(-680.949 -687.534)" fill="#ff4c6b"/>
      <path id="Trazado_19064" data-name="Trazado 19064" d="M717.478,791.136a129.45,129.45,0,0,0,14.14,5.366s8.316,16.421,8.878,21,4.18,29.6,4.18,29.6-25.66,7.385-37.529,1.521c0,0,3.594-17.748,2.283-27.461S709.253,798.336,717.478,791.136Z" transform="translate(-680.312 -712.714)" fill="#0254e4"/>
      <path id="Trazado_19065" data-name="Trazado 19065" d="M713.766,812.588c.029,8.219,5.313,12.241,10.75,17.556a35.495,35.495,0,0,1,8.141,11.757c2.914-.858,5.123-1.274,5.123-1.274s-1.94-13.409-3.2-22.393c-5.454-2.436-8.349-7.653-10.295-13.2-1.127-3.212-1.742-5.286-3.777-7.677-6.036.163-6.4,7.226-6.744,13.825C713.763,811.657,713.766,812.131,713.766,812.588Z" transform="translate(-673.416 -706.234)" fill="#00a1cc" opacity="0.65" style="mix-blend-mode: multiply;isolation: isolate"/>
      <g id="Grupo_7747" data-name="Grupo 7747" transform="translate(0 81.752)">
        <path id="Trazado_19066" data-name="Trazado 19066" d="M694,795.239l17.843,71.336,7.386-1.847-15.346-71.961Z" transform="translate(-694.004 -792.767)" fill="#afeaf0"/>
        <g id="Grupo_7746" data-name="Grupo 7746" transform="translate(23.751 75.885)">
          <rect id="Rectángulo_1879" data-name="Rectángulo 1879" width="2.956" height="77.86" transform="translate(54.719)" fill="#afeaf0"/>
          <rect id="Rectángulo_1880" data-name="Rectángulo 1880" width="2.956" height="77.86" fill="#afeaf0"/>
        </g>
        <rect id="Rectángulo_1881" data-name="Rectángulo 1881" width="73.534" height="10.188" transform="translate(15.822 68.715)" fill="#292c3d"/>
      </g>
      <path id="Trazado_19067" data-name="Trazado 19067" d="M746.812,785.164c3.328-1.3,1.836-6.466-.443-8.055-4.01-2.8-9.221-4.872-14.158-4.772-6.03.122-11.545,4.79-15.044,9.309-2.538,3.279-2.367,6.752-4.2,10.281-1.668,3.212-5.272,4.819-7.434,7.71-2.032,2.718-2.044,6.256-1.25,9.458.621,2.5,1.317,4.766.907,7.332-.51,3.192-3.069,5.54-3.937,8.621-.786,2.783-.437,5.917-.149,8.753a11.912,11.912,0,0,0,5.254,8.917c6.33,4.2,14.893-.89,15.869-7.955.441-3.2-.494-6-.807-9.07-.394-3.9.954-6.132,4.233-8.253,2.767-1.789,4.078-2.955,3.863-6.416a28.614,28.614,0,0,1,.031-7.091c.508-2.675,1.634-3.187-.464-5.15-1.47-1.372-2.705-2.85-1.537-4.925.95-1.685,2.475-2.181,3.792-.6.343.414,2.079,3.9,2.524,1.94.124-.551-.611-1.611-.678-2.222a2.44,2.44,0,0,1,.7-2.217c1.037-1.1,2.571-1.691,3.643-2.8,1.342-1.388,1.513-3.22,3.455-3.984a5.014,5.014,0,0,1,3.1-.133C744.537,783.973,746.5,785.286,746.812,785.164Z" transform="translate(-686.951 -732.304)" fill="#292c3d"/>
      <g id="Grupo_7748" data-name="Grupo 7748" transform="translate(110.444 84.438)">
        <rect id="Rectángulo_1882" data-name="Rectángulo 1882" width="38.242" height="5.468" transform="translate(0 36.206)" fill="#292c3d"/>
        <path id="Trazado_19068" data-name="Trazado 19068" d="M779.2,794.793l-12.39,38.425-1.936-.71,12.389-38.425Z" transform="translate(-730.615 -794.082)" fill="#292c3d"/>
      </g>
      <g id="Grupo_7749" data-name="Grupo 7749" transform="translate(92.958 126.11)">
        <rect id="Rectángulo_1883" data-name="Rectángulo 1883" width="2.545" height="112.424" transform="translate(0 0.001)" fill="#7695a8"/>
        <rect id="Rectángulo_1884" data-name="Rectángulo 1884" width="2.545" height="112.424" transform="translate(252.714 0.001)" fill="#7695a8"/>
        <rect id="Rectángulo_1885" data-name="Rectángulo 1885" width="255.259" height="2.98" fill="#7695a8"/>
      </g>
      <path id="Trazado_19069" data-name="Trazado 19069" d="M746.336,814.345s3.312-.223,4-.357,8.643-6.912,9.742-6.411,11.418,5.043,11.387,6.336-2.72,1.045-8.337-2.079c0,0,7.31,3.279,6.289,4.623s-7.614-2.644-7.614-2.644,6.622,3.173,5.435,4.406-7.285-2.9-7.285-2.9,4.745,3.069,4.323,3.818-3.163.145-6.417-1.885c0,0-.559-.176-1.872.892s-10.6,1.319-10.6,1.319Z" transform="translate(-640.471 -695.613)" fill="#f9a57e"/>
      <path id="Trazado_19070" data-name="Trazado 19070" d="M781.906,826.458l-.09,8.829s-30.94,1.883-39.626-1.013-26.991-26.248-28.557-30.162c-1.883-4.7,5.282-16.139,12.376-5.717s19.945,24.445,20.67,24.88S781.906,826.458,781.906,826.458Z" transform="translate(-673.871 -709.58)" fill="#0254e4"/>
    </g>
  </g>
</svg>
