<svg xmlns="http://www.w3.org/2000/svg" width="498.349" height="420.28" viewBox="0 0 498.349 420.28">
  <g id="Grupo_7499" data-name="Grupo 7499" transform="translate(-332.561 -42.5)">
    <g id="Grupo_7457" data-name="Grupo 7457">
      <path id="Trazado_18497" data-name="Trazado 18497" d="M775.49,387.01c-.73-.05-1.46-.07-2.21-.08H763.3a37.782,37.782,0,0,1-32.89-19.42c-.31-.54-.6-1.1-.87-1.66a37.378,37.378,0,0,1-3.44-22.13v-.01a37.744,37.744,0,0,1,37.2-32h4.47c1.31,0,2.6-.07,3.88-.19a39.106,39.106,0,0,0-3.88-78.02H754.04a15.225,15.225,0,0,1,0-30.45h10.09a10.51,10.51,0,1,0,0-21.02H695.78a16.563,16.563,0,0,1-14.91-9.45,16.2,16.2,0,0,1-1.6-7.05v-.01a16.565,16.565,0,0,1,9.99-15.15,16.322,16.322,0,0,1,6.52-1.35h16.21a10.51,10.51,0,1,0,0-21.02H445.76a8.055,8.055,0,0,0,0,16.11h15.55a12.65,12.65,0,0,1,0,25.3H409.32a8.05,8.05,0,1,0,0,16.1h7.74a11.67,11.67,0,0,1,0,23.34H406.53a29.96,29.96,0,0,0-4.44,59.59,28.3,28.3,0,0,0,4.44.34h3.43c.13,0,.25,0,.38.01a28.292,28.292,0,0,1,11.15,2.41h.01a29.114,29.114,0,0,1,8.82,6.05,28.74,28.74,0,0,1,8.35,17.8c.08.84.12,1.7.12,2.56a28.679,28.679,0,0,1-.23,3.61,26.7,26.7,0,0,1-.97,4.57,27.949,27.949,0,0,1-2.84,6.47,28.4,28.4,0,0,1-3.17,4.36c-.41.46-.83.91-1.26,1.34-.38.38-.78.76-1.18,1.12a28.765,28.765,0,0,1-10.32,5.95,28.294,28.294,0,0,1-4.45,1.06c-.9.14-1.82.24-2.74.29-.55.03-1.11.05-1.67.05q-1.77,0-3.51.09a68.175,68.175,0,0,0,3.51,136.26H772.99a37.926,37.926,0,0,0,2.5-75.77ZM738.88,128a10.51,10.51,0,1,0,10.51,10.51A10.509,10.509,0,0,0,738.88,128ZM386.73,169.41a8.05,8.05,0,1,0,8.05,8.05A8.051,8.051,0,0,0,386.73,169.41Z" fill="#fff" fill-rule="evenodd"/>
    </g>
    <g id="Grupo_7477" data-name="Grupo 7477">
      <g id="Grupo_7461" data-name="Grupo 7461">
        <g id="Grupo_7458" data-name="Grupo 7458">
          <path id="Trazado_18498" data-name="Trazado 18498" d="M344.7,375.177H830.91L829.8,68.211H343.6Z" fill="#f0f2fb"/>
          <path id="Trazado_18499" data-name="Trazado 18499" d="M333.666,363.052H819.874L818.769,56.086H332.561Z" fill="#a1ace6"/>
          <path id="Trazado_18500" data-name="Trazado 18500" d="M345.245,351.439,344.209,67.7H807.191l1.036,283.74Z" fill="#e0e3f6"/>
        </g>
        <g id="Grupo_7459" data-name="Grupo 7459">
          <rect id="Rectángulo_1640" data-name="Rectángulo 1640" width="5.268" height="443.537" transform="translate(354.449 159.002) rotate(-90)" fill="#c8cff0"/>
          <rect id="Rectángulo_1641" data-name="Rectángulo 1641" width="5.268" height="443.537" transform="translate(354.449 265.404) rotate(-90)" fill="#c8cff0"/>
        </g>
        <g id="Grupo_7460" data-name="Grupo 7460">
          <path id="Trazado_18501" data-name="Trazado 18501" d="M495.247,338.39a2.636,2.636,0,0,1-2.637-2.631V83.379a2.634,2.634,0,0,1,5.268,0v252.38A2.631,2.631,0,0,1,495.247,338.39Z" fill="#c8cff0"/>
          <rect id="Rectángulo_1642" data-name="Rectángulo 1642" width="5.268" height="257.642" transform="translate(654.557 80.748)" fill="#c8cff0"/>
        </g>
      </g>
      <rect id="Rectángulo_1643" data-name="Rectángulo 1643" width="47.163" height="46.943" transform="translate(553.565 194.384)" fill="#efc764"/>
      <rect id="Rectángulo_1644" data-name="Rectángulo 1644" width="47.163" height="46.943" transform="translate(531.324 100.091)" fill="#5c69ea"/>
      <rect id="Rectángulo_1645" data-name="Rectángulo 1645" width="47.163" height="46.943" transform="translate(542.031 296.953)" fill="#5c69ea"/>
      <rect id="Rectángulo_1646" data-name="Rectángulo 1646" width="47.163" height="46.943" transform="translate(691.011 293.884)" fill="#fff"/>
      <rect id="Rectángulo_1647" data-name="Rectángulo 1647" width="47.163" height="46.943" transform="translate(676.248 76.866)" fill="#fff"/>
      <rect id="Rectángulo_1648" data-name="Rectángulo 1648" width="47.163" height="46.943" transform="translate(410.04 291.916)" fill="#efc764"/>
      <rect id="Rectángulo_1649" data-name="Rectángulo 1649" width="47.163" height="46.943" transform="translate(696.762 98.326)" fill="#5c69ea"/>
      <rect id="Rectángulo_1650" data-name="Rectángulo 1650" width="47.522" height="47.521" transform="translate(752.451 282.093)" fill="#d84b56"/>
      <rect id="Rectángulo_1651" data-name="Rectángulo 1651" width="47.163" height="46.943" transform="translate(518.296 169.168)" fill="#fbfcfd"/>
      <rect id="Rectángulo_1652" data-name="Rectángulo 1652" width="47.163" height="46.943" transform="translate(373.497 274.158)" fill="#5c69ea"/>
      <g id="Grupo_7462" data-name="Grupo 7462">
        <rect id="Rectángulo_1653" data-name="Rectángulo 1653" width="47.163" height="46.943" transform="translate(751.844 80.015)" fill="#d84b56"/>
        <rect id="Rectángulo_1654" data-name="Rectángulo 1654" width="13.091" height="1.263" transform="translate(757.521 116.623)" fill="#be3148"/>
        <rect id="Rectángulo_1655" data-name="Rectángulo 1655" width="13.091" height="1.263" transform="translate(757.521 106.754)" fill="#be3148"/>
        <rect id="Rectángulo_1656" data-name="Rectángulo 1656" width="17.905" height="12.465" transform="translate(775.426 105.421)" fill="#be3148"/>
        <rect id="Rectángulo_1657" data-name="Rectángulo 1657" width="26.857" height="1.263" transform="translate(757.521 96.885)" fill="#be3148"/>
        <rect id="Rectángulo_1658" data-name="Rectángulo 1658" width="35.81" height="1.263" transform="translate(757.521 87.016)" fill="#be3148"/>
      </g>
      <g id="Grupo_7463" data-name="Grupo 7463">
        <rect id="Rectángulo_1659" data-name="Rectángulo 1659" width="47.163" height="46.943" transform="translate(596.567 274.38)" fill="#d84b56"/>
        <rect id="Rectángulo_1660" data-name="Rectángulo 1660" width="13.091" height="1.263" transform="translate(602.244 310.988)" fill="#be3148"/>
        <rect id="Rectángulo_1661" data-name="Rectángulo 1661" width="13.091" height="1.263" transform="translate(602.244 301.119)" fill="#be3148"/>
        <rect id="Rectángulo_1662" data-name="Rectángulo 1662" width="17.905" height="12.465" transform="translate(620.149 299.786)" fill="#be3148"/>
        <rect id="Rectángulo_1663" data-name="Rectángulo 1663" width="26.858" height="1.263" transform="translate(602.244 291.25)" fill="#be3148"/>
        <rect id="Rectángulo_1664" data-name="Rectángulo 1664" width="35.81" height="1.263" transform="translate(602.244 281.381)" fill="#be3148"/>
      </g>
      <rect id="Rectángulo_1665" data-name="Rectángulo 1665" width="47.163" height="46.943" transform="translate(505.047 74.378)" fill="#efc764"/>
      <g id="Grupo_7464" data-name="Grupo 7464">
        <path id="Trazado_18502" data-name="Trazado 18502" d="M610.168,176.821l-14.48,14.48v32.463h47.163V176.821Z" fill="#fbfcfd"/>
        <path id="Trazado_18503" data-name="Trazado 18503" d="M610.168,191.191v-14.48l-14.48,14.48Z" fill="#c8cff0"/>
      </g>
      <g id="Grupo_7465" data-name="Grupo 7465">
        <path id="Trazado_18504" data-name="Trazado 18504" d="M394.332,96.76l14.48,14.479V143.7H361.648V96.76Z" fill="#d84b56"/>
        <path id="Trazado_18505" data-name="Trazado 18505" d="M394.332,111.13V96.65l14.48,14.48Z" fill="#be3148"/>
      </g>
      <g id="Grupo_7466" data-name="Grupo 7466">
        <path id="Trazado_18506" data-name="Trazado 18506" d="M359.25,216.788l14.48,14.48h32.464V184.1H359.25Z" fill="#efc764"/>
        <path id="Trazado_18507" data-name="Trazado 18507" d="M373.62,216.788H359.14l14.48,14.48Z" fill="#e79c33"/>
      </g>
      <g id="Grupo_7467" data-name="Grupo 7467">
        <path id="Trazado_18508" data-name="Trazado 18508" d="M669.117,312.59l14.48,14.48h32.464V279.907H669.117Z" fill="#efc764"/>
        <path id="Trazado_18509" data-name="Trazado 18509" d="M683.487,312.59h-14.48l14.48,14.48Z" fill="#e79c33"/>
      </g>
      <g id="Grupo_7468" data-name="Grupo 7468">
        <path id="Trazado_18510" data-name="Trazado 18510" d="M468.675,176.767l14.48,14.479V223.71H435.992V176.767Z" fill="#5c69ea"/>
        <path id="Trazado_18511" data-name="Trazado 18511" d="M468.675,191.137v-14.48l14.48,14.48Z" fill="#4252dd"/>
      </g>
      <rect id="Rectángulo_1666" data-name="Rectángulo 1666" width="47.163" height="46.943" transform="translate(403.049 202.601)" fill="#fff"/>
      <rect id="Rectángulo_1667" data-name="Rectángulo 1667" width="47.522" height="47.359" transform="translate(667.25 167.457)" fill="#efc764"/>
      <g id="Grupo_7470" data-name="Grupo 7470">
        <g id="Grupo_7469" data-name="Grupo 7469">
          <rect id="Rectángulo_1668" data-name="Rectángulo 1668" width="47.163" height="46.943" transform="translate(524.126 227.452)" fill="#fff"/>
          <rect id="Rectángulo_1669" data-name="Rectángulo 1669" width="18.631" height="1.263" transform="translate(546.982 264.06)" fill="#c8cff0"/>
          <rect id="Rectángulo_1670" data-name="Rectángulo 1670" width="18.631" height="1.263" transform="translate(546.982 254.191)" fill="#c8cff0"/>
          <path id="Trazado_18512" data-name="Trazado 18512" d="M535.834,252.858a6.033,6.033,0,0,1,6.044,6.03v.4a6.038,6.038,0,0,1-12.075,0v-.4A6.031,6.031,0,0,1,535.834,252.858Z" fill="#c8cff0"/>
          <rect id="Rectángulo_1671" data-name="Rectángulo 1671" width="35.81" height="1.263" transform="translate(529.803 244.322)" fill="#c8cff0"/>
          <rect id="Rectángulo_1672" data-name="Rectángulo 1672" width="35.81" height="1.263" transform="translate(529.803 234.453)" fill="#c8cff0"/>
        </g>
      </g>
      <g id="Grupo_7472" data-name="Grupo 7472">
        <g id="Grupo_7471" data-name="Grupo 7471">
          <path id="Trazado_18513" data-name="Trazado 18513" d="M569.854,125.888l14.48,14.48H616.8V93.2H569.854Z" fill="#fbfcfd"/>
          <path id="Trazado_18514" data-name="Trazado 18514" d="M584.224,125.888h-14.48l14.48,14.48Z" fill="#c8cff0"/>
        </g>
      </g>
      <g id="Grupo_7474" data-name="Grupo 7474">
        <g id="Grupo_7473" data-name="Grupo 7473">
          <rect id="Rectángulo_1673" data-name="Rectángulo 1673" width="47.163" height="46.943" transform="translate(720.344 192.639)" fill="#fbfcfd"/>
          <rect id="Rectángulo_1674" data-name="Rectángulo 1674" width="13.091" height="1.263" transform="translate(761.831 202.974) rotate(180)" fill="#e0e3f6"/>
          <rect id="Rectángulo_1675" data-name="Rectángulo 1675" width="13.091" height="1.263" transform="translate(748.739 212.913)" fill="#e0e3f6"/>
          <rect id="Rectángulo_1676" data-name="Rectángulo 1676" width="17.905" height="12.465" transform="translate(743.926 214.176) rotate(180)" fill="#c8cff0"/>
          <rect id="Rectángulo_1677" data-name="Rectángulo 1677" width="35.81" height="1.263" transform="translate(726.021 222.116)" fill="#e0e3f6"/>
          <rect id="Rectángulo_1678" data-name="Rectángulo 1678" width="27.316" height="1.263" transform="translate(726.021 231.318)" fill="#d84b56"/>
        </g>
      </g>
      <g id="Grupo_7476" data-name="Grupo 7476">
        <g id="Grupo_7475" data-name="Grupo 7475">
          <rect id="Rectángulo_1679" data-name="Rectángulo 1679" width="47.163" height="46.943" transform="translate(422.635 83.926)" fill="#fbfcfd"/>
          <rect id="Rectángulo_1680" data-name="Rectángulo 1680" width="13.091" height="1.263" transform="translate(451.03 118.534)" fill="#e0e3f6"/>
          <rect id="Rectángulo_1681" data-name="Rectángulo 1681" width="13.091" height="1.263" transform="translate(451.03 109.332)" fill="#e0e3f6"/>
          <rect id="Rectángulo_1682" data-name="Rectángulo 1682" width="17.905" height="12.465" transform="translate(446.216 121.797) rotate(180)" fill="#c8cff0"/>
          <rect id="Rectángulo_1683" data-name="Rectángulo 1683" width="35.81" height="1.263" transform="translate(428.311 100.129)" fill="#e0e3f6"/>
          <rect id="Rectángulo_1684" data-name="Rectángulo 1684" width="27.316" height="1.263" transform="translate(455.627 92.19) rotate(180)" fill="#d84b56"/>
        </g>
      </g>
    </g>
    <g id="Grupo_7498" data-name="Grupo 7498">
      <g id="Grupo_7483" data-name="Grupo 7483">
        <g id="Grupo_7481" data-name="Grupo 7481">
          <g id="Grupo_7478" data-name="Grupo 7478">
            <path id="Trazado_18515" data-name="Trazado 18515" d="M627.905,217.652c1.564,1.11,11.2,3.451,22.293,5.877-25.372,32.1-79.084,28.109-109.281.764,12.963-2.24,27.647-4.738,31.495-5.235,7.267-.937,3.3-39.839,3.3-39.839l56.154-5.624S623.941,214.84,627.905,217.652Z" fill="#ff9a78"/>
            <path id="Trazado_18516" data-name="Trazado 18516" d="M573.661,218.441c18.855-.685,37.36-2.908,53.2-9.086.6-12.83,5.005-35.76,5.005-35.76l-56.154,5.624S579.192,213.347,573.661,218.441Z" fill="#c66e5d" opacity="0.4"/>
          </g>
          <g id="Grupo_7479" data-name="Grupo 7479">
            <path id="Trazado_18517" data-name="Trazado 18517" d="M636.339,103.155s-15.912-28.133-50.918-19.743-37.659,39.979-39.781,67.618,5.909,58.27,38.461,57.207C608.507,207.44,650.13,197.918,636.339,103.155Z" fill="#ff9a78"/>
            <path id="Trazado_18518" data-name="Trazado 18518" d="M636.775,135.06s1.525-5.213,9.883-.186c10.6,6.376,2.363,33.17-9.994,31.37S636.775,135.06,636.775,135.06Z" fill="#ff9a78"/>
          </g>
          <g id="Grupo_7480" data-name="Grupo 7480">
            <path id="Trazado_18519" data-name="Trazado 18519" d="M631.337,71.57c-16.366,1.023-26.767,12.3-16.623,12.148-8.072,10.68,13.483,9.877,1.02,13.6-4.379,20.734,11.922,33.885,11.922,33.885l1.191,21.95,5.962.037s-2.065-16.716,5.046-18.958,10.3,6.035,10.3,6.035C660.935,120.009,662.027,69.652,631.337,71.57Z" fill="#352c38"/>
            <path id="Trazado_18520" data-name="Trazado 18520" d="M627.656,131.205s3.681,50.335-9.745,54.172-1.918-15.985-19.821-15.345-44.116-2.558-42.2,12.148-3.836,9.59-7.672-2.558c0,0-7.673,28.772,23.017,33.887s68.961-1.074,63.572-60.317.365-31.113.365-31.113Z" fill="#352c38"/>
            <path id="Trazado_18521" data-name="Trazado 18521" d="M620.468,97.784s-34.526,17.263-48.592,13.426-3.836-13.426-3.836-13.426S554.614,111.21,539.908,99.7s16.624-23.657,16.624-23.657-19.821,7.033-23.657,0,30.05-5.754,30.05-5.754-20.459-5.115-17.9-15.345,39.641,8.312,39.641,8.312-30.05-10.23-15.345-18.542,60.74,7.673,60.74,32.608S620.468,97.784,620.468,97.784Z" fill="#352c38"/>
          </g>
        </g>
        <g id="Grupo_7482" data-name="Grupo 7482">
          <path id="Trazado_18522" data-name="Trazado 18522" d="M583.182,128.133s15.071-10.638,28.317,3.928" fill="none" stroke="#352c38" stroke-miterlimit="10" stroke-width="5.428"/>
          <path id="Trazado_18523" data-name="Trazado 18523" d="M548.793,129.7s9.03-13.253,21.5-1.487" fill="none" stroke="#352c38" stroke-miterlimit="10" stroke-width="4.711"/>
          <path id="Trazado_18524" data-name="Trazado 18524" d="M569.958,131.031,565.67,168.6l9.4,3.349" fill="none" stroke="#b76656" stroke-miterlimit="10" stroke-width="2.685"/>
          <path id="Trazado_18525" data-name="Trazado 18525" d="M639.225,160.736s6.679-5.5.668-8.482c0,0-2-15.36,3.339-13.984a6.105,6.105,0,0,1,4.676,6.648" fill="none" stroke="#b76656" stroke-miterlimit="10" stroke-width="1.918"/>
          <path id="Trazado_18526" data-name="Trazado 18526" d="M562.668,179.279l40.751-3.763S585.493,198.05,562.668,179.279Z" fill="#fff"/>
        </g>
      </g>
      <g id="Grupo_7485" data-name="Grupo 7485">
        <g id="Grupo_7484" data-name="Grupo 7484">
          <path id="Trazado_18527" data-name="Trazado 18527" d="M554.41,462.78H516.7c1.39-14.91,2.7-28.03,3.84-38.99q.54-5.295,1.04-9.89c.12-1.12.23-2.21.35-3.26,1.61-15.1,2.63-23.58,2.63-23.58s125.31-82.59,136.67,1.17c.83,6.14,1.46,15.35,1.9,26.97.01.15.01.29.02.44.11,2.88.2,5.91.29,9.07q.15,5.49.27,11.52.045,2.97.1,6.08v.02c.09,6.45.15,13.29.19,20.45H554.41Z" fill="#6f96bd"/>
        </g>
      </g>
      <g id="Grupo_7497" data-name="Grupo 7497">
        <g id="Grupo_7489" data-name="Grupo 7489">
          <path id="Trazado_18528" data-name="Trazado 18528" d="M505.333,229.147s-13.7-1.253-18.013,29.437-10.549,108.372-10.549,108.372l35.163,15.181S530,321.881,531.916,314.688,505.333,229.147,505.333,229.147Z" fill="#e8cbb3"/>
          <path id="Trazado_18529" data-name="Trazado 18529" d="M554.41,462.78a143.335,143.335,0,0,1-26.64-35.51,124.555,124.555,0,0,1-6.19-13.37c-.78-2-1.14-3.13-1.14-3.13s.52-.05,1.49-.13c12.05-1.05,93.73-7.77,127.89-.55,6.31,1.33,11,3.14,13.33,5.55a5.18,5.18,0,0,1,1.61,4.27,16.614,16.614,0,0,1-1.32,4.8c-1.72,4.07-4.96,8.36-9.12,12.64l-.01.01c-.7.73-1.42,1.45-2.18,2.18-8.79,8.47-20.7,16.77-30.94,23.24H596.02l-7.13-23.39-4.47-14.67L575.93,438l-15.85,24.78Z" fill="#fddec0"/>
          <g id="Grupo_7486" data-name="Grupo 7486">
            <path id="Trazado_18530" data-name="Trazado 18530" d="M516.405,399.517c-3.882-49.859-11.072-170.37-11.072-170.37l46.881-8.912c10.682,11.75,18.09,18.734,34.286,20.429,20.083,2.1,41.7-5.858,50.705-21.232a294.925,294.925,0,0,1,31.293,8.8c10.127,3.193,7.433,194.711-3.6,207.022s-144.586,4.929-152.4-19.717C511.393,412.4,517.2,409.7,516.405,399.517Z" fill="#5d8584"/>
            <path id="Trazado_18531" data-name="Trazado 18531" d="M516.405,399.517c-.78-10.019-1.694-22.893-2.656-37.067,3.551-.927,7.095-1.934,10.621-3.081,61.891-20.142,114.117-69.252,135.469-133.932,2.974.937,5.511,1.8,8.659,2.8,10.127,3.193,7.433,194.711-3.6,207.022s-144.586,4.929-152.4-19.717C511.393,412.4,517.2,409.7,516.405,399.517Z" fill="#252028" opacity="0.2"/>
          </g>
          <g id="Grupo_7488" data-name="Grupo 7488">
            <path id="Trazado_18532" data-name="Trazado 18532" d="M545.328,220.83l27.25,38.928,7.786-19.764,5.672.85-4.175-11.63-28.448-20.063Z" fill="#fddec0"/>
            <path id="Trazado_18533" data-name="Trazado 18533" d="M593.539,241.193l4.192-11.379,38.928-22.758,6.887,12.876L603.72,262.753l-2.995-21.86Z" fill="#fddec0"/>
            <g id="Grupo_7487" data-name="Grupo 7487">
              <path id="Trazado_18534" data-name="Trazado 18534" d="M581.743,229.131l-1.379,10.863,5.672.85-4.175-11.63Z" fill="#e8cbb3"/>
              <path id="Trazado_18535" data-name="Trazado 18535" d="M593.539,241.193l7.187-.3-3.036-10.968Z" fill="#e8cbb3"/>
            </g>
          </g>
        </g>
        <g id="Grupo_7493" data-name="Grupo 7493">
          <g id="Grupo_7490" data-name="Grupo 7490">
            <path id="Trazado_18536" data-name="Trazado 18536" d="M466.58,279.455s6.853-22.345-25.486-48.291l-4.9,13.176Z" fill="#fff"/>
            <path id="Trazado_18537" data-name="Trazado 18537" d="M464.962,274.762S457.754,247.1,434.8,236.546l-6.224,8.424Z" fill="#fdedee"/>
            <path id="Trazado_18538" data-name="Trazado 18538" d="M464.506,278.633s-6.357-23.256,39.218-43.976l4.881,13.847Z" fill="#fff"/>
            <path id="Trazado_18539" data-name="Trazado 18539" d="M518.965,243.838l-4.971-7.78s-44.856,14.341-49.032,38.7Z" fill="#fdedee"/>
            <path id="Trazado_18540" data-name="Trazado 18540" d="M429.385,241.86l34.1,25.437,55.2-28.494,26.6,60.992-49.788,25.5-8.1-2.162-23.01,6.619Z" fill="#765e69"/>
            <path id="Trazado_18541" data-name="Trazado 18541" d="M429.385,241.86l34.1,25.437,32.019,58-8.1-2.162-19.621,5.2Z" fill="#433947" opacity="0.6"/>
            <path id="Trazado_18542" data-name="Trazado 18542" d="M460.9,265.384l5.726.452,28.877,59.46-7.31-.223Z" fill="#8e687b"/>
          </g>
          <g id="Grupo_7492" data-name="Grupo 7492">
            <path id="Trazado_18543" data-name="Trazado 18543" d="M430.4,255.375c-1.724,3.046,33.965,123.641,45.107,134.814s26.65,5.363,31.228-7.075-58.258-118.776-58.258-118.776,35.485-26.853-3.2-4.709c0,0,39.641-30.776-4.123-2.971,0,0,39.928-39.313-3.667-3.369C437.492,253.289,462.865,207.754,430.4,255.375Z" fill="#ff9a78"/>
            <g id="Grupo_7491" data-name="Grupo 7491">
              <path id="Trazado_18544" data-name="Trazado 18544" d="M475.8,302.944c15.825,26.408,38.91,73.3,36.139,79.193-6.011,12.781-25.078,19.23-38.23,8.291-6.474-5.385-24.22-50.55-31.938-75.26C453.279,311.536,464.636,307.492,475.8,302.944Z" fill="#fddec0"/>
              <path id="Trazado_18545" data-name="Trazado 18545" d="M442.984,327.407s31.025-7.809,38.2-15.829l-8.653-17.517-36.512,12.663Z" fill="#fff0de"/>
            </g>
          </g>
        </g>
        <g id="Grupo_7496" data-name="Grupo 7496">
          <g id="Grupo_7494" data-name="Grupo 7494">
            <path id="Trazado_18546" data-name="Trazado 18546" d="M729.871,355.176l-5.073,2.473-55.576,65.29s-10.006-13.928-13.926-14.488-56.107,24.751-1.415,7.521c0,0-38.573,16.884.073,6.681,0,0-46.743,14.6,2.1,4.938,0,0-31.926,20.108,5.884,7.356,0,0,1.471,14.711,10.31,14.108,13.773-.939,93.334-57.45,90.107-69.511S729.871,355.176,729.871,355.176Z" fill="#ff9a78"/>
            <path id="Trazado_18547" data-name="Trazado 18547" d="M686.357,402.809l38.441-45.16,5.073-2.473s29.253,12.307,32.48,24.368c2.033,7.6-28.786,33.036-55.321,50.931A176.446,176.446,0,0,1,686.357,402.809Z" fill="#ba7b75" opacity="0.5"/>
          </g>
          <g id="Grupo_7495" data-name="Grupo 7495">
            <path id="Trazado_18548" data-name="Trazado 18548" d="M723.736,333.075s58.55,15.315,54.181,26.145c-16.789,41.623-60.036,65.758-60.036,65.758l-24.238-30.867,31.06-40.078Z" fill="#fddec0"/>
            <path id="Trazado_18549" data-name="Trazado 18549" d="M688.241,388.055l29.411,40.919,23.017-14.066-37.083-40.919Z" fill="#fff0de"/>
            <path id="Trazado_18550" data-name="Trazado 18550" d="M717.164,251.971c-15.454-20.424-33.292-25.607-46.843-26.574-5.845.952-13.431,3.948-15.743,12.9-3.589,13.908,2.709,31.12,19.949,54.225,5.441,5.2,63.79,88.19,70.975,98.511,22.644-8.562,19.872-17.761,32.415-31.818C767,313.774,720.045,255.778,717.164,251.971Z" fill="#fddec0"/>
          </g>
        </g>
      </g>
      <path id="Trazado_18551" data-name="Trazado 18551" d="M598.989,144.929c-.261,3.723-1.64,6.659-3.081,6.559s-2.4-3.2-2.138-6.924,1.64-6.659,3.081-6.558S599.249,141.206,598.989,144.929Z" fill="#352c38"/>
      <path id="Trazado_18552" data-name="Trazado 18552" d="M559.443,141.726c-.26,3.723-1.639,6.659-3.08,6.559s-2.4-3.2-2.138-6.924,1.64-6.659,3.081-6.558S559.7,138,559.443,141.726Z" fill="#352c38"/>
    </g>
  </g>
</svg>
